<?xml version="1.0" encoding="ISO-8859-1"?>
<!DOCTYPE MIDIFile PUBLIC
  "-//Recordare//DTD MusicXML 0.9 MIDI//EN"
  "http://www.musicxml.org/dtds/midixml.dtd">
<MIDIFile>
  <Format>1</Format>
  <TrackCount>4</TrackCount>
  <TicksPerBeat>384</TicksPerBeat>
  <TimestampType>Delta</TimestampType>
  <Track Number="0">
    <Event>
      <Delta>0</Delta>
      <TimeSignature Numerator="4" LogDenominator="2" MIDIClocksPerMetronomeClick="24" ThirtySecondsPer24Clocks="8"/>
    </Event>
    <Event>
      <Delta>0</Delta>
      <SetTempo Value="243902"/>
    </Event>
    <Event>
      <Delta>0</Delta>
      <EndOfTrack/>
    </Event>
  </Track>
  <Track Number="1">
    <Event>
      <Delta>0</Delta>
      <TrackName>Electric Piano (Classic)</TrackName>
    </Event>
    <Event>
      <Delta>0</Delta>
      <ProgramChange Channel="1" Number="0"/>
    </Event>
    <Event>
      <Delta>0</Delta>
      <NoteOn Channel="1" Note="44" Velocity="50"/>
    </Event>
    <Event>
      <Delta>0</Delta>
      <NoteOn Channel="1" Note="60" Velocity="50"/>
    </Event>
    <Event>
      <Delta>0</Delta>
      <NoteOn Channel="1" Note="60" Velocity="50"/>
    </Event>
    <Event>
      <Delta>0</Delta>
      <NoteOn Channel="1" Note="48" Velocity="50"/>
    </Event>
    <Event>
      <Delta>960</Delta>
      <NoteOff Channel="1" Note="60" Velocity="0"/>
    </Event>
    <Event>
      <Delta>0</Delta>
      <NoteOff Channel="1" Note="48" Velocity="0"/>
    </Event>
    <Event>
      <Delta>0</Delta>
      <NoteOff Channel="1" Note="44" Velocity="0"/>
    </Event>
    <Event>
      <Delta>0</Delta>
      <NoteOff Channel="1" Note="60" Velocity="0"/>
    </Event>
    <Event>
      <Delta>192</Delta>
      <NoteOn Channel="1" Note="61" Velocity="50"/>
    </Event>
    <Event>
      <Delta>0</Delta>
      <NoteOn Channel="1" Note="49" Velocity="50"/>
    </Event>
    <Event>
      <Delta>0</Delta>
      <NoteOn Channel="1" Note="61" Velocity="50"/>
    </Event>
    <Event>
      <Delta>0</Delta>
      <NoteOn Channel="1" Note="44" Velocity="50"/>
    </Event>
    <Event>
      <Delta>288</Delta>
      <NoteOff Channel="1" Note="44" Velocity="0"/>
    </Event>
    <Event>
      <Delta>0</Delta>
      <NoteOff Channel="1" Note="61" Velocity="0"/>
    </Event>
    <Event>
      <Delta>0</Delta>
      <NoteOff Channel="1" Note="49" Velocity="0"/>
    </Event>
    <Event>
      <Delta>0</Delta>
      <NoteOff Channel="1" Note="61" Velocity="0"/>
    </Event>
    <Event>
      <Delta>96</Delta>
      <NoteOn Channel="1" Note="63" Velocity="50"/>
    </Event>
    <Event>
      <Delta>0</Delta>
      <NoteOn Channel="1" Note="63" Velocity="50"/>
    </Event>
    <Event>
      <Delta>0</Delta>
      <NoteOn Channel="1" Note="48" Velocity="50"/>
    </Event>
    <Event>
      <Delta>0</Delta>
      <NoteOn Channel="1" Note="56" Velocity="50"/>
    </Event>
    <Event>
      <Delta>0</Delta>
      <NoteOn Channel="1" Note="60" Velocity="50"/>
    </Event>
    <Event>
      <Delta>576</Delta>
      <NoteOff Channel="1" Note="63" Velocity="0"/>
    </Event>
    <Event>
      <Delta>0</Delta>
      <NoteOff Channel="1" Note="60" Velocity="0"/>
    </Event>
    <Event>
      <Delta>0</Delta>
      <NoteOff Channel="1" Note="63" Velocity="0"/>
    </Event>
    <Event>
      <Delta>192</Delta>
      <NoteOff Channel="1" Note="48" Velocity="0"/>
    </Event>
    <Event>
      <Delta>0</Delta>
      <NoteOff Channel="1" Note="56" Velocity="0"/>
    </Event>
    <Event>
      <Delta>0</Delta>
      <NoteOn Channel="1" Note="63" Velocity="50"/>
    </Event>
    <Event>
      <Delta>0</Delta>
      <NoteOn Channel="1" Note="51" Velocity="50"/>
    </Event>
    <Event>
      <Delta>0</Delta>
      <NoteOn Channel="1" Note="63" Velocity="50"/>
    </Event>
    <Event>
      <Delta>0</Delta>
      <NoteOn Channel="1" Note="48" Velocity="50"/>
    </Event>
    <Event>
      <Delta>0</Delta>
      <NoteOn Channel="1" Note="60" Velocity="50"/>
    </Event>
    <Event>
      <Delta>576</Delta>
      <NoteOff Channel="1" Note="63" Velocity="0"/>
    </Event>
    <Event>
      <Delta>0</Delta>
      <NoteOff Channel="1" Note="60" Velocity="0"/>
    </Event>
    <Event>
      <Delta>0</Delta>
      <NoteOff Channel="1" Note="63" Velocity="0"/>
    </Event>
    <Event>
      <Delta>192</Delta>
      <NoteOff Channel="1" Note="48" Velocity="0"/>
    </Event>
    <Event>
      <Delta>0</Delta>
      <NoteOff Channel="1" Note="51" Velocity="0"/>
    </Event>
    <Event>
      <Delta>0</Delta>
      <NoteOn Channel="1" Note="60" Velocity="50"/>
    </Event>
    <Event>
      <Delta>0</Delta>
      <NoteOn Channel="1" Note="63" Velocity="50"/>
    </Event>
    <Event>
      <Delta>0</Delta>
      <NoteOn Channel="1" Note="48" Velocity="50"/>
    </Event>
    <Event>
      <Delta>0</Delta>
      <NoteOn Channel="1" Note="63" Velocity="50"/>
    </Event>
    <Event>
      <Delta>0</Delta>
      <NoteOn Channel="1" Note="56" Velocity="50"/>
    </Event>
    <Event>
      <Delta>576</Delta>
      <NoteOff Channel="1" Note="60" Velocity="0"/>
    </Event>
    <Event>
      <Delta>0</Delta>
      <NoteOff Channel="1" Note="63" Velocity="0"/>
    </Event>
    <Event>
      <Delta>0</Delta>
      <NoteOff Channel="1" Note="63" Velocity="0"/>
    </Event>
    <Event>
      <Delta>192</Delta>
      <NoteOff Channel="1" Note="48" Velocity="0"/>
    </Event>
    <Event>
      <Delta>0</Delta>
      <NoteOff Channel="1" Note="56" Velocity="0"/>
    </Event>
    <Event>
      <Delta>0</Delta>
      <NoteOn Channel="1" Note="68" Velocity="50"/>
    </Event>
    <Event>
      <Delta>0</Delta>
      <NoteOn Channel="1" Note="56" Velocity="50"/>
    </Event>
    <Event>
      <Delta>0</Delta>
      <NoteOn Channel="1" Note="60" Velocity="50"/>
    </Event>
    <Event>
      <Delta>0</Delta>
      <NoteOn Channel="1" Note="68" Velocity="50"/>
    </Event>
    <Event>
      <Delta>0</Delta>
      <NoteOn Channel="1" Note="51" Velocity="50"/>
    </Event>
    <Event>
      <Delta>576</Delta>
      <NoteOff Channel="1" Note="60" Velocity="0"/>
    </Event>
    <Event>
      <Delta>0</Delta>
      <NoteOff Channel="1" Note="68" Velocity="0"/>
    </Event>
    <Event>
      <Delta>0</Delta>
      <NoteOff Channel="1" Note="68" Velocity="0"/>
    </Event>
    <Event>
      <Delta>192</Delta>
      <NoteOff Channel="1" Note="56" Velocity="0"/>
    </Event>
    <Event>
      <Delta>0</Delta>
      <NoteOff Channel="1" Note="51" Velocity="0"/>
    </Event>
    <Event>
      <Delta>0</Delta>
      <NoteOn Channel="1" Note="68" Velocity="50"/>
    </Event>
    <Event>
      <Delta>0</Delta>
      <NoteOn Channel="1" Note="60" Velocity="50"/>
    </Event>
    <Event>
      <Delta>0</Delta>
      <NoteOn Channel="1" Note="56" Velocity="50"/>
    </Event>
    <Event>
      <Delta>0</Delta>
      <NoteOn Channel="1" Note="68" Velocity="50"/>
    </Event>
    <Event>
      <Delta>0</Delta>
      <NoteOn Channel="1" Note="51" Velocity="50"/>
    </Event>
    <Event>
      <Delta>576</Delta>
      <NoteOff Channel="1" Note="68" Velocity="0"/>
    </Event>
    <Event>
      <Delta>0</Delta>
      <NoteOff Channel="1" Note="68" Velocity="0"/>
    </Event>
    <Event>
      <Delta>0</Delta>
      <NoteOff Channel="1" Note="60" Velocity="0"/>
    </Event>
    <Event>
      <Delta>192</Delta>
      <NoteOff Channel="1" Note="51" Velocity="0"/>
    </Event>
    <Event>
      <Delta>0</Delta>
      <NoteOff Channel="1" Note="56" Velocity="0"/>
    </Event>
    <Event>
      <Delta>0</Delta>
      <NoteOn Channel="1" Note="60" Velocity="50"/>
    </Event>
    <Event>
      <Delta>0</Delta>
      <NoteOn Channel="1" Note="56" Velocity="50"/>
    </Event>
    <Event>
      <Delta>0</Delta>
      <NoteOn Channel="1" Note="63" Velocity="50"/>
    </Event>
    <Event>
      <Delta>0</Delta>
      <NoteOn Channel="1" Note="72" Velocity="50"/>
    </Event>
    <Event>
      <Delta>0</Delta>
      <NoteOn Channel="1" Note="72" Velocity="50"/>
    </Event>
    <Event>
      <Delta>576</Delta>
      <NoteOff Channel="1" Note="72" Velocity="0"/>
    </Event>
    <Event>
      <Delta>0</Delta>
      <NoteOff Channel="1" Note="63" Velocity="0"/>
    </Event>
    <Event>
      <Delta>0</Delta>
      <NoteOff Channel="1" Note="72" Velocity="0"/>
    </Event>
    <Event>
      <Delta>192</Delta>
      <NoteOff Channel="1" Note="60" Velocity="0"/>
    </Event>
    <Event>
      <Delta>0</Delta>
      <NoteOff Channel="1" Note="56" Velocity="0"/>
    </Event>
    <Event>
      <Delta>0</Delta>
      <NoteOn Channel="1" Note="72" Velocity="50"/>
    </Event>
    <Event>
      <Delta>0</Delta>
      <NoteOn Channel="1" Note="56" Velocity="50"/>
    </Event>
    <Event>
      <Delta>0</Delta>
      <NoteOn Channel="1" Note="72" Velocity="50"/>
    </Event>
    <Event>
      <Delta>0</Delta>
      <NoteOn Channel="1" Note="63" Velocity="50"/>
    </Event>
    <Event>
      <Delta>0</Delta>
      <NoteOn Channel="1" Note="60" Velocity="50"/>
    </Event>
    <Event>
      <Delta>960</Delta>
      <NoteOff Channel="1" Note="60" Velocity="0"/>
    </Event>
    <Event>
      <Delta>0</Delta>
      <NoteOff Channel="1" Note="56" Velocity="0"/>
    </Event>
    <Event>
      <Delta>0</Delta>
      <NoteOff Channel="1" Note="72" Velocity="0"/>
    </Event>
    <Event>
      <Delta>0</Delta>
      <NoteOff Channel="1" Note="72" Velocity="0"/>
    </Event>
    <Event>
      <Delta>0</Delta>
      <NoteOff Channel="1" Note="63" Velocity="0"/>
    </Event>
    <Event>
      <Delta>192</Delta>
      <NoteOn Channel="1" Note="61" Velocity="50"/>
    </Event>
    <Event>
      <Delta>0</Delta>
      <NoteOn Channel="1" Note="55" Velocity="50"/>
    </Event>
    <Event>
      <Delta>0</Delta>
      <NoteOn Channel="1" Note="70" Velocity="50"/>
    </Event>
    <Event>
      <Delta>0</Delta>
      <NoteOn Channel="1" Note="70" Velocity="50"/>
    </Event>
    <Event>
      <Delta>0</Delta>
      <NoteOn Channel="1" Note="58" Velocity="50"/>
    </Event>
    <Event>
      <Delta>288</Delta>
      <NoteOff Channel="1" Note="61" Velocity="0"/>
    </Event>
    <Event>
      <Delta>0</Delta>
      <NoteOff Channel="1" Note="58" Velocity="0"/>
    </Event>
    <Event>
      <Delta>0</Delta>
      <NoteOff Channel="1" Note="70" Velocity="0"/>
    </Event>
    <Event>
      <Delta>0</Delta>
      <NoteOff Channel="1" Note="70" Velocity="0"/>
    </Event>
    <Event>
      <Delta>0</Delta>
      <NoteOff Channel="1" Note="55" Velocity="0"/>
    </Event>
    <Event>
      <Delta>96</Delta>
      <NoteOn Channel="1" Note="51" Velocity="50"/>
    </Event>
    <Event>
      <Delta>0</Delta>
      <NoteOn Channel="1" Note="68" Velocity="50"/>
    </Event>
    <Event>
      <Delta>0</Delta>
      <NoteOn Channel="1" Note="56" Velocity="50"/>
    </Event>
    <Event>
      <Delta>0</Delta>
      <NoteOn Channel="1" Note="68" Velocity="50"/>
    </Event>
    <Event>
      <Delta>0</Delta>
      <NoteOn Channel="1" Note="60" Velocity="50"/>
    </Event>
    <Event>
      <Delta>576</Delta>
      <NoteOff Channel="1" Note="68" Velocity="0"/>
    </Event>
    <Event>
      <Delta>0</Delta>
      <NoteOff Channel="1" Note="60" Velocity="0"/>
    </Event>
    <Event>
      <Delta>0</Delta>
      <NoteOff Channel="1" Note="68" Velocity="0"/>
    </Event>
    <Event>
      <Delta>192</Delta>
      <NoteOff Channel="1" Note="51" Velocity="0"/>
    </Event>
    <Event>
      <Delta>0</Delta>
      <NoteOff Channel="1" Note="56" Velocity="0"/>
    </Event>
    <Event>
      <Delta>2304</Delta>
      <NoteOn Channel="1" Note="51" Velocity="50"/>
    </Event>
    <Event>
      <Delta>0</Delta>
      <NoteOn Channel="1" Note="63" Velocity="50"/>
    </Event>
    <Event>
      <Delta>0</Delta>
      <NoteOn Channel="1" Note="67" Velocity="50"/>
    </Event>
    <Event>
      <Delta>0</Delta>
      <NoteOn Channel="1" Note="67" Velocity="50"/>
    </Event>
    <Event>
      <Delta>0</Delta>
      <NoteOn Channel="1" Note="58" Velocity="50"/>
    </Event>
    <Event>
      <Delta>576</Delta>
      <NoteOff Channel="1" Note="63" Velocity="0"/>
    </Event>
    <Event>
      <Delta>0</Delta>
      <NoteOff Channel="1" Note="67" Velocity="0"/>
    </Event>
    <Event>
      <Delta>0</Delta>
      <NoteOff Channel="1" Note="67" Velocity="0"/>
    </Event>
    <Event>
      <Delta>192</Delta>
      <NoteOff Channel="1" Note="51" Velocity="0"/>
    </Event>
    <Event>
      <Delta>0</Delta>
      <NoteOff Channel="1" Note="58" Velocity="0"/>
    </Event>
    <Event>
      <Delta>0</Delta>
      <NoteOn Channel="1" Note="68" Velocity="50"/>
    </Event>
    <Event>
      <Delta>0</Delta>
      <NoteOn Channel="1" Note="60" Velocity="50"/>
    </Event>
    <Event>
      <Delta>0</Delta>
      <NoteOn Channel="1" Note="68" Velocity="50"/>
    </Event>
    <Event>
      <Delta>0</Delta>
      <NoteOn Channel="1" Note="63" Velocity="50"/>
    </Event>
    <Event>
      <Delta>0</Delta>
      <NoteOn Channel="1" Note="51" Velocity="50"/>
    </Event>
    <Event>
      <Delta>576</Delta>
      <NoteOff Channel="1" Note="68" Velocity="0"/>
    </Event>
    <Event>
      <Delta>0</Delta>
      <NoteOff Channel="1" Note="68" Velocity="0"/>
    </Event>
    <Event>
      <Delta>0</Delta>
      <NoteOff Channel="1" Note="63" Velocity="0"/>
    </Event>
    <Event>
      <Delta>192</Delta>
      <NoteOff Channel="1" Note="60" Velocity="0"/>
    </Event>
    <Event>
      <Delta>0</Delta>
      <NoteOff Channel="1" Note="51" Velocity="0"/>
    </Event>
    <Event>
      <Delta>0</Delta>
      <NoteOn Channel="1" Note="70" Velocity="50"/>
    </Event>
    <Event>
      <Delta>0</Delta>
      <NoteOn Channel="1" Note="61" Velocity="50"/>
    </Event>
    <Event>
      <Delta>0</Delta>
      <NoteOn Channel="1" Note="58" Velocity="50"/>
    </Event>
    <Event>
      <Delta>0</Delta>
      <NoteOn Channel="1" Note="70" Velocity="50"/>
    </Event>
    <Event>
      <Delta>0</Delta>
      <NoteOn Channel="1" Note="55" Velocity="50"/>
    </Event>
    <Event>
      <Delta>576</Delta>
      <NoteOff Channel="1" Note="70" Velocity="0"/>
    </Event>
    <Event>
      <Delta>0</Delta>
      <NoteOff Channel="1" Note="70" Velocity="0"/>
    </Event>
    <Event>
      <Delta>0</Delta>
      <NoteOff Channel="1" Note="61" Velocity="0"/>
    </Event>
    <Event>
      <Delta>192</Delta>
      <NoteOff Channel="1" Note="58" Velocity="0"/>
    </Event>
    <Event>
      <Delta>0</Delta>
      <NoteOff Channel="1" Note="55" Velocity="0"/>
    </Event>
    <Event>
      <Delta>2304</Delta>
      <NoteOn Channel="1" Note="72" Velocity="50"/>
    </Event>
    <Event>
      <Delta>0</Delta>
      <NoteOn Channel="1" Note="63" Velocity="50"/>
    </Event>
    <Event>
      <Delta>0</Delta>
      <NoteOn Channel="1" Note="56" Velocity="50"/>
    </Event>
    <Event>
      <Delta>0</Delta>
      <NoteOn Channel="1" Note="60" Velocity="50"/>
    </Event>
    <Event>
      <Delta>0</Delta>
      <NoteOn Channel="1" Note="72" Velocity="50"/>
    </Event>
    <Event>
      <Delta>960</Delta>
      <NoteOff Channel="1" Note="63" Velocity="0"/>
    </Event>
    <Event>
      <Delta>0</Delta>
      <NoteOff Channel="1" Note="72" Velocity="0"/>
    </Event>
    <Event>
      <Delta>0</Delta>
      <NoteOff Channel="1" Note="56" Velocity="0"/>
    </Event>
    <Event>
      <Delta>0</Delta>
      <NoteOff Channel="1" Note="60" Velocity="0"/>
    </Event>
    <Event>
      <Delta>0</Delta>
      <NoteOff Channel="1" Note="72" Velocity="0"/>
    </Event>
    <Event>
      <Delta>192</Delta>
      <NoteOn Channel="1" Note="58" Velocity="50"/>
    </Event>
    <Event>
      <Delta>0</Delta>
      <NoteOn Channel="1" Note="70" Velocity="50"/>
    </Event>
    <Event>
      <Delta>0</Delta>
      <NoteOn Channel="1" Note="70" Velocity="50"/>
    </Event>
    <Event>
      <Delta>0</Delta>
      <NoteOn Channel="1" Note="61" Velocity="50"/>
    </Event>
    <Event>
      <Delta>0</Delta>
      <NoteOn Channel="1" Note="55" Velocity="50"/>
    </Event>
    <Event>
      <Delta>288</Delta>
      <NoteOff Channel="1" Note="58" Velocity="0"/>
    </Event>
    <Event>
      <Delta>0</Delta>
      <NoteOff Channel="1" Note="70" Velocity="0"/>
    </Event>
    <Event>
      <Delta>0</Delta>
      <NoteOff Channel="1" Note="55" Velocity="0"/>
    </Event>
    <Event>
      <Delta>0</Delta>
      <NoteOff Channel="1" Note="70" Velocity="0"/>
    </Event>
    <Event>
      <Delta>0</Delta>
      <NoteOff Channel="1" Note="61" Velocity="0"/>
    </Event>
    <Event>
      <Delta>96</Delta>
      <NoteOn Channel="1" Note="68" Velocity="50"/>
    </Event>
    <Event>
      <Delta>0</Delta>
      <NoteOn Channel="1" Note="60" Velocity="50"/>
    </Event>
    <Event>
      <Delta>0</Delta>
      <NoteOn Channel="1" Note="68" Velocity="50"/>
    </Event>
    <Event>
      <Delta>0</Delta>
      <NoteOn Channel="1" Note="51" Velocity="50"/>
    </Event>
    <Event>
      <Delta>0</Delta>
      <NoteOn Channel="1" Note="56" Velocity="50"/>
    </Event>
    <Event>
      <Delta>576</Delta>
      <NoteOff Channel="1" Note="68" Velocity="0"/>
    </Event>
    <Event>
      <Delta>0</Delta>
      <NoteOff Channel="1" Note="60" Velocity="0"/>
    </Event>
    <Event>
      <Delta>0</Delta>
      <NoteOff Channel="1" Note="68" Velocity="0"/>
    </Event>
    <Event>
      <Delta>192</Delta>
      <NoteOff Channel="1" Note="56" Velocity="0"/>
    </Event>
    <Event>
      <Delta>0</Delta>
      <NoteOff Channel="1" Note="51" Velocity="0"/>
    </Event>
    <Event>
      <Delta>2304</Delta>
      <NoteOn Channel="1" Note="48" Velocity="50"/>
    </Event>
    <Event>
      <Delta>0</Delta>
      <NoteOn Channel="1" Note="60" Velocity="50"/>
    </Event>
    <Event>
      <Delta>0</Delta>
      <NoteOn Channel="1" Note="44" Velocity="50"/>
    </Event>
    <Event>
      <Delta>0</Delta>
      <NoteOn Channel="1" Note="60" Velocity="50"/>
    </Event>
    <Event>
      <Delta>960</Delta>
      <NoteOff Channel="1" Note="48" Velocity="0"/>
    </Event>
    <Event>
      <Delta>0</Delta>
      <NoteOff Channel="1" Note="44" Velocity="0"/>
    </Event>
    <Event>
      <Delta>0</Delta>
      <NoteOff Channel="1" Note="60" Velocity="0"/>
    </Event>
    <Event>
      <Delta>0</Delta>
      <NoteOff Channel="1" Note="60" Velocity="0"/>
    </Event>
    <Event>
      <Delta>192</Delta>
      <NoteOn Channel="1" Note="61" Velocity="50"/>
    </Event>
    <Event>
      <Delta>0</Delta>
      <NoteOn Channel="1" Note="61" Velocity="50"/>
    </Event>
    <Event>
      <Delta>0</Delta>
      <NoteOn Channel="1" Note="49" Velocity="50"/>
    </Event>
    <Event>
      <Delta>0</Delta>
      <NoteOn Channel="1" Note="44" Velocity="50"/>
    </Event>
    <Event>
      <Delta>288</Delta>
      <NoteOff Channel="1" Note="61" Velocity="0"/>
    </Event>
    <Event>
      <Delta>0</Delta>
      <NoteOff Channel="1" Note="49" Velocity="0"/>
    </Event>
    <Event>
      <Delta>0</Delta>
      <NoteOff Channel="1" Note="44" Velocity="0"/>
    </Event>
    <Event>
      <Delta>0</Delta>
      <NoteOff Channel="1" Note="61" Velocity="0"/>
    </Event>
    <Event>
      <Delta>96</Delta>
      <NoteOn Channel="1" Note="60" Velocity="50"/>
    </Event>
    <Event>
      <Delta>0</Delta>
      <NoteOn Channel="1" Note="56" Velocity="50"/>
    </Event>
    <Event>
      <Delta>0</Delta>
      <NoteOn Channel="1" Note="63" Velocity="50"/>
    </Event>
    <Event>
      <Delta>0</Delta>
      <NoteOn Channel="1" Note="48" Velocity="50"/>
    </Event>
    <Event>
      <Delta>0</Delta>
      <NoteOn Channel="1" Note="63" Velocity="50"/>
    </Event>
    <Event>
      <Delta>576</Delta>
      <NoteOff Channel="1" Note="63" Velocity="0"/>
    </Event>
    <Event>
      <Delta>0</Delta>
      <NoteOff Channel="1" Note="63" Velocity="0"/>
    </Event>
    <Event>
      <Delta>0</Delta>
      <NoteOff Channel="1" Note="60" Velocity="0"/>
    </Event>
    <Event>
      <Delta>192</Delta>
      <NoteOff Channel="1" Note="48" Velocity="0"/>
    </Event>
    <Event>
      <Delta>0</Delta>
      <NoteOff Channel="1" Note="56" Velocity="0"/>
    </Event>
    <Event>
      <Delta>0</Delta>
      <NoteOn Channel="1" Note="63" Velocity="50"/>
    </Event>
    <Event>
      <Delta>0</Delta>
      <NoteOn Channel="1" Note="63" Velocity="50"/>
    </Event>
    <Event>
      <Delta>0</Delta>
      <NoteOn Channel="1" Note="60" Velocity="50"/>
    </Event>
    <Event>
      <Delta>0</Delta>
      <NoteOn Channel="1" Note="48" Velocity="50"/>
    </Event>
    <Event>
      <Delta>0</Delta>
      <NoteOn Channel="1" Note="51" Velocity="50"/>
    </Event>
    <Event>
      <Delta>576</Delta>
      <NoteOff Channel="1" Note="60" Velocity="0"/>
    </Event>
    <Event>
      <Delta>0</Delta>
      <NoteOff Channel="1" Note="63" Velocity="0"/>
    </Event>
    <Event>
      <Delta>0</Delta>
      <NoteOff Channel="1" Note="63" Velocity="0"/>
    </Event>
    <Event>
      <Delta>192</Delta>
      <NoteOff Channel="1" Note="51" Velocity="0"/>
    </Event>
    <Event>
      <Delta>0</Delta>
      <NoteOff Channel="1" Note="48" Velocity="0"/>
    </Event>
    <Event>
      <Delta>0</Delta>
      <NoteOn Channel="1" Note="60" Velocity="50"/>
    </Event>
    <Event>
      <Delta>0</Delta>
      <NoteOn Channel="1" Note="56" Velocity="50"/>
    </Event>
    <Event>
      <Delta>0</Delta>
      <NoteOn Channel="1" Note="48" Velocity="50"/>
    </Event>
    <Event>
      <Delta>0</Delta>
      <NoteOn Channel="1" Note="63" Velocity="50"/>
    </Event>
    <Event>
      <Delta>0</Delta>
      <NoteOn Channel="1" Note="63" Velocity="50"/>
    </Event>
    <Event>
      <Delta>576</Delta>
      <NoteOff Channel="1" Note="63" Velocity="0"/>
    </Event>
    <Event>
      <Delta>0</Delta>
      <NoteOff Channel="1" Note="63" Velocity="0"/>
    </Event>
    <Event>
      <Delta>0</Delta>
      <NoteOff Channel="1" Note="60" Velocity="0"/>
    </Event>
    <Event>
      <Delta>192</Delta>
      <NoteOff Channel="1" Note="48" Velocity="0"/>
    </Event>
    <Event>
      <Delta>0</Delta>
      <NoteOff Channel="1" Note="56" Velocity="0"/>
    </Event>
    <Event>
      <Delta>0</Delta>
      <NoteOn Channel="1" Note="60" Velocity="50"/>
    </Event>
    <Event>
      <Delta>0</Delta>
      <NoteOn Channel="1" Note="68" Velocity="50"/>
    </Event>
    <Event>
      <Delta>0</Delta>
      <NoteOn Channel="1" Note="56" Velocity="50"/>
    </Event>
    <Event>
      <Delta>0</Delta>
      <NoteOn Channel="1" Note="68" Velocity="50"/>
    </Event>
    <Event>
      <Delta>0</Delta>
      <NoteOn Channel="1" Note="51" Velocity="50"/>
    </Event>
    <Event>
      <Delta>576</Delta>
      <NoteOff Channel="1" Note="60" Velocity="0"/>
    </Event>
    <Event>
      <Delta>0</Delta>
      <NoteOff Channel="1" Note="68" Velocity="0"/>
    </Event>
    <Event>
      <Delta>0</Delta>
      <NoteOff Channel="1" Note="68" Velocity="0"/>
    </Event>
    <Event>
      <Delta>192</Delta>
      <NoteOff Channel="1" Note="51" Velocity="0"/>
    </Event>
    <Event>
      <Delta>0</Delta>
      <NoteOff Channel="1" Note="56" Velocity="0"/>
    </Event>
    <Event>
      <Delta>0</Delta>
      <NoteOn Channel="1" Note="68" Velocity="50"/>
    </Event>
    <Event>
      <Delta>0</Delta>
      <NoteOn Channel="1" Note="56" Velocity="50"/>
    </Event>
    <Event>
      <Delta>0</Delta>
      <NoteOn Channel="1" Note="68" Velocity="50"/>
    </Event>
    <Event>
      <Delta>0</Delta>
      <NoteOn Channel="1" Note="51" Velocity="50"/>
    </Event>
    <Event>
      <Delta>0</Delta>
      <NoteOn Channel="1" Note="60" Velocity="50"/>
    </Event>
    <Event>
      <Delta>576</Delta>
      <NoteOff Channel="1" Note="68" Velocity="0"/>
    </Event>
    <Event>
      <Delta>0</Delta>
      <NoteOff Channel="1" Note="68" Velocity="0"/>
    </Event>
    <Event>
      <Delta>0</Delta>
      <NoteOff Channel="1" Note="60" Velocity="0"/>
    </Event>
    <Event>
      <Delta>192</Delta>
      <NoteOff Channel="1" Note="51" Velocity="0"/>
    </Event>
    <Event>
      <Delta>0</Delta>
      <NoteOff Channel="1" Note="56" Velocity="0"/>
    </Event>
    <Event>
      <Delta>0</Delta>
      <NoteOn Channel="1" Note="72" Velocity="50"/>
    </Event>
    <Event>
      <Delta>0</Delta>
      <NoteOn Channel="1" Note="63" Velocity="50"/>
    </Event>
    <Event>
      <Delta>0</Delta>
      <NoteOn Channel="1" Note="56" Velocity="50"/>
    </Event>
    <Event>
      <Delta>0</Delta>
      <NoteOn Channel="1" Note="60" Velocity="50"/>
    </Event>
    <Event>
      <Delta>0</Delta>
      <NoteOn Channel="1" Note="72" Velocity="50"/>
    </Event>
    <Event>
      <Delta>576</Delta>
      <NoteOff Channel="1" Note="63" Velocity="0"/>
    </Event>
    <Event>
      <Delta>0</Delta>
      <NoteOff Channel="1" Note="72" Velocity="0"/>
    </Event>
    <Event>
      <Delta>0</Delta>
      <NoteOff Channel="1" Note="72" Velocity="0"/>
    </Event>
    <Event>
      <Delta>192</Delta>
      <NoteOff Channel="1" Note="60" Velocity="0"/>
    </Event>
    <Event>
      <Delta>0</Delta>
      <NoteOff Channel="1" Note="56" Velocity="0"/>
    </Event>
    <Event>
      <Delta>0</Delta>
      <NoteOn Channel="1" Note="72" Velocity="50"/>
    </Event>
    <Event>
      <Delta>0</Delta>
      <NoteOn Channel="1" Note="63" Velocity="50"/>
    </Event>
    <Event>
      <Delta>0</Delta>
      <NoteOn Channel="1" Note="56" Velocity="50"/>
    </Event>
    <Event>
      <Delta>0</Delta>
      <NoteOn Channel="1" Note="60" Velocity="50"/>
    </Event>
    <Event>
      <Delta>0</Delta>
      <NoteOn Channel="1" Note="72" Velocity="50"/>
    </Event>
    <Event>
      <Delta>960</Delta>
      <NoteOff Channel="1" Note="72" Velocity="0"/>
    </Event>
    <Event>
      <Delta>0</Delta>
      <NoteOff Channel="1" Note="63" Velocity="0"/>
    </Event>
    <Event>
      <Delta>0</Delta>
      <NoteOff Channel="1" Note="72" Velocity="0"/>
    </Event>
    <Event>
      <Delta>0</Delta>
      <NoteOff Channel="1" Note="56" Velocity="0"/>
    </Event>
    <Event>
      <Delta>0</Delta>
      <NoteOff Channel="1" Note="60" Velocity="0"/>
    </Event>
    <Event>
      <Delta>192</Delta>
      <NoteOn Channel="1" Note="55" Velocity="50"/>
    </Event>
    <Event>
      <Delta>0</Delta>
      <NoteOn Channel="1" Note="61" Velocity="50"/>
    </Event>
    <Event>
      <Delta>0</Delta>
      <NoteOn Channel="1" Note="58" Velocity="50"/>
    </Event>
    <Event>
      <Delta>0</Delta>
      <NoteOn Channel="1" Note="70" Velocity="50"/>
    </Event>
    <Event>
      <Delta>0</Delta>
      <NoteOn Channel="1" Note="70" Velocity="50"/>
    </Event>
    <Event>
      <Delta>288</Delta>
      <NoteOff Channel="1" Note="55" Velocity="0"/>
    </Event>
    <Event>
      <Delta>0</Delta>
      <NoteOff Channel="1" Note="70" Velocity="0"/>
    </Event>
    <Event>
      <Delta>0</Delta>
      <NoteOff Channel="1" Note="61" Velocity="0"/>
    </Event>
    <Event>
      <Delta>0</Delta>
      <NoteOff Channel="1" Note="58" Velocity="0"/>
    </Event>
    <Event>
      <Delta>0</Delta>
      <NoteOff Channel="1" Note="70" Velocity="0"/>
    </Event>
    <Event>
      <Delta>96</Delta>
      <NoteOn Channel="1" Note="68" Velocity="50"/>
    </Event>
    <Event>
      <Delta>0</Delta>
      <NoteOn Channel="1" Note="51" Velocity="50"/>
    </Event>
    <Event>
      <Delta>0</Delta>
      <NoteOn Channel="1" Note="56" Velocity="50"/>
    </Event>
    <Event>
      <Delta>0</Delta>
      <NoteOn Channel="1" Note="68" Velocity="50"/>
    </Event>
    <Event>
      <Delta>0</Delta>
      <NoteOn Channel="1" Note="60" Velocity="50"/>
    </Event>
    <Event>
      <Delta>576</Delta>
      <NoteOff Channel="1" Note="60" Velocity="0"/>
    </Event>
    <Event>
      <Delta>0</Delta>
      <NoteOff Channel="1" Note="68" Velocity="0"/>
    </Event>
    <Event>
      <Delta>0</Delta>
      <NoteOff Channel="1" Note="68" Velocity="0"/>
    </Event>
    <Event>
      <Delta>192</Delta>
      <NoteOff Channel="1" Note="56" Velocity="0"/>
    </Event>
    <Event>
      <Delta>0</Delta>
      <NoteOff Channel="1" Note="51" Velocity="0"/>
    </Event>
    <Event>
      <Delta>2304</Delta>
      <NoteOn Channel="1" Note="67" Velocity="50"/>
    </Event>
    <Event>
      <Delta>0</Delta>
      <NoteOn Channel="1" Note="67" Velocity="50"/>
    </Event>
    <Event>
      <Delta>0</Delta>
      <NoteOn Channel="1" Note="63" Velocity="50"/>
    </Event>
    <Event>
      <Delta>0</Delta>
      <NoteOn Channel="1" Note="51" Velocity="50"/>
    </Event>
    <Event>
      <Delta>0</Delta>
      <NoteOn Channel="1" Note="58" Velocity="50"/>
    </Event>
    <Event>
      <Delta>576</Delta>
      <NoteOff Channel="1" Note="63" Velocity="0"/>
    </Event>
    <Event>
      <Delta>0</Delta>
      <NoteOff Channel="1" Note="67" Velocity="0"/>
    </Event>
    <Event>
      <Delta>0</Delta>
      <NoteOff Channel="1" Note="67" Velocity="0"/>
    </Event>
    <Event>
      <Delta>192</Delta>
      <NoteOff Channel="1" Note="58" Velocity="0"/>
    </Event>
    <Event>
      <Delta>0</Delta>
      <NoteOff Channel="1" Note="51" Velocity="0"/>
    </Event>
    <Event>
      <Delta>0</Delta>
      <NoteOn Channel="1" Note="68" Velocity="50"/>
    </Event>
    <Event>
      <Delta>0</Delta>
      <NoteOn Channel="1" Note="51" Velocity="50"/>
    </Event>
    <Event>
      <Delta>0</Delta>
      <NoteOn Channel="1" Note="68" Velocity="50"/>
    </Event>
    <Event>
      <Delta>0</Delta>
      <NoteOn Channel="1" Note="60" Velocity="50"/>
    </Event>
    <Event>
      <Delta>0</Delta>
      <NoteOn Channel="1" Note="63" Velocity="50"/>
    </Event>
    <Event>
      <Delta>576</Delta>
      <NoteOff Channel="1" Note="68" Velocity="0"/>
    </Event>
    <Event>
      <Delta>0</Delta>
      <NoteOff Channel="1" Note="63" Velocity="0"/>
    </Event>
    <Event>
      <Delta>0</Delta>
      <NoteOff Channel="1" Note="68" Velocity="0"/>
    </Event>
    <Event>
      <Delta>192</Delta>
      <NoteOff Channel="1" Note="51" Velocity="0"/>
    </Event>
    <Event>
      <Delta>0</Delta>
      <NoteOff Channel="1" Note="60" Velocity="0"/>
    </Event>
    <Event>
      <Delta>0</Delta>
      <NoteOn Channel="1" Note="58" Velocity="50"/>
    </Event>
    <Event>
      <Delta>0</Delta>
      <NoteOn Channel="1" Note="70" Velocity="50"/>
    </Event>
    <Event>
      <Delta>0</Delta>
      <NoteOn Channel="1" Note="55" Velocity="50"/>
    </Event>
    <Event>
      <Delta>0</Delta>
      <NoteOn Channel="1" Note="61" Velocity="50"/>
    </Event>
    <Event>
      <Delta>0</Delta>
      <NoteOn Channel="1" Note="70" Velocity="50"/>
    </Event>
    <Event>
      <Delta>576</Delta>
      <NoteOff Channel="1" Note="70" Velocity="0"/>
    </Event>
    <Event>
      <Delta>0</Delta>
      <NoteOff Channel="1" Note="70" Velocity="0"/>
    </Event>
    <Event>
      <Delta>0</Delta>
      <NoteOff Channel="1" Note="58" Velocity="0"/>
    </Event>
    <Event>
      <Delta>0</Delta>
      <NoteOff Channel="1" Note="55" Velocity="0"/>
    </Event>
    <Event>
      <Delta>0</Delta>
      <NoteOff Channel="1" Note="61" Velocity="0"/>
    </Event>
    <Event>
      <Delta>2496</Delta>
      <NoteOn Channel="1" Note="63" Velocity="50"/>
    </Event>
    <Event>
      <Delta>0</Delta>
      <NoteOn Channel="1" Note="72" Velocity="50"/>
    </Event>
    <Event>
      <Delta>0</Delta>
      <NoteOn Channel="1" Note="56" Velocity="50"/>
    </Event>
    <Event>
      <Delta>0</Delta>
      <NoteOn Channel="1" Note="72" Velocity="50"/>
    </Event>
    <Event>
      <Delta>0</Delta>
      <NoteOn Channel="1" Note="60" Velocity="50"/>
    </Event>
    <Event>
      <Delta>960</Delta>
      <NoteOff Channel="1" Note="60" Velocity="0"/>
    </Event>
    <Event>
      <Delta>0</Delta>
      <NoteOff Channel="1" Note="72" Velocity="0"/>
    </Event>
    <Event>
      <Delta>0</Delta>
      <NoteOff Channel="1" Note="56" Velocity="0"/>
    </Event>
    <Event>
      <Delta>0</Delta>
      <NoteOff Channel="1" Note="72" Velocity="0"/>
    </Event>
    <Event>
      <Delta>0</Delta>
      <NoteOff Channel="1" Note="63" Velocity="0"/>
    </Event>
    <Event>
      <Delta>192</Delta>
      <NoteOn Channel="1" Note="55" Velocity="50"/>
    </Event>
    <Event>
      <Delta>0</Delta>
      <NoteOn Channel="1" Note="70" Velocity="50"/>
    </Event>
    <Event>
      <Delta>0</Delta>
      <NoteOn Channel="1" Note="70" Velocity="50"/>
    </Event>
    <Event>
      <Delta>0</Delta>
      <NoteOn Channel="1" Note="61" Velocity="50"/>
    </Event>
    <Event>
      <Delta>0</Delta>
      <NoteOn Channel="1" Note="58" Velocity="50"/>
    </Event>
    <Event>
      <Delta>288</Delta>
      <NoteOff Channel="1" Note="58" Velocity="0"/>
    </Event>
    <Event>
      <Delta>0</Delta>
      <NoteOff Channel="1" Note="55" Velocity="0"/>
    </Event>
    <Event>
      <Delta>0</Delta>
      <NoteOff Channel="1" Note="70" Velocity="0"/>
    </Event>
    <Event>
      <Delta>0</Delta>
      <NoteOff Channel="1" Note="61" Velocity="0"/>
    </Event>
    <Event>
      <Delta>0</Delta>
      <NoteOff Channel="1" Note="70" Velocity="0"/>
    </Event>
    <Event>
      <Delta>96</Delta>
      <NoteOn Channel="1" Note="68" Velocity="50"/>
    </Event>
    <Event>
      <Delta>0</Delta>
      <NoteOn Channel="1" Note="68" Velocity="50"/>
    </Event>
    <Event>
      <Delta>0</Delta>
      <NoteOn Channel="1" Note="60" Velocity="50"/>
    </Event>
    <Event>
      <Delta>0</Delta>
      <NoteOn Channel="1" Note="56" Velocity="50"/>
    </Event>
    <Event>
      <Delta>0</Delta>
      <NoteOn Channel="1" Note="51" Velocity="50"/>
    </Event>
    <Event>
      <Delta>576</Delta>
      <NoteOff Channel="1" Note="68" Velocity="0"/>
    </Event>
    <Event>
      <Delta>0</Delta>
      <NoteOff Channel="1" Note="68" Velocity="0"/>
    </Event>
    <Event>
      <Delta>0</Delta>
      <NoteOff Channel="1" Note="60" Velocity="0"/>
    </Event>
    <Event>
      <Delta>192</Delta>
      <NoteOff Channel="1" Note="51" Velocity="0"/>
    </Event>
    <Event>
      <Delta>0</Delta>
      <NoteOff Channel="1" Note="56" Velocity="0"/>
    </Event>
    <Event>
      <Delta>2304</Delta>
      <NoteOn Channel="1" Note="63" Velocity="50"/>
    </Event>
    <Event>
      <Delta>0</Delta>
      <NoteOn Channel="1" Note="63" Velocity="50"/>
    </Event>
    <Event>
      <Delta>0</Delta>
      <NoteOn Channel="1" Note="56" Velocity="50"/>
    </Event>
    <Event>
      <Delta>0</Delta>
      <NoteOn Channel="1" Note="48" Velocity="50"/>
    </Event>
    <Event>
      <Delta>0</Delta>
      <NoteOn Channel="1" Note="60" Velocity="50"/>
    </Event>
    <Event>
      <Delta>960</Delta>
      <NoteOff Channel="1" Note="63" Velocity="0"/>
    </Event>
    <Event>
      <Delta>0</Delta>
      <NoteOff Channel="1" Note="63" Velocity="0"/>
    </Event>
    <Event>
      <Delta>0</Delta>
      <NoteOff Channel="1" Note="60" Velocity="0"/>
    </Event>
    <Event>
      <Delta>0</Delta>
      <NoteOff Channel="1" Note="56" Velocity="0"/>
    </Event>
    <Event>
      <Delta>0</Delta>
      <NoteOff Channel="1" Note="48" Velocity="0"/>
    </Event>
    <Event>
      <Delta>192</Delta>
      <NoteOn Channel="1" Note="51" Velocity="50"/>
    </Event>
    <Event>
      <Delta>0</Delta>
      <NoteOn Channel="1" Note="56" Velocity="50"/>
    </Event>
    <Event>
      <Delta>0</Delta>
      <NoteOn Channel="1" Note="60" Velocity="50"/>
    </Event>
    <Event>
      <Delta>0</Delta>
      <NoteOn Channel="1" Note="68" Velocity="50"/>
    </Event>
    <Event>
      <Delta>0</Delta>
      <NoteOn Channel="1" Note="68" Velocity="50"/>
    </Event>
    <Event>
      <Delta>288</Delta>
      <NoteOff Channel="1" Note="51" Velocity="0"/>
    </Event>
    <Event>
      <Delta>0</Delta>
      <NoteOff Channel="1" Note="68" Velocity="0"/>
    </Event>
    <Event>
      <Delta>0</Delta>
      <NoteOff Channel="1" Note="60" Velocity="0"/>
    </Event>
    <Event>
      <Delta>0</Delta>
      <NoteOff Channel="1" Note="68" Velocity="0"/>
    </Event>
    <Event>
      <Delta>0</Delta>
      <NoteOff Channel="1" Note="56" Velocity="0"/>
    </Event>
    <Event>
      <Delta>96</Delta>
      <NoteOn Channel="1" Note="55" Velocity="50"/>
    </Event>
    <Event>
      <Delta>0</Delta>
      <NoteOn Channel="1" Note="67" Velocity="50"/>
    </Event>
    <Event>
      <Delta>0</Delta>
      <NoteOn Channel="1" Note="51" Velocity="50"/>
    </Event>
    <Event>
      <Delta>0</Delta>
      <NoteOn Channel="1" Note="58" Velocity="50"/>
    </Event>
    <Event>
      <Delta>0</Delta>
      <NoteOn Channel="1" Note="67" Velocity="50"/>
    </Event>
    <Event>
      <Delta>576</Delta>
      <NoteOff Channel="1" Note="67" Velocity="0"/>
    </Event>
    <Event>
      <Delta>0</Delta>
      <NoteOff Channel="1" Note="67" Velocity="0"/>
    </Event>
    <Event>
      <Delta>0</Delta>
      <NoteOff Channel="1" Note="58" Velocity="0"/>
    </Event>
    <Event>
      <Delta>192</Delta>
      <NoteOff Channel="1" Note="55" Velocity="0"/>
    </Event>
    <Event>
      <Delta>0</Delta>
      <NoteOff Channel="1" Note="51" Velocity="0"/>
    </Event>
    <Event>
      <Delta>0</Delta>
      <NoteOn Channel="1" Note="67" Velocity="50"/>
    </Event>
    <Event>
      <Delta>0</Delta>
      <NoteOn Channel="1" Note="67" Velocity="50"/>
    </Event>
    <Event>
      <Delta>0</Delta>
      <NoteOn Channel="1" Note="58" Velocity="50"/>
    </Event>
    <Event>
      <Delta>0</Delta>
      <NoteOn Channel="1" Note="51" Velocity="50"/>
    </Event>
    <Event>
      <Delta>0</Delta>
      <NoteOn Channel="1" Note="55" Velocity="50"/>
    </Event>
    <Event>
      <Delta>576</Delta>
      <NoteOff Channel="1" Note="58" Velocity="0"/>
    </Event>
    <Event>
      <Delta>0</Delta>
      <NoteOff Channel="1" Note="67" Velocity="0"/>
    </Event>
    <Event>
      <Delta>0</Delta>
      <NoteOff Channel="1" Note="67" Velocity="0"/>
    </Event>
    <Event>
      <Delta>192</Delta>
      <NoteOff Channel="1" Note="55" Velocity="0"/>
    </Event>
    <Event>
      <Delta>0</Delta>
      <NoteOff Channel="1" Note="51" Velocity="0"/>
    </Event>
    <Event>
      <Delta>0</Delta>
      <NoteOn Channel="1" Note="67" Velocity="50"/>
    </Event>
    <Event>
      <Delta>0</Delta>
      <NoteOn Channel="1" Note="51" Velocity="50"/>
    </Event>
    <Event>
      <Delta>0</Delta>
      <NoteOn Channel="1" Note="58" Velocity="50"/>
    </Event>
    <Event>
      <Delta>0</Delta>
      <NoteOn Channel="1" Note="67" Velocity="50"/>
    </Event>
    <Event>
      <Delta>0</Delta>
      <NoteOn Channel="1" Note="55" Velocity="50"/>
    </Event>
    <Event>
      <Delta>576</Delta>
      <NoteOff Channel="1" Note="67" Velocity="0"/>
    </Event>
    <Event>
      <Delta>0</Delta>
      <NoteOff Channel="1" Note="67" Velocity="0"/>
    </Event>
    <Event>
      <Delta>0</Delta>
      <NoteOff Channel="1" Note="58" Velocity="0"/>
    </Event>
    <Event>
      <Delta>192</Delta>
      <NoteOff Channel="1" Note="51" Velocity="0"/>
    </Event>
    <Event>
      <Delta>0</Delta>
      <NoteOff Channel="1" Note="55" Velocity="0"/>
    </Event>
    <Event>
      <Delta>0</Delta>
      <NoteOn Channel="1" Note="58" Velocity="50"/>
    </Event>
    <Event>
      <Delta>0</Delta>
      <NoteOn Channel="1" Note="67" Velocity="50"/>
    </Event>
    <Event>
      <Delta>0</Delta>
      <NoteOn Channel="1" Note="67" Velocity="50"/>
    </Event>
    <Event>
      <Delta>0</Delta>
      <NoteOn Channel="1" Note="55" Velocity="50"/>
    </Event>
    <Event>
      <Delta>0</Delta>
      <NoteOn Channel="1" Note="51" Velocity="50"/>
    </Event>
    <Event>
      <Delta>576</Delta>
      <NoteOff Channel="1" Note="67" Velocity="0"/>
    </Event>
    <Event>
      <Delta>0</Delta>
      <NoteOff Channel="1" Note="67" Velocity="0"/>
    </Event>
    <Event>
      <Delta>0</Delta>
      <NoteOff Channel="1" Note="58" Velocity="0"/>
    </Event>
    <Event>
      <Delta>192</Delta>
      <NoteOff Channel="1" Note="51" Velocity="0"/>
    </Event>
    <Event>
      <Delta>0</Delta>
      <NoteOff Channel="1" Note="55" Velocity="0"/>
    </Event>
    <Event>
      <Delta>0</Delta>
      <NoteOn Channel="1" Note="65" Velocity="50"/>
    </Event>
    <Event>
      <Delta>0</Delta>
      <NoteOn Channel="1" Note="61" Velocity="50"/>
    </Event>
    <Event>
      <Delta>0</Delta>
      <NoteOn Channel="1" Note="49" Velocity="50"/>
    </Event>
    <Event>
      <Delta>0</Delta>
      <NoteOn Channel="1" Note="56" Velocity="50"/>
    </Event>
    <Event>
      <Delta>0</Delta>
      <NoteOn Channel="1" Note="65" Velocity="50"/>
    </Event>
    <Event>
      <Delta>576</Delta>
      <NoteOff Channel="1" Note="65" Velocity="0"/>
    </Event>
    <Event>
      <Delta>0</Delta>
      <NoteOff Channel="1" Note="65" Velocity="0"/>
    </Event>
    <Event>
      <Delta>0</Delta>
      <NoteOff Channel="1" Note="61" Velocity="0"/>
    </Event>
    <Event>
      <Delta>192</Delta>
      <NoteOff Channel="1" Note="56" Velocity="0"/>
    </Event>
    <Event>
      <Delta>0</Delta>
      <NoteOff Channel="1" Note="49" Velocity="0"/>
    </Event>
    <Event>
      <Delta>0</Delta>
      <NoteOn Channel="1" Note="58" Velocity="50"/>
    </Event>
    <Event>
      <Delta>0</Delta>
      <NoteOn Channel="1" Note="67" Velocity="50"/>
    </Event>
    <Event>
      <Delta>0</Delta>
      <NoteOn Channel="1" Note="55" Velocity="50"/>
    </Event>
    <Event>
      <Delta>0</Delta>
      <NoteOn Channel="1" Note="67" Velocity="50"/>
    </Event>
    <Event>
      <Delta>0</Delta>
      <NoteOn Channel="1" Note="51" Velocity="50"/>
    </Event>
    <Event>
      <Delta>576</Delta>
      <NoteOff Channel="1" Note="67" Velocity="0"/>
    </Event>
    <Event>
      <Delta>0</Delta>
      <NoteOff Channel="1" Note="67" Velocity="0"/>
    </Event>
    <Event>
      <Delta>0</Delta>
      <NoteOff Channel="1" Note="58" Velocity="0"/>
    </Event>
    <Event>
      <Delta>192</Delta>
      <NoteOff Channel="1" Note="51" Velocity="0"/>
    </Event>
    <Event>
      <Delta>0</Delta>
      <NoteOff Channel="1" Note="55" Velocity="0"/>
    </Event>
    <Event>
      <Delta>0</Delta>
      <NoteOn Channel="1" Note="60" Velocity="50"/>
    </Event>
    <Event>
      <Delta>0</Delta>
      <NoteOn Channel="1" Note="68" Velocity="50"/>
    </Event>
    <Event>
      <Delta>0</Delta>
      <NoteOn Channel="1" Note="51" Velocity="50"/>
    </Event>
    <Event>
      <Delta>0</Delta>
      <NoteOn Channel="1" Note="68" Velocity="50"/>
    </Event>
    <Event>
      <Delta>0</Delta>
      <NoteOn Channel="1" Note="56" Velocity="50"/>
    </Event>
    <Event>
      <Delta>576</Delta>
      <NoteOff Channel="1" Note="68" Velocity="0"/>
    </Event>
    <Event>
      <Delta>0</Delta>
      <NoteOff Channel="1" Note="60" Velocity="0"/>
    </Event>
    <Event>
      <Delta>0</Delta>
      <NoteOff Channel="1" Note="68" Velocity="0"/>
    </Event>
    <Event>
      <Delta>192</Delta>
      <NoteOff Channel="1" Note="51" Velocity="0"/>
    </Event>
    <Event>
      <Delta>0</Delta>
      <NoteOff Channel="1" Note="56" Velocity="0"/>
    </Event>
    <Event>
      <Delta>2304</Delta>
      <NoteOn Channel="1" Note="55" Velocity="50"/>
    </Event>
    <Event>
      <Delta>0</Delta>
      <NoteOn Channel="1" Note="63" Velocity="50"/>
    </Event>
    <Event>
      <Delta>0</Delta>
      <NoteOn Channel="1" Note="67" Velocity="50"/>
    </Event>
    <Event>
      <Delta>0</Delta>
      <NoteOn Channel="1" Note="67" Velocity="50"/>
    </Event>
    <Event>
      <Delta>0</Delta>
      <NoteOn Channel="1" Note="51" Velocity="50"/>
    </Event>
    <Event>
      <Delta>960</Delta>
      <NoteOff Channel="1" Note="63" Velocity="0"/>
    </Event>
    <Event>
      <Delta>0</Delta>
      <NoteOff Channel="1" Note="51" Velocity="0"/>
    </Event>
    <Event>
      <Delta>0</Delta>
      <NoteOff Channel="1" Note="67" Velocity="0"/>
    </Event>
    <Event>
      <Delta>0</Delta>
      <NoteOff Channel="1" Note="67" Velocity="0"/>
    </Event>
    <Event>
      <Delta>0</Delta>
      <NoteOff Channel="1" Note="55" Velocity="0"/>
    </Event>
    <Event>
      <Delta>192</Delta>
      <NoteOn Channel="1" Note="68" Velocity="50"/>
    </Event>
    <Event>
      <Delta>0</Delta>
      <NoteOn Channel="1" Note="68" Velocity="50"/>
    </Event>
    <Event>
      <Delta>0</Delta>
      <NoteOn Channel="1" Note="56" Velocity="50"/>
    </Event>
    <Event>
      <Delta>0</Delta>
      <NoteOn Channel="1" Note="60" Velocity="50"/>
    </Event>
    <Event>
      <Delta>0</Delta>
      <NoteOn Channel="1" Note="51" Velocity="50"/>
    </Event>
    <Event>
      <Delta>288</Delta>
      <NoteOff Channel="1" Note="68" Velocity="0"/>
    </Event>
    <Event>
      <Delta>0</Delta>
      <NoteOff Channel="1" Note="51" Velocity="0"/>
    </Event>
    <Event>
      <Delta>0</Delta>
      <NoteOff Channel="1" Note="68" Velocity="0"/>
    </Event>
    <Event>
      <Delta>0</Delta>
      <NoteOff Channel="1" Note="60" Velocity="0"/>
    </Event>
    <Event>
      <Delta>0</Delta>
      <NoteOff Channel="1" Note="56" Velocity="0"/>
    </Event>
    <Event>
      <Delta>96</Delta>
      <NoteOn Channel="1" Note="55" Velocity="50"/>
    </Event>
    <Event>
      <Delta>0</Delta>
      <NoteOn Channel="1" Note="58" Velocity="50"/>
    </Event>
    <Event>
      <Delta>0</Delta>
      <NoteOn Channel="1" Note="61" Velocity="50"/>
    </Event>
    <Event>
      <Delta>0</Delta>
      <NoteOn Channel="1" Note="70" Velocity="50"/>
    </Event>
    <Event>
      <Delta>0</Delta>
      <NoteOn Channel="1" Note="70" Velocity="50"/>
    </Event>
    <Event>
      <Delta>576</Delta>
      <NoteOff Channel="1" Note="70" Velocity="0"/>
    </Event>
    <Event>
      <Delta>0</Delta>
      <NoteOff Channel="1" Note="61" Velocity="0"/>
    </Event>
    <Event>
      <Delta>0</Delta>
      <NoteOff Channel="1" Note="70" Velocity="0"/>
    </Event>
    <Event>
      <Delta>192</Delta>
      <NoteOff Channel="1" Note="58" Velocity="0"/>
    </Event>
    <Event>
      <Delta>0</Delta>
      <NoteOff Channel="1" Note="55" Velocity="0"/>
    </Event>
    <Event>
      <Delta>0</Delta>
      <NoteOn Channel="1" Note="61" Velocity="50"/>
    </Event>
    <Event>
      <Delta>0</Delta>
      <NoteOn Channel="1" Note="55" Velocity="50"/>
    </Event>
    <Event>
      <Delta>0</Delta>
      <NoteOn Channel="1" Note="70" Velocity="50"/>
    </Event>
    <Event>
      <Delta>0</Delta>
      <NoteOn Channel="1" Note="70" Velocity="50"/>
    </Event>
    <Event>
      <Delta>0</Delta>
      <NoteOn Channel="1" Note="58" Velocity="50"/>
    </Event>
    <Event>
      <Delta>576</Delta>
      <NoteOff Channel="1" Note="70" Velocity="0"/>
    </Event>
    <Event>
      <Delta>0</Delta>
      <NoteOff Channel="1" Note="61" Velocity="0"/>
    </Event>
    <Event>
      <Delta>0</Delta>
      <NoteOff Channel="1" Note="70" Velocity="0"/>
    </Event>
    <Event>
      <Delta>192</Delta>
      <NoteOff Channel="1" Note="58" Velocity="0"/>
    </Event>
    <Event>
      <Delta>0</Delta>
      <NoteOff Channel="1" Note="55" Velocity="0"/>
    </Event>
    <Event>
      <Delta>0</Delta>
      <NoteOn Channel="1" Note="55" Velocity="50"/>
    </Event>
    <Event>
      <Delta>0</Delta>
      <NoteOn Channel="1" Note="61" Velocity="50"/>
    </Event>
    <Event>
      <Delta>0</Delta>
      <NoteOn Channel="1" Note="58" Velocity="50"/>
    </Event>
    <Event>
      <Delta>0</Delta>
      <NoteOn Channel="1" Note="70" Velocity="50"/>
    </Event>
    <Event>
      <Delta>0</Delta>
      <NoteOn Channel="1" Note="70" Velocity="50"/>
    </Event>
    <Event>
      <Delta>576</Delta>
      <NoteOff Channel="1" Note="70" Velocity="0"/>
    </Event>
    <Event>
      <Delta>0</Delta>
      <NoteOff Channel="1" Note="61" Velocity="0"/>
    </Event>
    <Event>
      <Delta>0</Delta>
      <NoteOff Channel="1" Note="70" Velocity="0"/>
    </Event>
    <Event>
      <Delta>192</Delta>
      <NoteOff Channel="1" Note="55" Velocity="0"/>
    </Event>
    <Event>
      <Delta>0</Delta>
      <NoteOff Channel="1" Note="58" Velocity="0"/>
    </Event>
    <Event>
      <Delta>0</Delta>
      <NoteOn Channel="1" Note="70" Velocity="50"/>
    </Event>
    <Event>
      <Delta>0</Delta>
      <NoteOn Channel="1" Note="70" Velocity="50"/>
    </Event>
    <Event>
      <Delta>0</Delta>
      <NoteOn Channel="1" Note="67" Velocity="50"/>
    </Event>
    <Event>
      <Delta>0</Delta>
      <NoteOn Channel="1" Note="55" Velocity="50"/>
    </Event>
    <Event>
      <Delta>0</Delta>
      <NoteOn Channel="1" Note="61" Velocity="50"/>
    </Event>
    <Event>
      <Delta>576</Delta>
      <NoteOff Channel="1" Note="67" Velocity="0"/>
    </Event>
    <Event>
      <Delta>0</Delta>
      <NoteOff Channel="1" Note="70" Velocity="0"/>
    </Event>
    <Event>
      <Delta>0</Delta>
      <NoteOff Channel="1" Note="70" Velocity="0"/>
    </Event>
    <Event>
      <Delta>192</Delta>
      <NoteOff Channel="1" Note="61" Velocity="0"/>
    </Event>
    <Event>
      <Delta>0</Delta>
      <NoteOff Channel="1" Note="55" Velocity="0"/>
    </Event>
    <Event>
      <Delta>0</Delta>
      <NoteOn Channel="1" Note="63" Velocity="50"/>
    </Event>
    <Event>
      <Delta>0</Delta>
      <NoteOn Channel="1" Note="75" Velocity="50"/>
    </Event>
    <Event>
      <Delta>0</Delta>
      <NoteOn Channel="1" Note="60" Velocity="50"/>
    </Event>
    <Event>
      <Delta>0</Delta>
      <NoteOn Channel="1" Note="68" Velocity="50"/>
    </Event>
    <Event>
      <Delta>0</Delta>
      <NoteOn Channel="1" Note="75" Velocity="50"/>
    </Event>
    <Event>
      <Delta>576</Delta>
      <NoteOff Channel="1" Note="75" Velocity="0"/>
    </Event>
    <Event>
      <Delta>0</Delta>
      <NoteOff Channel="1" Note="75" Velocity="0"/>
    </Event>
    <Event>
      <Delta>0</Delta>
      <NoteOff Channel="1" Note="68" Velocity="0"/>
    </Event>
    <Event>
      <Delta>192</Delta>
      <NoteOff Channel="1" Note="63" Velocity="0"/>
    </Event>
    <Event>
      <Delta>0</Delta>
      <NoteOff Channel="1" Note="60" Velocity="0"/>
    </Event>
    <Event>
      <Delta>0</Delta>
      <NoteOn Channel="1" Note="70" Velocity="50"/>
    </Event>
    <Event>
      <Delta>0</Delta>
      <NoteOn Channel="1" Note="55" Velocity="50"/>
    </Event>
    <Event>
      <Delta>0</Delta>
      <NoteOn Channel="1" Note="73" Velocity="50"/>
    </Event>
    <Event>
      <Delta>0</Delta>
      <NoteOn Channel="1" Note="73" Velocity="50"/>
    </Event>
    <Event>
      <Delta>0</Delta>
      <NoteOn Channel="1" Note="61" Velocity="50"/>
    </Event>
    <Event>
      <Delta>576</Delta>
      <NoteOff Channel="1" Note="70" Velocity="0"/>
    </Event>
    <Event>
      <Delta>0</Delta>
      <NoteOff Channel="1" Note="73" Velocity="0"/>
    </Event>
    <Event>
      <Delta>0</Delta>
      <NoteOff Channel="1" Note="73" Velocity="0"/>
    </Event>
    <Event>
      <Delta>192</Delta>
      <NoteOff Channel="1" Note="55" Velocity="0"/>
    </Event>
    <Event>
      <Delta>0</Delta>
      <NoteOff Channel="1" Note="61" Velocity="0"/>
    </Event>
    <Event>
      <Delta>0</Delta>
      <NoteOn Channel="1" Note="72" Velocity="50"/>
    </Event>
    <Event>
      <Delta>0</Delta>
      <NoteOn Channel="1" Note="68" Velocity="50"/>
    </Event>
    <Event>
      <Delta>0</Delta>
      <NoteOn Channel="1" Note="56" Velocity="50"/>
    </Event>
    <Event>
      <Delta>0</Delta>
      <NoteOn Channel="1" Note="60" Velocity="50"/>
    </Event>
    <Event>
      <Delta>0</Delta>
      <NoteOn Channel="1" Note="72" Velocity="50"/>
    </Event>
    <Event>
      <Delta>576</Delta>
      <NoteOff Channel="1" Note="68" Velocity="0"/>
    </Event>
    <Event>
      <Delta>0</Delta>
      <NoteOff Channel="1" Note="72" Velocity="0"/>
    </Event>
    <Event>
      <Delta>0</Delta>
      <NoteOff Channel="1" Note="72" Velocity="0"/>
    </Event>
    <Event>
      <Delta>192</Delta>
      <NoteOff Channel="1" Note="60" Velocity="0"/>
    </Event>
    <Event>
      <Delta>0</Delta>
      <NoteOff Channel="1" Note="56" Velocity="0"/>
    </Event>
    <Event>
      <Delta>2304</Delta>
      <NoteOn Channel="1" Note="44" Velocity="50"/>
    </Event>
    <Event>
      <Delta>0</Delta>
      <NoteOn Channel="1" Note="48" Velocity="50"/>
    </Event>
    <Event>
      <Delta>0</Delta>
      <NoteOn Channel="1" Note="60" Velocity="50"/>
    </Event>
    <Event>
      <Delta>0</Delta>
      <NoteOn Channel="1" Note="60" Velocity="50"/>
    </Event>
    <Event>
      <Delta>960</Delta>
      <NoteOff Channel="1" Note="44" Velocity="0"/>
    </Event>
    <Event>
      <Delta>0</Delta>
      <NoteOff Channel="1" Note="60" Velocity="0"/>
    </Event>
    <Event>
      <Delta>0</Delta>
      <NoteOff Channel="1" Note="60" Velocity="0"/>
    </Event>
    <Event>
      <Delta>0</Delta>
      <NoteOff Channel="1" Note="48" Velocity="0"/>
    </Event>
    <Event>
      <Delta>192</Delta>
      <NoteOn Channel="1" Note="61" Velocity="50"/>
    </Event>
    <Event>
      <Delta>0</Delta>
      <NoteOn Channel="1" Note="61" Velocity="50"/>
    </Event>
    <Event>
      <Delta>0</Delta>
      <NoteOn Channel="1" Note="44" Velocity="50"/>
    </Event>
    <Event>
      <Delta>0</Delta>
      <NoteOn Channel="1" Note="49" Velocity="50"/>
    </Event>
    <Event>
      <Delta>288</Delta>
      <NoteOff Channel="1" Note="49" Velocity="0"/>
    </Event>
    <Event>
      <Delta>0</Delta>
      <NoteOff Channel="1" Note="44" Velocity="0"/>
    </Event>
    <Event>
      <Delta>0</Delta>
      <NoteOff Channel="1" Note="61" Velocity="0"/>
    </Event>
    <Event>
      <Delta>0</Delta>
      <NoteOff Channel="1" Note="61" Velocity="0"/>
    </Event>
    <Event>
      <Delta>96</Delta>
      <NoteOn Channel="1" Note="63" Velocity="50"/>
    </Event>
    <Event>
      <Delta>0</Delta>
      <NoteOn Channel="1" Note="51" Velocity="50"/>
    </Event>
    <Event>
      <Delta>0</Delta>
      <NoteOn Channel="1" Note="48" Velocity="50"/>
    </Event>
    <Event>
      <Delta>0</Delta>
      <NoteOn Channel="1" Note="63" Velocity="50"/>
    </Event>
    <Event>
      <Delta>0</Delta>
      <NoteOn Channel="1" Note="60" Velocity="50"/>
    </Event>
    <Event>
      <Delta>576</Delta>
      <NoteOff Channel="1" Note="63" Velocity="0"/>
    </Event>
    <Event>
      <Delta>0</Delta>
      <NoteOff Channel="1" Note="60" Velocity="0"/>
    </Event>
    <Event>
      <Delta>0</Delta>
      <NoteOff Channel="1" Note="63" Velocity="0"/>
    </Event>
    <Event>
      <Delta>192</Delta>
      <NoteOff Channel="1" Note="51" Velocity="0"/>
    </Event>
    <Event>
      <Delta>0</Delta>
      <NoteOff Channel="1" Note="48" Velocity="0"/>
    </Event>
    <Event>
      <Delta>0</Delta>
      <NoteOn Channel="1" Note="48" Velocity="50"/>
    </Event>
    <Event>
      <Delta>0</Delta>
      <NoteOn Channel="1" Note="63" Velocity="50"/>
    </Event>
    <Event>
      <Delta>0</Delta>
      <NoteOn Channel="1" Note="60" Velocity="50"/>
    </Event>
    <Event>
      <Delta>0</Delta>
      <NoteOn Channel="1" Note="56" Velocity="50"/>
    </Event>
    <Event>
      <Delta>0</Delta>
      <NoteOn Channel="1" Note="63" Velocity="50"/>
    </Event>
    <Event>
      <Delta>576</Delta>
      <NoteOff Channel="1" Note="60" Velocity="0"/>
    </Event>
    <Event>
      <Delta>0</Delta>
      <NoteOff Channel="1" Note="63" Velocity="0"/>
    </Event>
    <Event>
      <Delta>0</Delta>
      <NoteOff Channel="1" Note="63" Velocity="0"/>
    </Event>
    <Event>
      <Delta>192</Delta>
      <NoteOff Channel="1" Note="48" Velocity="0"/>
    </Event>
    <Event>
      <Delta>0</Delta>
      <NoteOff Channel="1" Note="56" Velocity="0"/>
    </Event>
    <Event>
      <Delta>0</Delta>
      <NoteOn Channel="1" Note="63" Velocity="50"/>
    </Event>
    <Event>
      <Delta>0</Delta>
      <NoteOn Channel="1" Note="56" Velocity="50"/>
    </Event>
    <Event>
      <Delta>0</Delta>
      <NoteOn Channel="1" Note="48" Velocity="50"/>
    </Event>
    <Event>
      <Delta>0</Delta>
      <NoteOn Channel="1" Note="63" Velocity="50"/>
    </Event>
    <Event>
      <Delta>0</Delta>
      <NoteOn Channel="1" Note="60" Velocity="50"/>
    </Event>
    <Event>
      <Delta>576</Delta>
      <NoteOff Channel="1" Note="63" Velocity="0"/>
    </Event>
    <Event>
      <Delta>0</Delta>
      <NoteOff Channel="1" Note="60" Velocity="0"/>
    </Event>
    <Event>
      <Delta>0</Delta>
      <NoteOff Channel="1" Note="63" Velocity="0"/>
    </Event>
    <Event>
      <Delta>192</Delta>
      <NoteOff Channel="1" Note="48" Velocity="0"/>
    </Event>
    <Event>
      <Delta>0</Delta>
      <NoteOff Channel="1" Note="56" Velocity="0"/>
    </Event>
    <Event>
      <Delta>0</Delta>
      <NoteOn Channel="1" Note="68" Velocity="50"/>
    </Event>
    <Event>
      <Delta>0</Delta>
      <NoteOn Channel="1" Note="56" Velocity="50"/>
    </Event>
    <Event>
      <Delta>0</Delta>
      <NoteOn Channel="1" Note="51" Velocity="50"/>
    </Event>
    <Event>
      <Delta>0</Delta>
      <NoteOn Channel="1" Note="68" Velocity="50"/>
    </Event>
    <Event>
      <Delta>0</Delta>
      <NoteOn Channel="1" Note="60" Velocity="50"/>
    </Event>
    <Event>
      <Delta>576</Delta>
      <NoteOff Channel="1" Note="68" Velocity="0"/>
    </Event>
    <Event>
      <Delta>0</Delta>
      <NoteOff Channel="1" Note="60" Velocity="0"/>
    </Event>
    <Event>
      <Delta>0</Delta>
      <NoteOff Channel="1" Note="68" Velocity="0"/>
    </Event>
    <Event>
      <Delta>192</Delta>
      <NoteOff Channel="1" Note="56" Velocity="0"/>
    </Event>
    <Event>
      <Delta>0</Delta>
      <NoteOff Channel="1" Note="51" Velocity="0"/>
    </Event>
    <Event>
      <Delta>0</Delta>
      <NoteOn Channel="1" Note="68" Velocity="50"/>
    </Event>
    <Event>
      <Delta>0</Delta>
      <NoteOn Channel="1" Note="56" Velocity="50"/>
    </Event>
    <Event>
      <Delta>0</Delta>
      <NoteOn Channel="1" Note="68" Velocity="50"/>
    </Event>
    <Event>
      <Delta>0</Delta>
      <NoteOn Channel="1" Note="60" Velocity="50"/>
    </Event>
    <Event>
      <Delta>0</Delta>
      <NoteOn Channel="1" Note="51" Velocity="50"/>
    </Event>
    <Event>
      <Delta>576</Delta>
      <NoteOff Channel="1" Note="68" Velocity="0"/>
    </Event>
    <Event>
      <Delta>0</Delta>
      <NoteOff Channel="1" Note="60" Velocity="0"/>
    </Event>
    <Event>
      <Delta>0</Delta>
      <NoteOff Channel="1" Note="68" Velocity="0"/>
    </Event>
    <Event>
      <Delta>192</Delta>
      <NoteOff Channel="1" Note="51" Velocity="0"/>
    </Event>
    <Event>
      <Delta>0</Delta>
      <NoteOff Channel="1" Note="56" Velocity="0"/>
    </Event>
    <Event>
      <Delta>0</Delta>
      <NoteOn Channel="1" Note="72" Velocity="50"/>
    </Event>
    <Event>
      <Delta>0</Delta>
      <NoteOn Channel="1" Note="56" Velocity="50"/>
    </Event>
    <Event>
      <Delta>0</Delta>
      <NoteOn Channel="1" Note="72" Velocity="50"/>
    </Event>
    <Event>
      <Delta>0</Delta>
      <NoteOn Channel="1" Note="60" Velocity="50"/>
    </Event>
    <Event>
      <Delta>0</Delta>
      <NoteOn Channel="1" Note="63" Velocity="50"/>
    </Event>
    <Event>
      <Delta>576</Delta>
      <NoteOff Channel="1" Note="72" Velocity="0"/>
    </Event>
    <Event>
      <Delta>0</Delta>
      <NoteOff Channel="1" Note="63" Velocity="0"/>
    </Event>
    <Event>
      <Delta>0</Delta>
      <NoteOff Channel="1" Note="72" Velocity="0"/>
    </Event>
    <Event>
      <Delta>192</Delta>
      <NoteOff Channel="1" Note="56" Velocity="0"/>
    </Event>
    <Event>
      <Delta>0</Delta>
      <NoteOff Channel="1" Note="60" Velocity="0"/>
    </Event>
    <Event>
      <Delta>0</Delta>
      <NoteOn Channel="1" Note="56" Velocity="50"/>
    </Event>
    <Event>
      <Delta>0</Delta>
      <NoteOn Channel="1" Note="72" Velocity="50"/>
    </Event>
    <Event>
      <Delta>0</Delta>
      <NoteOn Channel="1" Note="60" Velocity="50"/>
    </Event>
    <Event>
      <Delta>0</Delta>
      <NoteOn Channel="1" Note="72" Velocity="50"/>
    </Event>
    <Event>
      <Delta>0</Delta>
      <NoteOn Channel="1" Note="63" Velocity="50"/>
    </Event>
    <Event>
      <Delta>960</Delta>
      <NoteOff Channel="1" Note="60" Velocity="0"/>
    </Event>
    <Event>
      <Delta>0</Delta>
      <NoteOff Channel="1" Note="56" Velocity="0"/>
    </Event>
    <Event>
      <Delta>0</Delta>
      <NoteOff Channel="1" Note="72" Velocity="0"/>
    </Event>
    <Event>
      <Delta>0</Delta>
      <NoteOff Channel="1" Note="63" Velocity="0"/>
    </Event>
    <Event>
      <Delta>0</Delta>
      <NoteOff Channel="1" Note="72" Velocity="0"/>
    </Event>
    <Event>
      <Delta>192</Delta>
      <NoteOn Channel="1" Note="70" Velocity="50"/>
    </Event>
    <Event>
      <Delta>0</Delta>
      <NoteOn Channel="1" Note="61" Velocity="50"/>
    </Event>
    <Event>
      <Delta>0</Delta>
      <NoteOn Channel="1" Note="55" Velocity="50"/>
    </Event>
    <Event>
      <Delta>0</Delta>
      <NoteOn Channel="1" Note="58" Velocity="50"/>
    </Event>
    <Event>
      <Delta>0</Delta>
      <NoteOn Channel="1" Note="70" Velocity="50"/>
    </Event>
    <Event>
      <Delta>288</Delta>
      <NoteOff Channel="1" Note="70" Velocity="0"/>
    </Event>
    <Event>
      <Delta>0</Delta>
      <NoteOff Channel="1" Note="58" Velocity="0"/>
    </Event>
    <Event>
      <Delta>0</Delta>
      <NoteOff Channel="1" Note="55" Velocity="0"/>
    </Event>
    <Event>
      <Delta>0</Delta>
      <NoteOff Channel="1" Note="61" Velocity="0"/>
    </Event>
    <Event>
      <Delta>0</Delta>
      <NoteOff Channel="1" Note="70" Velocity="0"/>
    </Event>
    <Event>
      <Delta>96</Delta>
      <NoteOn Channel="1" Note="51" Velocity="50"/>
    </Event>
    <Event>
      <Delta>0</Delta>
      <NoteOn Channel="1" Note="68" Velocity="50"/>
    </Event>
    <Event>
      <Delta>0</Delta>
      <NoteOn Channel="1" Note="60" Velocity="50"/>
    </Event>
    <Event>
      <Delta>0</Delta>
      <NoteOn Channel="1" Note="68" Velocity="50"/>
    </Event>
    <Event>
      <Delta>0</Delta>
      <NoteOn Channel="1" Note="56" Velocity="50"/>
    </Event>
    <Event>
      <Delta>576</Delta>
      <NoteOff Channel="1" Note="68" Velocity="0"/>
    </Event>
    <Event>
      <Delta>0</Delta>
      <NoteOff Channel="1" Note="60" Velocity="0"/>
    </Event>
    <Event>
      <Delta>0</Delta>
      <NoteOff Channel="1" Note="68" Velocity="0"/>
    </Event>
    <Event>
      <Delta>192</Delta>
      <NoteOff Channel="1" Note="51" Velocity="0"/>
    </Event>
    <Event>
      <Delta>0</Delta>
      <NoteOff Channel="1" Note="56" Velocity="0"/>
    </Event>
    <Event>
      <Delta>2304</Delta>
      <NoteOn Channel="1" Note="51" Velocity="50"/>
    </Event>
    <Event>
      <Delta>0</Delta>
      <NoteOn Channel="1" Note="55" Velocity="50"/>
    </Event>
    <Event>
      <Delta>0</Delta>
      <NoteOn Channel="1" Note="67" Velocity="50"/>
    </Event>
    <Event>
      <Delta>0</Delta>
      <NoteOn Channel="1" Note="63" Velocity="50"/>
    </Event>
    <Event>
      <Delta>0</Delta>
      <NoteOn Channel="1" Note="67" Velocity="50"/>
    </Event>
    <Event>
      <Delta>576</Delta>
      <NoteOff Channel="1" Note="67" Velocity="0"/>
    </Event>
    <Event>
      <Delta>0</Delta>
      <NoteOff Channel="1" Note="67" Velocity="0"/>
    </Event>
    <Event>
      <Delta>0</Delta>
      <NoteOff Channel="1" Note="63" Velocity="0"/>
    </Event>
    <Event>
      <Delta>192</Delta>
      <NoteOff Channel="1" Note="51" Velocity="0"/>
    </Event>
    <Event>
      <Delta>0</Delta>
      <NoteOff Channel="1" Note="55" Velocity="0"/>
    </Event>
    <Event>
      <Delta>0</Delta>
      <NoteOn Channel="1" Note="48" Velocity="50"/>
    </Event>
    <Event>
      <Delta>0</Delta>
      <NoteOn Channel="1" Note="56" Velocity="50"/>
    </Event>
    <Event>
      <Delta>0</Delta>
      <NoteOn Channel="1" Note="68" Velocity="50"/>
    </Event>
    <Event>
      <Delta>0</Delta>
      <NoteOn Channel="1" Note="63" Velocity="50"/>
    </Event>
    <Event>
      <Delta>0</Delta>
      <NoteOn Channel="1" Note="68" Velocity="50"/>
    </Event>
    <Event>
      <Delta>576</Delta>
      <NoteOff Channel="1" Note="63" Velocity="0"/>
    </Event>
    <Event>
      <Delta>0</Delta>
      <NoteOff Channel="1" Note="68" Velocity="0"/>
    </Event>
    <Event>
      <Delta>0</Delta>
      <NoteOff Channel="1" Note="68" Velocity="0"/>
    </Event>
    <Event>
      <Delta>192</Delta>
      <NoteOff Channel="1" Note="48" Velocity="0"/>
    </Event>
    <Event>
      <Delta>0</Delta>
      <NoteOff Channel="1" Note="56" Velocity="0"/>
    </Event>
    <Event>
      <Delta>0</Delta>
      <NoteOn Channel="1" Note="61" Velocity="50"/>
    </Event>
    <Event>
      <Delta>0</Delta>
      <NoteOn Channel="1" Note="55" Velocity="50"/>
    </Event>
    <Event>
      <Delta>0</Delta>
      <NoteOn Channel="1" Note="70" Velocity="50"/>
    </Event>
    <Event>
      <Delta>0</Delta>
      <NoteOn Channel="1" Note="58" Velocity="50"/>
    </Event>
    <Event>
      <Delta>0</Delta>
      <NoteOn Channel="1" Note="70" Velocity="50"/>
    </Event>
    <Event>
      <Delta>576</Delta>
      <NoteOff Channel="1" Note="61" Velocity="0"/>
    </Event>
    <Event>
      <Delta>0</Delta>
      <NoteOff Channel="1" Note="70" Velocity="0"/>
    </Event>
    <Event>
      <Delta>0</Delta>
      <NoteOff Channel="1" Note="70" Velocity="0"/>
    </Event>
    <Event>
      <Delta>192</Delta>
      <NoteOff Channel="1" Note="58" Velocity="0"/>
    </Event>
    <Event>
      <Delta>0</Delta>
      <NoteOff Channel="1" Note="55" Velocity="0"/>
    </Event>
    <Event>
      <Delta>2304</Delta>
      <NoteOn Channel="1" Note="72" Velocity="50"/>
    </Event>
    <Event>
      <Delta>0</Delta>
      <NoteOn Channel="1" Note="60" Velocity="50"/>
    </Event>
    <Event>
      <Delta>0</Delta>
      <NoteOn Channel="1" Note="72" Velocity="50"/>
    </Event>
    <Event>
      <Delta>0</Delta>
      <NoteOn Channel="1" Note="63" Velocity="50"/>
    </Event>
    <Event>
      <Delta>0</Delta>
      <NoteOn Channel="1" Note="56" Velocity="50"/>
    </Event>
    <Event>
      <Delta>960</Delta>
      <NoteOff Channel="1" Note="56" Velocity="0"/>
    </Event>
    <Event>
      <Delta>0</Delta>
      <NoteOff Channel="1" Note="72" Velocity="0"/>
    </Event>
    <Event>
      <Delta>0</Delta>
      <NoteOff Channel="1" Note="72" Velocity="0"/>
    </Event>
    <Event>
      <Delta>0</Delta>
      <NoteOff Channel="1" Note="63" Velocity="0"/>
    </Event>
    <Event>
      <Delta>0</Delta>
      <NoteOff Channel="1" Note="60" Velocity="0"/>
    </Event>
    <Event>
      <Delta>192</Delta>
      <NoteOn Channel="1" Note="58" Velocity="50"/>
    </Event>
    <Event>
      <Delta>0</Delta>
      <NoteOn Channel="1" Note="70" Velocity="50"/>
    </Event>
    <Event>
      <Delta>0</Delta>
      <NoteOn Channel="1" Note="55" Velocity="50"/>
    </Event>
    <Event>
      <Delta>0</Delta>
      <NoteOn Channel="1" Note="70" Velocity="50"/>
    </Event>
    <Event>
      <Delta>0</Delta>
      <NoteOn Channel="1" Note="61" Velocity="50"/>
    </Event>
    <Event>
      <Delta>288</Delta>
      <NoteOff Channel="1" Note="70" Velocity="0"/>
    </Event>
    <Event>
      <Delta>0</Delta>
      <NoteOff Channel="1" Note="61" Velocity="0"/>
    </Event>
    <Event>
      <Delta>0</Delta>
      <NoteOff Channel="1" Note="58" Velocity="0"/>
    </Event>
    <Event>
      <Delta>0</Delta>
      <NoteOff Channel="1" Note="55" Velocity="0"/>
    </Event>
    <Event>
      <Delta>0</Delta>
      <NoteOff Channel="1" Note="70" Velocity="0"/>
    </Event>
    <Event>
      <Delta>96</Delta>
      <NoteOn Channel="1" Note="68" Velocity="50"/>
    </Event>
    <Event>
      <Delta>0</Delta>
      <NoteOn Channel="1" Note="51" Velocity="50"/>
    </Event>
    <Event>
      <Delta>0</Delta>
      <NoteOn Channel="1" Note="68" Velocity="50"/>
    </Event>
    <Event>
      <Delta>0</Delta>
      <NoteOn Channel="1" Note="56" Velocity="50"/>
    </Event>
    <Event>
      <Delta>0</Delta>
      <NoteOn Channel="1" Note="60" Velocity="50"/>
    </Event>
    <Event>
      <Delta>576</Delta>
      <NoteOff Channel="1" Note="60" Velocity="0"/>
    </Event>
    <Event>
      <Delta>0</Delta>
      <NoteOff Channel="1" Note="68" Velocity="0"/>
    </Event>
    <Event>
      <Delta>0</Delta>
      <NoteOff Channel="1" Note="68" Velocity="0"/>
    </Event>
    <Event>
      <Delta>192</Delta>
      <NoteOff Channel="1" Note="56" Velocity="0"/>
    </Event>
    <Event>
      <Delta>0</Delta>
      <NoteOff Channel="1" Note="51" Velocity="0"/>
    </Event>
    <Event>
      <Delta>768</Delta>
      <NoteOn Channel="1" Note="60" Velocity="50"/>
    </Event>
    <Event>
      <Delta>0</Delta>
      <NoteOn Channel="1" Note="60" Velocity="50"/>
    </Event>
    <Event>
      <Delta>960</Delta>
      <NoteOff Channel="1" Note="60" Velocity="0"/>
    </Event>
    <Event>
      <Delta>0</Delta>
      <NoteOff Channel="1" Note="60" Velocity="0"/>
    </Event>
    <Event>
      <Delta>192</Delta>
      <NoteOn Channel="1" Note="61" Velocity="50"/>
    </Event>
    <Event>
      <Delta>0</Delta>
      <NoteOn Channel="1" Note="61" Velocity="50"/>
    </Event>
    <Event>
      <Delta>288</Delta>
      <NoteOff Channel="1" Note="61" Velocity="0"/>
    </Event>
    <Event>
      <Delta>0</Delta>
      <NoteOff Channel="1" Note="61" Velocity="0"/>
    </Event>
    <Event>
      <Delta>96</Delta>
      <NoteOn Channel="1" Note="48" Velocity="50"/>
    </Event>
    <Event>
      <Delta>0</Delta>
      <NoteOn Channel="1" Note="60" Velocity="50"/>
    </Event>
    <Event>
      <Delta>0</Delta>
      <NoteOn Channel="1" Note="56" Velocity="50"/>
    </Event>
    <Event>
      <Delta>0</Delta>
      <NoteOn Channel="1" Note="63" Velocity="50"/>
    </Event>
    <Event>
      <Delta>0</Delta>
      <NoteOn Channel="1" Note="63" Velocity="50"/>
    </Event>
    <Event>
      <Delta>576</Delta>
      <NoteOff Channel="1" Note="60" Velocity="0"/>
    </Event>
    <Event>
      <Delta>0</Delta>
      <NoteOff Channel="1" Note="63" Velocity="0"/>
    </Event>
    <Event>
      <Delta>0</Delta>
      <NoteOff Channel="1" Note="63" Velocity="0"/>
    </Event>
    <Event>
      <Delta>192</Delta>
      <NoteOff Channel="1" Note="48" Velocity="0"/>
    </Event>
    <Event>
      <Delta>0</Delta>
      <NoteOff Channel="1" Note="56" Velocity="0"/>
    </Event>
    <Event>
      <Delta>0</Delta>
      <NoteOn Channel="1" Note="63" Velocity="50"/>
    </Event>
    <Event>
      <Delta>0</Delta>
      <NoteOn Channel="1" Note="51" Velocity="50"/>
    </Event>
    <Event>
      <Delta>0</Delta>
      <NoteOn Channel="1" Note="48" Velocity="50"/>
    </Event>
    <Event>
      <Delta>0</Delta>
      <NoteOn Channel="1" Note="60" Velocity="50"/>
    </Event>
    <Event>
      <Delta>0</Delta>
      <NoteOn Channel="1" Note="63" Velocity="50"/>
    </Event>
    <Event>
      <Delta>576</Delta>
      <NoteOff Channel="1" Note="63" Velocity="0"/>
    </Event>
    <Event>
      <Delta>0</Delta>
      <NoteOff Channel="1" Note="63" Velocity="0"/>
    </Event>
    <Event>
      <Delta>0</Delta>
      <NoteOff Channel="1" Note="60" Velocity="0"/>
    </Event>
    <Event>
      <Delta>192</Delta>
      <NoteOff Channel="1" Note="51" Velocity="0"/>
    </Event>
    <Event>
      <Delta>0</Delta>
      <NoteOff Channel="1" Note="48" Velocity="0"/>
    </Event>
    <Event>
      <Delta>0</Delta>
      <NoteOn Channel="1" Note="63" Velocity="50"/>
    </Event>
    <Event>
      <Delta>0</Delta>
      <NoteOn Channel="1" Note="56" Velocity="50"/>
    </Event>
    <Event>
      <Delta>0</Delta>
      <NoteOn Channel="1" Note="48" Velocity="50"/>
    </Event>
    <Event>
      <Delta>0</Delta>
      <NoteOn Channel="1" Note="60" Velocity="50"/>
    </Event>
    <Event>
      <Delta>0</Delta>
      <NoteOn Channel="1" Note="63" Velocity="50"/>
    </Event>
    <Event>
      <Delta>576</Delta>
      <NoteOff Channel="1" Note="60" Velocity="0"/>
    </Event>
    <Event>
      <Delta>0</Delta>
      <NoteOff Channel="1" Note="63" Velocity="0"/>
    </Event>
    <Event>
      <Delta>0</Delta>
      <NoteOff Channel="1" Note="63" Velocity="0"/>
    </Event>
    <Event>
      <Delta>192</Delta>
      <NoteOff Channel="1" Note="48" Velocity="0"/>
    </Event>
    <Event>
      <Delta>0</Delta>
      <NoteOff Channel="1" Note="56" Velocity="0"/>
    </Event>
    <Event>
      <Delta>0</Delta>
      <NoteOn Channel="1" Note="68" Velocity="50"/>
    </Event>
    <Event>
      <Delta>0</Delta>
      <NoteOn Channel="1" Note="56" Velocity="50"/>
    </Event>
    <Event>
      <Delta>0</Delta>
      <NoteOn Channel="1" Note="60" Velocity="50"/>
    </Event>
    <Event>
      <Delta>0</Delta>
      <NoteOn Channel="1" Note="68" Velocity="50"/>
    </Event>
    <Event>
      <Delta>0</Delta>
      <NoteOn Channel="1" Note="51" Velocity="50"/>
    </Event>
    <Event>
      <Delta>576</Delta>
      <NoteOff Channel="1" Note="68" Velocity="0"/>
    </Event>
    <Event>
      <Delta>0</Delta>
      <NoteOff Channel="1" Note="68" Velocity="0"/>
    </Event>
    <Event>
      <Delta>0</Delta>
      <NoteOff Channel="1" Note="60" Velocity="0"/>
    </Event>
    <Event>
      <Delta>192</Delta>
      <NoteOff Channel="1" Note="56" Velocity="0"/>
    </Event>
    <Event>
      <Delta>0</Delta>
      <NoteOff Channel="1" Note="51" Velocity="0"/>
    </Event>
    <Event>
      <Delta>0</Delta>
      <NoteOn Channel="1" Note="68" Velocity="50"/>
    </Event>
    <Event>
      <Delta>0</Delta>
      <NoteOn Channel="1" Note="56" Velocity="50"/>
    </Event>
    <Event>
      <Delta>0</Delta>
      <NoteOn Channel="1" Note="51" Velocity="50"/>
    </Event>
    <Event>
      <Delta>0</Delta>
      <NoteOn Channel="1" Note="60" Velocity="50"/>
    </Event>
    <Event>
      <Delta>0</Delta>
      <NoteOn Channel="1" Note="68" Velocity="50"/>
    </Event>
    <Event>
      <Delta>576</Delta>
      <NoteOff Channel="1" Note="68" Velocity="0"/>
    </Event>
    <Event>
      <Delta>0</Delta>
      <NoteOff Channel="1" Note="60" Velocity="0"/>
    </Event>
    <Event>
      <Delta>0</Delta>
      <NoteOff Channel="1" Note="68" Velocity="0"/>
    </Event>
    <Event>
      <Delta>192</Delta>
      <NoteOff Channel="1" Note="56" Velocity="0"/>
    </Event>
    <Event>
      <Delta>0</Delta>
      <NoteOff Channel="1" Note="51" Velocity="0"/>
    </Event>
    <Event>
      <Delta>0</Delta>
      <NoteOn Channel="1" Note="63" Velocity="50"/>
    </Event>
    <Event>
      <Delta>0</Delta>
      <NoteOn Channel="1" Note="56" Velocity="50"/>
    </Event>
    <Event>
      <Delta>0</Delta>
      <NoteOn Channel="1" Note="60" Velocity="50"/>
    </Event>
    <Event>
      <Delta>0</Delta>
      <NoteOn Channel="1" Note="72" Velocity="50"/>
    </Event>
    <Event>
      <Delta>0</Delta>
      <NoteOn Channel="1" Note="72" Velocity="50"/>
    </Event>
    <Event>
      <Delta>576</Delta>
      <NoteOff Channel="1" Note="63" Velocity="0"/>
    </Event>
    <Event>
      <Delta>0</Delta>
      <NoteOff Channel="1" Note="72" Velocity="0"/>
    </Event>
    <Event>
      <Delta>0</Delta>
      <NoteOff Channel="1" Note="72" Velocity="0"/>
    </Event>
    <Event>
      <Delta>192</Delta>
      <NoteOff Channel="1" Note="56" Velocity="0"/>
    </Event>
    <Event>
      <Delta>0</Delta>
      <NoteOff Channel="1" Note="60" Velocity="0"/>
    </Event>
    <Event>
      <Delta>0</Delta>
      <NoteOn Channel="1" Note="60" Velocity="50"/>
    </Event>
    <Event>
      <Delta>0</Delta>
      <NoteOn Channel="1" Note="72" Velocity="50"/>
    </Event>
    <Event>
      <Delta>0</Delta>
      <NoteOn Channel="1" Note="63" Velocity="50"/>
    </Event>
    <Event>
      <Delta>0</Delta>
      <NoteOn Channel="1" Note="56" Velocity="50"/>
    </Event>
    <Event>
      <Delta>0</Delta>
      <NoteOn Channel="1" Note="72" Velocity="50"/>
    </Event>
    <Event>
      <Delta>960</Delta>
      <NoteOff Channel="1" Note="72" Velocity="0"/>
    </Event>
    <Event>
      <Delta>0</Delta>
      <NoteOff Channel="1" Note="56" Velocity="0"/>
    </Event>
    <Event>
      <Delta>0</Delta>
      <NoteOff Channel="1" Note="63" Velocity="0"/>
    </Event>
    <Event>
      <Delta>0</Delta>
      <NoteOff Channel="1" Note="72" Velocity="0"/>
    </Event>
    <Event>
      <Delta>0</Delta>
      <NoteOff Channel="1" Note="60" Velocity="0"/>
    </Event>
    <Event>
      <Delta>192</Delta>
      <NoteOn Channel="1" Note="61" Velocity="50"/>
    </Event>
    <Event>
      <Delta>0</Delta>
      <NoteOn Channel="1" Note="70" Velocity="50"/>
    </Event>
    <Event>
      <Delta>0</Delta>
      <NoteOn Channel="1" Note="70" Velocity="50"/>
    </Event>
    <Event>
      <Delta>0</Delta>
      <NoteOn Channel="1" Note="55" Velocity="50"/>
    </Event>
    <Event>
      <Delta>0</Delta>
      <NoteOn Channel="1" Note="58" Velocity="50"/>
    </Event>
    <Event>
      <Delta>288</Delta>
      <NoteOff Channel="1" Note="61" Velocity="0"/>
    </Event>
    <Event>
      <Delta>0</Delta>
      <NoteOff Channel="1" Note="70" Velocity="0"/>
    </Event>
    <Event>
      <Delta>0</Delta>
      <NoteOff Channel="1" Note="58" Velocity="0"/>
    </Event>
    <Event>
      <Delta>0</Delta>
      <NoteOff Channel="1" Note="55" Velocity="0"/>
    </Event>
    <Event>
      <Delta>0</Delta>
      <NoteOff Channel="1" Note="70" Velocity="0"/>
    </Event>
    <Event>
      <Delta>96</Delta>
      <NoteOn Channel="1" Note="51" Velocity="50"/>
    </Event>
    <Event>
      <Delta>0</Delta>
      <NoteOn Channel="1" Note="60" Velocity="50"/>
    </Event>
    <Event>
      <Delta>0</Delta>
      <NoteOn Channel="1" Note="68" Velocity="50"/>
    </Event>
    <Event>
      <Delta>0</Delta>
      <NoteOn Channel="1" Note="56" Velocity="50"/>
    </Event>
    <Event>
      <Delta>0</Delta>
      <NoteOn Channel="1" Note="68" Velocity="50"/>
    </Event>
    <Event>
      <Delta>576</Delta>
      <NoteOff Channel="1" Note="60" Velocity="0"/>
    </Event>
    <Event>
      <Delta>0</Delta>
      <NoteOff Channel="1" Note="68" Velocity="0"/>
    </Event>
    <Event>
      <Delta>0</Delta>
      <NoteOff Channel="1" Note="68" Velocity="0"/>
    </Event>
    <Event>
      <Delta>192</Delta>
      <NoteOff Channel="1" Note="56" Velocity="0"/>
    </Event>
    <Event>
      <Delta>0</Delta>
      <NoteOff Channel="1" Note="51" Velocity="0"/>
    </Event>
    <Event>
      <Delta>2304</Delta>
      <NoteOn Channel="1" Note="51" Velocity="50"/>
    </Event>
    <Event>
      <Delta>0</Delta>
      <NoteOn Channel="1" Note="67" Velocity="50"/>
    </Event>
    <Event>
      <Delta>0</Delta>
      <NoteOn Channel="1" Note="63" Velocity="50"/>
    </Event>
    <Event>
      <Delta>0</Delta>
      <NoteOn Channel="1" Note="67" Velocity="50"/>
    </Event>
    <Event>
      <Delta>0</Delta>
      <NoteOn Channel="1" Note="58" Velocity="50"/>
    </Event>
    <Event>
      <Delta>576</Delta>
      <NoteOff Channel="1" Note="67" Velocity="0"/>
    </Event>
    <Event>
      <Delta>0</Delta>
      <NoteOff Channel="1" Note="63" Velocity="0"/>
    </Event>
    <Event>
      <Delta>0</Delta>
      <NoteOff Channel="1" Note="67" Velocity="0"/>
    </Event>
    <Event>
      <Delta>192</Delta>
      <NoteOff Channel="1" Note="51" Velocity="0"/>
    </Event>
    <Event>
      <Delta>0</Delta>
      <NoteOff Channel="1" Note="58" Velocity="0"/>
    </Event>
    <Event>
      <Delta>0</Delta>
      <NoteOn Channel="1" Note="68" Velocity="50"/>
    </Event>
    <Event>
      <Delta>0</Delta>
      <NoteOn Channel="1" Note="60" Velocity="50"/>
    </Event>
    <Event>
      <Delta>0</Delta>
      <NoteOn Channel="1" Note="63" Velocity="50"/>
    </Event>
    <Event>
      <Delta>0</Delta>
      <NoteOn Channel="1" Note="51" Velocity="50"/>
    </Event>
    <Event>
      <Delta>0</Delta>
      <NoteOn Channel="1" Note="68" Velocity="50"/>
    </Event>
    <Event>
      <Delta>576</Delta>
      <NoteOff Channel="1" Note="63" Velocity="0"/>
    </Event>
    <Event>
      <Delta>0</Delta>
      <NoteOff Channel="1" Note="68" Velocity="0"/>
    </Event>
    <Event>
      <Delta>0</Delta>
      <NoteOff Channel="1" Note="68" Velocity="0"/>
    </Event>
    <Event>
      <Delta>192</Delta>
      <NoteOff Channel="1" Note="60" Velocity="0"/>
    </Event>
    <Event>
      <Delta>0</Delta>
      <NoteOff Channel="1" Note="51" Velocity="0"/>
    </Event>
    <Event>
      <Delta>0</Delta>
      <NoteOn Channel="1" Note="55" Velocity="50"/>
    </Event>
    <Event>
      <Delta>0</Delta>
      <NoteOn Channel="1" Note="70" Velocity="50"/>
    </Event>
    <Event>
      <Delta>0</Delta>
      <NoteOn Channel="1" Note="61" Velocity="50"/>
    </Event>
    <Event>
      <Delta>0</Delta>
      <NoteOn Channel="1" Note="58" Velocity="50"/>
    </Event>
    <Event>
      <Delta>0</Delta>
      <NoteOn Channel="1" Note="70" Velocity="50"/>
    </Event>
    <Event>
      <Delta>576</Delta>
      <NoteOff Channel="1" Note="70" Velocity="0"/>
    </Event>
    <Event>
      <Delta>0</Delta>
      <NoteOff Channel="1" Note="70" Velocity="0"/>
    </Event>
    <Event>
      <Delta>0</Delta>
      <NoteOff Channel="1" Note="61" Velocity="0"/>
    </Event>
    <Event>
      <Delta>192</Delta>
      <NoteOff Channel="1" Note="58" Velocity="0"/>
    </Event>
    <Event>
      <Delta>0</Delta>
      <NoteOff Channel="1" Note="55" Velocity="0"/>
    </Event>
    <Event>
      <Delta>2304</Delta>
      <NoteOn Channel="1" Note="72" Velocity="50"/>
    </Event>
    <Event>
      <Delta>0</Delta>
      <NoteOn Channel="1" Note="56" Velocity="50"/>
    </Event>
    <Event>
      <Delta>0</Delta>
      <NoteOn Channel="1" Note="63" Velocity="50"/>
    </Event>
    <Event>
      <Delta>0</Delta>
      <NoteOn Channel="1" Note="72" Velocity="50"/>
    </Event>
    <Event>
      <Delta>0</Delta>
      <NoteOn Channel="1" Note="60" Velocity="50"/>
    </Event>
    <Event>
      <Delta>960</Delta>
      <NoteOff Channel="1" Note="72" Velocity="0"/>
    </Event>
    <Event>
      <Delta>0</Delta>
      <NoteOff Channel="1" Note="72" Velocity="0"/>
    </Event>
    <Event>
      <Delta>0</Delta>
      <NoteOff Channel="1" Note="60" Velocity="0"/>
    </Event>
    <Event>
      <Delta>0</Delta>
      <NoteOff Channel="1" Note="56" Velocity="0"/>
    </Event>
    <Event>
      <Delta>0</Delta>
      <NoteOff Channel="1" Note="63" Velocity="0"/>
    </Event>
    <Event>
      <Delta>192</Delta>
      <NoteOn Channel="1" Note="58" Velocity="50"/>
    </Event>
    <Event>
      <Delta>0</Delta>
      <NoteOn Channel="1" Note="55" Velocity="50"/>
    </Event>
    <Event>
      <Delta>0</Delta>
      <NoteOn Channel="1" Note="70" Velocity="50"/>
    </Event>
    <Event>
      <Delta>0</Delta>
      <NoteOn Channel="1" Note="61" Velocity="50"/>
    </Event>
    <Event>
      <Delta>0</Delta>
      <NoteOn Channel="1" Note="70" Velocity="50"/>
    </Event>
    <Event>
      <Delta>288</Delta>
      <NoteOff Channel="1" Note="58" Velocity="0"/>
    </Event>
    <Event>
      <Delta>0</Delta>
      <NoteOff Channel="1" Note="61" Velocity="0"/>
    </Event>
    <Event>
      <Delta>0</Delta>
      <NoteOff Channel="1" Note="70" Velocity="0"/>
    </Event>
    <Event>
      <Delta>0</Delta>
      <NoteOff Channel="1" Note="70" Velocity="0"/>
    </Event>
    <Event>
      <Delta>0</Delta>
      <NoteOff Channel="1" Note="55" Velocity="0"/>
    </Event>
    <Event>
      <Delta>96</Delta>
      <NoteOn Channel="1" Note="68" Velocity="50"/>
    </Event>
    <Event>
      <Delta>0</Delta>
      <NoteOn Channel="1" Note="60" Velocity="50"/>
    </Event>
    <Event>
      <Delta>0</Delta>
      <NoteOn Channel="1" Note="51" Velocity="50"/>
    </Event>
    <Event>
      <Delta>0</Delta>
      <NoteOn Channel="1" Note="68" Velocity="50"/>
    </Event>
    <Event>
      <Delta>0</Delta>
      <NoteOn Channel="1" Note="56" Velocity="50"/>
    </Event>
    <Event>
      <Delta>576</Delta>
      <NoteOff Channel="1" Note="60" Velocity="0"/>
    </Event>
    <Event>
      <Delta>0</Delta>
      <NoteOff Channel="1" Note="68" Velocity="0"/>
    </Event>
    <Event>
      <Delta>0</Delta>
      <NoteOff Channel="1" Note="68" Velocity="0"/>
    </Event>
    <Event>
      <Delta>192</Delta>
      <NoteOff Channel="1" Note="56" Velocity="0"/>
    </Event>
    <Event>
      <Delta>0</Delta>
      <NoteOff Channel="1" Note="51" Velocity="0"/>
    </Event>
    <Event>
      <Delta>2304</Delta>
      <NoteOn Channel="1" Note="60" Velocity="50"/>
    </Event>
    <Event>
      <Delta>0</Delta>
      <NoteOn Channel="1" Note="48" Velocity="50"/>
    </Event>
    <Event>
      <Delta>0</Delta>
      <NoteOn Channel="1" Note="44" Velocity="50"/>
    </Event>
    <Event>
      <Delta>0</Delta>
      <NoteOn Channel="1" Note="60" Velocity="50"/>
    </Event>
    <Event>
      <Delta>960</Delta>
      <NoteOff Channel="1" Note="60" Velocity="0"/>
    </Event>
    <Event>
      <Delta>0</Delta>
      <NoteOff Channel="1" Note="44" Velocity="0"/>
    </Event>
    <Event>
      <Delta>0</Delta>
      <NoteOff Channel="1" Note="60" Velocity="0"/>
    </Event>
    <Event>
      <Delta>0</Delta>
      <NoteOff Channel="1" Note="48" Velocity="0"/>
    </Event>
    <Event>
      <Delta>192</Delta>
      <NoteOn Channel="1" Note="61" Velocity="50"/>
    </Event>
    <Event>
      <Delta>0</Delta>
      <NoteOn Channel="1" Note="61" Velocity="50"/>
    </Event>
    <Event>
      <Delta>0</Delta>
      <NoteOn Channel="1" Note="44" Velocity="50"/>
    </Event>
    <Event>
      <Delta>0</Delta>
      <NoteOn Channel="1" Note="49" Velocity="50"/>
    </Event>
    <Event>
      <Delta>288</Delta>
      <NoteOff Channel="1" Note="49" Velocity="0"/>
    </Event>
    <Event>
      <Delta>0</Delta>
      <NoteOff Channel="1" Note="44" Velocity="0"/>
    </Event>
    <Event>
      <Delta>0</Delta>
      <NoteOff Channel="1" Note="61" Velocity="0"/>
    </Event>
    <Event>
      <Delta>0</Delta>
      <NoteOff Channel="1" Note="61" Velocity="0"/>
    </Event>
    <Event>
      <Delta>96</Delta>
      <NoteOn Channel="1" Note="48" Velocity="50"/>
    </Event>
    <Event>
      <Delta>0</Delta>
      <NoteOn Channel="1" Note="60" Velocity="50"/>
    </Event>
    <Event>
      <Delta>0</Delta>
      <NoteOn Channel="1" Note="63" Velocity="50"/>
    </Event>
    <Event>
      <Delta>0</Delta>
      <NoteOn Channel="1" Note="56" Velocity="50"/>
    </Event>
    <Event>
      <Delta>0</Delta>
      <NoteOn Channel="1" Note="63" Velocity="50"/>
    </Event>
    <Event>
      <Delta>576</Delta>
      <NoteOff Channel="1" Note="63" Velocity="0"/>
    </Event>
    <Event>
      <Delta>0</Delta>
      <NoteOff Channel="1" Note="63" Velocity="0"/>
    </Event>
    <Event>
      <Delta>0</Delta>
      <NoteOff Channel="1" Note="60" Velocity="0"/>
    </Event>
    <Event>
      <Delta>192</Delta>
      <NoteOff Channel="1" Note="48" Velocity="0"/>
    </Event>
    <Event>
      <Delta>0</Delta>
      <NoteOff Channel="1" Note="56" Velocity="0"/>
    </Event>
    <Event>
      <Delta>0</Delta>
      <NoteOn Channel="1" Note="60" Velocity="50"/>
    </Event>
    <Event>
      <Delta>0</Delta>
      <NoteOn Channel="1" Note="51" Velocity="50"/>
    </Event>
    <Event>
      <Delta>0</Delta>
      <NoteOn Channel="1" Note="63" Velocity="50"/>
    </Event>
    <Event>
      <Delta>0</Delta>
      <NoteOn Channel="1" Note="63" Velocity="50"/>
    </Event>
    <Event>
      <Delta>0</Delta>
      <NoteOn Channel="1" Note="48" Velocity="50"/>
    </Event>
    <Event>
      <Delta>576</Delta>
      <NoteOff Channel="1" Note="63" Velocity="0"/>
    </Event>
    <Event>
      <Delta>0</Delta>
      <NoteOff Channel="1" Note="63" Velocity="0"/>
    </Event>
    <Event>
      <Delta>0</Delta>
      <NoteOff Channel="1" Note="60" Velocity="0"/>
    </Event>
    <Event>
      <Delta>192</Delta>
      <NoteOff Channel="1" Note="51" Velocity="0"/>
    </Event>
    <Event>
      <Delta>0</Delta>
      <NoteOff Channel="1" Note="48" Velocity="0"/>
    </Event>
    <Event>
      <Delta>0</Delta>
      <NoteOn Channel="1" Note="48" Velocity="50"/>
    </Event>
    <Event>
      <Delta>0</Delta>
      <NoteOn Channel="1" Note="60" Velocity="50"/>
    </Event>
    <Event>
      <Delta>0</Delta>
      <NoteOn Channel="1" Note="63" Velocity="50"/>
    </Event>
    <Event>
      <Delta>0</Delta>
      <NoteOn Channel="1" Note="56" Velocity="50"/>
    </Event>
    <Event>
      <Delta>0</Delta>
      <NoteOn Channel="1" Note="63" Velocity="50"/>
    </Event>
    <Event>
      <Delta>576</Delta>
      <NoteOff Channel="1" Note="63" Velocity="0"/>
    </Event>
    <Event>
      <Delta>0</Delta>
      <NoteOff Channel="1" Note="63" Velocity="0"/>
    </Event>
    <Event>
      <Delta>0</Delta>
      <NoteOff Channel="1" Note="60" Velocity="0"/>
    </Event>
    <Event>
      <Delta>192</Delta>
      <NoteOff Channel="1" Note="56" Velocity="0"/>
    </Event>
    <Event>
      <Delta>0</Delta>
      <NoteOff Channel="1" Note="48" Velocity="0"/>
    </Event>
    <Event>
      <Delta>0</Delta>
      <NoteOn Channel="1" Note="68" Velocity="50"/>
    </Event>
    <Event>
      <Delta>0</Delta>
      <NoteOn Channel="1" Note="60" Velocity="50"/>
    </Event>
    <Event>
      <Delta>0</Delta>
      <NoteOn Channel="1" Note="56" Velocity="50"/>
    </Event>
    <Event>
      <Delta>0</Delta>
      <NoteOn Channel="1" Note="68" Velocity="50"/>
    </Event>
    <Event>
      <Delta>0</Delta>
      <NoteOn Channel="1" Note="51" Velocity="50"/>
    </Event>
    <Event>
      <Delta>576</Delta>
      <NoteOff Channel="1" Note="68" Velocity="0"/>
    </Event>
    <Event>
      <Delta>0</Delta>
      <NoteOff Channel="1" Note="68" Velocity="0"/>
    </Event>
    <Event>
      <Delta>0</Delta>
      <NoteOff Channel="1" Note="60" Velocity="0"/>
    </Event>
    <Event>
      <Delta>192</Delta>
      <NoteOff Channel="1" Note="56" Velocity="0"/>
    </Event>
    <Event>
      <Delta>0</Delta>
      <NoteOff Channel="1" Note="51" Velocity="0"/>
    </Event>
    <Event>
      <Delta>0</Delta>
      <NoteOn Channel="1" Note="68" Velocity="50"/>
    </Event>
    <Event>
      <Delta>0</Delta>
      <NoteOn Channel="1" Note="68" Velocity="50"/>
    </Event>
    <Event>
      <Delta>0</Delta>
      <NoteOn Channel="1" Note="51" Velocity="50"/>
    </Event>
    <Event>
      <Delta>0</Delta>
      <NoteOn Channel="1" Note="56" Velocity="50"/>
    </Event>
    <Event>
      <Delta>0</Delta>
      <NoteOn Channel="1" Note="60" Velocity="50"/>
    </Event>
    <Event>
      <Delta>576</Delta>
      <NoteOff Channel="1" Note="68" Velocity="0"/>
    </Event>
    <Event>
      <Delta>0</Delta>
      <NoteOff Channel="1" Note="60" Velocity="0"/>
    </Event>
    <Event>
      <Delta>0</Delta>
      <NoteOff Channel="1" Note="68" Velocity="0"/>
    </Event>
    <Event>
      <Delta>192</Delta>
      <NoteOff Channel="1" Note="56" Velocity="0"/>
    </Event>
    <Event>
      <Delta>0</Delta>
      <NoteOff Channel="1" Note="51" Velocity="0"/>
    </Event>
    <Event>
      <Delta>0</Delta>
      <NoteOn Channel="1" Note="56" Velocity="50"/>
    </Event>
    <Event>
      <Delta>0</Delta>
      <NoteOn Channel="1" Note="72" Velocity="50"/>
    </Event>
    <Event>
      <Delta>0</Delta>
      <NoteOn Channel="1" Note="60" Velocity="50"/>
    </Event>
    <Event>
      <Delta>0</Delta>
      <NoteOn Channel="1" Note="63" Velocity="50"/>
    </Event>
    <Event>
      <Delta>0</Delta>
      <NoteOn Channel="1" Note="72" Velocity="50"/>
    </Event>
    <Event>
      <Delta>576</Delta>
      <NoteOff Channel="1" Note="72" Velocity="0"/>
    </Event>
    <Event>
      <Delta>0</Delta>
      <NoteOff Channel="1" Note="72" Velocity="0"/>
    </Event>
    <Event>
      <Delta>0</Delta>
      <NoteOff Channel="1" Note="63" Velocity="0"/>
    </Event>
    <Event>
      <Delta>192</Delta>
      <NoteOff Channel="1" Note="56" Velocity="0"/>
    </Event>
    <Event>
      <Delta>0</Delta>
      <NoteOff Channel="1" Note="60" Velocity="0"/>
    </Event>
    <Event>
      <Delta>0</Delta>
      <NoteOn Channel="1" Note="60" Velocity="50"/>
    </Event>
    <Event>
      <Delta>0</Delta>
      <NoteOn Channel="1" Note="72" Velocity="50"/>
    </Event>
    <Event>
      <Delta>0</Delta>
      <NoteOn Channel="1" Note="63" Velocity="50"/>
    </Event>
    <Event>
      <Delta>0</Delta>
      <NoteOn Channel="1" Note="72" Velocity="50"/>
    </Event>
    <Event>
      <Delta>0</Delta>
      <NoteOn Channel="1" Note="56" Velocity="50"/>
    </Event>
    <Event>
      <Delta>960</Delta>
      <NoteOff Channel="1" Note="60" Velocity="0"/>
    </Event>
    <Event>
      <Delta>0</Delta>
      <NoteOff Channel="1" Note="63" Velocity="0"/>
    </Event>
    <Event>
      <Delta>0</Delta>
      <NoteOff Channel="1" Note="72" Velocity="0"/>
    </Event>
    <Event>
      <Delta>0</Delta>
      <NoteOff Channel="1" Note="56" Velocity="0"/>
    </Event>
    <Event>
      <Delta>0</Delta>
      <NoteOff Channel="1" Note="72" Velocity="0"/>
    </Event>
    <Event>
      <Delta>192</Delta>
      <NoteOn Channel="1" Note="55" Velocity="50"/>
    </Event>
    <Event>
      <Delta>0</Delta>
      <NoteOn Channel="1" Note="58" Velocity="50"/>
    </Event>
    <Event>
      <Delta>0</Delta>
      <NoteOn Channel="1" Note="61" Velocity="50"/>
    </Event>
    <Event>
      <Delta>0</Delta>
      <NoteOn Channel="1" Note="70" Velocity="50"/>
    </Event>
    <Event>
      <Delta>0</Delta>
      <NoteOn Channel="1" Note="70" Velocity="50"/>
    </Event>
    <Event>
      <Delta>288</Delta>
      <NoteOff Channel="1" Note="58" Velocity="0"/>
    </Event>
    <Event>
      <Delta>0</Delta>
      <NoteOff Channel="1" Note="70" Velocity="0"/>
    </Event>
    <Event>
      <Delta>0</Delta>
      <NoteOff Channel="1" Note="61" Velocity="0"/>
    </Event>
    <Event>
      <Delta>0</Delta>
      <NoteOff Channel="1" Note="70" Velocity="0"/>
    </Event>
    <Event>
      <Delta>0</Delta>
      <NoteOff Channel="1" Note="55" Velocity="0"/>
    </Event>
    <Event>
      <Delta>96</Delta>
      <NoteOn Channel="1" Note="68" Velocity="50"/>
    </Event>
    <Event>
      <Delta>0</Delta>
      <NoteOn Channel="1" Note="51" Velocity="50"/>
    </Event>
    <Event>
      <Delta>0</Delta>
      <NoteOn Channel="1" Note="68" Velocity="50"/>
    </Event>
    <Event>
      <Delta>0</Delta>
      <NoteOn Channel="1" Note="60" Velocity="50"/>
    </Event>
    <Event>
      <Delta>0</Delta>
      <NoteOn Channel="1" Note="56" Velocity="50"/>
    </Event>
    <Event>
      <Delta>576</Delta>
      <NoteOff Channel="1" Note="68" Velocity="0"/>
    </Event>
    <Event>
      <Delta>0</Delta>
      <NoteOff Channel="1" Note="60" Velocity="0"/>
    </Event>
    <Event>
      <Delta>0</Delta>
      <NoteOff Channel="1" Note="68" Velocity="0"/>
    </Event>
    <Event>
      <Delta>192</Delta>
      <NoteOff Channel="1" Note="56" Velocity="0"/>
    </Event>
    <Event>
      <Delta>0</Delta>
      <NoteOff Channel="1" Note="51" Velocity="0"/>
    </Event>
    <Event>
      <Delta>2304</Delta>
      <NoteOn Channel="1" Note="67" Velocity="50"/>
    </Event>
    <Event>
      <Delta>0</Delta>
      <NoteOn Channel="1" Note="58" Velocity="50"/>
    </Event>
    <Event>
      <Delta>0</Delta>
      <NoteOn Channel="1" Note="63" Velocity="50"/>
    </Event>
    <Event>
      <Delta>0</Delta>
      <NoteOn Channel="1" Note="51" Velocity="50"/>
    </Event>
    <Event>
      <Delta>0</Delta>
      <NoteOn Channel="1" Note="67" Velocity="50"/>
    </Event>
    <Event>
      <Delta>576</Delta>
      <NoteOff Channel="1" Note="63" Velocity="0"/>
    </Event>
    <Event>
      <Delta>0</Delta>
      <NoteOff Channel="1" Note="67" Velocity="0"/>
    </Event>
    <Event>
      <Delta>0</Delta>
      <NoteOff Channel="1" Note="67" Velocity="0"/>
    </Event>
    <Event>
      <Delta>192</Delta>
      <NoteOff Channel="1" Note="58" Velocity="0"/>
    </Event>
    <Event>
      <Delta>0</Delta>
      <NoteOff Channel="1" Note="51" Velocity="0"/>
    </Event>
    <Event>
      <Delta>0</Delta>
      <NoteOn Channel="1" Note="68" Velocity="50"/>
    </Event>
    <Event>
      <Delta>0</Delta>
      <NoteOn Channel="1" Note="68" Velocity="50"/>
    </Event>
    <Event>
      <Delta>0</Delta>
      <NoteOn Channel="1" Note="51" Velocity="50"/>
    </Event>
    <Event>
      <Delta>0</Delta>
      <NoteOn Channel="1" Note="60" Velocity="50"/>
    </Event>
    <Event>
      <Delta>0</Delta>
      <NoteOn Channel="1" Note="63" Velocity="50"/>
    </Event>
    <Event>
      <Delta>576</Delta>
      <NoteOff Channel="1" Note="63" Velocity="0"/>
    </Event>
    <Event>
      <Delta>0</Delta>
      <NoteOff Channel="1" Note="68" Velocity="0"/>
    </Event>
    <Event>
      <Delta>0</Delta>
      <NoteOff Channel="1" Note="68" Velocity="0"/>
    </Event>
    <Event>
      <Delta>192</Delta>
      <NoteOff Channel="1" Note="51" Velocity="0"/>
    </Event>
    <Event>
      <Delta>0</Delta>
      <NoteOff Channel="1" Note="60" Velocity="0"/>
    </Event>
    <Event>
      <Delta>0</Delta>
      <NoteOn Channel="1" Note="58" Velocity="50"/>
    </Event>
    <Event>
      <Delta>0</Delta>
      <NoteOn Channel="1" Note="61" Velocity="50"/>
    </Event>
    <Event>
      <Delta>0</Delta>
      <NoteOn Channel="1" Note="70" Velocity="50"/>
    </Event>
    <Event>
      <Delta>0</Delta>
      <NoteOn Channel="1" Note="70" Velocity="50"/>
    </Event>
    <Event>
      <Delta>0</Delta>
      <NoteOn Channel="1" Note="55" Velocity="50"/>
    </Event>
    <Event>
      <Delta>576</Delta>
      <NoteOff Channel="1" Note="58" Velocity="0"/>
    </Event>
    <Event>
      <Delta>0</Delta>
      <NoteOff Channel="1" Note="55" Velocity="0"/>
    </Event>
    <Event>
      <Delta>0</Delta>
      <NoteOff Channel="1" Note="70" Velocity="0"/>
    </Event>
    <Event>
      <Delta>0</Delta>
      <NoteOff Channel="1" Note="70" Velocity="0"/>
    </Event>
    <Event>
      <Delta>0</Delta>
      <NoteOff Channel="1" Note="61" Velocity="0"/>
    </Event>
    <Event>
      <Delta>2496</Delta>
      <NoteOn Channel="1" Note="63" Velocity="50"/>
    </Event>
    <Event>
      <Delta>0</Delta>
      <NoteOn Channel="1" Note="60" Velocity="50"/>
    </Event>
    <Event>
      <Delta>0</Delta>
      <NoteOn Channel="1" Note="72" Velocity="50"/>
    </Event>
    <Event>
      <Delta>0</Delta>
      <NoteOn Channel="1" Note="72" Velocity="50"/>
    </Event>
    <Event>
      <Delta>0</Delta>
      <NoteOn Channel="1" Note="56" Velocity="50"/>
    </Event>
    <Event>
      <Delta>960</Delta>
      <NoteOff Channel="1" Note="60" Velocity="0"/>
    </Event>
    <Event>
      <Delta>0</Delta>
      <NoteOff Channel="1" Note="56" Velocity="0"/>
    </Event>
    <Event>
      <Delta>0</Delta>
      <NoteOff Channel="1" Note="63" Velocity="0"/>
    </Event>
    <Event>
      <Delta>0</Delta>
      <NoteOff Channel="1" Note="72" Velocity="0"/>
    </Event>
    <Event>
      <Delta>0</Delta>
      <NoteOff Channel="1" Note="72" Velocity="0"/>
    </Event>
    <Event>
      <Delta>192</Delta>
      <NoteOn Channel="1" Note="70" Velocity="50"/>
    </Event>
    <Event>
      <Delta>0</Delta>
      <NoteOn Channel="1" Note="61" Velocity="50"/>
    </Event>
    <Event>
      <Delta>0</Delta>
      <NoteOn Channel="1" Note="55" Velocity="50"/>
    </Event>
    <Event>
      <Delta>0</Delta>
      <NoteOn Channel="1" Note="70" Velocity="50"/>
    </Event>
    <Event>
      <Delta>0</Delta>
      <NoteOn Channel="1" Note="58" Velocity="50"/>
    </Event>
    <Event>
      <Delta>288</Delta>
      <NoteOff Channel="1" Note="58" Velocity="0"/>
    </Event>
    <Event>
      <Delta>0</Delta>
      <NoteOff Channel="1" Note="61" Velocity="0"/>
    </Event>
    <Event>
      <Delta>0</Delta>
      <NoteOff Channel="1" Note="70" Velocity="0"/>
    </Event>
    <Event>
      <Delta>0</Delta>
      <NoteOff Channel="1" Note="70" Velocity="0"/>
    </Event>
    <Event>
      <Delta>0</Delta>
      <NoteOff Channel="1" Note="55" Velocity="0"/>
    </Event>
    <Event>
      <Delta>96</Delta>
      <NoteOn Channel="1" Note="56" Velocity="50"/>
    </Event>
    <Event>
      <Delta>0</Delta>
      <NoteOn Channel="1" Note="51" Velocity="50"/>
    </Event>
    <Event>
      <Delta>0</Delta>
      <NoteOn Channel="1" Note="68" Velocity="50"/>
    </Event>
    <Event>
      <Delta>0</Delta>
      <NoteOn Channel="1" Note="68" Velocity="50"/>
    </Event>
    <Event>
      <Delta>0</Delta>
      <NoteOn Channel="1" Note="60" Velocity="50"/>
    </Event>
    <Event>
      <Delta>576</Delta>
      <NoteOff Channel="1" Note="60" Velocity="0"/>
    </Event>
    <Event>
      <Delta>0</Delta>
      <NoteOff Channel="1" Note="68" Velocity="0"/>
    </Event>
    <Event>
      <Delta>0</Delta>
      <NoteOff Channel="1" Note="68" Velocity="0"/>
    </Event>
    <Event>
      <Delta>192</Delta>
      <NoteOff Channel="1" Note="51" Velocity="0"/>
    </Event>
    <Event>
      <Delta>0</Delta>
      <NoteOff Channel="1" Note="56" Velocity="0"/>
    </Event>
    <Event>
      <Delta>2304</Delta>
      <NoteOn Channel="1" Note="56" Velocity="50"/>
    </Event>
    <Event>
      <Delta>0</Delta>
      <NoteOn Channel="1" Note="60" Velocity="50"/>
    </Event>
    <Event>
      <Delta>0</Delta>
      <NoteOn Channel="1" Note="48" Velocity="50"/>
    </Event>
    <Event>
      <Delta>0</Delta>
      <NoteOn Channel="1" Note="63" Velocity="50"/>
    </Event>
    <Event>
      <Delta>0</Delta>
      <NoteOn Channel="1" Note="63" Velocity="50"/>
    </Event>
    <Event>
      <Delta>960</Delta>
      <NoteOff Channel="1" Note="48" Velocity="0"/>
    </Event>
    <Event>
      <Delta>0</Delta>
      <NoteOff Channel="1" Note="56" Velocity="0"/>
    </Event>
    <Event>
      <Delta>0</Delta>
      <NoteOff Channel="1" Note="60" Velocity="0"/>
    </Event>
    <Event>
      <Delta>0</Delta>
      <NoteOff Channel="1" Note="63" Velocity="0"/>
    </Event>
    <Event>
      <Delta>0</Delta>
      <NoteOff Channel="1" Note="63" Velocity="0"/>
    </Event>
    <Event>
      <Delta>192</Delta>
      <NoteOn Channel="1" Note="68" Velocity="50"/>
    </Event>
    <Event>
      <Delta>0</Delta>
      <NoteOn Channel="1" Note="56" Velocity="50"/>
    </Event>
    <Event>
      <Delta>0</Delta>
      <NoteOn Channel="1" Note="60" Velocity="50"/>
    </Event>
    <Event>
      <Delta>0</Delta>
      <NoteOn Channel="1" Note="51" Velocity="50"/>
    </Event>
    <Event>
      <Delta>0</Delta>
      <NoteOn Channel="1" Note="68" Velocity="50"/>
    </Event>
    <Event>
      <Delta>288</Delta>
      <NoteOff Channel="1" Note="56" Velocity="0"/>
    </Event>
    <Event>
      <Delta>0</Delta>
      <NoteOff Channel="1" Note="68" Velocity="0"/>
    </Event>
    <Event>
      <Delta>0</Delta>
      <NoteOff Channel="1" Note="51" Velocity="0"/>
    </Event>
    <Event>
      <Delta>0</Delta>
      <NoteOff Channel="1" Note="60" Velocity="0"/>
    </Event>
    <Event>
      <Delta>0</Delta>
      <NoteOff Channel="1" Note="68" Velocity="0"/>
    </Event>
    <Event>
      <Delta>96</Delta>
      <NoteOn Channel="1" Note="55" Velocity="50"/>
    </Event>
    <Event>
      <Delta>0</Delta>
      <NoteOn Channel="1" Note="51" Velocity="50"/>
    </Event>
    <Event>
      <Delta>0</Delta>
      <NoteOn Channel="1" Note="58" Velocity="50"/>
    </Event>
    <Event>
      <Delta>0</Delta>
      <NoteOn Channel="1" Note="67" Velocity="50"/>
    </Event>
    <Event>
      <Delta>0</Delta>
      <NoteOn Channel="1" Note="67" Velocity="50"/>
    </Event>
    <Event>
      <Delta>576</Delta>
      <NoteOff Channel="1" Note="67" Velocity="0"/>
    </Event>
    <Event>
      <Delta>0</Delta>
      <NoteOff Channel="1" Note="58" Velocity="0"/>
    </Event>
    <Event>
      <Delta>0</Delta>
      <NoteOff Channel="1" Note="67" Velocity="0"/>
    </Event>
    <Event>
      <Delta>192</Delta>
      <NoteOff Channel="1" Note="51" Velocity="0"/>
    </Event>
    <Event>
      <Delta>0</Delta>
      <NoteOff Channel="1" Note="55" Velocity="0"/>
    </Event>
    <Event>
      <Delta>0</Delta>
      <NoteOn Channel="1" Note="55" Velocity="50"/>
    </Event>
    <Event>
      <Delta>0</Delta>
      <NoteOn Channel="1" Note="58" Velocity="50"/>
    </Event>
    <Event>
      <Delta>0</Delta>
      <NoteOn Channel="1" Note="51" Velocity="50"/>
    </Event>
    <Event>
      <Delta>0</Delta>
      <NoteOn Channel="1" Note="67" Velocity="50"/>
    </Event>
    <Event>
      <Delta>0</Delta>
      <NoteOn Channel="1" Note="67" Velocity="50"/>
    </Event>
    <Event>
      <Delta>576</Delta>
      <NoteOff Channel="1" Note="58" Velocity="0"/>
    </Event>
    <Event>
      <Delta>0</Delta>
      <NoteOff Channel="1" Note="67" Velocity="0"/>
    </Event>
    <Event>
      <Delta>0</Delta>
      <NoteOff Channel="1" Note="67" Velocity="0"/>
    </Event>
    <Event>
      <Delta>192</Delta>
      <NoteOff Channel="1" Note="51" Velocity="0"/>
    </Event>
    <Event>
      <Delta>0</Delta>
      <NoteOff Channel="1" Note="55" Velocity="0"/>
    </Event>
    <Event>
      <Delta>0</Delta>
      <NoteOn Channel="1" Note="55" Velocity="50"/>
    </Event>
    <Event>
      <Delta>0</Delta>
      <NoteOn Channel="1" Note="51" Velocity="50"/>
    </Event>
    <Event>
      <Delta>0</Delta>
      <NoteOn Channel="1" Note="67" Velocity="50"/>
    </Event>
    <Event>
      <Delta>0</Delta>
      <NoteOn Channel="1" Note="67" Velocity="50"/>
    </Event>
    <Event>
      <Delta>0</Delta>
      <NoteOn Channel="1" Note="58" Velocity="50"/>
    </Event>
    <Event>
      <Delta>576</Delta>
      <NoteOff Channel="1" Note="58" Velocity="0"/>
    </Event>
    <Event>
      <Delta>0</Delta>
      <NoteOff Channel="1" Note="67" Velocity="0"/>
    </Event>
    <Event>
      <Delta>0</Delta>
      <NoteOff Channel="1" Note="67" Velocity="0"/>
    </Event>
    <Event>
      <Delta>192</Delta>
      <NoteOff Channel="1" Note="51" Velocity="0"/>
    </Event>
    <Event>
      <Delta>0</Delta>
      <NoteOff Channel="1" Note="55" Velocity="0"/>
    </Event>
    <Event>
      <Delta>0</Delta>
      <NoteOn Channel="1" Note="58" Velocity="50"/>
    </Event>
    <Event>
      <Delta>0</Delta>
      <NoteOn Channel="1" Note="67" Velocity="50"/>
    </Event>
    <Event>
      <Delta>0</Delta>
      <NoteOn Channel="1" Note="51" Velocity="50"/>
    </Event>
    <Event>
      <Delta>0</Delta>
      <NoteOn Channel="1" Note="67" Velocity="50"/>
    </Event>
    <Event>
      <Delta>0</Delta>
      <NoteOn Channel="1" Note="55" Velocity="50"/>
    </Event>
    <Event>
      <Delta>576</Delta>
      <NoteOff Channel="1" Note="58" Velocity="0"/>
    </Event>
    <Event>
      <Delta>0</Delta>
      <NoteOff Channel="1" Note="67" Velocity="0"/>
    </Event>
    <Event>
      <Delta>0</Delta>
      <NoteOff Channel="1" Note="67" Velocity="0"/>
    </Event>
    <Event>
      <Delta>192</Delta>
      <NoteOff Channel="1" Note="51" Velocity="0"/>
    </Event>
    <Event>
      <Delta>0</Delta>
      <NoteOff Channel="1" Note="55" Velocity="0"/>
    </Event>
    <Event>
      <Delta>0</Delta>
      <NoteOn Channel="1" Note="56" Velocity="50"/>
    </Event>
    <Event>
      <Delta>0</Delta>
      <NoteOn Channel="1" Note="65" Velocity="50"/>
    </Event>
    <Event>
      <Delta>0</Delta>
      <NoteOn Channel="1" Note="61" Velocity="50"/>
    </Event>
    <Event>
      <Delta>0</Delta>
      <NoteOn Channel="1" Note="65" Velocity="50"/>
    </Event>
    <Event>
      <Delta>0</Delta>
      <NoteOn Channel="1" Note="49" Velocity="50"/>
    </Event>
    <Event>
      <Delta>576</Delta>
      <NoteOff Channel="1" Note="65" Velocity="0"/>
    </Event>
    <Event>
      <Delta>0</Delta>
      <NoteOff Channel="1" Note="61" Velocity="0"/>
    </Event>
    <Event>
      <Delta>0</Delta>
      <NoteOff Channel="1" Note="65" Velocity="0"/>
    </Event>
    <Event>
      <Delta>192</Delta>
      <NoteOff Channel="1" Note="49" Velocity="0"/>
    </Event>
    <Event>
      <Delta>0</Delta>
      <NoteOff Channel="1" Note="56" Velocity="0"/>
    </Event>
    <Event>
      <Delta>0</Delta>
      <NoteOn Channel="1" Note="55" Velocity="50"/>
    </Event>
    <Event>
      <Delta>0</Delta>
      <NoteOn Channel="1" Note="51" Velocity="50"/>
    </Event>
    <Event>
      <Delta>0</Delta>
      <NoteOn Channel="1" Note="67" Velocity="50"/>
    </Event>
    <Event>
      <Delta>0</Delta>
      <NoteOn Channel="1" Note="67" Velocity="50"/>
    </Event>
    <Event>
      <Delta>0</Delta>
      <NoteOn Channel="1" Note="58" Velocity="50"/>
    </Event>
    <Event>
      <Delta>576</Delta>
      <NoteOff Channel="1" Note="58" Velocity="0"/>
    </Event>
    <Event>
      <Delta>0</Delta>
      <NoteOff Channel="1" Note="67" Velocity="0"/>
    </Event>
    <Event>
      <Delta>0</Delta>
      <NoteOff Channel="1" Note="67" Velocity="0"/>
    </Event>
    <Event>
      <Delta>192</Delta>
      <NoteOff Channel="1" Note="51" Velocity="0"/>
    </Event>
    <Event>
      <Delta>0</Delta>
      <NoteOff Channel="1" Note="55" Velocity="0"/>
    </Event>
    <Event>
      <Delta>0</Delta>
      <NoteOn Channel="1" Note="68" Velocity="50"/>
    </Event>
    <Event>
      <Delta>0</Delta>
      <NoteOn Channel="1" Note="68" Velocity="50"/>
    </Event>
    <Event>
      <Delta>0</Delta>
      <NoteOn Channel="1" Note="51" Velocity="50"/>
    </Event>
    <Event>
      <Delta>0</Delta>
      <NoteOn Channel="1" Note="60" Velocity="50"/>
    </Event>
    <Event>
      <Delta>0</Delta>
      <NoteOn Channel="1" Note="56" Velocity="50"/>
    </Event>
    <Event>
      <Delta>576</Delta>
      <NoteOff Channel="1" Note="68" Velocity="0"/>
    </Event>
    <Event>
      <Delta>0</Delta>
      <NoteOff Channel="1" Note="60" Velocity="0"/>
    </Event>
    <Event>
      <Delta>0</Delta>
      <NoteOff Channel="1" Note="68" Velocity="0"/>
    </Event>
    <Event>
      <Delta>192</Delta>
      <NoteOff Channel="1" Note="51" Velocity="0"/>
    </Event>
    <Event>
      <Delta>0</Delta>
      <NoteOff Channel="1" Note="56" Velocity="0"/>
    </Event>
    <Event>
      <Delta>2304</Delta>
      <NoteOn Channel="1" Note="67" Velocity="50"/>
    </Event>
    <Event>
      <Delta>0</Delta>
      <NoteOn Channel="1" Note="55" Velocity="50"/>
    </Event>
    <Event>
      <Delta>0</Delta>
      <NoteOn Channel="1" Note="63" Velocity="50"/>
    </Event>
    <Event>
      <Delta>0</Delta>
      <NoteOn Channel="1" Note="67" Velocity="50"/>
    </Event>
    <Event>
      <Delta>0</Delta>
      <NoteOn Channel="1" Note="51" Velocity="50"/>
    </Event>
    <Event>
      <Delta>960</Delta>
      <NoteOff Channel="1" Note="51" Velocity="0"/>
    </Event>
    <Event>
      <Delta>0</Delta>
      <NoteOff Channel="1" Note="67" Velocity="0"/>
    </Event>
    <Event>
      <Delta>0</Delta>
      <NoteOff Channel="1" Note="67" Velocity="0"/>
    </Event>
    <Event>
      <Delta>0</Delta>
      <NoteOff Channel="1" Note="63" Velocity="0"/>
    </Event>
    <Event>
      <Delta>0</Delta>
      <NoteOff Channel="1" Note="55" Velocity="0"/>
    </Event>
    <Event>
      <Delta>192</Delta>
      <NoteOn Channel="1" Note="56" Velocity="50"/>
    </Event>
    <Event>
      <Delta>0</Delta>
      <NoteOn Channel="1" Note="60" Velocity="50"/>
    </Event>
    <Event>
      <Delta>0</Delta>
      <NoteOn Channel="1" Note="51" Velocity="50"/>
    </Event>
    <Event>
      <Delta>0</Delta>
      <NoteOn Channel="1" Note="68" Velocity="50"/>
    </Event>
    <Event>
      <Delta>0</Delta>
      <NoteOn Channel="1" Note="68" Velocity="50"/>
    </Event>
    <Event>
      <Delta>288</Delta>
      <NoteOff Channel="1" Note="56" Velocity="0"/>
    </Event>
    <Event>
      <Delta>0</Delta>
      <NoteOff Channel="1" Note="51" Velocity="0"/>
    </Event>
    <Event>
      <Delta>0</Delta>
      <NoteOff Channel="1" Note="68" Velocity="0"/>
    </Event>
    <Event>
      <Delta>0</Delta>
      <NoteOff Channel="1" Note="68" Velocity="0"/>
    </Event>
    <Event>
      <Delta>0</Delta>
      <NoteOff Channel="1" Note="60" Velocity="0"/>
    </Event>
    <Event>
      <Delta>96</Delta>
      <NoteOn Channel="1" Note="70" Velocity="50"/>
    </Event>
    <Event>
      <Delta>0</Delta>
      <NoteOn Channel="1" Note="61" Velocity="50"/>
    </Event>
    <Event>
      <Delta>0</Delta>
      <NoteOn Channel="1" Note="70" Velocity="50"/>
    </Event>
    <Event>
      <Delta>0</Delta>
      <NoteOn Channel="1" Note="55" Velocity="50"/>
    </Event>
    <Event>
      <Delta>0</Delta>
      <NoteOn Channel="1" Note="58" Velocity="50"/>
    </Event>
    <Event>
      <Delta>576</Delta>
      <NoteOff Channel="1" Note="61" Velocity="0"/>
    </Event>
    <Event>
      <Delta>0</Delta>
      <NoteOff Channel="1" Note="70" Velocity="0"/>
    </Event>
    <Event>
      <Delta>0</Delta>
      <NoteOff Channel="1" Note="70" Velocity="0"/>
    </Event>
    <Event>
      <Delta>192</Delta>
      <NoteOff Channel="1" Note="58" Velocity="0"/>
    </Event>
    <Event>
      <Delta>0</Delta>
      <NoteOff Channel="1" Note="55" Velocity="0"/>
    </Event>
    <Event>
      <Delta>0</Delta>
      <NoteOn Channel="1" Note="58" Velocity="50"/>
    </Event>
    <Event>
      <Delta>0</Delta>
      <NoteOn Channel="1" Note="55" Velocity="50"/>
    </Event>
    <Event>
      <Delta>0</Delta>
      <NoteOn Channel="1" Note="70" Velocity="50"/>
    </Event>
    <Event>
      <Delta>0</Delta>
      <NoteOn Channel="1" Note="61" Velocity="50"/>
    </Event>
    <Event>
      <Delta>0</Delta>
      <NoteOn Channel="1" Note="70" Velocity="50"/>
    </Event>
    <Event>
      <Delta>576</Delta>
      <NoteOff Channel="1" Note="70" Velocity="0"/>
    </Event>
    <Event>
      <Delta>0</Delta>
      <NoteOff Channel="1" Note="70" Velocity="0"/>
    </Event>
    <Event>
      <Delta>0</Delta>
      <NoteOff Channel="1" Note="61" Velocity="0"/>
    </Event>
    <Event>
      <Delta>192</Delta>
      <NoteOff Channel="1" Note="58" Velocity="0"/>
    </Event>
    <Event>
      <Delta>0</Delta>
      <NoteOff Channel="1" Note="55" Velocity="0"/>
    </Event>
    <Event>
      <Delta>0</Delta>
      <NoteOn Channel="1" Note="61" Velocity="50"/>
    </Event>
    <Event>
      <Delta>0</Delta>
      <NoteOn Channel="1" Note="70" Velocity="50"/>
    </Event>
    <Event>
      <Delta>0</Delta>
      <NoteOn Channel="1" Note="70" Velocity="50"/>
    </Event>
    <Event>
      <Delta>0</Delta>
      <NoteOn Channel="1" Note="58" Velocity="50"/>
    </Event>
    <Event>
      <Delta>0</Delta>
      <NoteOn Channel="1" Note="55" Velocity="50"/>
    </Event>
    <Event>
      <Delta>576</Delta>
      <NoteOff Channel="1" Note="61" Velocity="0"/>
    </Event>
    <Event>
      <Delta>0</Delta>
      <NoteOff Channel="1" Note="70" Velocity="0"/>
    </Event>
    <Event>
      <Delta>0</Delta>
      <NoteOff Channel="1" Note="70" Velocity="0"/>
    </Event>
    <Event>
      <Delta>192</Delta>
      <NoteOff Channel="1" Note="55" Velocity="0"/>
    </Event>
    <Event>
      <Delta>0</Delta>
      <NoteOff Channel="1" Note="58" Velocity="0"/>
    </Event>
    <Event>
      <Delta>0</Delta>
      <NoteOn Channel="1" Note="55" Velocity="50"/>
    </Event>
    <Event>
      <Delta>0</Delta>
      <NoteOn Channel="1" Note="70" Velocity="50"/>
    </Event>
    <Event>
      <Delta>0</Delta>
      <NoteOn Channel="1" Note="70" Velocity="50"/>
    </Event>
    <Event>
      <Delta>0</Delta>
      <NoteOn Channel="1" Note="67" Velocity="50"/>
    </Event>
    <Event>
      <Delta>0</Delta>
      <NoteOn Channel="1" Note="61" Velocity="50"/>
    </Event>
    <Event>
      <Delta>576</Delta>
      <NoteOff Channel="1" Note="70" Velocity="0"/>
    </Event>
    <Event>
      <Delta>0</Delta>
      <NoteOff Channel="1" Note="70" Velocity="0"/>
    </Event>
    <Event>
      <Delta>0</Delta>
      <NoteOff Channel="1" Note="67" Velocity="0"/>
    </Event>
    <Event>
      <Delta>192</Delta>
      <NoteOff Channel="1" Note="55" Velocity="0"/>
    </Event>
    <Event>
      <Delta>0</Delta>
      <NoteOff Channel="1" Note="61" Velocity="0"/>
    </Event>
    <Event>
      <Delta>0</Delta>
      <NoteOn Channel="1" Note="68" Velocity="50"/>
    </Event>
    <Event>
      <Delta>0</Delta>
      <NoteOn Channel="1" Note="75" Velocity="50"/>
    </Event>
    <Event>
      <Delta>0</Delta>
      <NoteOn Channel="1" Note="63" Velocity="50"/>
    </Event>
    <Event>
      <Delta>0</Delta>
      <NoteOn Channel="1" Note="60" Velocity="50"/>
    </Event>
    <Event>
      <Delta>0</Delta>
      <NoteOn Channel="1" Note="75" Velocity="50"/>
    </Event>
    <Event>
      <Delta>576</Delta>
      <NoteOff Channel="1" Note="75" Velocity="0"/>
    </Event>
    <Event>
      <Delta>0</Delta>
      <NoteOff Channel="1" Note="68" Velocity="0"/>
    </Event>
    <Event>
      <Delta>0</Delta>
      <NoteOff Channel="1" Note="75" Velocity="0"/>
    </Event>
    <Event>
      <Delta>192</Delta>
      <NoteOff Channel="1" Note="63" Velocity="0"/>
    </Event>
    <Event>
      <Delta>0</Delta>
      <NoteOff Channel="1" Note="60" Velocity="0"/>
    </Event>
    <Event>
      <Delta>0</Delta>
      <NoteOn Channel="1" Note="61" Velocity="50"/>
    </Event>
    <Event>
      <Delta>0</Delta>
      <NoteOn Channel="1" Note="55" Velocity="50"/>
    </Event>
    <Event>
      <Delta>0</Delta>
      <NoteOn Channel="1" Note="73" Velocity="50"/>
    </Event>
    <Event>
      <Delta>0</Delta>
      <NoteOn Channel="1" Note="73" Velocity="50"/>
    </Event>
    <Event>
      <Delta>0</Delta>
      <NoteOn Channel="1" Note="70" Velocity="50"/>
    </Event>
    <Event>
      <Delta>576</Delta>
      <NoteOff Channel="1" Note="73" Velocity="0"/>
    </Event>
    <Event>
      <Delta>0</Delta>
      <NoteOff Channel="1" Note="73" Velocity="0"/>
    </Event>
    <Event>
      <Delta>0</Delta>
      <NoteOff Channel="1" Note="70" Velocity="0"/>
    </Event>
    <Event>
      <Delta>192</Delta>
      <NoteOff Channel="1" Note="61" Velocity="0"/>
    </Event>
    <Event>
      <Delta>0</Delta>
      <NoteOff Channel="1" Note="55" Velocity="0"/>
    </Event>
    <Event>
      <Delta>0</Delta>
      <NoteOn Channel="1" Note="72" Velocity="50"/>
    </Event>
    <Event>
      <Delta>0</Delta>
      <NoteOn Channel="1" Note="68" Velocity="50"/>
    </Event>
    <Event>
      <Delta>0</Delta>
      <NoteOn Channel="1" Note="72" Velocity="50"/>
    </Event>
    <Event>
      <Delta>0</Delta>
      <NoteOn Channel="1" Note="60" Velocity="50"/>
    </Event>
    <Event>
      <Delta>0</Delta>
      <NoteOn Channel="1" Note="56" Velocity="50"/>
    </Event>
    <Event>
      <Delta>576</Delta>
      <NoteOff Channel="1" Note="72" Velocity="0"/>
    </Event>
    <Event>
      <Delta>0</Delta>
      <NoteOff Channel="1" Note="68" Velocity="0"/>
    </Event>
    <Event>
      <Delta>0</Delta>
      <NoteOff Channel="1" Note="72" Velocity="0"/>
    </Event>
    <Event>
      <Delta>192</Delta>
      <NoteOff Channel="1" Note="56" Velocity="0"/>
    </Event>
    <Event>
      <Delta>0</Delta>
      <NoteOff Channel="1" Note="60" Velocity="0"/>
    </Event>
    <Event>
      <Delta>2304</Delta>
      <NoteOn Channel="1" Note="48" Velocity="50"/>
    </Event>
    <Event>
      <Delta>0</Delta>
      <NoteOn Channel="1" Note="60" Velocity="50"/>
    </Event>
    <Event>
      <Delta>0</Delta>
      <NoteOn Channel="1" Note="44" Velocity="50"/>
    </Event>
    <Event>
      <Delta>0</Delta>
      <NoteOn Channel="1" Note="60" Velocity="50"/>
    </Event>
    <Event>
      <Delta>960</Delta>
      <NoteOff Channel="1" Note="60" Velocity="0"/>
    </Event>
    <Event>
      <Delta>0</Delta>
      <NoteOff Channel="1" Note="44" Velocity="0"/>
    </Event>
    <Event>
      <Delta>0</Delta>
      <NoteOff Channel="1" Note="60" Velocity="0"/>
    </Event>
    <Event>
      <Delta>0</Delta>
      <NoteOff Channel="1" Note="48" Velocity="0"/>
    </Event>
    <Event>
      <Delta>192</Delta>
      <NoteOn Channel="1" Note="61" Velocity="50"/>
    </Event>
    <Event>
      <Delta>0</Delta>
      <NoteOn Channel="1" Note="49" Velocity="50"/>
    </Event>
    <Event>
      <Delta>0</Delta>
      <NoteOn Channel="1" Note="44" Velocity="50"/>
    </Event>
    <Event>
      <Delta>0</Delta>
      <NoteOn Channel="1" Note="61" Velocity="50"/>
    </Event>
    <Event>
      <Delta>288</Delta>
      <NoteOff Channel="1" Note="49" Velocity="0"/>
    </Event>
    <Event>
      <Delta>0</Delta>
      <NoteOff Channel="1" Note="44" Velocity="0"/>
    </Event>
    <Event>
      <Delta>0</Delta>
      <NoteOff Channel="1" Note="61" Velocity="0"/>
    </Event>
    <Event>
      <Delta>0</Delta>
      <NoteOff Channel="1" Note="61" Velocity="0"/>
    </Event>
    <Event>
      <Delta>96</Delta>
      <NoteOn Channel="1" Note="60" Velocity="50"/>
    </Event>
    <Event>
      <Delta>0</Delta>
      <NoteOn Channel="1" Note="48" Velocity="50"/>
    </Event>
    <Event>
      <Delta>0</Delta>
      <NoteOn Channel="1" Note="51" Velocity="50"/>
    </Event>
    <Event>
      <Delta>0</Delta>
      <NoteOn Channel="1" Note="63" Velocity="50"/>
    </Event>
    <Event>
      <Delta>0</Delta>
      <NoteOn Channel="1" Note="63" Velocity="50"/>
    </Event>
    <Event>
      <Delta>576</Delta>
      <NoteOff Channel="1" Note="60" Velocity="0"/>
    </Event>
    <Event>
      <Delta>0</Delta>
      <NoteOff Channel="1" Note="63" Velocity="0"/>
    </Event>
    <Event>
      <Delta>0</Delta>
      <NoteOff Channel="1" Note="63" Velocity="0"/>
    </Event>
    <Event>
      <Delta>192</Delta>
      <NoteOff Channel="1" Note="48" Velocity="0"/>
    </Event>
    <Event>
      <Delta>0</Delta>
      <NoteOff Channel="1" Note="51" Velocity="0"/>
    </Event>
    <Event>
      <Delta>0</Delta>
      <NoteOn Channel="1" Note="56" Velocity="50"/>
    </Event>
    <Event>
      <Delta>0</Delta>
      <NoteOn Channel="1" Note="63" Velocity="50"/>
    </Event>
    <Event>
      <Delta>0</Delta>
      <NoteOn Channel="1" Note="63" Velocity="50"/>
    </Event>
    <Event>
      <Delta>0</Delta>
      <NoteOn Channel="1" Note="48" Velocity="50"/>
    </Event>
    <Event>
      <Delta>0</Delta>
      <NoteOn Channel="1" Note="60" Velocity="50"/>
    </Event>
    <Event>
      <Delta>576</Delta>
      <NoteOff Channel="1" Note="60" Velocity="0"/>
    </Event>
    <Event>
      <Delta>0</Delta>
      <NoteOff Channel="1" Note="63" Velocity="0"/>
    </Event>
    <Event>
      <Delta>0</Delta>
      <NoteOff Channel="1" Note="63" Velocity="0"/>
    </Event>
    <Event>
      <Delta>192</Delta>
      <NoteOff Channel="1" Note="56" Velocity="0"/>
    </Event>
    <Event>
      <Delta>0</Delta>
      <NoteOff Channel="1" Note="48" Velocity="0"/>
    </Event>
    <Event>
      <Delta>0</Delta>
      <NoteOn Channel="1" Note="60" Velocity="50"/>
    </Event>
    <Event>
      <Delta>0</Delta>
      <NoteOn Channel="1" Note="56" Velocity="50"/>
    </Event>
    <Event>
      <Delta>0</Delta>
      <NoteOn Channel="1" Note="63" Velocity="50"/>
    </Event>
    <Event>
      <Delta>0</Delta>
      <NoteOn Channel="1" Note="48" Velocity="50"/>
    </Event>
    <Event>
      <Delta>0</Delta>
      <NoteOn Channel="1" Note="63" Velocity="50"/>
    </Event>
    <Event>
      <Delta>576</Delta>
      <NoteOff Channel="1" Note="60" Velocity="0"/>
    </Event>
    <Event>
      <Delta>0</Delta>
      <NoteOff Channel="1" Note="63" Velocity="0"/>
    </Event>
    <Event>
      <Delta>0</Delta>
      <NoteOff Channel="1" Note="63" Velocity="0"/>
    </Event>
    <Event>
      <Delta>192</Delta>
      <NoteOff Channel="1" Note="48" Velocity="0"/>
    </Event>
    <Event>
      <Delta>0</Delta>
      <NoteOff Channel="1" Note="56" Velocity="0"/>
    </Event>
    <Event>
      <Delta>0</Delta>
      <NoteOn Channel="1" Note="68" Velocity="50"/>
    </Event>
    <Event>
      <Delta>0</Delta>
      <NoteOn Channel="1" Note="51" Velocity="50"/>
    </Event>
    <Event>
      <Delta>0</Delta>
      <NoteOn Channel="1" Note="60" Velocity="50"/>
    </Event>
    <Event>
      <Delta>0</Delta>
      <NoteOn Channel="1" Note="68" Velocity="50"/>
    </Event>
    <Event>
      <Delta>0</Delta>
      <NoteOn Channel="1" Note="56" Velocity="50"/>
    </Event>
    <Event>
      <Delta>576</Delta>
      <NoteOff Channel="1" Note="68" Velocity="0"/>
    </Event>
    <Event>
      <Delta>0</Delta>
      <NoteOff Channel="1" Note="60" Velocity="0"/>
    </Event>
    <Event>
      <Delta>0</Delta>
      <NoteOff Channel="1" Note="68" Velocity="0"/>
    </Event>
    <Event>
      <Delta>192</Delta>
      <NoteOff Channel="1" Note="51" Velocity="0"/>
    </Event>
    <Event>
      <Delta>0</Delta>
      <NoteOff Channel="1" Note="56" Velocity="0"/>
    </Event>
    <Event>
      <Delta>0</Delta>
      <NoteOn Channel="1" Note="68" Velocity="50"/>
    </Event>
    <Event>
      <Delta>0</Delta>
      <NoteOn Channel="1" Note="60" Velocity="50"/>
    </Event>
    <Event>
      <Delta>0</Delta>
      <NoteOn Channel="1" Note="51" Velocity="50"/>
    </Event>
    <Event>
      <Delta>0</Delta>
      <NoteOn Channel="1" Note="56" Velocity="50"/>
    </Event>
    <Event>
      <Delta>0</Delta>
      <NoteOn Channel="1" Note="68" Velocity="50"/>
    </Event>
    <Event>
      <Delta>576</Delta>
      <NoteOff Channel="1" Note="68" Velocity="0"/>
    </Event>
    <Event>
      <Delta>0</Delta>
      <NoteOff Channel="1" Note="60" Velocity="0"/>
    </Event>
    <Event>
      <Delta>0</Delta>
      <NoteOff Channel="1" Note="68" Velocity="0"/>
    </Event>
    <Event>
      <Delta>192</Delta>
      <NoteOff Channel="1" Note="56" Velocity="0"/>
    </Event>
    <Event>
      <Delta>0</Delta>
      <NoteOff Channel="1" Note="51" Velocity="0"/>
    </Event>
    <Event>
      <Delta>0</Delta>
      <NoteOn Channel="1" Note="56" Velocity="50"/>
    </Event>
    <Event>
      <Delta>0</Delta>
      <NoteOn Channel="1" Note="72" Velocity="50"/>
    </Event>
    <Event>
      <Delta>0</Delta>
      <NoteOn Channel="1" Note="60" Velocity="50"/>
    </Event>
    <Event>
      <Delta>0</Delta>
      <NoteOn Channel="1" Note="72" Velocity="50"/>
    </Event>
    <Event>
      <Delta>0</Delta>
      <NoteOn Channel="1" Note="63" Velocity="50"/>
    </Event>
    <Event>
      <Delta>576</Delta>
      <NoteOff Channel="1" Note="72" Velocity="0"/>
    </Event>
    <Event>
      <Delta>0</Delta>
      <NoteOff Channel="1" Note="63" Velocity="0"/>
    </Event>
    <Event>
      <Delta>0</Delta>
      <NoteOff Channel="1" Note="72" Velocity="0"/>
    </Event>
    <Event>
      <Delta>192</Delta>
      <NoteOff Channel="1" Note="56" Velocity="0"/>
    </Event>
    <Event>
      <Delta>0</Delta>
      <NoteOff Channel="1" Note="60" Velocity="0"/>
    </Event>
    <Event>
      <Delta>0</Delta>
      <NoteOn Channel="1" Note="72" Velocity="50"/>
    </Event>
    <Event>
      <Delta>0</Delta>
      <NoteOn Channel="1" Note="56" Velocity="50"/>
    </Event>
    <Event>
      <Delta>0</Delta>
      <NoteOn Channel="1" Note="60" Velocity="50"/>
    </Event>
    <Event>
      <Delta>0</Delta>
      <NoteOn Channel="1" Note="63" Velocity="50"/>
    </Event>
    <Event>
      <Delta>0</Delta>
      <NoteOn Channel="1" Note="72" Velocity="50"/>
    </Event>
    <Event>
      <Delta>960</Delta>
      <NoteOff Channel="1" Note="72" Velocity="0"/>
    </Event>
    <Event>
      <Delta>0</Delta>
      <NoteOff Channel="1" Note="72" Velocity="0"/>
    </Event>
    <Event>
      <Delta>0</Delta>
      <NoteOff Channel="1" Note="63" Velocity="0"/>
    </Event>
    <Event>
      <Delta>0</Delta>
      <NoteOff Channel="1" Note="56" Velocity="0"/>
    </Event>
    <Event>
      <Delta>0</Delta>
      <NoteOff Channel="1" Note="60" Velocity="0"/>
    </Event>
    <Event>
      <Delta>192</Delta>
      <NoteOn Channel="1" Note="61" Velocity="50"/>
    </Event>
    <Event>
      <Delta>0</Delta>
      <NoteOn Channel="1" Note="55" Velocity="50"/>
    </Event>
    <Event>
      <Delta>0</Delta>
      <NoteOn Channel="1" Note="70" Velocity="50"/>
    </Event>
    <Event>
      <Delta>0</Delta>
      <NoteOn Channel="1" Note="70" Velocity="50"/>
    </Event>
    <Event>
      <Delta>0</Delta>
      <NoteOn Channel="1" Note="58" Velocity="50"/>
    </Event>
    <Event>
      <Delta>288</Delta>
      <NoteOff Channel="1" Note="58" Velocity="0"/>
    </Event>
    <Event>
      <Delta>0</Delta>
      <NoteOff Channel="1" Note="55" Velocity="0"/>
    </Event>
    <Event>
      <Delta>0</Delta>
      <NoteOff Channel="1" Note="61" Velocity="0"/>
    </Event>
    <Event>
      <Delta>0</Delta>
      <NoteOff Channel="1" Note="70" Velocity="0"/>
    </Event>
    <Event>
      <Delta>0</Delta>
      <NoteOff Channel="1" Note="70" Velocity="0"/>
    </Event>
    <Event>
      <Delta>96</Delta>
      <NoteOn Channel="1" Note="60" Velocity="50"/>
    </Event>
    <Event>
      <Delta>0</Delta>
      <NoteOn Channel="1" Note="68" Velocity="50"/>
    </Event>
    <Event>
      <Delta>0</Delta>
      <NoteOn Channel="1" Note="68" Velocity="50"/>
    </Event>
    <Event>
      <Delta>0</Delta>
      <NoteOn Channel="1" Note="51" Velocity="50"/>
    </Event>
    <Event>
      <Delta>0</Delta>
      <NoteOn Channel="1" Note="56" Velocity="50"/>
    </Event>
    <Event>
      <Delta>576</Delta>
      <NoteOff Channel="1" Note="60" Velocity="0"/>
    </Event>
    <Event>
      <Delta>0</Delta>
      <NoteOff Channel="1" Note="68" Velocity="0"/>
    </Event>
    <Event>
      <Delta>0</Delta>
      <NoteOff Channel="1" Note="68" Velocity="0"/>
    </Event>
    <Event>
      <Delta>192</Delta>
      <NoteOff Channel="1" Note="56" Velocity="0"/>
    </Event>
    <Event>
      <Delta>0</Delta>
      <NoteOff Channel="1" Note="51" Velocity="0"/>
    </Event>
    <Event>
      <Delta>2304</Delta>
      <NoteOn Channel="1" Note="67" Velocity="50"/>
    </Event>
    <Event>
      <Delta>0</Delta>
      <NoteOn Channel="1" Note="63" Velocity="50"/>
    </Event>
    <Event>
      <Delta>0</Delta>
      <NoteOn Channel="1" Note="67" Velocity="50"/>
    </Event>
    <Event>
      <Delta>0</Delta>
      <NoteOn Channel="1" Note="55" Velocity="50"/>
    </Event>
    <Event>
      <Delta>0</Delta>
      <NoteOn Channel="1" Note="51" Velocity="50"/>
    </Event>
    <Event>
      <Delta>576</Delta>
      <NoteOff Channel="1" Note="63" Velocity="0"/>
    </Event>
    <Event>
      <Delta>0</Delta>
      <NoteOff Channel="1" Note="67" Velocity="0"/>
    </Event>
    <Event>
      <Delta>0</Delta>
      <NoteOff Channel="1" Note="67" Velocity="0"/>
    </Event>
    <Event>
      <Delta>192</Delta>
      <NoteOff Channel="1" Note="51" Velocity="0"/>
    </Event>
    <Event>
      <Delta>0</Delta>
      <NoteOff Channel="1" Note="55" Velocity="0"/>
    </Event>
    <Event>
      <Delta>0</Delta>
      <NoteOn Channel="1" Note="68" Velocity="50"/>
    </Event>
    <Event>
      <Delta>0</Delta>
      <NoteOn Channel="1" Note="68" Velocity="50"/>
    </Event>
    <Event>
      <Delta>0</Delta>
      <NoteOn Channel="1" Note="63" Velocity="50"/>
    </Event>
    <Event>
      <Delta>0</Delta>
      <NoteOn Channel="1" Note="56" Velocity="50"/>
    </Event>
    <Event>
      <Delta>0</Delta>
      <NoteOn Channel="1" Note="48" Velocity="50"/>
    </Event>
    <Event>
      <Delta>576</Delta>
      <NoteOff Channel="1" Note="68" Velocity="0"/>
    </Event>
    <Event>
      <Delta>0</Delta>
      <NoteOff Channel="1" Note="63" Velocity="0"/>
    </Event>
    <Event>
      <Delta>0</Delta>
      <NoteOff Channel="1" Note="68" Velocity="0"/>
    </Event>
    <Event>
      <Delta>192</Delta>
      <NoteOff Channel="1" Note="48" Velocity="0"/>
    </Event>
    <Event>
      <Delta>0</Delta>
      <NoteOff Channel="1" Note="56" Velocity="0"/>
    </Event>
    <Event>
      <Delta>0</Delta>
      <NoteOn Channel="1" Note="61" Velocity="50"/>
    </Event>
    <Event>
      <Delta>0</Delta>
      <NoteOn Channel="1" Note="58" Velocity="50"/>
    </Event>
    <Event>
      <Delta>0</Delta>
      <NoteOn Channel="1" Note="70" Velocity="50"/>
    </Event>
    <Event>
      <Delta>0</Delta>
      <NoteOn Channel="1" Note="70" Velocity="50"/>
    </Event>
    <Event>
      <Delta>0</Delta>
      <NoteOn Channel="1" Note="55" Velocity="50"/>
    </Event>
    <Event>
      <Delta>576</Delta>
      <NoteOff Channel="1" Note="70" Velocity="0"/>
    </Event>
    <Event>
      <Delta>0</Delta>
      <NoteOff Channel="1" Note="61" Velocity="0"/>
    </Event>
    <Event>
      <Delta>0</Delta>
      <NoteOff Channel="1" Note="70" Velocity="0"/>
    </Event>
    <Event>
      <Delta>192</Delta>
      <NoteOff Channel="1" Note="55" Velocity="0"/>
    </Event>
    <Event>
      <Delta>0</Delta>
      <NoteOff Channel="1" Note="58" Velocity="0"/>
    </Event>
    <Event>
      <Delta>2304</Delta>
      <NoteOn Channel="1" Note="56" Velocity="50"/>
    </Event>
    <Event>
      <Delta>0</Delta>
      <NoteOn Channel="1" Note="63" Velocity="50"/>
    </Event>
    <Event>
      <Delta>0</Delta>
      <NoteOn Channel="1" Note="72" Velocity="50"/>
    </Event>
    <Event>
      <Delta>0</Delta>
      <NoteOn Channel="1" Note="72" Velocity="50"/>
    </Event>
    <Event>
      <Delta>0</Delta>
      <NoteOn Channel="1" Note="60" Velocity="50"/>
    </Event>
    <Event>
      <Delta>960</Delta>
      <NoteOff Channel="1" Note="60" Velocity="0"/>
    </Event>
    <Event>
      <Delta>0</Delta>
      <NoteOff Channel="1" Note="72" Velocity="0"/>
    </Event>
    <Event>
      <Delta>0</Delta>
      <NoteOff Channel="1" Note="72" Velocity="0"/>
    </Event>
    <Event>
      <Delta>0</Delta>
      <NoteOff Channel="1" Note="63" Velocity="0"/>
    </Event>
    <Event>
      <Delta>0</Delta>
      <NoteOff Channel="1" Note="56" Velocity="0"/>
    </Event>
    <Event>
      <Delta>192</Delta>
      <NoteOn Channel="1" Note="55" Velocity="50"/>
    </Event>
    <Event>
      <Delta>0</Delta>
      <NoteOn Channel="1" Note="70" Velocity="50"/>
    </Event>
    <Event>
      <Delta>0</Delta>
      <NoteOn Channel="1" Note="61" Velocity="50"/>
    </Event>
    <Event>
      <Delta>0</Delta>
      <NoteOn Channel="1" Note="70" Velocity="50"/>
    </Event>
    <Event>
      <Delta>0</Delta>
      <NoteOn Channel="1" Note="58" Velocity="50"/>
    </Event>
    <Event>
      <Delta>288</Delta>
      <NoteOff Channel="1" Note="70" Velocity="0"/>
    </Event>
    <Event>
      <Delta>0</Delta>
      <NoteOff Channel="1" Note="55" Velocity="0"/>
    </Event>
    <Event>
      <Delta>0</Delta>
      <NoteOff Channel="1" Note="70" Velocity="0"/>
    </Event>
    <Event>
      <Delta>0</Delta>
      <NoteOff Channel="1" Note="58" Velocity="0"/>
    </Event>
    <Event>
      <Delta>0</Delta>
      <NoteOff Channel="1" Note="61" Velocity="0"/>
    </Event>
    <Event>
      <Delta>96</Delta>
      <NoteOn Channel="1" Note="68" Velocity="50"/>
    </Event>
    <Event>
      <Delta>0</Delta>
      <NoteOn Channel="1" Note="51" Velocity="50"/>
    </Event>
    <Event>
      <Delta>0</Delta>
      <NoteOn Channel="1" Note="68" Velocity="50"/>
    </Event>
    <Event>
      <Delta>0</Delta>
      <NoteOn Channel="1" Note="60" Velocity="50"/>
    </Event>
    <Event>
      <Delta>0</Delta>
      <NoteOn Channel="1" Note="56" Velocity="50"/>
    </Event>
    <Event>
      <Delta>576</Delta>
      <NoteOff Channel="1" Note="68" Velocity="0"/>
    </Event>
    <Event>
      <Delta>0</Delta>
      <NoteOff Channel="1" Note="60" Velocity="0"/>
    </Event>
    <Event>
      <Delta>0</Delta>
      <NoteOff Channel="1" Note="68" Velocity="0"/>
    </Event>
    <Event>
      <Delta>192</Delta>
      <NoteOff Channel="1" Note="51" Velocity="0"/>
    </Event>
    <Event>
      <Delta>0</Delta>
      <NoteOff Channel="1" Note="56" Velocity="0"/>
    </Event>
    <Event>
      <Delta>768</Delta>
      <NoteOn Channel="1" Note="60" Velocity="50"/>
    </Event>
    <Event>
      <Delta>0</Delta>
      <NoteOn Channel="1" Note="60" Velocity="50"/>
    </Event>
    <Event>
      <Delta>960</Delta>
      <NoteOff Channel="1" Note="60" Velocity="0"/>
    </Event>
    <Event>
      <Delta>0</Delta>
      <NoteOff Channel="1" Note="60" Velocity="0"/>
    </Event>
    <Event>
      <Delta>192</Delta>
      <NoteOn Channel="1" Note="61" Velocity="50"/>
    </Event>
    <Event>
      <Delta>0</Delta>
      <NoteOn Channel="1" Note="61" Velocity="50"/>
    </Event>
    <Event>
      <Delta>288</Delta>
      <NoteOff Channel="1" Note="61" Velocity="0"/>
    </Event>
    <Event>
      <Delta>0</Delta>
      <NoteOff Channel="1" Note="61" Velocity="0"/>
    </Event>
    <Event>
      <Delta>96</Delta>
      <NoteOn Channel="1" Note="56" Velocity="50"/>
    </Event>
    <Event>
      <Delta>0</Delta>
      <NoteOn Channel="1" Note="48" Velocity="50"/>
    </Event>
    <Event>
      <Delta>0</Delta>
      <NoteOn Channel="1" Note="60" Velocity="50"/>
    </Event>
    <Event>
      <Delta>0</Delta>
      <NoteOn Channel="1" Note="63" Velocity="50"/>
    </Event>
    <Event>
      <Delta>0</Delta>
      <NoteOn Channel="1" Note="63" Velocity="50"/>
    </Event>
    <Event>
      <Delta>576</Delta>
      <NoteOff Channel="1" Note="60" Velocity="0"/>
    </Event>
    <Event>
      <Delta>0</Delta>
      <NoteOff Channel="1" Note="63" Velocity="0"/>
    </Event>
    <Event>
      <Delta>0</Delta>
      <NoteOff Channel="1" Note="63" Velocity="0"/>
    </Event>
    <Event>
      <Delta>192</Delta>
      <NoteOff Channel="1" Note="48" Velocity="0"/>
    </Event>
    <Event>
      <Delta>0</Delta>
      <NoteOff Channel="1" Note="56" Velocity="0"/>
    </Event>
    <Event>
      <Delta>0</Delta>
      <NoteOn Channel="1" Note="63" Velocity="50"/>
    </Event>
    <Event>
      <Delta>0</Delta>
      <NoteOn Channel="1" Note="63" Velocity="50"/>
    </Event>
    <Event>
      <Delta>0</Delta>
      <NoteOn Channel="1" Note="60" Velocity="50"/>
    </Event>
    <Event>
      <Delta>0</Delta>
      <NoteOn Channel="1" Note="48" Velocity="50"/>
    </Event>
    <Event>
      <Delta>0</Delta>
      <NoteOn Channel="1" Note="51" Velocity="50"/>
    </Event>
    <Event>
      <Delta>576</Delta>
      <NoteOff Channel="1" Note="60" Velocity="0"/>
    </Event>
    <Event>
      <Delta>0</Delta>
      <NoteOff Channel="1" Note="63" Velocity="0"/>
    </Event>
    <Event>
      <Delta>0</Delta>
      <NoteOff Channel="1" Note="63" Velocity="0"/>
    </Event>
    <Event>
      <Delta>192</Delta>
      <NoteOff Channel="1" Note="51" Velocity="0"/>
    </Event>
    <Event>
      <Delta>0</Delta>
      <NoteOff Channel="1" Note="48" Velocity="0"/>
    </Event>
    <Event>
      <Delta>0</Delta>
      <NoteOn Channel="1" Note="63" Velocity="50"/>
    </Event>
    <Event>
      <Delta>0</Delta>
      <NoteOn Channel="1" Note="48" Velocity="50"/>
    </Event>
    <Event>
      <Delta>0</Delta>
      <NoteOn Channel="1" Note="56" Velocity="50"/>
    </Event>
    <Event>
      <Delta>0</Delta>
      <NoteOn Channel="1" Note="63" Velocity="50"/>
    </Event>
    <Event>
      <Delta>0</Delta>
      <NoteOn Channel="1" Note="60" Velocity="50"/>
    </Event>
    <Event>
      <Delta>576</Delta>
      <NoteOff Channel="1" Note="60" Velocity="0"/>
    </Event>
    <Event>
      <Delta>0</Delta>
      <NoteOff Channel="1" Note="63" Velocity="0"/>
    </Event>
    <Event>
      <Delta>0</Delta>
      <NoteOff Channel="1" Note="63" Velocity="0"/>
    </Event>
    <Event>
      <Delta>192</Delta>
      <NoteOff Channel="1" Note="56" Velocity="0"/>
    </Event>
    <Event>
      <Delta>0</Delta>
      <NoteOff Channel="1" Note="48" Velocity="0"/>
    </Event>
    <Event>
      <Delta>0</Delta>
      <NoteOn Channel="1" Note="60" Velocity="50"/>
    </Event>
    <Event>
      <Delta>0</Delta>
      <NoteOn Channel="1" Note="51" Velocity="50"/>
    </Event>
    <Event>
      <Delta>0</Delta>
      <NoteOn Channel="1" Note="68" Velocity="50"/>
    </Event>
    <Event>
      <Delta>0</Delta>
      <NoteOn Channel="1" Note="56" Velocity="50"/>
    </Event>
    <Event>
      <Delta>0</Delta>
      <NoteOn Channel="1" Note="68" Velocity="50"/>
    </Event>
    <Event>
      <Delta>576</Delta>
      <NoteOff Channel="1" Note="68" Velocity="0"/>
    </Event>
    <Event>
      <Delta>0</Delta>
      <NoteOff Channel="1" Note="60" Velocity="0"/>
    </Event>
    <Event>
      <Delta>0</Delta>
      <NoteOff Channel="1" Note="68" Velocity="0"/>
    </Event>
    <Event>
      <Delta>192</Delta>
      <NoteOff Channel="1" Note="51" Velocity="0"/>
    </Event>
    <Event>
      <Delta>0</Delta>
      <NoteOff Channel="1" Note="56" Velocity="0"/>
    </Event>
    <Event>
      <Delta>0</Delta>
      <NoteOn Channel="1" Note="60" Velocity="50"/>
    </Event>
    <Event>
      <Delta>0</Delta>
      <NoteOn Channel="1" Note="68" Velocity="50"/>
    </Event>
    <Event>
      <Delta>0</Delta>
      <NoteOn Channel="1" Note="51" Velocity="50"/>
    </Event>
    <Event>
      <Delta>0</Delta>
      <NoteOn Channel="1" Note="56" Velocity="50"/>
    </Event>
    <Event>
      <Delta>0</Delta>
      <NoteOn Channel="1" Note="68" Velocity="50"/>
    </Event>
    <Event>
      <Delta>576</Delta>
      <NoteOff Channel="1" Note="60" Velocity="0"/>
    </Event>
    <Event>
      <Delta>0</Delta>
      <NoteOff Channel="1" Note="68" Velocity="0"/>
    </Event>
    <Event>
      <Delta>0</Delta>
      <NoteOff Channel="1" Note="68" Velocity="0"/>
    </Event>
    <Event>
      <Delta>192</Delta>
      <NoteOff Channel="1" Note="51" Velocity="0"/>
    </Event>
    <Event>
      <Delta>0</Delta>
      <NoteOff Channel="1" Note="56" Velocity="0"/>
    </Event>
    <Event>
      <Delta>0</Delta>
      <NoteOn Channel="1" Note="60" Velocity="50"/>
    </Event>
    <Event>
      <Delta>0</Delta>
      <NoteOn Channel="1" Note="72" Velocity="50"/>
    </Event>
    <Event>
      <Delta>0</Delta>
      <NoteOn Channel="1" Note="63" Velocity="50"/>
    </Event>
    <Event>
      <Delta>0</Delta>
      <NoteOn Channel="1" Note="56" Velocity="50"/>
    </Event>
    <Event>
      <Delta>0</Delta>
      <NoteOn Channel="1" Note="72" Velocity="50"/>
    </Event>
    <Event>
      <Delta>576</Delta>
      <NoteOff Channel="1" Note="63" Velocity="0"/>
    </Event>
    <Event>
      <Delta>0</Delta>
      <NoteOff Channel="1" Note="72" Velocity="0"/>
    </Event>
    <Event>
      <Delta>0</Delta>
      <NoteOff Channel="1" Note="72" Velocity="0"/>
    </Event>
    <Event>
      <Delta>192</Delta>
      <NoteOff Channel="1" Note="56" Velocity="0"/>
    </Event>
    <Event>
      <Delta>0</Delta>
      <NoteOff Channel="1" Note="60" Velocity="0"/>
    </Event>
    <Event>
      <Delta>0</Delta>
      <NoteOn Channel="1" Note="60" Velocity="50"/>
    </Event>
    <Event>
      <Delta>0</Delta>
      <NoteOn Channel="1" Note="56" Velocity="50"/>
    </Event>
    <Event>
      <Delta>0</Delta>
      <NoteOn Channel="1" Note="63" Velocity="50"/>
    </Event>
    <Event>
      <Delta>0</Delta>
      <NoteOn Channel="1" Note="72" Velocity="50"/>
    </Event>
    <Event>
      <Delta>0</Delta>
      <NoteOn Channel="1" Note="72" Velocity="50"/>
    </Event>
    <Event>
      <Delta>960</Delta>
      <NoteOff Channel="1" Note="60" Velocity="0"/>
    </Event>
    <Event>
      <Delta>0</Delta>
      <NoteOff Channel="1" Note="72" Velocity="0"/>
    </Event>
    <Event>
      <Delta>0</Delta>
      <NoteOff Channel="1" Note="72" Velocity="0"/>
    </Event>
    <Event>
      <Delta>0</Delta>
      <NoteOff Channel="1" Note="63" Velocity="0"/>
    </Event>
    <Event>
      <Delta>0</Delta>
      <NoteOff Channel="1" Note="56" Velocity="0"/>
    </Event>
    <Event>
      <Delta>192</Delta>
      <NoteOn Channel="1" Note="70" Velocity="50"/>
    </Event>
    <Event>
      <Delta>0</Delta>
      <NoteOn Channel="1" Note="61" Velocity="50"/>
    </Event>
    <Event>
      <Delta>0</Delta>
      <NoteOn Channel="1" Note="58" Velocity="50"/>
    </Event>
    <Event>
      <Delta>0</Delta>
      <NoteOn Channel="1" Note="70" Velocity="50"/>
    </Event>
    <Event>
      <Delta>0</Delta>
      <NoteOn Channel="1" Note="55" Velocity="50"/>
    </Event>
    <Event>
      <Delta>288</Delta>
      <NoteOff Channel="1" Note="55" Velocity="0"/>
    </Event>
    <Event>
      <Delta>0</Delta>
      <NoteOff Channel="1" Note="61" Velocity="0"/>
    </Event>
    <Event>
      <Delta>0</Delta>
      <NoteOff Channel="1" Note="70" Velocity="0"/>
    </Event>
    <Event>
      <Delta>0</Delta>
      <NoteOff Channel="1" Note="58" Velocity="0"/>
    </Event>
    <Event>
      <Delta>0</Delta>
      <NoteOff Channel="1" Note="70" Velocity="0"/>
    </Event>
    <Event>
      <Delta>96</Delta>
      <NoteOn Channel="1" Note="51" Velocity="50"/>
    </Event>
    <Event>
      <Delta>0</Delta>
      <NoteOn Channel="1" Note="68" Velocity="50"/>
    </Event>
    <Event>
      <Delta>0</Delta>
      <NoteOn Channel="1" Note="56" Velocity="50"/>
    </Event>
    <Event>
      <Delta>0</Delta>
      <NoteOn Channel="1" Note="68" Velocity="50"/>
    </Event>
    <Event>
      <Delta>0</Delta>
      <NoteOn Channel="1" Note="60" Velocity="50"/>
    </Event>
    <Event>
      <Delta>576</Delta>
      <NoteOff Channel="1" Note="60" Velocity="0"/>
    </Event>
    <Event>
      <Delta>0</Delta>
      <NoteOff Channel="1" Note="68" Velocity="0"/>
    </Event>
    <Event>
      <Delta>0</Delta>
      <NoteOff Channel="1" Note="68" Velocity="0"/>
    </Event>
    <Event>
      <Delta>192</Delta>
      <NoteOff Channel="1" Note="51" Velocity="0"/>
    </Event>
    <Event>
      <Delta>0</Delta>
      <NoteOff Channel="1" Note="56" Velocity="0"/>
    </Event>
    <Event>
      <Delta>2304</Delta>
      <NoteOn Channel="1" Note="67" Velocity="50"/>
    </Event>
    <Event>
      <Delta>0</Delta>
      <NoteOn Channel="1" Note="63" Velocity="50"/>
    </Event>
    <Event>
      <Delta>0</Delta>
      <NoteOn Channel="1" Note="67" Velocity="50"/>
    </Event>
    <Event>
      <Delta>0</Delta>
      <NoteOn Channel="1" Note="51" Velocity="50"/>
    </Event>
    <Event>
      <Delta>0</Delta>
      <NoteOn Channel="1" Note="58" Velocity="50"/>
    </Event>
    <Event>
      <Delta>576</Delta>
      <NoteOff Channel="1" Note="63" Velocity="0"/>
    </Event>
    <Event>
      <Delta>0</Delta>
      <NoteOff Channel="1" Note="67" Velocity="0"/>
    </Event>
    <Event>
      <Delta>0</Delta>
      <NoteOff Channel="1" Note="67" Velocity="0"/>
    </Event>
    <Event>
      <Delta>192</Delta>
      <NoteOff Channel="1" Note="58" Velocity="0"/>
    </Event>
    <Event>
      <Delta>0</Delta>
      <NoteOff Channel="1" Note="51" Velocity="0"/>
    </Event>
    <Event>
      <Delta>0</Delta>
      <NoteOn Channel="1" Note="68" Velocity="50"/>
    </Event>
    <Event>
      <Delta>0</Delta>
      <NoteOn Channel="1" Note="68" Velocity="50"/>
    </Event>
    <Event>
      <Delta>0</Delta>
      <NoteOn Channel="1" Note="63" Velocity="50"/>
    </Event>
    <Event>
      <Delta>0</Delta>
      <NoteOn Channel="1" Note="60" Velocity="50"/>
    </Event>
    <Event>
      <Delta>0</Delta>
      <NoteOn Channel="1" Note="51" Velocity="50"/>
    </Event>
    <Event>
      <Delta>576</Delta>
      <NoteOff Channel="1" Note="68" Velocity="0"/>
    </Event>
    <Event>
      <Delta>0</Delta>
      <NoteOff Channel="1" Note="63" Velocity="0"/>
    </Event>
    <Event>
      <Delta>0</Delta>
      <NoteOff Channel="1" Note="68" Velocity="0"/>
    </Event>
    <Event>
      <Delta>192</Delta>
      <NoteOff Channel="1" Note="51" Velocity="0"/>
    </Event>
    <Event>
      <Delta>0</Delta>
      <NoteOff Channel="1" Note="60" Velocity="0"/>
    </Event>
    <Event>
      <Delta>0</Delta>
      <NoteOn Channel="1" Note="58" Velocity="50"/>
    </Event>
    <Event>
      <Delta>0</Delta>
      <NoteOn Channel="1" Note="70" Velocity="50"/>
    </Event>
    <Event>
      <Delta>0</Delta>
      <NoteOn Channel="1" Note="70" Velocity="50"/>
    </Event>
    <Event>
      <Delta>0</Delta>
      <NoteOn Channel="1" Note="61" Velocity="50"/>
    </Event>
    <Event>
      <Delta>0</Delta>
      <NoteOn Channel="1" Note="55" Velocity="50"/>
    </Event>
    <Event>
      <Delta>576</Delta>
      <NoteOff Channel="1" Note="61" Velocity="0"/>
    </Event>
    <Event>
      <Delta>0</Delta>
      <NoteOff Channel="1" Note="70" Velocity="0"/>
    </Event>
    <Event>
      <Delta>0</Delta>
      <NoteOff Channel="1" Note="70" Velocity="0"/>
    </Event>
    <Event>
      <Delta>192</Delta>
      <NoteOff Channel="1" Note="55" Velocity="0"/>
    </Event>
    <Event>
      <Delta>0</Delta>
      <NoteOff Channel="1" Note="58" Velocity="0"/>
    </Event>
    <Event>
      <Delta>2304</Delta>
      <NoteOn Channel="1" Note="72" Velocity="50"/>
    </Event>
    <Event>
      <Delta>0</Delta>
      <NoteOn Channel="1" Note="56" Velocity="50"/>
    </Event>
    <Event>
      <Delta>0</Delta>
      <NoteOn Channel="1" Note="60" Velocity="50"/>
    </Event>
    <Event>
      <Delta>0</Delta>
      <NoteOn Channel="1" Note="72" Velocity="50"/>
    </Event>
    <Event>
      <Delta>0</Delta>
      <NoteOn Channel="1" Note="63" Velocity="50"/>
    </Event>
    <Event>
      <Delta>960</Delta>
      <NoteOff Channel="1" Note="56" Velocity="0"/>
    </Event>
    <Event>
      <Delta>0</Delta>
      <NoteOff Channel="1" Note="63" Velocity="0"/>
    </Event>
    <Event>
      <Delta>0</Delta>
      <NoteOff Channel="1" Note="72" Velocity="0"/>
    </Event>
    <Event>
      <Delta>0</Delta>
      <NoteOff Channel="1" Note="60" Velocity="0"/>
    </Event>
    <Event>
      <Delta>0</Delta>
      <NoteOff Channel="1" Note="72" Velocity="0"/>
    </Event>
    <Event>
      <Delta>192</Delta>
      <NoteOn Channel="1" Note="61" Velocity="50"/>
    </Event>
    <Event>
      <Delta>0</Delta>
      <NoteOn Channel="1" Note="70" Velocity="50"/>
    </Event>
    <Event>
      <Delta>0</Delta>
      <NoteOn Channel="1" Note="55" Velocity="50"/>
    </Event>
    <Event>
      <Delta>0</Delta>
      <NoteOn Channel="1" Note="70" Velocity="50"/>
    </Event>
    <Event>
      <Delta>0</Delta>
      <NoteOn Channel="1" Note="58" Velocity="50"/>
    </Event>
    <Event>
      <Delta>288</Delta>
      <NoteOff Channel="1" Note="70" Velocity="0"/>
    </Event>
    <Event>
      <Delta>0</Delta>
      <NoteOff Channel="1" Note="58" Velocity="0"/>
    </Event>
    <Event>
      <Delta>0</Delta>
      <NoteOff Channel="1" Note="70" Velocity="0"/>
    </Event>
    <Event>
      <Delta>0</Delta>
      <NoteOff Channel="1" Note="61" Velocity="0"/>
    </Event>
    <Event>
      <Delta>0</Delta>
      <NoteOff Channel="1" Note="55" Velocity="0"/>
    </Event>
    <Event>
      <Delta>96</Delta>
      <NoteOn Channel="1" Note="68" Velocity="50"/>
    </Event>
    <Event>
      <Delta>0</Delta>
      <NoteOn Channel="1" Note="60" Velocity="50"/>
    </Event>
    <Event>
      <Delta>0</Delta>
      <NoteOn Channel="1" Note="51" Velocity="50"/>
    </Event>
    <Event>
      <Delta>0</Delta>
      <NoteOn Channel="1" Note="68" Velocity="50"/>
    </Event>
    <Event>
      <Delta>0</Delta>
      <NoteOn Channel="1" Note="56" Velocity="50"/>
    </Event>
    <Event>
      <Delta>576</Delta>
      <NoteOff Channel="1" Note="60" Velocity="0"/>
    </Event>
    <Event>
      <Delta>0</Delta>
      <NoteOff Channel="1" Note="68" Velocity="0"/>
    </Event>
    <Event>
      <Delta>0</Delta>
      <NoteOff Channel="1" Note="68" Velocity="0"/>
    </Event>
    <Event>
      <Delta>192</Delta>
      <NoteOff Channel="1" Note="56" Velocity="0"/>
    </Event>
    <Event>
      <Delta>0</Delta>
      <NoteOff Channel="1" Note="51" Velocity="0"/>
    </Event>
    <Event>
      <Delta>2304</Delta>
      <NoteOn Channel="1" Note="44" Velocity="50"/>
    </Event>
    <Event>
      <Delta>0</Delta>
      <NoteOn Channel="1" Note="60" Velocity="50"/>
    </Event>
    <Event>
      <Delta>0</Delta>
      <NoteOn Channel="1" Note="48" Velocity="50"/>
    </Event>
    <Event>
      <Delta>0</Delta>
      <NoteOn Channel="1" Note="60" Velocity="50"/>
    </Event>
    <Event>
      <Delta>960</Delta>
      <NoteOff Channel="1" Note="44" Velocity="0"/>
    </Event>
    <Event>
      <Delta>0</Delta>
      <NoteOff Channel="1" Note="48" Velocity="0"/>
    </Event>
    <Event>
      <Delta>0</Delta>
      <NoteOff Channel="1" Note="60" Velocity="0"/>
    </Event>
    <Event>
      <Delta>0</Delta>
      <NoteOff Channel="1" Note="60" Velocity="0"/>
    </Event>
    <Event>
      <Delta>192</Delta>
      <NoteOn Channel="1" Note="49" Velocity="50"/>
    </Event>
    <Event>
      <Delta>0</Delta>
      <NoteOn Channel="1" Note="61" Velocity="50"/>
    </Event>
    <Event>
      <Delta>0</Delta>
      <NoteOn Channel="1" Note="61" Velocity="50"/>
    </Event>
    <Event>
      <Delta>0</Delta>
      <NoteOn Channel="1" Note="44" Velocity="50"/>
    </Event>
    <Event>
      <Delta>288</Delta>
      <NoteOff Channel="1" Note="49" Velocity="0"/>
    </Event>
    <Event>
      <Delta>0</Delta>
      <NoteOff Channel="1" Note="44" Velocity="0"/>
    </Event>
    <Event>
      <Delta>0</Delta>
      <NoteOff Channel="1" Note="61" Velocity="0"/>
    </Event>
    <Event>
      <Delta>0</Delta>
      <NoteOff Channel="1" Note="61" Velocity="0"/>
    </Event>
    <Event>
      <Delta>96</Delta>
      <NoteOn Channel="1" Note="63" Velocity="50"/>
    </Event>
    <Event>
      <Delta>0</Delta>
      <NoteOn Channel="1" Note="60" Velocity="50"/>
    </Event>
    <Event>
      <Delta>0</Delta>
      <NoteOn Channel="1" Note="63" Velocity="50"/>
    </Event>
    <Event>
      <Delta>0</Delta>
      <NoteOn Channel="1" Note="48" Velocity="50"/>
    </Event>
    <Event>
      <Delta>0</Delta>
      <NoteOn Channel="1" Note="56" Velocity="50"/>
    </Event>
    <Event>
      <Delta>576</Delta>
      <NoteOff Channel="1" Note="63" Velocity="0"/>
    </Event>
    <Event>
      <Delta>0</Delta>
      <NoteOff Channel="1" Note="60" Velocity="0"/>
    </Event>
    <Event>
      <Delta>0</Delta>
      <NoteOff Channel="1" Note="63" Velocity="0"/>
    </Event>
    <Event>
      <Delta>192</Delta>
      <NoteOff Channel="1" Note="56" Velocity="0"/>
    </Event>
    <Event>
      <Delta>0</Delta>
      <NoteOff Channel="1" Note="48" Velocity="0"/>
    </Event>
    <Event>
      <Delta>0</Delta>
      <NoteOn Channel="1" Note="48" Velocity="50"/>
    </Event>
    <Event>
      <Delta>0</Delta>
      <NoteOn Channel="1" Note="63" Velocity="50"/>
    </Event>
    <Event>
      <Delta>0</Delta>
      <NoteOn Channel="1" Note="60" Velocity="50"/>
    </Event>
    <Event>
      <Delta>0</Delta>
      <NoteOn Channel="1" Note="51" Velocity="50"/>
    </Event>
    <Event>
      <Delta>0</Delta>
      <NoteOn Channel="1" Note="63" Velocity="50"/>
    </Event>
    <Event>
      <Delta>576</Delta>
      <NoteOff Channel="1" Note="60" Velocity="0"/>
    </Event>
    <Event>
      <Delta>0</Delta>
      <NoteOff Channel="1" Note="63" Velocity="0"/>
    </Event>
    <Event>
      <Delta>0</Delta>
      <NoteOff Channel="1" Note="63" Velocity="0"/>
    </Event>
    <Event>
      <Delta>192</Delta>
      <NoteOff Channel="1" Note="48" Velocity="0"/>
    </Event>
    <Event>
      <Delta>0</Delta>
      <NoteOff Channel="1" Note="51" Velocity="0"/>
    </Event>
    <Event>
      <Delta>0</Delta>
      <NoteOn Channel="1" Note="56" Velocity="50"/>
    </Event>
    <Event>
      <Delta>0</Delta>
      <NoteOn Channel="1" Note="63" Velocity="50"/>
    </Event>
    <Event>
      <Delta>0</Delta>
      <NoteOn Channel="1" Note="48" Velocity="50"/>
    </Event>
    <Event>
      <Delta>0</Delta>
      <NoteOn Channel="1" Note="63" Velocity="50"/>
    </Event>
    <Event>
      <Delta>0</Delta>
      <NoteOn Channel="1" Note="60" Velocity="50"/>
    </Event>
    <Event>
      <Delta>576</Delta>
      <NoteOff Channel="1" Note="63" Velocity="0"/>
    </Event>
    <Event>
      <Delta>0</Delta>
      <NoteOff Channel="1" Note="60" Velocity="0"/>
    </Event>
    <Event>
      <Delta>0</Delta>
      <NoteOff Channel="1" Note="63" Velocity="0"/>
    </Event>
    <Event>
      <Delta>192</Delta>
      <NoteOff Channel="1" Note="56" Velocity="0"/>
    </Event>
    <Event>
      <Delta>0</Delta>
      <NoteOff Channel="1" Note="48" Velocity="0"/>
    </Event>
    <Event>
      <Delta>0</Delta>
      <NoteOn Channel="1" Note="60" Velocity="50"/>
    </Event>
    <Event>
      <Delta>0</Delta>
      <NoteOn Channel="1" Note="51" Velocity="50"/>
    </Event>
    <Event>
      <Delta>0</Delta>
      <NoteOn Channel="1" Note="68" Velocity="50"/>
    </Event>
    <Event>
      <Delta>0</Delta>
      <NoteOn Channel="1" Note="68" Velocity="50"/>
    </Event>
    <Event>
      <Delta>0</Delta>
      <NoteOn Channel="1" Note="56" Velocity="50"/>
    </Event>
    <Event>
      <Delta>576</Delta>
      <NoteOff Channel="1" Note="68" Velocity="0"/>
    </Event>
    <Event>
      <Delta>0</Delta>
      <NoteOff Channel="1" Note="68" Velocity="0"/>
    </Event>
    <Event>
      <Delta>0</Delta>
      <NoteOff Channel="1" Note="60" Velocity="0"/>
    </Event>
    <Event>
      <Delta>192</Delta>
      <NoteOff Channel="1" Note="56" Velocity="0"/>
    </Event>
    <Event>
      <Delta>0</Delta>
      <NoteOff Channel="1" Note="51" Velocity="0"/>
    </Event>
    <Event>
      <Delta>0</Delta>
      <NoteOn Channel="1" Note="68" Velocity="50"/>
    </Event>
    <Event>
      <Delta>0</Delta>
      <NoteOn Channel="1" Note="56" Velocity="50"/>
    </Event>
    <Event>
      <Delta>0</Delta>
      <NoteOn Channel="1" Note="68" Velocity="50"/>
    </Event>
    <Event>
      <Delta>0</Delta>
      <NoteOn Channel="1" Note="51" Velocity="50"/>
    </Event>
    <Event>
      <Delta>0</Delta>
      <NoteOn Channel="1" Note="60" Velocity="50"/>
    </Event>
    <Event>
      <Delta>576</Delta>
      <NoteOff Channel="1" Note="68" Velocity="0"/>
    </Event>
    <Event>
      <Delta>0</Delta>
      <NoteOff Channel="1" Note="60" Velocity="0"/>
    </Event>
    <Event>
      <Delta>0</Delta>
      <NoteOff Channel="1" Note="68" Velocity="0"/>
    </Event>
    <Event>
      <Delta>192</Delta>
      <NoteOff Channel="1" Note="51" Velocity="0"/>
    </Event>
    <Event>
      <Delta>0</Delta>
      <NoteOff Channel="1" Note="56" Velocity="0"/>
    </Event>
    <Event>
      <Delta>0</Delta>
      <NoteOn Channel="1" Note="63" Velocity="50"/>
    </Event>
    <Event>
      <Delta>0</Delta>
      <NoteOn Channel="1" Note="60" Velocity="50"/>
    </Event>
    <Event>
      <Delta>0</Delta>
      <NoteOn Channel="1" Note="72" Velocity="50"/>
    </Event>
    <Event>
      <Delta>0</Delta>
      <NoteOn Channel="1" Note="56" Velocity="50"/>
    </Event>
    <Event>
      <Delta>0</Delta>
      <NoteOn Channel="1" Note="72" Velocity="50"/>
    </Event>
    <Event>
      <Delta>576</Delta>
      <NoteOff Channel="1" Note="63" Velocity="0"/>
    </Event>
    <Event>
      <Delta>0</Delta>
      <NoteOff Channel="1" Note="72" Velocity="0"/>
    </Event>
    <Event>
      <Delta>0</Delta>
      <NoteOff Channel="1" Note="72" Velocity="0"/>
    </Event>
    <Event>
      <Delta>192</Delta>
      <NoteOff Channel="1" Note="60" Velocity="0"/>
    </Event>
    <Event>
      <Delta>0</Delta>
      <NoteOff Channel="1" Note="56" Velocity="0"/>
    </Event>
    <Event>
      <Delta>0</Delta>
      <NoteOn Channel="1" Note="63" Velocity="50"/>
    </Event>
    <Event>
      <Delta>0</Delta>
      <NoteOn Channel="1" Note="56" Velocity="50"/>
    </Event>
    <Event>
      <Delta>0</Delta>
      <NoteOn Channel="1" Note="72" Velocity="50"/>
    </Event>
    <Event>
      <Delta>0</Delta>
      <NoteOn Channel="1" Note="60" Velocity="50"/>
    </Event>
    <Event>
      <Delta>0</Delta>
      <NoteOn Channel="1" Note="72" Velocity="50"/>
    </Event>
    <Event>
      <Delta>960</Delta>
      <NoteOff Channel="1" Note="63" Velocity="0"/>
    </Event>
    <Event>
      <Delta>0</Delta>
      <NoteOff Channel="1" Note="72" Velocity="0"/>
    </Event>
    <Event>
      <Delta>0</Delta>
      <NoteOff Channel="1" Note="56" Velocity="0"/>
    </Event>
    <Event>
      <Delta>0</Delta>
      <NoteOff Channel="1" Note="72" Velocity="0"/>
    </Event>
    <Event>
      <Delta>0</Delta>
      <NoteOff Channel="1" Note="60" Velocity="0"/>
    </Event>
    <Event>
      <Delta>192</Delta>
      <NoteOn Channel="1" Note="61" Velocity="50"/>
    </Event>
    <Event>
      <Delta>0</Delta>
      <NoteOn Channel="1" Note="55" Velocity="50"/>
    </Event>
    <Event>
      <Delta>0</Delta>
      <NoteOn Channel="1" Note="58" Velocity="50"/>
    </Event>
    <Event>
      <Delta>0</Delta>
      <NoteOn Channel="1" Note="70" Velocity="50"/>
    </Event>
    <Event>
      <Delta>0</Delta>
      <NoteOn Channel="1" Note="70" Velocity="50"/>
    </Event>
    <Event>
      <Delta>288</Delta>
      <NoteOff Channel="1" Note="61" Velocity="0"/>
    </Event>
    <Event>
      <Delta>0</Delta>
      <NoteOff Channel="1" Note="70" Velocity="0"/>
    </Event>
    <Event>
      <Delta>0</Delta>
      <NoteOff Channel="1" Note="70" Velocity="0"/>
    </Event>
    <Event>
      <Delta>0</Delta>
      <NoteOff Channel="1" Note="58" Velocity="0"/>
    </Event>
    <Event>
      <Delta>0</Delta>
      <NoteOff Channel="1" Note="55" Velocity="0"/>
    </Event>
    <Event>
      <Delta>96</Delta>
      <NoteOn Channel="1" Note="51" Velocity="50"/>
    </Event>
    <Event>
      <Delta>0</Delta>
      <NoteOn Channel="1" Note="60" Velocity="50"/>
    </Event>
    <Event>
      <Delta>0</Delta>
      <NoteOn Channel="1" Note="68" Velocity="50"/>
    </Event>
    <Event>
      <Delta>0</Delta>
      <NoteOn Channel="1" Note="68" Velocity="50"/>
    </Event>
    <Event>
      <Delta>0</Delta>
      <NoteOn Channel="1" Note="56" Velocity="50"/>
    </Event>
    <Event>
      <Delta>576</Delta>
      <NoteOff Channel="1" Note="60" Velocity="0"/>
    </Event>
    <Event>
      <Delta>0</Delta>
      <NoteOff Channel="1" Note="68" Velocity="0"/>
    </Event>
    <Event>
      <Delta>0</Delta>
      <NoteOff Channel="1" Note="68" Velocity="0"/>
    </Event>
    <Event>
      <Delta>192</Delta>
      <NoteOff Channel="1" Note="56" Velocity="0"/>
    </Event>
    <Event>
      <Delta>0</Delta>
      <NoteOff Channel="1" Note="51" Velocity="0"/>
    </Event>
    <Event>
      <Delta>2304</Delta>
      <NoteOn Channel="1" Note="58" Velocity="50"/>
    </Event>
    <Event>
      <Delta>0</Delta>
      <NoteOn Channel="1" Note="67" Velocity="50"/>
    </Event>
    <Event>
      <Delta>0</Delta>
      <NoteOn Channel="1" Note="51" Velocity="50"/>
    </Event>
    <Event>
      <Delta>0</Delta>
      <NoteOn Channel="1" Note="67" Velocity="50"/>
    </Event>
    <Event>
      <Delta>0</Delta>
      <NoteOn Channel="1" Note="63" Velocity="50"/>
    </Event>
    <Event>
      <Delta>576</Delta>
      <NoteOff Channel="1" Note="63" Velocity="0"/>
    </Event>
    <Event>
      <Delta>0</Delta>
      <NoteOff Channel="1" Note="67" Velocity="0"/>
    </Event>
    <Event>
      <Delta>0</Delta>
      <NoteOff Channel="1" Note="67" Velocity="0"/>
    </Event>
    <Event>
      <Delta>192</Delta>
      <NoteOff Channel="1" Note="58" Velocity="0"/>
    </Event>
    <Event>
      <Delta>0</Delta>
      <NoteOff Channel="1" Note="51" Velocity="0"/>
    </Event>
    <Event>
      <Delta>0</Delta>
      <NoteOn Channel="1" Note="68" Velocity="50"/>
    </Event>
    <Event>
      <Delta>0</Delta>
      <NoteOn Channel="1" Note="51" Velocity="50"/>
    </Event>
    <Event>
      <Delta>0</Delta>
      <NoteOn Channel="1" Note="68" Velocity="50"/>
    </Event>
    <Event>
      <Delta>0</Delta>
      <NoteOn Channel="1" Note="63" Velocity="50"/>
    </Event>
    <Event>
      <Delta>0</Delta>
      <NoteOn Channel="1" Note="60" Velocity="50"/>
    </Event>
    <Event>
      <Delta>576</Delta>
      <NoteOff Channel="1" Note="68" Velocity="0"/>
    </Event>
    <Event>
      <Delta>0</Delta>
      <NoteOff Channel="1" Note="68" Velocity="0"/>
    </Event>
    <Event>
      <Delta>0</Delta>
      <NoteOff Channel="1" Note="63" Velocity="0"/>
    </Event>
    <Event>
      <Delta>192</Delta>
      <NoteOff Channel="1" Note="51" Velocity="0"/>
    </Event>
    <Event>
      <Delta>0</Delta>
      <NoteOff Channel="1" Note="60" Velocity="0"/>
    </Event>
    <Event>
      <Delta>0</Delta>
      <NoteOn Channel="1" Note="61" Velocity="50"/>
    </Event>
    <Event>
      <Delta>0</Delta>
      <NoteOn Channel="1" Note="55" Velocity="50"/>
    </Event>
    <Event>
      <Delta>0</Delta>
      <NoteOn Channel="1" Note="70" Velocity="50"/>
    </Event>
    <Event>
      <Delta>0</Delta>
      <NoteOn Channel="1" Note="58" Velocity="50"/>
    </Event>
    <Event>
      <Delta>0</Delta>
      <NoteOn Channel="1" Note="70" Velocity="50"/>
    </Event>
    <Event>
      <Delta>576</Delta>
      <NoteOff Channel="1" Note="70" Velocity="0"/>
    </Event>
    <Event>
      <Delta>0</Delta>
      <NoteOff Channel="1" Note="55" Velocity="0"/>
    </Event>
    <Event>
      <Delta>0</Delta>
      <NoteOff Channel="1" Note="61" Velocity="0"/>
    </Event>
    <Event>
      <Delta>0</Delta>
      <NoteOff Channel="1" Note="58" Velocity="0"/>
    </Event>
    <Event>
      <Delta>0</Delta>
      <NoteOff Channel="1" Note="70" Velocity="0"/>
    </Event>
    <Event>
      <Delta>2496</Delta>
      <NoteOn Channel="1" Note="72" Velocity="50"/>
    </Event>
    <Event>
      <Delta>0</Delta>
      <NoteOn Channel="1" Note="63" Velocity="50"/>
    </Event>
    <Event>
      <Delta>0</Delta>
      <NoteOn Channel="1" Note="60" Velocity="50"/>
    </Event>
    <Event>
      <Delta>0</Delta>
      <NoteOn Channel="1" Note="72" Velocity="50"/>
    </Event>
    <Event>
      <Delta>0</Delta>
      <NoteOn Channel="1" Note="56" Velocity="50"/>
    </Event>
    <Event>
      <Delta>960</Delta>
      <NoteOff Channel="1" Note="56" Velocity="0"/>
    </Event>
    <Event>
      <Delta>0</Delta>
      <NoteOff Channel="1" Note="63" Velocity="0"/>
    </Event>
    <Event>
      <Delta>0</Delta>
      <NoteOff Channel="1" Note="72" Velocity="0"/>
    </Event>
    <Event>
      <Delta>0</Delta>
      <NoteOff Channel="1" Note="60" Velocity="0"/>
    </Event>
    <Event>
      <Delta>0</Delta>
      <NoteOff Channel="1" Note="72" Velocity="0"/>
    </Event>
    <Event>
      <Delta>192</Delta>
      <NoteOn Channel="1" Note="58" Velocity="50"/>
    </Event>
    <Event>
      <Delta>0</Delta>
      <NoteOn Channel="1" Note="70" Velocity="50"/>
    </Event>
    <Event>
      <Delta>0</Delta>
      <NoteOn Channel="1" Note="55" Velocity="50"/>
    </Event>
    <Event>
      <Delta>0</Delta>
      <NoteOn Channel="1" Note="61" Velocity="50"/>
    </Event>
    <Event>
      <Delta>0</Delta>
      <NoteOn Channel="1" Note="70" Velocity="50"/>
    </Event>
    <Event>
      <Delta>288</Delta>
      <NoteOff Channel="1" Note="58" Velocity="0"/>
    </Event>
    <Event>
      <Delta>0</Delta>
      <NoteOff Channel="1" Note="70" Velocity="0"/>
    </Event>
    <Event>
      <Delta>0</Delta>
      <NoteOff Channel="1" Note="61" Velocity="0"/>
    </Event>
    <Event>
      <Delta>0</Delta>
      <NoteOff Channel="1" Note="55" Velocity="0"/>
    </Event>
    <Event>
      <Delta>0</Delta>
      <NoteOff Channel="1" Note="70" Velocity="0"/>
    </Event>
    <Event>
      <Delta>96</Delta>
      <NoteOn Channel="1" Note="68" Velocity="50"/>
    </Event>
    <Event>
      <Delta>0</Delta>
      <NoteOn Channel="1" Note="56" Velocity="50"/>
    </Event>
    <Event>
      <Delta>0</Delta>
      <NoteOn Channel="1" Note="68" Velocity="50"/>
    </Event>
    <Event>
      <Delta>0</Delta>
      <NoteOn Channel="1" Note="60" Velocity="50"/>
    </Event>
    <Event>
      <Delta>0</Delta>
      <NoteOn Channel="1" Note="51" Velocity="50"/>
    </Event>
    <Event>
      <Delta>576</Delta>
      <NoteOff Channel="1" Note="68" Velocity="0"/>
    </Event>
    <Event>
      <Delta>0</Delta>
      <NoteOff Channel="1" Note="68" Velocity="0"/>
    </Event>
    <Event>
      <Delta>0</Delta>
      <NoteOff Channel="1" Note="60" Velocity="0"/>
    </Event>
    <Event>
      <Delta>192</Delta>
      <NoteOff Channel="1" Note="56" Velocity="0"/>
    </Event>
    <Event>
      <Delta>0</Delta>
      <NoteOff Channel="1" Note="51" Velocity="0"/>
    </Event>
    <Event>
      <Delta>2304</Delta>
      <NoteOn Channel="1" Note="63" Velocity="50"/>
    </Event>
    <Event>
      <Delta>0</Delta>
      <NoteOn Channel="1" Note="48" Velocity="50"/>
    </Event>
    <Event>
      <Delta>0</Delta>
      <NoteOn Channel="1" Note="63" Velocity="50"/>
    </Event>
    <Event>
      <Delta>0</Delta>
      <NoteOn Channel="1" Note="60" Velocity="50"/>
    </Event>
    <Event>
      <Delta>0</Delta>
      <NoteOn Channel="1" Note="56" Velocity="50"/>
    </Event>
    <Event>
      <Delta>960</Delta>
      <NoteOff Channel="1" Note="56" Velocity="0"/>
    </Event>
    <Event>
      <Delta>0</Delta>
      <NoteOff Channel="1" Note="48" Velocity="0"/>
    </Event>
    <Event>
      <Delta>0</Delta>
      <NoteOff Channel="1" Note="63" Velocity="0"/>
    </Event>
    <Event>
      <Delta>0</Delta>
      <NoteOff Channel="1" Note="60" Velocity="0"/>
    </Event>
    <Event>
      <Delta>0</Delta>
      <NoteOff Channel="1" Note="63" Velocity="0"/>
    </Event>
    <Event>
      <Delta>192</Delta>
      <NoteOn Channel="1" Note="68" Velocity="50"/>
    </Event>
    <Event>
      <Delta>0</Delta>
      <NoteOn Channel="1" Note="68" Velocity="50"/>
    </Event>
    <Event>
      <Delta>0</Delta>
      <NoteOn Channel="1" Note="56" Velocity="50"/>
    </Event>
    <Event>
      <Delta>0</Delta>
      <NoteOn Channel="1" Note="60" Velocity="50"/>
    </Event>
    <Event>
      <Delta>0</Delta>
      <NoteOn Channel="1" Note="51" Velocity="50"/>
    </Event>
    <Event>
      <Delta>288</Delta>
      <NoteOff Channel="1" Note="68" Velocity="0"/>
    </Event>
    <Event>
      <Delta>0</Delta>
      <NoteOff Channel="1" Note="51" Velocity="0"/>
    </Event>
    <Event>
      <Delta>0</Delta>
      <NoteOff Channel="1" Note="68" Velocity="0"/>
    </Event>
    <Event>
      <Delta>0</Delta>
      <NoteOff Channel="1" Note="56" Velocity="0"/>
    </Event>
    <Event>
      <Delta>0</Delta>
      <NoteOff Channel="1" Note="60" Velocity="0"/>
    </Event>
    <Event>
      <Delta>96</Delta>
      <NoteOn Channel="1" Note="67" Velocity="50"/>
    </Event>
    <Event>
      <Delta>0</Delta>
      <NoteOn Channel="1" Note="67" Velocity="50"/>
    </Event>
    <Event>
      <Delta>0</Delta>
      <NoteOn Channel="1" Note="51" Velocity="50"/>
    </Event>
    <Event>
      <Delta>0</Delta>
      <NoteOn Channel="1" Note="58" Velocity="50"/>
    </Event>
    <Event>
      <Delta>0</Delta>
      <NoteOn Channel="1" Note="55" Velocity="50"/>
    </Event>
    <Event>
      <Delta>576</Delta>
      <NoteOff Channel="1" Note="58" Velocity="0"/>
    </Event>
    <Event>
      <Delta>0</Delta>
      <NoteOff Channel="1" Note="67" Velocity="0"/>
    </Event>
    <Event>
      <Delta>0</Delta>
      <NoteOff Channel="1" Note="67" Velocity="0"/>
    </Event>
    <Event>
      <Delta>192</Delta>
      <NoteOff Channel="1" Note="55" Velocity="0"/>
    </Event>
    <Event>
      <Delta>0</Delta>
      <NoteOff Channel="1" Note="51" Velocity="0"/>
    </Event>
    <Event>
      <Delta>0</Delta>
      <NoteOn Channel="1" Note="58" Velocity="50"/>
    </Event>
    <Event>
      <Delta>0</Delta>
      <NoteOn Channel="1" Note="67" Velocity="50"/>
    </Event>
    <Event>
      <Delta>0</Delta>
      <NoteOn Channel="1" Note="55" Velocity="50"/>
    </Event>
    <Event>
      <Delta>0</Delta>
      <NoteOn Channel="1" Note="51" Velocity="50"/>
    </Event>
    <Event>
      <Delta>0</Delta>
      <NoteOn Channel="1" Note="67" Velocity="50"/>
    </Event>
    <Event>
      <Delta>576</Delta>
      <NoteOff Channel="1" Note="67" Velocity="0"/>
    </Event>
    <Event>
      <Delta>0</Delta>
      <NoteOff Channel="1" Note="67" Velocity="0"/>
    </Event>
    <Event>
      <Delta>0</Delta>
      <NoteOff Channel="1" Note="58" Velocity="0"/>
    </Event>
    <Event>
      <Delta>192</Delta>
      <NoteOff Channel="1" Note="55" Velocity="0"/>
    </Event>
    <Event>
      <Delta>0</Delta>
      <NoteOff Channel="1" Note="51" Velocity="0"/>
    </Event>
    <Event>
      <Delta>0</Delta>
      <NoteOn Channel="1" Note="67" Velocity="50"/>
    </Event>
    <Event>
      <Delta>0</Delta>
      <NoteOn Channel="1" Note="55" Velocity="50"/>
    </Event>
    <Event>
      <Delta>0</Delta>
      <NoteOn Channel="1" Note="67" Velocity="50"/>
    </Event>
    <Event>
      <Delta>0</Delta>
      <NoteOn Channel="1" Note="58" Velocity="50"/>
    </Event>
    <Event>
      <Delta>0</Delta>
      <NoteOn Channel="1" Note="51" Velocity="50"/>
    </Event>
    <Event>
      <Delta>576</Delta>
      <NoteOff Channel="1" Note="67" Velocity="0"/>
    </Event>
    <Event>
      <Delta>0</Delta>
      <NoteOff Channel="1" Note="58" Velocity="0"/>
    </Event>
    <Event>
      <Delta>0</Delta>
      <NoteOff Channel="1" Note="67" Velocity="0"/>
    </Event>
    <Event>
      <Delta>192</Delta>
      <NoteOff Channel="1" Note="51" Velocity="0"/>
    </Event>
    <Event>
      <Delta>0</Delta>
      <NoteOff Channel="1" Note="55" Velocity="0"/>
    </Event>
    <Event>
      <Delta>0</Delta>
      <NoteOn Channel="1" Note="67" Velocity="50"/>
    </Event>
    <Event>
      <Delta>0</Delta>
      <NoteOn Channel="1" Note="67" Velocity="50"/>
    </Event>
    <Event>
      <Delta>0</Delta>
      <NoteOn Channel="1" Note="51" Velocity="50"/>
    </Event>
    <Event>
      <Delta>0</Delta>
      <NoteOn Channel="1" Note="58" Velocity="50"/>
    </Event>
    <Event>
      <Delta>0</Delta>
      <NoteOn Channel="1" Note="55" Velocity="50"/>
    </Event>
    <Event>
      <Delta>576</Delta>
      <NoteOff Channel="1" Note="58" Velocity="0"/>
    </Event>
    <Event>
      <Delta>0</Delta>
      <NoteOff Channel="1" Note="67" Velocity="0"/>
    </Event>
    <Event>
      <Delta>0</Delta>
      <NoteOff Channel="1" Note="67" Velocity="0"/>
    </Event>
    <Event>
      <Delta>192</Delta>
      <NoteOff Channel="1" Note="55" Velocity="0"/>
    </Event>
    <Event>
      <Delta>0</Delta>
      <NoteOff Channel="1" Note="51" Velocity="0"/>
    </Event>
    <Event>
      <Delta>0</Delta>
      <NoteOn Channel="1" Note="49" Velocity="50"/>
    </Event>
    <Event>
      <Delta>0</Delta>
      <NoteOn Channel="1" Note="56" Velocity="50"/>
    </Event>
    <Event>
      <Delta>0</Delta>
      <NoteOn Channel="1" Note="65" Velocity="50"/>
    </Event>
    <Event>
      <Delta>0</Delta>
      <NoteOn Channel="1" Note="65" Velocity="50"/>
    </Event>
    <Event>
      <Delta>0</Delta>
      <NoteOn Channel="1" Note="61" Velocity="50"/>
    </Event>
    <Event>
      <Delta>576</Delta>
      <NoteOff Channel="1" Note="61" Velocity="0"/>
    </Event>
    <Event>
      <Delta>0</Delta>
      <NoteOff Channel="1" Note="65" Velocity="0"/>
    </Event>
    <Event>
      <Delta>0</Delta>
      <NoteOff Channel="1" Note="65" Velocity="0"/>
    </Event>
    <Event>
      <Delta>192</Delta>
      <NoteOff Channel="1" Note="56" Velocity="0"/>
    </Event>
    <Event>
      <Delta>0</Delta>
      <NoteOff Channel="1" Note="49" Velocity="0"/>
    </Event>
    <Event>
      <Delta>0</Delta>
      <NoteOn Channel="1" Note="67" Velocity="50"/>
    </Event>
    <Event>
      <Delta>0</Delta>
      <NoteOn Channel="1" Note="58" Velocity="50"/>
    </Event>
    <Event>
      <Delta>0</Delta>
      <NoteOn Channel="1" Note="67" Velocity="50"/>
    </Event>
    <Event>
      <Delta>0</Delta>
      <NoteOn Channel="1" Note="51" Velocity="50"/>
    </Event>
    <Event>
      <Delta>0</Delta>
      <NoteOn Channel="1" Note="55" Velocity="50"/>
    </Event>
    <Event>
      <Delta>576</Delta>
      <NoteOff Channel="1" Note="58" Velocity="0"/>
    </Event>
    <Event>
      <Delta>0</Delta>
      <NoteOff Channel="1" Note="67" Velocity="0"/>
    </Event>
    <Event>
      <Delta>0</Delta>
      <NoteOff Channel="1" Note="67" Velocity="0"/>
    </Event>
    <Event>
      <Delta>192</Delta>
      <NoteOff Channel="1" Note="55" Velocity="0"/>
    </Event>
    <Event>
      <Delta>0</Delta>
      <NoteOff Channel="1" Note="51" Velocity="0"/>
    </Event>
    <Event>
      <Delta>0</Delta>
      <NoteOn Channel="1" Note="60" Velocity="50"/>
    </Event>
    <Event>
      <Delta>0</Delta>
      <NoteOn Channel="1" Note="68" Velocity="50"/>
    </Event>
    <Event>
      <Delta>0</Delta>
      <NoteOn Channel="1" Note="51" Velocity="50"/>
    </Event>
    <Event>
      <Delta>0</Delta>
      <NoteOn Channel="1" Note="68" Velocity="50"/>
    </Event>
    <Event>
      <Delta>0</Delta>
      <NoteOn Channel="1" Note="56" Velocity="50"/>
    </Event>
    <Event>
      <Delta>576</Delta>
      <NoteOff Channel="1" Note="60" Velocity="0"/>
    </Event>
    <Event>
      <Delta>0</Delta>
      <NoteOff Channel="1" Note="68" Velocity="0"/>
    </Event>
    <Event>
      <Delta>0</Delta>
      <NoteOff Channel="1" Note="68" Velocity="0"/>
    </Event>
    <Event>
      <Delta>192</Delta>
      <NoteOff Channel="1" Note="56" Velocity="0"/>
    </Event>
    <Event>
      <Delta>0</Delta>
      <NoteOff Channel="1" Note="51" Velocity="0"/>
    </Event>
    <Event>
      <Delta>2304</Delta>
      <NoteOn Channel="1" Note="67" Velocity="50"/>
    </Event>
    <Event>
      <Delta>0</Delta>
      <NoteOn Channel="1" Note="63" Velocity="50"/>
    </Event>
    <Event>
      <Delta>0</Delta>
      <NoteOn Channel="1" Note="51" Velocity="50"/>
    </Event>
    <Event>
      <Delta>0</Delta>
      <NoteOn Channel="1" Note="67" Velocity="50"/>
    </Event>
    <Event>
      <Delta>0</Delta>
      <NoteOn Channel="1" Note="55" Velocity="50"/>
    </Event>
    <Event>
      <Delta>960</Delta>
      <NoteOff Channel="1" Note="67" Velocity="0"/>
    </Event>
    <Event>
      <Delta>0</Delta>
      <NoteOff Channel="1" Note="67" Velocity="0"/>
    </Event>
    <Event>
      <Delta>0</Delta>
      <NoteOff Channel="1" Note="63" Velocity="0"/>
    </Event>
    <Event>
      <Delta>0</Delta>
      <NoteOff Channel="1" Note="51" Velocity="0"/>
    </Event>
    <Event>
      <Delta>0</Delta>
      <NoteOff Channel="1" Note="55" Velocity="0"/>
    </Event>
    <Event>
      <Delta>192</Delta>
      <NoteOn Channel="1" Note="68" Velocity="50"/>
    </Event>
    <Event>
      <Delta>0</Delta>
      <NoteOn Channel="1" Note="60" Velocity="50"/>
    </Event>
    <Event>
      <Delta>0</Delta>
      <NoteOn Channel="1" Note="51" Velocity="50"/>
    </Event>
    <Event>
      <Delta>0</Delta>
      <NoteOn Channel="1" Note="56" Velocity="50"/>
    </Event>
    <Event>
      <Delta>0</Delta>
      <NoteOn Channel="1" Note="68" Velocity="50"/>
    </Event>
    <Event>
      <Delta>288</Delta>
      <NoteOff Channel="1" Note="68" Velocity="0"/>
    </Event>
    <Event>
      <Delta>0</Delta>
      <NoteOff Channel="1" Note="60" Velocity="0"/>
    </Event>
    <Event>
      <Delta>0</Delta>
      <NoteOff Channel="1" Note="68" Velocity="0"/>
    </Event>
    <Event>
      <Delta>0</Delta>
      <NoteOff Channel="1" Note="51" Velocity="0"/>
    </Event>
    <Event>
      <Delta>0</Delta>
      <NoteOff Channel="1" Note="56" Velocity="0"/>
    </Event>
    <Event>
      <Delta>96</Delta>
      <NoteOn Channel="1" Note="58" Velocity="50"/>
    </Event>
    <Event>
      <Delta>0</Delta>
      <NoteOn Channel="1" Note="61" Velocity="50"/>
    </Event>
    <Event>
      <Delta>0</Delta>
      <NoteOn Channel="1" Note="70" Velocity="50"/>
    </Event>
    <Event>
      <Delta>0</Delta>
      <NoteOn Channel="1" Note="70" Velocity="50"/>
    </Event>
    <Event>
      <Delta>0</Delta>
      <NoteOn Channel="1" Note="55" Velocity="50"/>
    </Event>
    <Event>
      <Delta>576</Delta>
      <NoteOff Channel="1" Note="70" Velocity="0"/>
    </Event>
    <Event>
      <Delta>0</Delta>
      <NoteOff Channel="1" Note="70" Velocity="0"/>
    </Event>
    <Event>
      <Delta>0</Delta>
      <NoteOff Channel="1" Note="61" Velocity="0"/>
    </Event>
    <Event>
      <Delta>192</Delta>
      <NoteOff Channel="1" Note="55" Velocity="0"/>
    </Event>
    <Event>
      <Delta>0</Delta>
      <NoteOff Channel="1" Note="58" Velocity="0"/>
    </Event>
    <Event>
      <Delta>0</Delta>
      <NoteOn Channel="1" Note="61" Velocity="50"/>
    </Event>
    <Event>
      <Delta>0</Delta>
      <NoteOn Channel="1" Note="70" Velocity="50"/>
    </Event>
    <Event>
      <Delta>0</Delta>
      <NoteOn Channel="1" Note="58" Velocity="50"/>
    </Event>
    <Event>
      <Delta>0</Delta>
      <NoteOn Channel="1" Note="55" Velocity="50"/>
    </Event>
    <Event>
      <Delta>0</Delta>
      <NoteOn Channel="1" Note="70" Velocity="50"/>
    </Event>
    <Event>
      <Delta>576</Delta>
      <NoteOff Channel="1" Note="70" Velocity="0"/>
    </Event>
    <Event>
      <Delta>0</Delta>
      <NoteOff Channel="1" Note="61" Velocity="0"/>
    </Event>
    <Event>
      <Delta>0</Delta>
      <NoteOff Channel="1" Note="70" Velocity="0"/>
    </Event>
    <Event>
      <Delta>192</Delta>
      <NoteOff Channel="1" Note="58" Velocity="0"/>
    </Event>
    <Event>
      <Delta>0</Delta>
      <NoteOff Channel="1" Note="55" Velocity="0"/>
    </Event>
    <Event>
      <Delta>0</Delta>
      <NoteOn Channel="1" Note="58" Velocity="50"/>
    </Event>
    <Event>
      <Delta>0</Delta>
      <NoteOn Channel="1" Note="70" Velocity="50"/>
    </Event>
    <Event>
      <Delta>0</Delta>
      <NoteOn Channel="1" Note="55" Velocity="50"/>
    </Event>
    <Event>
      <Delta>0</Delta>
      <NoteOn Channel="1" Note="70" Velocity="50"/>
    </Event>
    <Event>
      <Delta>0</Delta>
      <NoteOn Channel="1" Note="61" Velocity="50"/>
    </Event>
    <Event>
      <Delta>576</Delta>
      <NoteOff Channel="1" Note="70" Velocity="0"/>
    </Event>
    <Event>
      <Delta>0</Delta>
      <NoteOff Channel="1" Note="61" Velocity="0"/>
    </Event>
    <Event>
      <Delta>0</Delta>
      <NoteOff Channel="1" Note="70" Velocity="0"/>
    </Event>
    <Event>
      <Delta>192</Delta>
      <NoteOff Channel="1" Note="58" Velocity="0"/>
    </Event>
    <Event>
      <Delta>0</Delta>
      <NoteOff Channel="1" Note="55" Velocity="0"/>
    </Event>
    <Event>
      <Delta>0</Delta>
      <NoteOn Channel="1" Note="67" Velocity="50"/>
    </Event>
    <Event>
      <Delta>0</Delta>
      <NoteOn Channel="1" Note="55" Velocity="50"/>
    </Event>
    <Event>
      <Delta>0</Delta>
      <NoteOn Channel="1" Note="61" Velocity="50"/>
    </Event>
    <Event>
      <Delta>0</Delta>
      <NoteOn Channel="1" Note="70" Velocity="50"/>
    </Event>
    <Event>
      <Delta>0</Delta>
      <NoteOn Channel="1" Note="70" Velocity="50"/>
    </Event>
    <Event>
      <Delta>576</Delta>
      <NoteOff Channel="1" Note="70" Velocity="0"/>
    </Event>
    <Event>
      <Delta>0</Delta>
      <NoteOff Channel="1" Note="70" Velocity="0"/>
    </Event>
    <Event>
      <Delta>0</Delta>
      <NoteOff Channel="1" Note="67" Velocity="0"/>
    </Event>
    <Event>
      <Delta>192</Delta>
      <NoteOff Channel="1" Note="61" Velocity="0"/>
    </Event>
    <Event>
      <Delta>0</Delta>
      <NoteOff Channel="1" Note="55" Velocity="0"/>
    </Event>
    <Event>
      <Delta>0</Delta>
      <NoteOn Channel="1" Note="75" Velocity="50"/>
    </Event>
    <Event>
      <Delta>0</Delta>
      <NoteOn Channel="1" Note="60" Velocity="50"/>
    </Event>
    <Event>
      <Delta>0</Delta>
      <NoteOn Channel="1" Note="75" Velocity="50"/>
    </Event>
    <Event>
      <Delta>0</Delta>
      <NoteOn Channel="1" Note="68" Velocity="50"/>
    </Event>
    <Event>
      <Delta>0</Delta>
      <NoteOn Channel="1" Note="63" Velocity="50"/>
    </Event>
    <Event>
      <Delta>576</Delta>
      <NoteOff Channel="1" Note="75" Velocity="0"/>
    </Event>
    <Event>
      <Delta>0</Delta>
      <NoteOff Channel="1" Note="68" Velocity="0"/>
    </Event>
    <Event>
      <Delta>0</Delta>
      <NoteOff Channel="1" Note="75" Velocity="0"/>
    </Event>
    <Event>
      <Delta>192</Delta>
      <NoteOff Channel="1" Note="63" Velocity="0"/>
    </Event>
    <Event>
      <Delta>0</Delta>
      <NoteOff Channel="1" Note="60" Velocity="0"/>
    </Event>
    <Event>
      <Delta>0</Delta>
      <NoteOn Channel="1" Note="73" Velocity="50"/>
    </Event>
    <Event>
      <Delta>0</Delta>
      <NoteOn Channel="1" Note="73" Velocity="50"/>
    </Event>
    <Event>
      <Delta>0</Delta>
      <NoteOn Channel="1" Note="55" Velocity="50"/>
    </Event>
    <Event>
      <Delta>0</Delta>
      <NoteOn Channel="1" Note="61" Velocity="50"/>
    </Event>
    <Event>
      <Delta>0</Delta>
      <NoteOn Channel="1" Note="70" Velocity="50"/>
    </Event>
    <Event>
      <Delta>576</Delta>
      <NoteOff Channel="1" Note="70" Velocity="0"/>
    </Event>
    <Event>
      <Delta>0</Delta>
      <NoteOff Channel="1" Note="73" Velocity="0"/>
    </Event>
    <Event>
      <Delta>0</Delta>
      <NoteOff Channel="1" Note="73" Velocity="0"/>
    </Event>
    <Event>
      <Delta>192</Delta>
      <NoteOff Channel="1" Note="55" Velocity="0"/>
    </Event>
    <Event>
      <Delta>0</Delta>
      <NoteOff Channel="1" Note="61" Velocity="0"/>
    </Event>
    <Event>
      <Delta>0</Delta>
      <NoteOn Channel="1" Note="68" Velocity="50"/>
    </Event>
    <Event>
      <Delta>0</Delta>
      <NoteOn Channel="1" Note="60" Velocity="50"/>
    </Event>
    <Event>
      <Delta>0</Delta>
      <NoteOn Channel="1" Note="72" Velocity="50"/>
    </Event>
    <Event>
      <Delta>0</Delta>
      <NoteOn Channel="1" Note="72" Velocity="50"/>
    </Event>
    <Event>
      <Delta>0</Delta>
      <NoteOn Channel="1" Note="56" Velocity="50"/>
    </Event>
    <Event>
      <Delta>576</Delta>
      <NoteOff Channel="1" Note="68" Velocity="0"/>
    </Event>
    <Event>
      <Delta>0</Delta>
      <NoteOff Channel="1" Note="72" Velocity="0"/>
    </Event>
    <Event>
      <Delta>0</Delta>
      <NoteOff Channel="1" Note="72" Velocity="0"/>
    </Event>
    <Event>
      <Delta>192</Delta>
      <NoteOff Channel="1" Note="56" Velocity="0"/>
    </Event>
    <Event>
      <Delta>0</Delta>
      <NoteOff Channel="1" Note="60" Velocity="0"/>
    </Event>
    <Event>
      <Delta>2304</Delta>
      <NoteOn Channel="1" Note="60" Velocity="50"/>
    </Event>
    <Event>
      <Delta>0</Delta>
      <NoteOn Channel="1" Note="60" Velocity="50"/>
    </Event>
    <Event>
      <Delta>0</Delta>
      <NoteOn Channel="1" Note="44" Velocity="50"/>
    </Event>
    <Event>
      <Delta>0</Delta>
      <NoteOn Channel="1" Note="48" Velocity="50"/>
    </Event>
    <Event>
      <Delta>960</Delta>
      <NoteOff Channel="1" Note="48" Velocity="0"/>
    </Event>
    <Event>
      <Delta>0</Delta>
      <NoteOff Channel="1" Note="44" Velocity="0"/>
    </Event>
    <Event>
      <Delta>0</Delta>
      <NoteOff Channel="1" Note="60" Velocity="0"/>
    </Event>
    <Event>
      <Delta>0</Delta>
      <NoteOff Channel="1" Note="60" Velocity="0"/>
    </Event>
    <Event>
      <Delta>192</Delta>
      <NoteOn Channel="1" Note="44" Velocity="50"/>
    </Event>
    <Event>
      <Delta>0</Delta>
      <NoteOn Channel="1" Note="61" Velocity="50"/>
    </Event>
    <Event>
      <Delta>0</Delta>
      <NoteOn Channel="1" Note="49" Velocity="50"/>
    </Event>
    <Event>
      <Delta>0</Delta>
      <NoteOn Channel="1" Note="61" Velocity="50"/>
    </Event>
    <Event>
      <Delta>288</Delta>
      <NoteOff Channel="1" Note="44" Velocity="0"/>
    </Event>
    <Event>
      <Delta>0</Delta>
      <NoteOff Channel="1" Note="49" Velocity="0"/>
    </Event>
    <Event>
      <Delta>0</Delta>
      <NoteOff Channel="1" Note="61" Velocity="0"/>
    </Event>
    <Event>
      <Delta>0</Delta>
      <NoteOff Channel="1" Note="61" Velocity="0"/>
    </Event>
    <Event>
      <Delta>96</Delta>
      <NoteOn Channel="1" Note="60" Velocity="50"/>
    </Event>
    <Event>
      <Delta>0</Delta>
      <NoteOn Channel="1" Note="63" Velocity="50"/>
    </Event>
    <Event>
      <Delta>0</Delta>
      <NoteOn Channel="1" Note="51" Velocity="50"/>
    </Event>
    <Event>
      <Delta>0</Delta>
      <NoteOn Channel="1" Note="63" Velocity="50"/>
    </Event>
    <Event>
      <Delta>0</Delta>
      <NoteOn Channel="1" Note="48" Velocity="50"/>
    </Event>
    <Event>
      <Delta>576</Delta>
      <NoteOff Channel="1" Note="63" Velocity="0"/>
    </Event>
    <Event>
      <Delta>0</Delta>
      <NoteOff Channel="1" Note="60" Velocity="0"/>
    </Event>
    <Event>
      <Delta>0</Delta>
      <NoteOff Channel="1" Note="63" Velocity="0"/>
    </Event>
    <Event>
      <Delta>192</Delta>
      <NoteOff Channel="1" Note="48" Velocity="0"/>
    </Event>
    <Event>
      <Delta>0</Delta>
      <NoteOff Channel="1" Note="51" Velocity="0"/>
    </Event>
    <Event>
      <Delta>0</Delta>
      <NoteOn Channel="1" Note="56" Velocity="50"/>
    </Event>
    <Event>
      <Delta>0</Delta>
      <NoteOn Channel="1" Note="48" Velocity="50"/>
    </Event>
    <Event>
      <Delta>0</Delta>
      <NoteOn Channel="1" Note="60" Velocity="50"/>
    </Event>
    <Event>
      <Delta>0</Delta>
      <NoteOn Channel="1" Note="63" Velocity="50"/>
    </Event>
    <Event>
      <Delta>0</Delta>
      <NoteOn Channel="1" Note="63" Velocity="50"/>
    </Event>
    <Event>
      <Delta>576</Delta>
      <NoteOff Channel="1" Note="63" Velocity="0"/>
    </Event>
    <Event>
      <Delta>0</Delta>
      <NoteOff Channel="1" Note="60" Velocity="0"/>
    </Event>
    <Event>
      <Delta>0</Delta>
      <NoteOff Channel="1" Note="63" Velocity="0"/>
    </Event>
    <Event>
      <Delta>192</Delta>
      <NoteOff Channel="1" Note="56" Velocity="0"/>
    </Event>
    <Event>
      <Delta>0</Delta>
      <NoteOff Channel="1" Note="48" Velocity="0"/>
    </Event>
    <Event>
      <Delta>0</Delta>
      <NoteOn Channel="1" Note="63" Velocity="50"/>
    </Event>
    <Event>
      <Delta>0</Delta>
      <NoteOn Channel="1" Note="60" Velocity="50"/>
    </Event>
    <Event>
      <Delta>0</Delta>
      <NoteOn Channel="1" Note="63" Velocity="50"/>
    </Event>
    <Event>
      <Delta>0</Delta>
      <NoteOn Channel="1" Note="56" Velocity="50"/>
    </Event>
    <Event>
      <Delta>0</Delta>
      <NoteOn Channel="1" Note="48" Velocity="50"/>
    </Event>
    <Event>
      <Delta>576</Delta>
      <NoteOff Channel="1" Note="63" Velocity="0"/>
    </Event>
    <Event>
      <Delta>0</Delta>
      <NoteOff Channel="1" Note="60" Velocity="0"/>
    </Event>
    <Event>
      <Delta>0</Delta>
      <NoteOff Channel="1" Note="63" Velocity="0"/>
    </Event>
    <Event>
      <Delta>192</Delta>
      <NoteOff Channel="1" Note="56" Velocity="0"/>
    </Event>
    <Event>
      <Delta>0</Delta>
      <NoteOff Channel="1" Note="48" Velocity="0"/>
    </Event>
    <Event>
      <Delta>0</Delta>
      <NoteOn Channel="1" Note="60" Velocity="50"/>
    </Event>
    <Event>
      <Delta>0</Delta>
      <NoteOn Channel="1" Note="68" Velocity="50"/>
    </Event>
    <Event>
      <Delta>0</Delta>
      <NoteOn Channel="1" Note="68" Velocity="50"/>
    </Event>
    <Event>
      <Delta>0</Delta>
      <NoteOn Channel="1" Note="56" Velocity="50"/>
    </Event>
    <Event>
      <Delta>0</Delta>
      <NoteOn Channel="1" Note="51" Velocity="50"/>
    </Event>
    <Event>
      <Delta>576</Delta>
      <NoteOff Channel="1" Note="68" Velocity="0"/>
    </Event>
    <Event>
      <Delta>0</Delta>
      <NoteOff Channel="1" Note="60" Velocity="0"/>
    </Event>
    <Event>
      <Delta>0</Delta>
      <NoteOff Channel="1" Note="68" Velocity="0"/>
    </Event>
    <Event>
      <Delta>192</Delta>
      <NoteOff Channel="1" Note="51" Velocity="0"/>
    </Event>
    <Event>
      <Delta>0</Delta>
      <NoteOff Channel="1" Note="56" Velocity="0"/>
    </Event>
    <Event>
      <Delta>0</Delta>
      <NoteOn Channel="1" Note="56" Velocity="50"/>
    </Event>
    <Event>
      <Delta>0</Delta>
      <NoteOn Channel="1" Note="51" Velocity="50"/>
    </Event>
    <Event>
      <Delta>0</Delta>
      <NoteOn Channel="1" Note="68" Velocity="50"/>
    </Event>
    <Event>
      <Delta>0</Delta>
      <NoteOn Channel="1" Note="60" Velocity="50"/>
    </Event>
    <Event>
      <Delta>0</Delta>
      <NoteOn Channel="1" Note="68" Velocity="50"/>
    </Event>
    <Event>
      <Delta>576</Delta>
      <NoteOff Channel="1" Note="60" Velocity="0"/>
    </Event>
    <Event>
      <Delta>0</Delta>
      <NoteOff Channel="1" Note="68" Velocity="0"/>
    </Event>
    <Event>
      <Delta>0</Delta>
      <NoteOff Channel="1" Note="68" Velocity="0"/>
    </Event>
    <Event>
      <Delta>192</Delta>
      <NoteOff Channel="1" Note="51" Velocity="0"/>
    </Event>
    <Event>
      <Delta>0</Delta>
      <NoteOff Channel="1" Note="56" Velocity="0"/>
    </Event>
    <Event>
      <Delta>0</Delta>
      <NoteOn Channel="1" Note="72" Velocity="50"/>
    </Event>
    <Event>
      <Delta>0</Delta>
      <NoteOn Channel="1" Note="60" Velocity="50"/>
    </Event>
    <Event>
      <Delta>0</Delta>
      <NoteOn Channel="1" Note="63" Velocity="50"/>
    </Event>
    <Event>
      <Delta>0</Delta>
      <NoteOn Channel="1" Note="72" Velocity="50"/>
    </Event>
    <Event>
      <Delta>0</Delta>
      <NoteOn Channel="1" Note="56" Velocity="50"/>
    </Event>
    <Event>
      <Delta>576</Delta>
      <NoteOff Channel="1" Note="63" Velocity="0"/>
    </Event>
    <Event>
      <Delta>0</Delta>
      <NoteOff Channel="1" Note="72" Velocity="0"/>
    </Event>
    <Event>
      <Delta>0</Delta>
      <NoteOff Channel="1" Note="72" Velocity="0"/>
    </Event>
    <Event>
      <Delta>192</Delta>
      <NoteOff Channel="1" Note="60" Velocity="0"/>
    </Event>
    <Event>
      <Delta>0</Delta>
      <NoteOff Channel="1" Note="56" Velocity="0"/>
    </Event>
    <Event>
      <Delta>0</Delta>
      <NoteOn Channel="1" Note="72" Velocity="50"/>
    </Event>
    <Event>
      <Delta>0</Delta>
      <NoteOn Channel="1" Note="72" Velocity="50"/>
    </Event>
    <Event>
      <Delta>0</Delta>
      <NoteOn Channel="1" Note="56" Velocity="50"/>
    </Event>
    <Event>
      <Delta>0</Delta>
      <NoteOn Channel="1" Note="60" Velocity="50"/>
    </Event>
    <Event>
      <Delta>0</Delta>
      <NoteOn Channel="1" Note="63" Velocity="50"/>
    </Event>
    <Event>
      <Delta>960</Delta>
      <NoteOff Channel="1" Note="56" Velocity="0"/>
    </Event>
    <Event>
      <Delta>0</Delta>
      <NoteOff Channel="1" Note="72" Velocity="0"/>
    </Event>
    <Event>
      <Delta>0</Delta>
      <NoteOff Channel="1" Note="63" Velocity="0"/>
    </Event>
    <Event>
      <Delta>0</Delta>
      <NoteOff Channel="1" Note="60" Velocity="0"/>
    </Event>
    <Event>
      <Delta>0</Delta>
      <NoteOff Channel="1" Note="72" Velocity="0"/>
    </Event>
    <Event>
      <Delta>192</Delta>
      <NoteOn Channel="1" Note="70" Velocity="50"/>
    </Event>
    <Event>
      <Delta>0</Delta>
      <NoteOn Channel="1" Note="55" Velocity="50"/>
    </Event>
    <Event>
      <Delta>0</Delta>
      <NoteOn Channel="1" Note="58" Velocity="50"/>
    </Event>
    <Event>
      <Delta>0</Delta>
      <NoteOn Channel="1" Note="61" Velocity="50"/>
    </Event>
    <Event>
      <Delta>0</Delta>
      <NoteOn Channel="1" Note="70" Velocity="50"/>
    </Event>
    <Event>
      <Delta>288</Delta>
      <NoteOff Channel="1" Note="58" Velocity="0"/>
    </Event>
    <Event>
      <Delta>0</Delta>
      <NoteOff Channel="1" Note="55" Velocity="0"/>
    </Event>
    <Event>
      <Delta>0</Delta>
      <NoteOff Channel="1" Note="70" Velocity="0"/>
    </Event>
    <Event>
      <Delta>0</Delta>
      <NoteOff Channel="1" Note="61" Velocity="0"/>
    </Event>
    <Event>
      <Delta>0</Delta>
      <NoteOff Channel="1" Note="70" Velocity="0"/>
    </Event>
    <Event>
      <Delta>96</Delta>
      <NoteOn Channel="1" Note="56" Velocity="50"/>
    </Event>
    <Event>
      <Delta>0</Delta>
      <NoteOn Channel="1" Note="51" Velocity="50"/>
    </Event>
    <Event>
      <Delta>0</Delta>
      <NoteOn Channel="1" Note="60" Velocity="50"/>
    </Event>
    <Event>
      <Delta>0</Delta>
      <NoteOn Channel="1" Note="68" Velocity="50"/>
    </Event>
    <Event>
      <Delta>0</Delta>
      <NoteOn Channel="1" Note="68" Velocity="50"/>
    </Event>
    <Event>
      <Delta>576</Delta>
      <NoteOff Channel="1" Note="68" Velocity="0"/>
    </Event>
    <Event>
      <Delta>0</Delta>
      <NoteOff Channel="1" Note="68" Velocity="0"/>
    </Event>
    <Event>
      <Delta>0</Delta>
      <NoteOff Channel="1" Note="60" Velocity="0"/>
    </Event>
    <Event>
      <Delta>192</Delta>
      <NoteOff Channel="1" Note="56" Velocity="0"/>
    </Event>
    <Event>
      <Delta>0</Delta>
      <NoteOff Channel="1" Note="51" Velocity="0"/>
    </Event>
    <Event>
      <Delta>2304</Delta>
      <NoteOn Channel="1" Note="55" Velocity="50"/>
    </Event>
    <Event>
      <Delta>0</Delta>
      <NoteOn Channel="1" Note="63" Velocity="50"/>
    </Event>
    <Event>
      <Delta>0</Delta>
      <NoteOn Channel="1" Note="51" Velocity="50"/>
    </Event>
    <Event>
      <Delta>0</Delta>
      <NoteOn Channel="1" Note="67" Velocity="50"/>
    </Event>
    <Event>
      <Delta>0</Delta>
      <NoteOn Channel="1" Note="67" Velocity="50"/>
    </Event>
    <Event>
      <Delta>576</Delta>
      <NoteOff Channel="1" Note="67" Velocity="0"/>
    </Event>
    <Event>
      <Delta>0</Delta>
      <NoteOff Channel="1" Note="67" Velocity="0"/>
    </Event>
    <Event>
      <Delta>0</Delta>
      <NoteOff Channel="1" Note="63" Velocity="0"/>
    </Event>
    <Event>
      <Delta>192</Delta>
      <NoteOff Channel="1" Note="55" Velocity="0"/>
    </Event>
    <Event>
      <Delta>0</Delta>
      <NoteOff Channel="1" Note="51" Velocity="0"/>
    </Event>
    <Event>
      <Delta>0</Delta>
      <NoteOn Channel="1" Note="68" Velocity="50"/>
    </Event>
    <Event>
      <Delta>0</Delta>
      <NoteOn Channel="1" Note="56" Velocity="50"/>
    </Event>
    <Event>
      <Delta>0</Delta>
      <NoteOn Channel="1" Note="68" Velocity="50"/>
    </Event>
    <Event>
      <Delta>0</Delta>
      <NoteOn Channel="1" Note="63" Velocity="50"/>
    </Event>
    <Event>
      <Delta>0</Delta>
      <NoteOn Channel="1" Note="48" Velocity="50"/>
    </Event>
    <Event>
      <Delta>576</Delta>
      <NoteOff Channel="1" Note="68" Velocity="0"/>
    </Event>
    <Event>
      <Delta>0</Delta>
      <NoteOff Channel="1" Note="68" Velocity="0"/>
    </Event>
    <Event>
      <Delta>0</Delta>
      <NoteOff Channel="1" Note="63" Velocity="0"/>
    </Event>
    <Event>
      <Delta>192</Delta>
      <NoteOff Channel="1" Note="48" Velocity="0"/>
    </Event>
    <Event>
      <Delta>0</Delta>
      <NoteOff Channel="1" Note="56" Velocity="0"/>
    </Event>
    <Event>
      <Delta>0</Delta>
      <NoteOn Channel="1" Note="55" Velocity="50"/>
    </Event>
    <Event>
      <Delta>0</Delta>
      <NoteOn Channel="1" Note="70" Velocity="50"/>
    </Event>
    <Event>
      <Delta>0</Delta>
      <NoteOn Channel="1" Note="70" Velocity="50"/>
    </Event>
    <Event>
      <Delta>0</Delta>
      <NoteOn Channel="1" Note="61" Velocity="50"/>
    </Event>
    <Event>
      <Delta>0</Delta>
      <NoteOn Channel="1" Note="58" Velocity="50"/>
    </Event>
    <Event>
      <Delta>576</Delta>
      <NoteOff Channel="1" Note="61" Velocity="0"/>
    </Event>
    <Event>
      <Delta>0</Delta>
      <NoteOff Channel="1" Note="70" Velocity="0"/>
    </Event>
    <Event>
      <Delta>0</Delta>
      <NoteOff Channel="1" Note="70" Velocity="0"/>
    </Event>
    <Event>
      <Delta>192</Delta>
      <NoteOff Channel="1" Note="58" Velocity="0"/>
    </Event>
    <Event>
      <Delta>0</Delta>
      <NoteOff Channel="1" Note="55" Velocity="0"/>
    </Event>
    <Event>
      <Delta>2304</Delta>
      <NoteOn Channel="1" Note="72" Velocity="50"/>
    </Event>
    <Event>
      <Delta>0</Delta>
      <NoteOn Channel="1" Note="56" Velocity="50"/>
    </Event>
    <Event>
      <Delta>0</Delta>
      <NoteOn Channel="1" Note="60" Velocity="50"/>
    </Event>
    <Event>
      <Delta>0</Delta>
      <NoteOn Channel="1" Note="63" Velocity="50"/>
    </Event>
    <Event>
      <Delta>0</Delta>
      <NoteOn Channel="1" Note="72" Velocity="50"/>
    </Event>
    <Event>
      <Delta>960</Delta>
      <NoteOff Channel="1" Note="72" Velocity="0"/>
    </Event>
    <Event>
      <Delta>0</Delta>
      <NoteOff Channel="1" Note="72" Velocity="0"/>
    </Event>
    <Event>
      <Delta>0</Delta>
      <NoteOff Channel="1" Note="63" Velocity="0"/>
    </Event>
    <Event>
      <Delta>0</Delta>
      <NoteOff Channel="1" Note="60" Velocity="0"/>
    </Event>
    <Event>
      <Delta>0</Delta>
      <NoteOff Channel="1" Note="56" Velocity="0"/>
    </Event>
    <Event>
      <Delta>192</Delta>
      <NoteOn Channel="1" Note="70" Velocity="50"/>
    </Event>
    <Event>
      <Delta>0</Delta>
      <NoteOn Channel="1" Note="61" Velocity="50"/>
    </Event>
    <Event>
      <Delta>0</Delta>
      <NoteOn Channel="1" Note="58" Velocity="50"/>
    </Event>
    <Event>
      <Delta>0</Delta>
      <NoteOn Channel="1" Note="70" Velocity="50"/>
    </Event>
    <Event>
      <Delta>0</Delta>
      <NoteOn Channel="1" Note="55" Velocity="50"/>
    </Event>
    <Event>
      <Delta>288</Delta>
      <NoteOff Channel="1" Note="61" Velocity="0"/>
    </Event>
    <Event>
      <Delta>0</Delta>
      <NoteOff Channel="1" Note="58" Velocity="0"/>
    </Event>
    <Event>
      <Delta>0</Delta>
      <NoteOff Channel="1" Note="55" Velocity="0"/>
    </Event>
    <Event>
      <Delta>0</Delta>
      <NoteOff Channel="1" Note="70" Velocity="0"/>
    </Event>
    <Event>
      <Delta>0</Delta>
      <NoteOff Channel="1" Note="70" Velocity="0"/>
    </Event>
    <Event>
      <Delta>96</Delta>
      <NoteOn Channel="1" Note="51" Velocity="50"/>
    </Event>
    <Event>
      <Delta>0</Delta>
      <NoteOn Channel="1" Note="68" Velocity="50"/>
    </Event>
    <Event>
      <Delta>0</Delta>
      <NoteOn Channel="1" Note="56" Velocity="50"/>
    </Event>
    <Event>
      <Delta>0</Delta>
      <NoteOn Channel="1" Note="60" Velocity="50"/>
    </Event>
    <Event>
      <Delta>0</Delta>
      <NoteOn Channel="1" Note="68" Velocity="50"/>
    </Event>
    <Event>
      <Delta>576</Delta>
      <NoteOff Channel="1" Note="68" Velocity="0"/>
    </Event>
    <Event>
      <Delta>0</Delta>
      <NoteOff Channel="1" Note="60" Velocity="0"/>
    </Event>
    <Event>
      <Delta>0</Delta>
      <NoteOff Channel="1" Note="68" Velocity="0"/>
    </Event>
    <Event>
      <Delta>192</Delta>
      <NoteOff Channel="1" Note="51" Velocity="0"/>
    </Event>
    <Event>
      <Delta>0</Delta>
      <NoteOff Channel="1" Note="56" Velocity="0"/>
    </Event>
    <Event>
      <Delta>0</Delta>
      <EndOfTrack/>
    </Event>
  </Track>
  <Track Number="2">
    <Event>
      <Delta>0</Delta>
      <TrackName>Drum Kit</TrackName>
    </Event>
    <Event>
      <Delta>0</Delta>
      <ProgramChange Channel="10" Number="0"/>
    </Event>
    <Event>
      <Delta>19968</Delta>
      <NoteOn Channel="10" Note="49" Velocity="50"/>
    </Event>
    <Event>
      <Delta>768</Delta>
      <NoteOff Channel="10" Note="49" Velocity="0"/>
    </Event>
    <Event>
      <Delta>0</Delta>
      <NoteOn Channel="10" Note="49" Velocity="50"/>
    </Event>
    <Event>
      <Delta>768</Delta>
      <NoteOff Channel="10" Note="49" Velocity="0"/>
    </Event>
    <Event>
      <Delta>0</Delta>
      <NoteOn Channel="10" Note="49" Velocity="50"/>
    </Event>
    <Event>
      <Delta>768</Delta>
      <NoteOff Channel="10" Note="49" Velocity="0"/>
    </Event>
    <Event>
      <Delta>0</Delta>
      <NoteOn Channel="10" Note="49" Velocity="50"/>
    </Event>
    <Event>
      <Delta>768</Delta>
      <NoteOff Channel="10" Note="49" Velocity="0"/>
    </Event>
    <Event>
      <Delta>0</Delta>
      <NoteOn Channel="10" Note="49" Velocity="50"/>
    </Event>
    <Event>
      <Delta>768</Delta>
      <NoteOff Channel="10" Note="49" Velocity="0"/>
    </Event>
    <Event>
      <Delta>0</Delta>
      <NoteOn Channel="10" Note="49" Velocity="50"/>
    </Event>
    <Event>
      <Delta>768</Delta>
      <NoteOff Channel="10" Note="49" Velocity="0"/>
    </Event>
    <Event>
      <Delta>0</Delta>
      <NoteOn Channel="10" Note="49" Velocity="50"/>
    </Event>
    <Event>
      <Delta>768</Delta>
      <NoteOff Channel="10" Note="49" Velocity="0"/>
    </Event>
    <Event>
      <Delta>0</Delta>
      <NoteOn Channel="10" Note="49" Velocity="50"/>
    </Event>
    <Event>
      <Delta>768</Delta>
      <NoteOff Channel="10" Note="49" Velocity="0"/>
    </Event>
    <Event>
      <Delta>0</Delta>
      <NoteOn Channel="10" Note="49" Velocity="50"/>
    </Event>
    <Event>
      <Delta>768</Delta>
      <NoteOff Channel="10" Note="49" Velocity="0"/>
    </Event>
    <Event>
      <Delta>0</Delta>
      <NoteOn Channel="10" Note="49" Velocity="50"/>
    </Event>
    <Event>
      <Delta>768</Delta>
      <NoteOff Channel="10" Note="49" Velocity="0"/>
    </Event>
    <Event>
      <Delta>0</Delta>
      <NoteOn Channel="10" Note="49" Velocity="50"/>
    </Event>
    <Event>
      <Delta>768</Delta>
      <NoteOff Channel="10" Note="49" Velocity="0"/>
    </Event>
    <Event>
      <Delta>2304</Delta>
      <NoteOn Channel="10" Note="49" Velocity="50"/>
    </Event>
    <Event>
      <Delta>768</Delta>
      <NoteOff Channel="10" Note="49" Velocity="0"/>
    </Event>
    <Event>
      <Delta>0</Delta>
      <NoteOn Channel="10" Note="49" Velocity="50"/>
    </Event>
    <Event>
      <Delta>768</Delta>
      <NoteOff Channel="10" Note="49" Velocity="0"/>
    </Event>
    <Event>
      <Delta>0</Delta>
      <NoteOn Channel="10" Note="49" Velocity="50"/>
    </Event>
    <Event>
      <Delta>768</Delta>
      <NoteOff Channel="10" Note="49" Velocity="0"/>
    </Event>
    <Event>
      <Delta>2304</Delta>
      <NoteOn Channel="10" Note="49" Velocity="50"/>
    </Event>
    <Event>
      <Delta>768</Delta>
      <NoteOff Channel="10" Note="49" Velocity="0"/>
    </Event>
    <Event>
      <Delta>0</Delta>
      <NoteOn Channel="10" Note="49" Velocity="50"/>
    </Event>
    <Event>
      <Delta>768</Delta>
      <NoteOff Channel="10" Note="49" Velocity="0"/>
    </Event>
    <Event>
      <Delta>0</Delta>
      <NoteOn Channel="10" Note="49" Velocity="50"/>
    </Event>
    <Event>
      <Delta>768</Delta>
      <NoteOff Channel="10" Note="49" Velocity="0"/>
    </Event>
    <Event>
      <Delta>2304</Delta>
      <NoteOn Channel="10" Note="49" Velocity="50"/>
    </Event>
    <Event>
      <Delta>768</Delta>
      <NoteOff Channel="10" Note="49" Velocity="0"/>
    </Event>
    <Event>
      <Delta>0</Delta>
      <NoteOn Channel="10" Note="49" Velocity="50"/>
    </Event>
    <Event>
      <Delta>768</Delta>
      <NoteOff Channel="10" Note="49" Velocity="0"/>
    </Event>
    <Event>
      <Delta>0</Delta>
      <NoteOn Channel="10" Note="49" Velocity="50"/>
    </Event>
    <Event>
      <Delta>768</Delta>
      <NoteOff Channel="10" Note="49" Velocity="0"/>
    </Event>
    <Event>
      <Delta>0</Delta>
      <NoteOn Channel="10" Note="49" Velocity="50"/>
    </Event>
    <Event>
      <Delta>768</Delta>
      <NoteOff Channel="10" Note="49" Velocity="0"/>
    </Event>
    <Event>
      <Delta>0</Delta>
      <NoteOn Channel="10" Note="49" Velocity="50"/>
    </Event>
    <Event>
      <Delta>768</Delta>
      <NoteOff Channel="10" Note="49" Velocity="0"/>
    </Event>
    <Event>
      <Delta>0</Delta>
      <NoteOn Channel="10" Note="49" Velocity="50"/>
    </Event>
    <Event>
      <Delta>768</Delta>
      <NoteOff Channel="10" Note="49" Velocity="0"/>
    </Event>
    <Event>
      <Delta>0</Delta>
      <NoteOn Channel="10" Note="48" Velocity="50"/>
    </Event>
    <Event>
      <Delta>768</Delta>
      <NoteOff Channel="10" Note="48" Velocity="0"/>
    </Event>
    <Event>
      <Delta>0</Delta>
      <NoteOn Channel="10" Note="49" Velocity="50"/>
    </Event>
    <Event>
      <Delta>768</Delta>
      <NoteOff Channel="10" Note="49" Velocity="0"/>
    </Event>
    <Event>
      <Delta>0</Delta>
      <NoteOn Channel="10" Note="49" Velocity="50"/>
    </Event>
    <Event>
      <Delta>768</Delta>
      <NoteOff Channel="10" Note="49" Velocity="0"/>
    </Event>
    <Event>
      <Delta>2304</Delta>
      <NoteOn Channel="10" Note="49" Velocity="50"/>
    </Event>
    <Event>
      <Delta>768</Delta>
      <NoteOff Channel="10" Note="49" Velocity="0"/>
    </Event>
    <Event>
      <Delta>0</Delta>
      <NoteOn Channel="10" Note="49" Velocity="50"/>
    </Event>
    <Event>
      <Delta>768</Delta>
      <NoteOff Channel="10" Note="49" Velocity="0"/>
    </Event>
    <Event>
      <Delta>0</Delta>
      <NoteOn Channel="10" Note="49" Velocity="50"/>
    </Event>
    <Event>
      <Delta>768</Delta>
      <NoteOff Channel="10" Note="49" Velocity="0"/>
    </Event>
    <Event>
      <Delta>0</Delta>
      <NoteOn Channel="10" Note="49" Velocity="50"/>
    </Event>
    <Event>
      <Delta>768</Delta>
      <NoteOff Channel="10" Note="49" Velocity="0"/>
    </Event>
    <Event>
      <Delta>0</Delta>
      <NoteOn Channel="10" Note="49" Velocity="50"/>
    </Event>
    <Event>
      <Delta>768</Delta>
      <NoteOff Channel="10" Note="49" Velocity="0"/>
    </Event>
    <Event>
      <Delta>0</Delta>
      <NoteOn Channel="10" Note="49" Velocity="50"/>
    </Event>
    <Event>
      <Delta>768</Delta>
      <NoteOff Channel="10" Note="49" Velocity="0"/>
    </Event>
    <Event>
      <Delta>0</Delta>
      <NoteOn Channel="10" Note="49" Velocity="50"/>
    </Event>
    <Event>
      <Delta>768</Delta>
      <NoteOff Channel="10" Note="49" Velocity="0"/>
    </Event>
    <Event>
      <Delta>0</Delta>
      <NoteOn Channel="10" Note="49" Velocity="50"/>
    </Event>
    <Event>
      <Delta>768</Delta>
      <NoteOff Channel="10" Note="49" Velocity="0"/>
    </Event>
    <Event>
      <Delta>0</Delta>
      <NoteOn Channel="10" Note="49" Velocity="50"/>
    </Event>
    <Event>
      <Delta>768</Delta>
      <NoteOff Channel="10" Note="49" Velocity="0"/>
    </Event>
    <Event>
      <Delta>0</Delta>
      <EndOfTrack/>
    </Event>
  </Track>
  <Track Number="3">
    <Event>
      <Delta>0</Delta>
      <TrackName>Steel Drums</TrackName>
    </Event>
    <Event>
      <Delta>0</Delta>
      <ProgramChange Channel="2" Number="114"/>
    </Event>
    <Event>
      <Delta>18432</Delta>
      <NoteOn Channel="2" Note="48" Velocity="50"/>
    </Event>
    <Event>
      <Delta>768</Delta>
      <NoteOff Channel="2" Note="48" Velocity="0"/>
    </Event>
    <Event>
      <Delta>0</Delta>
      <NoteOn Channel="2" Note="48" Velocity="50"/>
    </Event>
    <Event>
      <Delta>768</Delta>
      <NoteOff Channel="2" Note="48" Velocity="0"/>
    </Event>
    <Event>
      <Delta>8448</Delta>
      <NoteOn Channel="2" Note="48" Velocity="50"/>
    </Event>
    <Event>
      <Delta>768</Delta>
      <NoteOff Channel="2" Note="48" Velocity="0"/>
    </Event>
    <Event>
      <Delta>0</Delta>
      <NoteOn Channel="2" Note="48" Velocity="50"/>
    </Event>
    <Event>
      <Delta>768</Delta>
      <NoteOff Channel="2" Note="48" Velocity="0"/>
    </Event>
    <Event>
      <Delta>0</Delta>
      <NoteOn Channel="2" Note="48" Velocity="50"/>
    </Event>
    <Event>
      <Delta>768</Delta>
      <NoteOff Channel="2" Note="48" Velocity="0"/>
    </Event>
    <Event>
      <Delta>2304</Delta>
      <NoteOn Channel="2" Note="48" Velocity="50"/>
    </Event>
    <Event>
      <Delta>768</Delta>
      <NoteOff Channel="2" Note="48" Velocity="0"/>
    </Event>
    <Event>
      <Delta>0</Delta>
      <NoteOn Channel="2" Note="48" Velocity="50"/>
    </Event>
    <Event>
      <Delta>768</Delta>
      <NoteOff Channel="2" Note="48" Velocity="0"/>
    </Event>
    <Event>
      <Delta>0</Delta>
      <NoteOn Channel="2" Note="48" Velocity="50"/>
    </Event>
    <Event>
      <Delta>768</Delta>
      <NoteOff Channel="2" Note="48" Velocity="0"/>
    </Event>
    <Event>
      <Delta>2304</Delta>
      <NoteOn Channel="2" Note="48" Velocity="50"/>
    </Event>
    <Event>
      <Delta>768</Delta>
      <NoteOff Channel="2" Note="48" Velocity="0"/>
    </Event>
    <Event>
      <Delta>0</Delta>
      <NoteOn Channel="2" Note="48" Velocity="50"/>
    </Event>
    <Event>
      <Delta>768</Delta>
      <NoteOff Channel="2" Note="48" Velocity="0"/>
    </Event>
    <Event>
      <Delta>0</Delta>
      <NoteOn Channel="2" Note="48" Velocity="50"/>
    </Event>
    <Event>
      <Delta>768</Delta>
      <NoteOff Channel="2" Note="48" Velocity="0"/>
    </Event>
    <Event>
      <Delta>6912</Delta>
      <NoteOn Channel="2" Note="48" Velocity="50"/>
    </Event>
    <Event>
      <Delta>768</Delta>
      <NoteOff Channel="2" Note="48" Velocity="0"/>
    </Event>
    <Event>
      <Delta>0</Delta>
      <NoteOn Channel="2" Note="48" Velocity="50"/>
    </Event>
    <Event>
      <Delta>768</Delta>
      <NoteOff Channel="2" Note="48" Velocity="0"/>
    </Event>
    <Event>
      <Delta>0</Delta>
      <NoteOn Channel="2" Note="48" Velocity="50"/>
    </Event>
    <Event>
      <Delta>768</Delta>
      <NoteOff Channel="2" Note="48" Velocity="0"/>
    </Event>
    <Event>
      <Delta>6912</Delta>
      <NoteOn Channel="2" Note="48" Velocity="50"/>
    </Event>
    <Event>
      <Delta>768</Delta>
      <NoteOff Channel="2" Note="48" Velocity="0"/>
    </Event>
    <Event>
      <Delta>0</Delta>
      <NoteOn Channel="2" Note="48" Velocity="50"/>
    </Event>
    <Event>
      <Delta>768</Delta>
      <NoteOff Channel="2" Note="48" Velocity="0"/>
    </Event>
    <Event>
      <Delta>0</Delta>
      <NoteOn Channel="2" Note="48" Velocity="50"/>
    </Event>
    <Event>
      <Delta>768</Delta>
      <NoteOff Channel="2" Note="48" Velocity="0"/>
    </Event>
    <Event>
      <Delta>0</Delta>
      <EndOfTrack/>
    </Event>
  </Track>
</MIDIFile>