{
  "header": {
    "keySignatures": [],
    "meta": [],
    "name": "",
    "ppq": 384,
    "tempos": [
      {
        "bpm": 246.00044280079703,
        "ticks": 0
      }
    ],
    "timeSignatures": [
      {
        "ticks": 0,
        "timeSignature": [4, 4],
        "measures": 0
      }
    ]
  },
  "tracks": [
    {
      "channel": 0,
      "controlChanges": {},
      "pitchBends": [],
      "instrument": {
        "family": "piano",
        "number": 0,
        "name": "acoustic grand piano"
      },
      "name": "Electric Piano (Classic)",
      "notes": [
        {
          "duration": 0.609755,
          "durationTicks": 960,
          "midi": 44,
          "name": "G#2",
          "ticks": 0,
          "time": 0,
          "velocity": 0.3937007874015748
        },
        {
          "duration": 0.609755,
          "durationTicks": 960,
          "midi": 60,
          "name": "C4",
          "ticks": 0,
          "time": 0,
          "velocity": 0.3937007874015748
        },
        {
          "duration": 0.609755,
          "durationTicks": 960,
          "midi": 60,
          "name": "C4",
          "ticks": 0,
          "time": 0,
          "velocity": 0.3937007874015748
        },
        {
          "duration": 0.609755,
          "durationTicks": 960,
          "midi": 48,
          "name": "C3",
          "ticks": 0,
          "time": 0,
          "velocity": 0.3937007874015748
        },
        {
          "duration": 0.1829265000000001,
          "durationTicks": 288,
          "midi": 61,
          "name": "C#4",
          "ticks": 1152,
          "time": 0.731706,
          "velocity": 0.3937007874015748
        },
        {
          "duration": 0.1829265000000001,
          "durationTicks": 288,
          "midi": 49,
          "name": "C#3",
          "ticks": 1152,
          "time": 0.731706,
          "velocity": 0.3937007874015748
        },
        {
          "duration": 0.1829265000000001,
          "durationTicks": 288,
          "midi": 61,
          "name": "C#4",
          "ticks": 1152,
          "time": 0.731706,
          "velocity": 0.3937007874015748
        },
        {
          "duration": 0.1829265000000001,
          "durationTicks": 288,
          "midi": 44,
          "name": "G#2",
          "ticks": 1152,
          "time": 0.731706,
          "velocity": 0.3937007874015748
        },
        {
          "duration": 0.365853,
          "durationTicks": 576,
          "midi": 63,
          "name": "D#4",
          "ticks": 1536,
          "time": 0.975608,
          "velocity": 0.3937007874015748
        },
        {
          "duration": 0.365853,
          "durationTicks": 576,
          "midi": 63,
          "name": "D#4",
          "ticks": 1536,
          "time": 0.975608,
          "velocity": 0.3937007874015748
        },
        {
          "duration": 0.4878039999999999,
          "durationTicks": 768,
          "midi": 48,
          "name": "C3",
          "ticks": 1536,
          "time": 0.975608,
          "velocity": 0.3937007874015748
        },
        {
          "duration": 0.4878039999999999,
          "durationTicks": 768,
          "midi": 56,
          "name": "G#3",
          "ticks": 1536,
          "time": 0.975608,
          "velocity": 0.3937007874015748
        },
        {
          "duration": 0.365853,
          "durationTicks": 576,
          "midi": 60,
          "name": "C4",
          "ticks": 1536,
          "time": 0.975608,
          "velocity": 0.3937007874015748
        },
        {
          "duration": 0.3658530000000002,
          "durationTicks": 576,
          "midi": 63,
          "name": "D#4",
          "ticks": 2304,
          "time": 1.463412,
          "velocity": 0.3937007874015748
        },
        {
          "duration": 0.4878040000000001,
          "durationTicks": 768,
          "midi": 51,
          "name": "D#3",
          "ticks": 2304,
          "time": 1.463412,
          "velocity": 0.3937007874015748
        },
        {
          "duration": 0.3658530000000002,
          "durationTicks": 576,
          "midi": 63,
          "name": "D#4",
          "ticks": 2304,
          "time": 1.463412,
          "velocity": 0.3937007874015748
        },
        {
          "duration": 0.4878040000000001,
          "durationTicks": 768,
          "midi": 48,
          "name": "C3",
          "ticks": 2304,
          "time": 1.463412,
          "velocity": 0.3937007874015748
        },
        {
          "duration": 0.3658530000000002,
          "durationTicks": 576,
          "midi": 60,
          "name": "C4",
          "ticks": 2304,
          "time": 1.463412,
          "velocity": 0.3937007874015748
        },
        {
          "duration": 0.365853,
          "durationTicks": 576,
          "midi": 60,
          "name": "C4",
          "ticks": 3072,
          "time": 1.951216,
          "velocity": 0.3937007874015748
        },
        {
          "duration": 0.365853,
          "durationTicks": 576,
          "midi": 63,
          "name": "D#4",
          "ticks": 3072,
          "time": 1.951216,
          "velocity": 0.3937007874015748
        },
        {
          "duration": 0.4878040000000001,
          "durationTicks": 768,
          "midi": 48,
          "name": "C3",
          "ticks": 3072,
          "time": 1.951216,
          "velocity": 0.3937007874015748
        },
        {
          "duration": 0.365853,
          "durationTicks": 576,
          "midi": 63,
          "name": "D#4",
          "ticks": 3072,
          "time": 1.951216,
          "velocity": 0.3937007874015748
        },
        {
          "duration": 0.4878040000000001,
          "durationTicks": 768,
          "midi": 56,
          "name": "G#3",
          "ticks": 3072,
          "time": 1.951216,
          "velocity": 0.3937007874015748
        },
        {
          "duration": 0.365853,
          "durationTicks": 576,
          "midi": 68,
          "name": "G#4",
          "ticks": 3840,
          "time": 2.43902,
          "velocity": 0.3937007874015748
        },
        {
          "duration": 0.4878039999999997,
          "durationTicks": 768,
          "midi": 56,
          "name": "G#3",
          "ticks": 3840,
          "time": 2.43902,
          "velocity": 0.3937007874015748
        },
        {
          "duration": 0.365853,
          "durationTicks": 576,
          "midi": 60,
          "name": "C4",
          "ticks": 3840,
          "time": 2.43902,
          "velocity": 0.3937007874015748
        },
        {
          "duration": 0.365853,
          "durationTicks": 576,
          "midi": 68,
          "name": "G#4",
          "ticks": 3840,
          "time": 2.43902,
          "velocity": 0.3937007874015748
        },
        {
          "duration": 0.4878039999999997,
          "durationTicks": 768,
          "midi": 51,
          "name": "D#3",
          "ticks": 3840,
          "time": 2.43902,
          "velocity": 0.3937007874015748
        },
        {
          "duration": 0.36585300000000043,
          "durationTicks": 576,
          "midi": 68,
          "name": "G#4",
          "ticks": 4608,
          "time": 2.926824,
          "velocity": 0.3937007874015748
        },
        {
          "duration": 0.36585300000000043,
          "durationTicks": 576,
          "midi": 60,
          "name": "C4",
          "ticks": 4608,
          "time": 2.926824,
          "velocity": 0.3937007874015748
        },
        {
          "duration": 0.4878040000000001,
          "durationTicks": 768,
          "midi": 56,
          "name": "G#3",
          "ticks": 4608,
          "time": 2.926824,
          "velocity": 0.3937007874015748
        },
        {
          "duration": 0.36585300000000043,
          "durationTicks": 576,
          "midi": 68,
          "name": "G#4",
          "ticks": 4608,
          "time": 2.926824,
          "velocity": 0.3937007874015748
        },
        {
          "duration": 0.4878040000000001,
          "durationTicks": 768,
          "midi": 51,
          "name": "D#3",
          "ticks": 4608,
          "time": 2.926824,
          "velocity": 0.3937007874015748
        },
        {
          "duration": 0.4878040000000001,
          "durationTicks": 768,
          "midi": 60,
          "name": "C4",
          "ticks": 5376,
          "time": 3.414628,
          "velocity": 0.3937007874015748
        },
        {
          "duration": 0.4878040000000001,
          "durationTicks": 768,
          "midi": 56,
          "name": "G#3",
          "ticks": 5376,
          "time": 3.414628,
          "velocity": 0.3937007874015748
        },
        {
          "duration": 0.365853,
          "durationTicks": 576,
          "midi": 63,
          "name": "D#4",
          "ticks": 5376,
          "time": 3.414628,
          "velocity": 0.3937007874015748
        },
        {
          "duration": 0.365853,
          "durationTicks": 576,
          "midi": 72,
          "name": "C5",
          "ticks": 5376,
          "time": 3.414628,
          "velocity": 0.3937007874015748
        },
        {
          "duration": 0.365853,
          "durationTicks": 576,
          "midi": 72,
          "name": "C5",
          "ticks": 5376,
          "time": 3.414628,
          "velocity": 0.3937007874015748
        },
        {
          "duration": 0.6097549999999998,
          "durationTicks": 960,
          "midi": 72,
          "name": "C5",
          "ticks": 6144,
          "time": 3.902432,
          "velocity": 0.3937007874015748
        },
        {
          "duration": 0.6097549999999998,
          "durationTicks": 960,
          "midi": 56,
          "name": "G#3",
          "ticks": 6144,
          "time": 3.902432,
          "velocity": 0.3937007874015748
        },
        {
          "duration": 0.6097549999999998,
          "durationTicks": 960,
          "midi": 72,
          "name": "C5",
          "ticks": 6144,
          "time": 3.902432,
          "velocity": 0.3937007874015748
        },
        {
          "duration": 0.6097549999999998,
          "durationTicks": 960,
          "midi": 63,
          "name": "D#4",
          "ticks": 6144,
          "time": 3.902432,
          "velocity": 0.3937007874015748
        },
        {
          "duration": 0.6097549999999998,
          "durationTicks": 960,
          "midi": 60,
          "name": "C4",
          "ticks": 6144,
          "time": 3.902432,
          "velocity": 0.3937007874015748
        },
        {
          "duration": 0.18292649999999977,
          "durationTicks": 288,
          "midi": 61,
          "name": "C#4",
          "ticks": 7296,
          "time": 4.634138,
          "velocity": 0.3937007874015748
        },
        {
          "duration": 0.18292649999999977,
          "durationTicks": 288,
          "midi": 55,
          "name": "G3",
          "ticks": 7296,
          "time": 4.634138,
          "velocity": 0.3937007874015748
        },
        {
          "duration": 0.18292649999999977,
          "durationTicks": 288,
          "midi": 70,
          "name": "A#4",
          "ticks": 7296,
          "time": 4.634138,
          "velocity": 0.3937007874015748
        },
        {
          "duration": 0.18292649999999977,
          "durationTicks": 288,
          "midi": 70,
          "name": "A#4",
          "ticks": 7296,
          "time": 4.634138,
          "velocity": 0.3937007874015748
        },
        {
          "duration": 0.18292649999999977,
          "durationTicks": 288,
          "midi": 58,
          "name": "A#3",
          "ticks": 7296,
          "time": 4.634138,
          "velocity": 0.3937007874015748
        },
        {
          "duration": 0.4878039999999997,
          "durationTicks": 768,
          "midi": 51,
          "name": "D#3",
          "ticks": 7680,
          "time": 4.87804,
          "velocity": 0.3937007874015748
        },
        {
          "duration": 0.36585299999999954,
          "durationTicks": 576,
          "midi": 68,
          "name": "G#4",
          "ticks": 7680,
          "time": 4.87804,
          "velocity": 0.3937007874015748
        },
        {
          "duration": 0.4878039999999997,
          "durationTicks": 768,
          "midi": 56,
          "name": "G#3",
          "ticks": 7680,
          "time": 4.87804,
          "velocity": 0.3937007874015748
        },
        {
          "duration": 0.36585299999999954,
          "durationTicks": 576,
          "midi": 68,
          "name": "G#4",
          "ticks": 7680,
          "time": 4.87804,
          "velocity": 0.3937007874015748
        },
        {
          "duration": 0.36585299999999954,
          "durationTicks": 576,
          "midi": 60,
          "name": "C4",
          "ticks": 7680,
          "time": 4.87804,
          "velocity": 0.3937007874015748
        },
        {
          "duration": 0.48780400000000057,
          "durationTicks": 768,
          "midi": 51,
          "name": "D#3",
          "ticks": 10752,
          "time": 6.829256,
          "velocity": 0.3937007874015748
        },
        {
          "duration": 0.36585300000000043,
          "durationTicks": 576,
          "midi": 63,
          "name": "D#4",
          "ticks": 10752,
          "time": 6.829256,
          "velocity": 0.3937007874015748
        },
        {
          "duration": 0.36585300000000043,
          "durationTicks": 576,
          "midi": 67,
          "name": "G4",
          "ticks": 10752,
          "time": 6.829256,
          "velocity": 0.3937007874015748
        },
        {
          "duration": 0.36585300000000043,
          "durationTicks": 576,
          "midi": 67,
          "name": "G4",
          "ticks": 10752,
          "time": 6.829256,
          "velocity": 0.3937007874015748
        },
        {
          "duration": 0.48780400000000057,
          "durationTicks": 768,
          "midi": 58,
          "name": "A#3",
          "ticks": 10752,
          "time": 6.829256,
          "velocity": 0.3937007874015748
        },
        {
          "duration": 0.36585299999999954,
          "durationTicks": 576,
          "midi": 68,
          "name": "G#4",
          "ticks": 11520,
          "time": 7.317060000000001,
          "velocity": 0.3937007874015748
        },
        {
          "duration": 0.4878039999999997,
          "durationTicks": 768,
          "midi": 60,
          "name": "C4",
          "ticks": 11520,
          "time": 7.317060000000001,
          "velocity": 0.3937007874015748
        },
        {
          "duration": 0.36585299999999954,
          "durationTicks": 576,
          "midi": 68,
          "name": "G#4",
          "ticks": 11520,
          "time": 7.317060000000001,
          "velocity": 0.3937007874015748
        },
        {
          "duration": 0.36585299999999954,
          "durationTicks": 576,
          "midi": 63,
          "name": "D#4",
          "ticks": 11520,
          "time": 7.317060000000001,
          "velocity": 0.3937007874015748
        },
        {
          "duration": 0.4878039999999997,
          "durationTicks": 768,
          "midi": 51,
          "name": "D#3",
          "ticks": 11520,
          "time": 7.317060000000001,
          "velocity": 0.3937007874015748
        },
        {
          "duration": 0.36585299999999954,
          "durationTicks": 576,
          "midi": 70,
          "name": "A#4",
          "ticks": 12288,
          "time": 7.804864,
          "velocity": 0.3937007874015748
        },
        {
          "duration": 0.36585299999999954,
          "durationTicks": 576,
          "midi": 61,
          "name": "C#4",
          "ticks": 12288,
          "time": 7.804864,
          "velocity": 0.3937007874015748
        },
        {
          "duration": 0.48780400000000057,
          "durationTicks": 768,
          "midi": 58,
          "name": "A#3",
          "ticks": 12288,
          "time": 7.804864,
          "velocity": 0.3937007874015748
        },
        {
          "duration": 0.36585299999999954,
          "durationTicks": 576,
          "midi": 70,
          "name": "A#4",
          "ticks": 12288,
          "time": 7.804864,
          "velocity": 0.3937007874015748
        },
        {
          "duration": 0.48780400000000057,
          "durationTicks": 768,
          "midi": 55,
          "name": "G3",
          "ticks": 12288,
          "time": 7.804864,
          "velocity": 0.3937007874015748
        },
        {
          "duration": 0.6097549999999998,
          "durationTicks": 960,
          "midi": 72,
          "name": "C5",
          "ticks": 15360,
          "time": 9.75608,
          "velocity": 0.3937007874015748
        },
        {
          "duration": 0.6097549999999998,
          "durationTicks": 960,
          "midi": 63,
          "name": "D#4",
          "ticks": 15360,
          "time": 9.75608,
          "velocity": 0.3937007874015748
        },
        {
          "duration": 0.6097549999999998,
          "durationTicks": 960,
          "midi": 56,
          "name": "G#3",
          "ticks": 15360,
          "time": 9.75608,
          "velocity": 0.3937007874015748
        },
        {
          "duration": 0.6097549999999998,
          "durationTicks": 960,
          "midi": 60,
          "name": "C4",
          "ticks": 15360,
          "time": 9.75608,
          "velocity": 0.3937007874015748
        },
        {
          "duration": 0.6097549999999998,
          "durationTicks": 960,
          "midi": 72,
          "name": "C5",
          "ticks": 15360,
          "time": 9.75608,
          "velocity": 0.3937007874015748
        },
        {
          "duration": 0.18292650000000066,
          "durationTicks": 288,
          "midi": 58,
          "name": "A#3",
          "ticks": 16512,
          "time": 10.487786,
          "velocity": 0.3937007874015748
        },
        {
          "duration": 0.18292650000000066,
          "durationTicks": 288,
          "midi": 70,
          "name": "A#4",
          "ticks": 16512,
          "time": 10.487786,
          "velocity": 0.3937007874015748
        },
        {
          "duration": 0.18292650000000066,
          "durationTicks": 288,
          "midi": 70,
          "name": "A#4",
          "ticks": 16512,
          "time": 10.487786,
          "velocity": 0.3937007874015748
        },
        {
          "duration": 0.18292650000000066,
          "durationTicks": 288,
          "midi": 61,
          "name": "C#4",
          "ticks": 16512,
          "time": 10.487786,
          "velocity": 0.3937007874015748
        },
        {
          "duration": 0.18292650000000066,
          "durationTicks": 288,
          "midi": 55,
          "name": "G3",
          "ticks": 16512,
          "time": 10.487786,
          "velocity": 0.3937007874015748
        },
        {
          "duration": 0.36585299999999954,
          "durationTicks": 576,
          "midi": 68,
          "name": "G#4",
          "ticks": 16896,
          "time": 10.731688,
          "velocity": 0.3937007874015748
        },
        {
          "duration": 0.36585299999999954,
          "durationTicks": 576,
          "midi": 60,
          "name": "C4",
          "ticks": 16896,
          "time": 10.731688,
          "velocity": 0.3937007874015748
        },
        {
          "duration": 0.36585299999999954,
          "durationTicks": 576,
          "midi": 68,
          "name": "G#4",
          "ticks": 16896,
          "time": 10.731688,
          "velocity": 0.3937007874015748
        },
        {
          "duration": 0.48780400000000057,
          "durationTicks": 768,
          "midi": 51,
          "name": "D#3",
          "ticks": 16896,
          "time": 10.731688,
          "velocity": 0.3937007874015748
        },
        {
          "duration": 0.48780400000000057,
          "durationTicks": 768,
          "midi": 56,
          "name": "G#3",
          "ticks": 16896,
          "time": 10.731688,
          "velocity": 0.3937007874015748
        },
        {
          "duration": 0.6097549999999998,
          "durationTicks": 960,
          "midi": 48,
          "name": "C3",
          "ticks": 19968,
          "time": 12.682904,
          "velocity": 0.3937007874015748
        },
        {
          "duration": 0.6097549999999998,
          "durationTicks": 960,
          "midi": 60,
          "name": "C4",
          "ticks": 19968,
          "time": 12.682904,
          "velocity": 0.3937007874015748
        },
        {
          "duration": 0.6097549999999998,
          "durationTicks": 960,
          "midi": 44,
          "name": "G#2",
          "ticks": 19968,
          "time": 12.682904,
          "velocity": 0.3937007874015748
        },
        {
          "duration": 0.6097549999999998,
          "durationTicks": 960,
          "midi": 60,
          "name": "C4",
          "ticks": 19968,
          "time": 12.682904,
          "velocity": 0.3937007874015748
        },
        {
          "duration": 0.18292650000000066,
          "durationTicks": 288,
          "midi": 61,
          "name": "C#4",
          "ticks": 21120,
          "time": 13.41461,
          "velocity": 0.3937007874015748
        },
        {
          "duration": 0.18292650000000066,
          "durationTicks": 288,
          "midi": 61,
          "name": "C#4",
          "ticks": 21120,
          "time": 13.41461,
          "velocity": 0.3937007874015748
        },
        {
          "duration": 0.18292650000000066,
          "durationTicks": 288,
          "midi": 49,
          "name": "C#3",
          "ticks": 21120,
          "time": 13.41461,
          "velocity": 0.3937007874015748
        },
        {
          "duration": 0.18292650000000066,
          "durationTicks": 288,
          "midi": 44,
          "name": "G#2",
          "ticks": 21120,
          "time": 13.41461,
          "velocity": 0.3937007874015748
        },
        {
          "duration": 0.3658530000000013,
          "durationTicks": 576,
          "midi": 60,
          "name": "C4",
          "ticks": 21504,
          "time": 13.658512,
          "velocity": 0.3937007874015748
        },
        {
          "duration": 0.48780400000000057,
          "durationTicks": 768,
          "midi": 56,
          "name": "G#3",
          "ticks": 21504,
          "time": 13.658512,
          "velocity": 0.3937007874015748
        },
        {
          "duration": 0.3658530000000013,
          "durationTicks": 576,
          "midi": 63,
          "name": "D#4",
          "ticks": 21504,
          "time": 13.658512,
          "velocity": 0.3937007874015748
        },
        {
          "duration": 0.48780400000000057,
          "durationTicks": 768,
          "midi": 48,
          "name": "C3",
          "ticks": 21504,
          "time": 13.658512,
          "velocity": 0.3937007874015748
        },
        {
          "duration": 0.3658530000000013,
          "durationTicks": 576,
          "midi": 63,
          "name": "D#4",
          "ticks": 21504,
          "time": 13.658512,
          "velocity": 0.3937007874015748
        },
        {
          "duration": 0.36585299999999954,
          "durationTicks": 576,
          "midi": 63,
          "name": "D#4",
          "ticks": 22272,
          "time": 14.146316,
          "velocity": 0.3937007874015748
        },
        {
          "duration": 0.36585299999999954,
          "durationTicks": 576,
          "midi": 63,
          "name": "D#4",
          "ticks": 22272,
          "time": 14.146316,
          "velocity": 0.3937007874015748
        },
        {
          "duration": 0.36585299999999954,
          "durationTicks": 576,
          "midi": 60,
          "name": "C4",
          "ticks": 22272,
          "time": 14.146316,
          "velocity": 0.3937007874015748
        },
        {
          "duration": 0.48780400000000057,
          "durationTicks": 768,
          "midi": 48,
          "name": "C3",
          "ticks": 22272,
          "time": 14.146316,
          "velocity": 0.3937007874015748
        },
        {
          "duration": 0.48780400000000057,
          "durationTicks": 768,
          "midi": 51,
          "name": "D#3",
          "ticks": 22272,
          "time": 14.146316,
          "velocity": 0.3937007874015748
        },
        {
          "duration": 0.36585299999999954,
          "durationTicks": 576,
          "midi": 60,
          "name": "C4",
          "ticks": 23040,
          "time": 14.634120000000001,
          "velocity": 0.3937007874015748
        },
        {
          "duration": 0.4878039999999988,
          "durationTicks": 768,
          "midi": 56,
          "name": "G#3",
          "ticks": 23040,
          "time": 14.634120000000001,
          "velocity": 0.3937007874015748
        },
        {
          "duration": 0.4878039999999988,
          "durationTicks": 768,
          "midi": 48,
          "name": "C3",
          "ticks": 23040,
          "time": 14.634120000000001,
          "velocity": 0.3937007874015748
        },
        {
          "duration": 0.36585299999999954,
          "durationTicks": 576,
          "midi": 63,
          "name": "D#4",
          "ticks": 23040,
          "time": 14.634120000000001,
          "velocity": 0.3937007874015748
        },
        {
          "duration": 0.36585299999999954,
          "durationTicks": 576,
          "midi": 63,
          "name": "D#4",
          "ticks": 23040,
          "time": 14.634120000000001,
          "velocity": 0.3937007874015748
        },
        {
          "duration": 0.3658530000000013,
          "durationTicks": 576,
          "midi": 60,
          "name": "C4",
          "ticks": 23808,
          "time": 15.121924,
          "velocity": 0.3937007874015748
        },
        {
          "duration": 0.3658530000000013,
          "durationTicks": 576,
          "midi": 68,
          "name": "G#4",
          "ticks": 23808,
          "time": 15.121924,
          "velocity": 0.3937007874015748
        },
        {
          "duration": 0.48780400000000057,
          "durationTicks": 768,
          "midi": 56,
          "name": "G#3",
          "ticks": 23808,
          "time": 15.121924,
          "velocity": 0.3937007874015748
        },
        {
          "duration": 0.3658530000000013,
          "durationTicks": 576,
          "midi": 68,
          "name": "G#4",
          "ticks": 23808,
          "time": 15.121924,
          "velocity": 0.3937007874015748
        },
        {
          "duration": 0.48780400000000057,
          "durationTicks": 768,
          "midi": 51,
          "name": "D#3",
          "ticks": 23808,
          "time": 15.121924,
          "velocity": 0.3937007874015748
        },
        {
          "duration": 0.36585299999999954,
          "durationTicks": 576,
          "midi": 68,
          "name": "G#4",
          "ticks": 24576,
          "time": 15.609728,
          "velocity": 0.3937007874015748
        },
        {
          "duration": 0.48780400000000057,
          "durationTicks": 768,
          "midi": 56,
          "name": "G#3",
          "ticks": 24576,
          "time": 15.609728,
          "velocity": 0.3937007874015748
        },
        {
          "duration": 0.36585299999999954,
          "durationTicks": 576,
          "midi": 68,
          "name": "G#4",
          "ticks": 24576,
          "time": 15.609728,
          "velocity": 0.3937007874015748
        },
        {
          "duration": 0.48780400000000057,
          "durationTicks": 768,
          "midi": 51,
          "name": "D#3",
          "ticks": 24576,
          "time": 15.609728,
          "velocity": 0.3937007874015748
        },
        {
          "duration": 0.36585299999999954,
          "durationTicks": 576,
          "midi": 60,
          "name": "C4",
          "ticks": 24576,
          "time": 15.609728,
          "velocity": 0.3937007874015748
        },
        {
          "duration": 0.36585299999999776,
          "durationTicks": 576,
          "midi": 72,
          "name": "C5",
          "ticks": 25344,
          "time": 16.097532,
          "velocity": 0.3937007874015748
        },
        {
          "duration": 0.36585299999999776,
          "durationTicks": 576,
          "midi": 63,
          "name": "D#4",
          "ticks": 25344,
          "time": 16.097532,
          "velocity": 0.3937007874015748
        },
        {
          "duration": 0.48780400000000057,
          "durationTicks": 768,
          "midi": 56,
          "name": "G#3",
          "ticks": 25344,
          "time": 16.097532,
          "velocity": 0.3937007874015748
        },
        {
          "duration": 0.48780400000000057,
          "durationTicks": 768,
          "midi": 60,
          "name": "C4",
          "ticks": 25344,
          "time": 16.097532,
          "velocity": 0.3937007874015748
        },
        {
          "duration": 0.36585299999999776,
          "durationTicks": 576,
          "midi": 72,
          "name": "C5",
          "ticks": 25344,
          "time": 16.097532,
          "velocity": 0.3937007874015748
        },
        {
          "duration": 0.6097549999999998,
          "durationTicks": 960,
          "midi": 72,
          "name": "C5",
          "ticks": 26112,
          "time": 16.585336,
          "velocity": 0.3937007874015748
        },
        {
          "duration": 0.6097549999999998,
          "durationTicks": 960,
          "midi": 63,
          "name": "D#4",
          "ticks": 26112,
          "time": 16.585336,
          "velocity": 0.3937007874015748
        },
        {
          "duration": 0.6097549999999998,
          "durationTicks": 960,
          "midi": 56,
          "name": "G#3",
          "ticks": 26112,
          "time": 16.585336,
          "velocity": 0.3937007874015748
        },
        {
          "duration": 0.6097549999999998,
          "durationTicks": 960,
          "midi": 60,
          "name": "C4",
          "ticks": 26112,
          "time": 16.585336,
          "velocity": 0.3937007874015748
        },
        {
          "duration": 0.6097549999999998,
          "durationTicks": 960,
          "midi": 72,
          "name": "C5",
          "ticks": 26112,
          "time": 16.585336,
          "velocity": 0.3937007874015748
        },
        {
          "duration": 0.18292650000000066,
          "durationTicks": 288,
          "midi": 55,
          "name": "G3",
          "ticks": 27264,
          "time": 17.317042,
          "velocity": 0.3937007874015748
        },
        {
          "duration": 0.18292650000000066,
          "durationTicks": 288,
          "midi": 61,
          "name": "C#4",
          "ticks": 27264,
          "time": 17.317042,
          "velocity": 0.3937007874015748
        },
        {
          "duration": 0.18292650000000066,
          "durationTicks": 288,
          "midi": 58,
          "name": "A#3",
          "ticks": 27264,
          "time": 17.317042,
          "velocity": 0.3937007874015748
        },
        {
          "duration": 0.18292650000000066,
          "durationTicks": 288,
          "midi": 70,
          "name": "A#4",
          "ticks": 27264,
          "time": 17.317042,
          "velocity": 0.3937007874015748
        },
        {
          "duration": 0.18292650000000066,
          "durationTicks": 288,
          "midi": 70,
          "name": "A#4",
          "ticks": 27264,
          "time": 17.317042,
          "velocity": 0.3937007874015748
        },
        {
          "duration": 0.3658530000000013,
          "durationTicks": 576,
          "midi": 68,
          "name": "G#4",
          "ticks": 27648,
          "time": 17.560944,
          "velocity": 0.3937007874015748
        },
        {
          "duration": 0.48780400000000057,
          "durationTicks": 768,
          "midi": 51,
          "name": "D#3",
          "ticks": 27648,
          "time": 17.560944,
          "velocity": 0.3937007874015748
        },
        {
          "duration": 0.48780400000000057,
          "durationTicks": 768,
          "midi": 56,
          "name": "G#3",
          "ticks": 27648,
          "time": 17.560944,
          "velocity": 0.3937007874015748
        },
        {
          "duration": 0.3658530000000013,
          "durationTicks": 576,
          "midi": 68,
          "name": "G#4",
          "ticks": 27648,
          "time": 17.560944,
          "velocity": 0.3937007874015748
        },
        {
          "duration": 0.3658530000000013,
          "durationTicks": 576,
          "midi": 60,
          "name": "C4",
          "ticks": 27648,
          "time": 17.560944,
          "velocity": 0.3937007874015748
        },
        {
          "duration": 0.36585299999999776,
          "durationTicks": 576,
          "midi": 67,
          "name": "G4",
          "ticks": 30720,
          "time": 19.51216,
          "velocity": 0.3937007874015748
        },
        {
          "duration": 0.36585299999999776,
          "durationTicks": 576,
          "midi": 67,
          "name": "G4",
          "ticks": 30720,
          "time": 19.51216,
          "velocity": 0.3937007874015748
        },
        {
          "duration": 0.36585299999999776,
          "durationTicks": 576,
          "midi": 63,
          "name": "D#4",
          "ticks": 30720,
          "time": 19.51216,
          "velocity": 0.3937007874015748
        },
        {
          "duration": 0.48780400000000057,
          "durationTicks": 768,
          "midi": 51,
          "name": "D#3",
          "ticks": 30720,
          "time": 19.51216,
          "velocity": 0.3937007874015748
        },
        {
          "duration": 0.48780400000000057,
          "durationTicks": 768,
          "midi": 58,
          "name": "A#3",
          "ticks": 30720,
          "time": 19.51216,
          "velocity": 0.3937007874015748
        },
        {
          "duration": 0.36585299999999776,
          "durationTicks": 576,
          "midi": 68,
          "name": "G#4",
          "ticks": 31488,
          "time": 19.999964000000002,
          "velocity": 0.3937007874015748
        },
        {
          "duration": 0.487803999999997,
          "durationTicks": 768,
          "midi": 51,
          "name": "D#3",
          "ticks": 31488,
          "time": 19.999964000000002,
          "velocity": 0.3937007874015748
        },
        {
          "duration": 0.36585299999999776,
          "durationTicks": 576,
          "midi": 68,
          "name": "G#4",
          "ticks": 31488,
          "time": 19.999964000000002,
          "velocity": 0.3937007874015748
        },
        {
          "duration": 0.487803999999997,
          "durationTicks": 768,
          "midi": 60,
          "name": "C4",
          "ticks": 31488,
          "time": 19.999964000000002,
          "velocity": 0.3937007874015748
        },
        {
          "duration": 0.36585299999999776,
          "durationTicks": 576,
          "midi": 63,
          "name": "D#4",
          "ticks": 31488,
          "time": 19.999964000000002,
          "velocity": 0.3937007874015748
        },
        {
          "duration": 0.3658530000000013,
          "durationTicks": 576,
          "midi": 58,
          "name": "A#3",
          "ticks": 32256,
          "time": 20.487768,
          "velocity": 0.3937007874015748
        },
        {
          "duration": 0.3658530000000013,
          "durationTicks": 576,
          "midi": 70,
          "name": "A#4",
          "ticks": 32256,
          "time": 20.487768,
          "velocity": 0.3937007874015748
        },
        {
          "duration": 0.3658530000000013,
          "durationTicks": 576,
          "midi": 55,
          "name": "G3",
          "ticks": 32256,
          "time": 20.487768,
          "velocity": 0.3937007874015748
        },
        {
          "duration": 0.3658530000000013,
          "durationTicks": 576,
          "midi": 61,
          "name": "C#4",
          "ticks": 32256,
          "time": 20.487768,
          "velocity": 0.3937007874015748
        },
        {
          "duration": 0.3658530000000013,
          "durationTicks": 576,
          "midi": 70,
          "name": "A#4",
          "ticks": 32256,
          "time": 20.487768,
          "velocity": 0.3937007874015748
        },
        {
          "duration": 0.6097549999999998,
          "durationTicks": 960,
          "midi": 63,
          "name": "D#4",
          "ticks": 35328,
          "time": 22.438984,
          "velocity": 0.3937007874015748
        },
        {
          "duration": 0.6097549999999998,
          "durationTicks": 960,
          "midi": 72,
          "name": "C5",
          "ticks": 35328,
          "time": 22.438984,
          "velocity": 0.3937007874015748
        },
        {
          "duration": 0.6097549999999998,
          "durationTicks": 960,
          "midi": 56,
          "name": "G#3",
          "ticks": 35328,
          "time": 22.438984,
          "velocity": 0.3937007874015748
        },
        {
          "duration": 0.6097549999999998,
          "durationTicks": 960,
          "midi": 72,
          "name": "C5",
          "ticks": 35328,
          "time": 22.438984,
          "velocity": 0.3937007874015748
        },
        {
          "duration": 0.6097549999999998,
          "durationTicks": 960,
          "midi": 60,
          "name": "C4",
          "ticks": 35328,
          "time": 22.438984,
          "velocity": 0.3937007874015748
        },
        {
          "duration": 0.18292650000000066,
          "durationTicks": 288,
          "midi": 55,
          "name": "G3",
          "ticks": 36480,
          "time": 23.17069,
          "velocity": 0.3937007874015748
        },
        {
          "duration": 0.18292650000000066,
          "durationTicks": 288,
          "midi": 70,
          "name": "A#4",
          "ticks": 36480,
          "time": 23.17069,
          "velocity": 0.3937007874015748
        },
        {
          "duration": 0.18292650000000066,
          "durationTicks": 288,
          "midi": 70,
          "name": "A#4",
          "ticks": 36480,
          "time": 23.17069,
          "velocity": 0.3937007874015748
        },
        {
          "duration": 0.18292650000000066,
          "durationTicks": 288,
          "midi": 61,
          "name": "C#4",
          "ticks": 36480,
          "time": 23.17069,
          "velocity": 0.3937007874015748
        },
        {
          "duration": 0.18292650000000066,
          "durationTicks": 288,
          "midi": 58,
          "name": "A#3",
          "ticks": 36480,
          "time": 23.17069,
          "velocity": 0.3937007874015748
        },
        {
          "duration": 0.3658530000000013,
          "durationTicks": 576,
          "midi": 68,
          "name": "G#4",
          "ticks": 36864,
          "time": 23.414592,
          "velocity": 0.3937007874015748
        },
        {
          "duration": 0.3658530000000013,
          "durationTicks": 576,
          "midi": 68,
          "name": "G#4",
          "ticks": 36864,
          "time": 23.414592,
          "velocity": 0.3937007874015748
        },
        {
          "duration": 0.3658530000000013,
          "durationTicks": 576,
          "midi": 60,
          "name": "C4",
          "ticks": 36864,
          "time": 23.414592,
          "velocity": 0.3937007874015748
        },
        {
          "duration": 0.48780400000000057,
          "durationTicks": 768,
          "midi": 56,
          "name": "G#3",
          "ticks": 36864,
          "time": 23.414592,
          "velocity": 0.3937007874015748
        },
        {
          "duration": 0.48780400000000057,
          "durationTicks": 768,
          "midi": 51,
          "name": "D#3",
          "ticks": 36864,
          "time": 23.414592,
          "velocity": 0.3937007874015748
        },
        {
          "duration": 0.6097549999999998,
          "durationTicks": 960,
          "midi": 63,
          "name": "D#4",
          "ticks": 39936,
          "time": 25.365808,
          "velocity": 0.3937007874015748
        },
        {
          "duration": 0.6097549999999998,
          "durationTicks": 960,
          "midi": 63,
          "name": "D#4",
          "ticks": 39936,
          "time": 25.365808,
          "velocity": 0.3937007874015748
        },
        {
          "duration": 0.6097549999999998,
          "durationTicks": 960,
          "midi": 56,
          "name": "G#3",
          "ticks": 39936,
          "time": 25.365808,
          "velocity": 0.3937007874015748
        },
        {
          "duration": 0.6097549999999998,
          "durationTicks": 960,
          "midi": 48,
          "name": "C3",
          "ticks": 39936,
          "time": 25.365808,
          "velocity": 0.3937007874015748
        },
        {
          "duration": 0.6097549999999998,
          "durationTicks": 960,
          "midi": 60,
          "name": "C4",
          "ticks": 39936,
          "time": 25.365808,
          "velocity": 0.3937007874015748
        },
        {
          "duration": 0.18292650000000066,
          "durationTicks": 288,
          "midi": 51,
          "name": "D#3",
          "ticks": 41088,
          "time": 26.097514,
          "velocity": 0.3937007874015748
        },
        {
          "duration": 0.18292650000000066,
          "durationTicks": 288,
          "midi": 56,
          "name": "G#3",
          "ticks": 41088,
          "time": 26.097514,
          "velocity": 0.3937007874015748
        },
        {
          "duration": 0.18292650000000066,
          "durationTicks": 288,
          "midi": 60,
          "name": "C4",
          "ticks": 41088,
          "time": 26.097514,
          "velocity": 0.3937007874015748
        },
        {
          "duration": 0.18292650000000066,
          "durationTicks": 288,
          "midi": 68,
          "name": "G#4",
          "ticks": 41088,
          "time": 26.097514,
          "velocity": 0.3937007874015748
        },
        {
          "duration": 0.18292650000000066,
          "durationTicks": 288,
          "midi": 68,
          "name": "G#4",
          "ticks": 41088,
          "time": 26.097514,
          "velocity": 0.3937007874015748
        },
        {
          "duration": 0.487803999999997,
          "durationTicks": 768,
          "midi": 55,
          "name": "G3",
          "ticks": 41472,
          "time": 26.341416000000002,
          "velocity": 0.3937007874015748
        },
        {
          "duration": 0.36585299999999776,
          "durationTicks": 576,
          "midi": 67,
          "name": "G4",
          "ticks": 41472,
          "time": 26.341416000000002,
          "velocity": 0.3937007874015748
        },
        {
          "duration": 0.487803999999997,
          "durationTicks": 768,
          "midi": 51,
          "name": "D#3",
          "ticks": 41472,
          "time": 26.341416000000002,
          "velocity": 0.3937007874015748
        },
        {
          "duration": 0.36585299999999776,
          "durationTicks": 576,
          "midi": 58,
          "name": "A#3",
          "ticks": 41472,
          "time": 26.341416000000002,
          "velocity": 0.3937007874015748
        },
        {
          "duration": 0.36585299999999776,
          "durationTicks": 576,
          "midi": 67,
          "name": "G4",
          "ticks": 41472,
          "time": 26.341416000000002,
          "velocity": 0.3937007874015748
        },
        {
          "duration": 0.3658530000000013,
          "durationTicks": 576,
          "midi": 67,
          "name": "G4",
          "ticks": 42240,
          "time": 26.82922,
          "velocity": 0.3937007874015748
        },
        {
          "duration": 0.3658530000000013,
          "durationTicks": 576,
          "midi": 67,
          "name": "G4",
          "ticks": 42240,
          "time": 26.82922,
          "velocity": 0.3937007874015748
        },
        {
          "duration": 0.3658530000000013,
          "durationTicks": 576,
          "midi": 58,
          "name": "A#3",
          "ticks": 42240,
          "time": 26.82922,
          "velocity": 0.3937007874015748
        },
        {
          "duration": 0.48780400000000057,
          "durationTicks": 768,
          "midi": 51,
          "name": "D#3",
          "ticks": 42240,
          "time": 26.82922,
          "velocity": 0.3937007874015748
        },
        {
          "duration": 0.48780400000000057,
          "durationTicks": 768,
          "midi": 55,
          "name": "G3",
          "ticks": 42240,
          "time": 26.82922,
          "velocity": 0.3937007874015748
        },
        {
          "duration": 0.3658530000000013,
          "durationTicks": 576,
          "midi": 67,
          "name": "G4",
          "ticks": 43008,
          "time": 27.317024,
          "velocity": 0.3937007874015748
        },
        {
          "duration": 0.48780400000000057,
          "durationTicks": 768,
          "midi": 51,
          "name": "D#3",
          "ticks": 43008,
          "time": 27.317024,
          "velocity": 0.3937007874015748
        },
        {
          "duration": 0.3658530000000013,
          "durationTicks": 576,
          "midi": 58,
          "name": "A#3",
          "ticks": 43008,
          "time": 27.317024,
          "velocity": 0.3937007874015748
        },
        {
          "duration": 0.3658530000000013,
          "durationTicks": 576,
          "midi": 67,
          "name": "G4",
          "ticks": 43008,
          "time": 27.317024,
          "velocity": 0.3937007874015748
        },
        {
          "duration": 0.48780400000000057,
          "durationTicks": 768,
          "midi": 55,
          "name": "G3",
          "ticks": 43008,
          "time": 27.317024,
          "velocity": 0.3937007874015748
        },
        {
          "duration": 0.3658530000000013,
          "durationTicks": 576,
          "midi": 58,
          "name": "A#3",
          "ticks": 43776,
          "time": 27.804828,
          "velocity": 0.3937007874015748
        },
        {
          "duration": 0.3658530000000013,
          "durationTicks": 576,
          "midi": 67,
          "name": "G4",
          "ticks": 43776,
          "time": 27.804828,
          "velocity": 0.3937007874015748
        },
        {
          "duration": 0.3658530000000013,
          "durationTicks": 576,
          "midi": 67,
          "name": "G4",
          "ticks": 43776,
          "time": 27.804828,
          "velocity": 0.3937007874015748
        },
        {
          "duration": 0.48780400000000057,
          "durationTicks": 768,
          "midi": 55,
          "name": "G3",
          "ticks": 43776,
          "time": 27.804828,
          "velocity": 0.3937007874015748
        },
        {
          "duration": 0.48780400000000057,
          "durationTicks": 768,
          "midi": 51,
          "name": "D#3",
          "ticks": 43776,
          "time": 27.804828,
          "velocity": 0.3937007874015748
        },
        {
          "duration": 0.3658530000000013,
          "durationTicks": 576,
          "midi": 65,
          "name": "F4",
          "ticks": 44544,
          "time": 28.292632,
          "velocity": 0.3937007874015748
        },
        {
          "duration": 0.3658530000000013,
          "durationTicks": 576,
          "midi": 61,
          "name": "C#4",
          "ticks": 44544,
          "time": 28.292632,
          "velocity": 0.3937007874015748
        },
        {
          "duration": 0.48780400000000057,
          "durationTicks": 768,
          "midi": 49,
          "name": "C#3",
          "ticks": 44544,
          "time": 28.292632,
          "velocity": 0.3937007874015748
        },
        {
          "duration": 0.48780400000000057,
          "durationTicks": 768,
          "midi": 56,
          "name": "G#3",
          "ticks": 44544,
          "time": 28.292632,
          "velocity": 0.3937007874015748
        },
        {
          "duration": 0.3658530000000013,
          "durationTicks": 576,
          "midi": 65,
          "name": "F4",
          "ticks": 44544,
          "time": 28.292632,
          "velocity": 0.3937007874015748
        },
        {
          "duration": 0.36585299999999776,
          "durationTicks": 576,
          "midi": 58,
          "name": "A#3",
          "ticks": 45312,
          "time": 28.780436,
          "velocity": 0.3937007874015748
        },
        {
          "duration": 0.36585299999999776,
          "durationTicks": 576,
          "midi": 67,
          "name": "G4",
          "ticks": 45312,
          "time": 28.780436,
          "velocity": 0.3937007874015748
        },
        {
          "duration": 0.48780400000000057,
          "durationTicks": 768,
          "midi": 55,
          "name": "G3",
          "ticks": 45312,
          "time": 28.780436,
          "velocity": 0.3937007874015748
        },
        {
          "duration": 0.36585299999999776,
          "durationTicks": 576,
          "midi": 67,
          "name": "G4",
          "ticks": 45312,
          "time": 28.780436,
          "velocity": 0.3937007874015748
        },
        {
          "duration": 0.48780400000000057,
          "durationTicks": 768,
          "midi": 51,
          "name": "D#3",
          "ticks": 45312,
          "time": 28.780436,
          "velocity": 0.3937007874015748
        },
        {
          "duration": 0.36585299999999776,
          "durationTicks": 576,
          "midi": 60,
          "name": "C4",
          "ticks": 46080,
          "time": 29.268240000000002,
          "velocity": 0.3937007874015748
        },
        {
          "duration": 0.36585299999999776,
          "durationTicks": 576,
          "midi": 68,
          "name": "G#4",
          "ticks": 46080,
          "time": 29.268240000000002,
          "velocity": 0.3937007874015748
        },
        {
          "duration": 0.487803999999997,
          "durationTicks": 768,
          "midi": 51,
          "name": "D#3",
          "ticks": 46080,
          "time": 29.268240000000002,
          "velocity": 0.3937007874015748
        },
        {
          "duration": 0.36585299999999776,
          "durationTicks": 576,
          "midi": 68,
          "name": "G#4",
          "ticks": 46080,
          "time": 29.268240000000002,
          "velocity": 0.3937007874015748
        },
        {
          "duration": 0.487803999999997,
          "durationTicks": 768,
          "midi": 56,
          "name": "G#3",
          "ticks": 46080,
          "time": 29.268240000000002,
          "velocity": 0.3937007874015748
        },
        {
          "duration": 0.6097549999999998,
          "durationTicks": 960,
          "midi": 55,
          "name": "G3",
          "ticks": 49152,
          "time": 31.219456,
          "velocity": 0.3937007874015748
        },
        {
          "duration": 0.6097549999999998,
          "durationTicks": 960,
          "midi": 63,
          "name": "D#4",
          "ticks": 49152,
          "time": 31.219456,
          "velocity": 0.3937007874015748
        },
        {
          "duration": 0.6097549999999998,
          "durationTicks": 960,
          "midi": 67,
          "name": "G4",
          "ticks": 49152,
          "time": 31.219456,
          "velocity": 0.3937007874015748
        },
        {
          "duration": 0.6097549999999998,
          "durationTicks": 960,
          "midi": 67,
          "name": "G4",
          "ticks": 49152,
          "time": 31.219456,
          "velocity": 0.3937007874015748
        },
        {
          "duration": 0.6097549999999998,
          "durationTicks": 960,
          "midi": 51,
          "name": "D#3",
          "ticks": 49152,
          "time": 31.219456,
          "velocity": 0.3937007874015748
        },
        {
          "duration": 0.1829265000000042,
          "durationTicks": 288,
          "midi": 68,
          "name": "G#4",
          "ticks": 50304,
          "time": 31.951162,
          "velocity": 0.3937007874015748
        },
        {
          "duration": 0.1829265000000042,
          "durationTicks": 288,
          "midi": 68,
          "name": "G#4",
          "ticks": 50304,
          "time": 31.951162,
          "velocity": 0.3937007874015748
        },
        {
          "duration": 0.1829265000000042,
          "durationTicks": 288,
          "midi": 56,
          "name": "G#3",
          "ticks": 50304,
          "time": 31.951162,
          "velocity": 0.3937007874015748
        },
        {
          "duration": 0.1829265000000042,
          "durationTicks": 288,
          "midi": 60,
          "name": "C4",
          "ticks": 50304,
          "time": 31.951162,
          "velocity": 0.3937007874015748
        },
        {
          "duration": 0.1829265000000042,
          "durationTicks": 288,
          "midi": 51,
          "name": "D#3",
          "ticks": 50304,
          "time": 31.951162,
          "velocity": 0.3937007874015748
        },
        {
          "duration": 0.487803999999997,
          "durationTicks": 768,
          "midi": 55,
          "name": "G3",
          "ticks": 50688,
          "time": 32.195064,
          "velocity": 0.3937007874015748
        },
        {
          "duration": 0.487803999999997,
          "durationTicks": 768,
          "midi": 58,
          "name": "A#3",
          "ticks": 50688,
          "time": 32.195064,
          "velocity": 0.3937007874015748
        },
        {
          "duration": 0.3658530000000013,
          "durationTicks": 576,
          "midi": 61,
          "name": "C#4",
          "ticks": 50688,
          "time": 32.195064,
          "velocity": 0.3937007874015748
        },
        {
          "duration": 0.3658530000000013,
          "durationTicks": 576,
          "midi": 70,
          "name": "A#4",
          "ticks": 50688,
          "time": 32.195064,
          "velocity": 0.3937007874015748
        },
        {
          "duration": 0.3658530000000013,
          "durationTicks": 576,
          "midi": 70,
          "name": "A#4",
          "ticks": 50688,
          "time": 32.195064,
          "velocity": 0.3937007874015748
        },
        {
          "duration": 0.3658530000000013,
          "durationTicks": 576,
          "midi": 61,
          "name": "C#4",
          "ticks": 51456,
          "time": 32.682868,
          "velocity": 0.3937007874015748
        },
        {
          "duration": 0.4878040000000041,
          "durationTicks": 768,
          "midi": 55,
          "name": "G3",
          "ticks": 51456,
          "time": 32.682868,
          "velocity": 0.3937007874015748
        },
        {
          "duration": 0.3658530000000013,
          "durationTicks": 576,
          "midi": 70,
          "name": "A#4",
          "ticks": 51456,
          "time": 32.682868,
          "velocity": 0.3937007874015748
        },
        {
          "duration": 0.3658530000000013,
          "durationTicks": 576,
          "midi": 70,
          "name": "A#4",
          "ticks": 51456,
          "time": 32.682868,
          "velocity": 0.3937007874015748
        },
        {
          "duration": 0.4878040000000041,
          "durationTicks": 768,
          "midi": 58,
          "name": "A#3",
          "ticks": 51456,
          "time": 32.682868,
          "velocity": 0.3937007874015748
        },
        {
          "duration": 0.487803999999997,
          "durationTicks": 768,
          "midi": 55,
          "name": "G3",
          "ticks": 52224,
          "time": 33.170672,
          "velocity": 0.3937007874015748
        },
        {
          "duration": 0.3658530000000013,
          "durationTicks": 576,
          "midi": 61,
          "name": "C#4",
          "ticks": 52224,
          "time": 33.170672,
          "velocity": 0.3937007874015748
        },
        {
          "duration": 0.487803999999997,
          "durationTicks": 768,
          "midi": 58,
          "name": "A#3",
          "ticks": 52224,
          "time": 33.170672,
          "velocity": 0.3937007874015748
        },
        {
          "duration": 0.3658530000000013,
          "durationTicks": 576,
          "midi": 70,
          "name": "A#4",
          "ticks": 52224,
          "time": 33.170672,
          "velocity": 0.3937007874015748
        },
        {
          "duration": 0.3658530000000013,
          "durationTicks": 576,
          "midi": 70,
          "name": "A#4",
          "ticks": 52224,
          "time": 33.170672,
          "velocity": 0.3937007874015748
        },
        {
          "duration": 0.3658530000000013,
          "durationTicks": 576,
          "midi": 70,
          "name": "A#4",
          "ticks": 52992,
          "time": 33.658476,
          "velocity": 0.3937007874015748
        },
        {
          "duration": 0.3658530000000013,
          "durationTicks": 576,
          "midi": 70,
          "name": "A#4",
          "ticks": 52992,
          "time": 33.658476,
          "velocity": 0.3937007874015748
        },
        {
          "duration": 0.3658530000000013,
          "durationTicks": 576,
          "midi": 67,
          "name": "G4",
          "ticks": 52992,
          "time": 33.658476,
          "velocity": 0.3937007874015748
        },
        {
          "duration": 0.4878040000000041,
          "durationTicks": 768,
          "midi": 55,
          "name": "G3",
          "ticks": 52992,
          "time": 33.658476,
          "velocity": 0.3937007874015748
        },
        {
          "duration": 0.4878040000000041,
          "durationTicks": 768,
          "midi": 61,
          "name": "C#4",
          "ticks": 52992,
          "time": 33.658476,
          "velocity": 0.3937007874015748
        },
        {
          "duration": 0.487803999999997,
          "durationTicks": 768,
          "midi": 63,
          "name": "D#4",
          "ticks": 53760,
          "time": 34.146280000000004,
          "velocity": 0.3937007874015748
        },
        {
          "duration": 0.3658529999999942,
          "durationTicks": 576,
          "midi": 75,
          "name": "D#5",
          "ticks": 53760,
          "time": 34.146280000000004,
          "velocity": 0.3937007874015748
        },
        {
          "duration": 0.487803999999997,
          "durationTicks": 768,
          "midi": 60,
          "name": "C4",
          "ticks": 53760,
          "time": 34.146280000000004,
          "velocity": 0.3937007874015748
        },
        {
          "duration": 0.3658529999999942,
          "durationTicks": 576,
          "midi": 68,
          "name": "G#4",
          "ticks": 53760,
          "time": 34.146280000000004,
          "velocity": 0.3937007874015748
        },
        {
          "duration": 0.3658529999999942,
          "durationTicks": 576,
          "midi": 75,
          "name": "D#5",
          "ticks": 53760,
          "time": 34.146280000000004,
          "velocity": 0.3937007874015748
        },
        {
          "duration": 0.3658530000000013,
          "durationTicks": 576,
          "midi": 70,
          "name": "A#4",
          "ticks": 54528,
          "time": 34.634084,
          "velocity": 0.3937007874015748
        },
        {
          "duration": 0.487803999999997,
          "durationTicks": 768,
          "midi": 55,
          "name": "G3",
          "ticks": 54528,
          "time": 34.634084,
          "velocity": 0.3937007874015748
        },
        {
          "duration": 0.3658530000000013,
          "durationTicks": 576,
          "midi": 73,
          "name": "C#5",
          "ticks": 54528,
          "time": 34.634084,
          "velocity": 0.3937007874015748
        },
        {
          "duration": 0.3658530000000013,
          "durationTicks": 576,
          "midi": 73,
          "name": "C#5",
          "ticks": 54528,
          "time": 34.634084,
          "velocity": 0.3937007874015748
        },
        {
          "duration": 0.487803999999997,
          "durationTicks": 768,
          "midi": 61,
          "name": "C#4",
          "ticks": 54528,
          "time": 34.634084,
          "velocity": 0.3937007874015748
        },
        {
          "duration": 0.3658530000000013,
          "durationTicks": 576,
          "midi": 72,
          "name": "C5",
          "ticks": 55296,
          "time": 35.121888,
          "velocity": 0.3937007874015748
        },
        {
          "duration": 0.3658530000000013,
          "durationTicks": 576,
          "midi": 68,
          "name": "G#4",
          "ticks": 55296,
          "time": 35.121888,
          "velocity": 0.3937007874015748
        },
        {
          "duration": 0.4878040000000041,
          "durationTicks": 768,
          "midi": 56,
          "name": "G#3",
          "ticks": 55296,
          "time": 35.121888,
          "velocity": 0.3937007874015748
        },
        {
          "duration": 0.4878040000000041,
          "durationTicks": 768,
          "midi": 60,
          "name": "C4",
          "ticks": 55296,
          "time": 35.121888,
          "velocity": 0.3937007874015748
        },
        {
          "duration": 0.3658530000000013,
          "durationTicks": 576,
          "midi": 72,
          "name": "C5",
          "ticks": 55296,
          "time": 35.121888,
          "velocity": 0.3937007874015748
        },
        {
          "duration": 0.6097549999999998,
          "durationTicks": 960,
          "midi": 44,
          "name": "G#2",
          "ticks": 58368,
          "time": 37.073104,
          "velocity": 0.3937007874015748
        },
        {
          "duration": 0.6097549999999998,
          "durationTicks": 960,
          "midi": 48,
          "name": "C3",
          "ticks": 58368,
          "time": 37.073104,
          "velocity": 0.3937007874015748
        },
        {
          "duration": 0.6097549999999998,
          "durationTicks": 960,
          "midi": 60,
          "name": "C4",
          "ticks": 58368,
          "time": 37.073104,
          "velocity": 0.3937007874015748
        },
        {
          "duration": 0.6097549999999998,
          "durationTicks": 960,
          "midi": 60,
          "name": "C4",
          "ticks": 58368,
          "time": 37.073104,
          "velocity": 0.3937007874015748
        },
        {
          "duration": 0.18292650000000066,
          "durationTicks": 288,
          "midi": 61,
          "name": "C#4",
          "ticks": 59520,
          "time": 37.80481,
          "velocity": 0.3937007874015748
        },
        {
          "duration": 0.18292650000000066,
          "durationTicks": 288,
          "midi": 61,
          "name": "C#4",
          "ticks": 59520,
          "time": 37.80481,
          "velocity": 0.3937007874015748
        },
        {
          "duration": 0.18292650000000066,
          "durationTicks": 288,
          "midi": 44,
          "name": "G#2",
          "ticks": 59520,
          "time": 37.80481,
          "velocity": 0.3937007874015748
        },
        {
          "duration": 0.18292650000000066,
          "durationTicks": 288,
          "midi": 49,
          "name": "C#3",
          "ticks": 59520,
          "time": 37.80481,
          "velocity": 0.3937007874015748
        },
        {
          "duration": 0.3658530000000013,
          "durationTicks": 576,
          "midi": 63,
          "name": "D#4",
          "ticks": 59904,
          "time": 38.048712,
          "velocity": 0.3937007874015748
        },
        {
          "duration": 0.487803999999997,
          "durationTicks": 768,
          "midi": 51,
          "name": "D#3",
          "ticks": 59904,
          "time": 38.048712,
          "velocity": 0.3937007874015748
        },
        {
          "duration": 0.487803999999997,
          "durationTicks": 768,
          "midi": 48,
          "name": "C3",
          "ticks": 59904,
          "time": 38.048712,
          "velocity": 0.3937007874015748
        },
        {
          "duration": 0.3658530000000013,
          "durationTicks": 576,
          "midi": 63,
          "name": "D#4",
          "ticks": 59904,
          "time": 38.048712,
          "velocity": 0.3937007874015748
        },
        {
          "duration": 0.3658530000000013,
          "durationTicks": 576,
          "midi": 60,
          "name": "C4",
          "ticks": 59904,
          "time": 38.048712,
          "velocity": 0.3937007874015748
        },
        {
          "duration": 0.4878040000000041,
          "durationTicks": 768,
          "midi": 48,
          "name": "C3",
          "ticks": 60672,
          "time": 38.536516,
          "velocity": 0.3937007874015748
        },
        {
          "duration": 0.3658530000000013,
          "durationTicks": 576,
          "midi": 63,
          "name": "D#4",
          "ticks": 60672,
          "time": 38.536516,
          "velocity": 0.3937007874015748
        },
        {
          "duration": 0.3658530000000013,
          "durationTicks": 576,
          "midi": 60,
          "name": "C4",
          "ticks": 60672,
          "time": 38.536516,
          "velocity": 0.3937007874015748
        },
        {
          "duration": 0.4878040000000041,
          "durationTicks": 768,
          "midi": 56,
          "name": "G#3",
          "ticks": 60672,
          "time": 38.536516,
          "velocity": 0.3937007874015748
        },
        {
          "duration": 0.3658530000000013,
          "durationTicks": 576,
          "midi": 63,
          "name": "D#4",
          "ticks": 60672,
          "time": 38.536516,
          "velocity": 0.3937007874015748
        },
        {
          "duration": 0.3658530000000013,
          "durationTicks": 576,
          "midi": 63,
          "name": "D#4",
          "ticks": 61440,
          "time": 39.02432,
          "velocity": 0.3937007874015748
        },
        {
          "duration": 0.487803999999997,
          "durationTicks": 768,
          "midi": 56,
          "name": "G#3",
          "ticks": 61440,
          "time": 39.02432,
          "velocity": 0.3937007874015748
        },
        {
          "duration": 0.487803999999997,
          "durationTicks": 768,
          "midi": 48,
          "name": "C3",
          "ticks": 61440,
          "time": 39.02432,
          "velocity": 0.3937007874015748
        },
        {
          "duration": 0.3658530000000013,
          "durationTicks": 576,
          "midi": 63,
          "name": "D#4",
          "ticks": 61440,
          "time": 39.02432,
          "velocity": 0.3937007874015748
        },
        {
          "duration": 0.3658530000000013,
          "durationTicks": 576,
          "midi": 60,
          "name": "C4",
          "ticks": 61440,
          "time": 39.02432,
          "velocity": 0.3937007874015748
        },
        {
          "duration": 0.3658530000000013,
          "durationTicks": 576,
          "midi": 68,
          "name": "G#4",
          "ticks": 62208,
          "time": 39.512124,
          "velocity": 0.3937007874015748
        },
        {
          "duration": 0.4878040000000041,
          "durationTicks": 768,
          "midi": 56,
          "name": "G#3",
          "ticks": 62208,
          "time": 39.512124,
          "velocity": 0.3937007874015748
        },
        {
          "duration": 0.4878040000000041,
          "durationTicks": 768,
          "midi": 51,
          "name": "D#3",
          "ticks": 62208,
          "time": 39.512124,
          "velocity": 0.3937007874015748
        },
        {
          "duration": 0.3658530000000013,
          "durationTicks": 576,
          "midi": 68,
          "name": "G#4",
          "ticks": 62208,
          "time": 39.512124,
          "velocity": 0.3937007874015748
        },
        {
          "duration": 0.3658530000000013,
          "durationTicks": 576,
          "midi": 60,
          "name": "C4",
          "ticks": 62208,
          "time": 39.512124,
          "velocity": 0.3937007874015748
        },
        {
          "duration": 0.3658529999999942,
          "durationTicks": 576,
          "midi": 68,
          "name": "G#4",
          "ticks": 62976,
          "time": 39.999928000000004,
          "velocity": 0.3937007874015748
        },
        {
          "duration": 0.487803999999997,
          "durationTicks": 768,
          "midi": 56,
          "name": "G#3",
          "ticks": 62976,
          "time": 39.999928000000004,
          "velocity": 0.3937007874015748
        },
        {
          "duration": 0.3658529999999942,
          "durationTicks": 576,
          "midi": 68,
          "name": "G#4",
          "ticks": 62976,
          "time": 39.999928000000004,
          "velocity": 0.3937007874015748
        },
        {
          "duration": 0.3658529999999942,
          "durationTicks": 576,
          "midi": 60,
          "name": "C4",
          "ticks": 62976,
          "time": 39.999928000000004,
          "velocity": 0.3937007874015748
        },
        {
          "duration": 0.487803999999997,
          "durationTicks": 768,
          "midi": 51,
          "name": "D#3",
          "ticks": 62976,
          "time": 39.999928000000004,
          "velocity": 0.3937007874015748
        },
        {
          "duration": 0.3658530000000013,
          "durationTicks": 576,
          "midi": 72,
          "name": "C5",
          "ticks": 63744,
          "time": 40.487732,
          "velocity": 0.3937007874015748
        },
        {
          "duration": 0.487803999999997,
          "durationTicks": 768,
          "midi": 56,
          "name": "G#3",
          "ticks": 63744,
          "time": 40.487732,
          "velocity": 0.3937007874015748
        },
        {
          "duration": 0.3658530000000013,
          "durationTicks": 576,
          "midi": 72,
          "name": "C5",
          "ticks": 63744,
          "time": 40.487732,
          "velocity": 0.3937007874015748
        },
        {
          "duration": 0.487803999999997,
          "durationTicks": 768,
          "midi": 60,
          "name": "C4",
          "ticks": 63744,
          "time": 40.487732,
          "velocity": 0.3937007874015748
        },
        {
          "duration": 0.3658530000000013,
          "durationTicks": 576,
          "midi": 63,
          "name": "D#4",
          "ticks": 63744,
          "time": 40.487732,
          "velocity": 0.3937007874015748
        },
        {
          "duration": 0.6097549999999998,
          "durationTicks": 960,
          "midi": 56,
          "name": "G#3",
          "ticks": 64512,
          "time": 40.975536,
          "velocity": 0.3937007874015748
        },
        {
          "duration": 0.6097549999999998,
          "durationTicks": 960,
          "midi": 72,
          "name": "C5",
          "ticks": 64512,
          "time": 40.975536,
          "velocity": 0.3937007874015748
        },
        {
          "duration": 0.6097549999999998,
          "durationTicks": 960,
          "midi": 60,
          "name": "C4",
          "ticks": 64512,
          "time": 40.975536,
          "velocity": 0.3937007874015748
        },
        {
          "duration": 0.6097549999999998,
          "durationTicks": 960,
          "midi": 72,
          "name": "C5",
          "ticks": 64512,
          "time": 40.975536,
          "velocity": 0.3937007874015748
        },
        {
          "duration": 0.6097549999999998,
          "durationTicks": 960,
          "midi": 63,
          "name": "D#4",
          "ticks": 64512,
          "time": 40.975536,
          "velocity": 0.3937007874015748
        },
        {
          "duration": 0.18292650000000066,
          "durationTicks": 288,
          "midi": 70,
          "name": "A#4",
          "ticks": 65664,
          "time": 41.707242,
          "velocity": 0.3937007874015748
        },
        {
          "duration": 0.18292650000000066,
          "durationTicks": 288,
          "midi": 61,
          "name": "C#4",
          "ticks": 65664,
          "time": 41.707242,
          "velocity": 0.3937007874015748
        },
        {
          "duration": 0.18292650000000066,
          "durationTicks": 288,
          "midi": 55,
          "name": "G3",
          "ticks": 65664,
          "time": 41.707242,
          "velocity": 0.3937007874015748
        },
        {
          "duration": 0.18292650000000066,
          "durationTicks": 288,
          "midi": 58,
          "name": "A#3",
          "ticks": 65664,
          "time": 41.707242,
          "velocity": 0.3937007874015748
        },
        {
          "duration": 0.18292650000000066,
          "durationTicks": 288,
          "midi": 70,
          "name": "A#4",
          "ticks": 65664,
          "time": 41.707242,
          "velocity": 0.3937007874015748
        },
        {
          "duration": 0.4878040000000041,
          "durationTicks": 768,
          "midi": 51,
          "name": "D#3",
          "ticks": 66048,
          "time": 41.951144,
          "velocity": 0.3937007874015748
        },
        {
          "duration": 0.3658530000000013,
          "durationTicks": 576,
          "midi": 68,
          "name": "G#4",
          "ticks": 66048,
          "time": 41.951144,
          "velocity": 0.3937007874015748
        },
        {
          "duration": 0.3658530000000013,
          "durationTicks": 576,
          "midi": 60,
          "name": "C4",
          "ticks": 66048,
          "time": 41.951144,
          "velocity": 0.3937007874015748
        },
        {
          "duration": 0.3658530000000013,
          "durationTicks": 576,
          "midi": 68,
          "name": "G#4",
          "ticks": 66048,
          "time": 41.951144,
          "velocity": 0.3937007874015748
        },
        {
          "duration": 0.4878040000000041,
          "durationTicks": 768,
          "midi": 56,
          "name": "G#3",
          "ticks": 66048,
          "time": 41.951144,
          "velocity": 0.3937007874015748
        },
        {
          "duration": 0.487803999999997,
          "durationTicks": 768,
          "midi": 51,
          "name": "D#3",
          "ticks": 69120,
          "time": 43.90236,
          "velocity": 0.3937007874015748
        },
        {
          "duration": 0.487803999999997,
          "durationTicks": 768,
          "midi": 55,
          "name": "G3",
          "ticks": 69120,
          "time": 43.90236,
          "velocity": 0.3937007874015748
        },
        {
          "duration": 0.3658530000000013,
          "durationTicks": 576,
          "midi": 67,
          "name": "G4",
          "ticks": 69120,
          "time": 43.90236,
          "velocity": 0.3937007874015748
        },
        {
          "duration": 0.3658530000000013,
          "durationTicks": 576,
          "midi": 63,
          "name": "D#4",
          "ticks": 69120,
          "time": 43.90236,
          "velocity": 0.3937007874015748
        },
        {
          "duration": 0.3658530000000013,
          "durationTicks": 576,
          "midi": 67,
          "name": "G4",
          "ticks": 69120,
          "time": 43.90236,
          "velocity": 0.3937007874015748
        },
        {
          "duration": 0.4878040000000041,
          "durationTicks": 768,
          "midi": 48,
          "name": "C3",
          "ticks": 69888,
          "time": 44.390164,
          "velocity": 0.3937007874015748
        },
        {
          "duration": 0.4878040000000041,
          "durationTicks": 768,
          "midi": 56,
          "name": "G#3",
          "ticks": 69888,
          "time": 44.390164,
          "velocity": 0.3937007874015748
        },
        {
          "duration": 0.3658530000000013,
          "durationTicks": 576,
          "midi": 68,
          "name": "G#4",
          "ticks": 69888,
          "time": 44.390164,
          "velocity": 0.3937007874015748
        },
        {
          "duration": 0.3658530000000013,
          "durationTicks": 576,
          "midi": 63,
          "name": "D#4",
          "ticks": 69888,
          "time": 44.390164,
          "velocity": 0.3937007874015748
        },
        {
          "duration": 0.3658530000000013,
          "durationTicks": 576,
          "midi": 68,
          "name": "G#4",
          "ticks": 69888,
          "time": 44.390164,
          "velocity": 0.3937007874015748
        },
        {
          "duration": 0.3658530000000013,
          "durationTicks": 576,
          "midi": 61,
          "name": "C#4",
          "ticks": 70656,
          "time": 44.877968,
          "velocity": 0.3937007874015748
        },
        {
          "duration": 0.487803999999997,
          "durationTicks": 768,
          "midi": 55,
          "name": "G3",
          "ticks": 70656,
          "time": 44.877968,
          "velocity": 0.3937007874015748
        },
        {
          "duration": 0.3658530000000013,
          "durationTicks": 576,
          "midi": 70,
          "name": "A#4",
          "ticks": 70656,
          "time": 44.877968,
          "velocity": 0.3937007874015748
        },
        {
          "duration": 0.487803999999997,
          "durationTicks": 768,
          "midi": 58,
          "name": "A#3",
          "ticks": 70656,
          "time": 44.877968,
          "velocity": 0.3937007874015748
        },
        {
          "duration": 0.3658530000000013,
          "durationTicks": 576,
          "midi": 70,
          "name": "A#4",
          "ticks": 70656,
          "time": 44.877968,
          "velocity": 0.3937007874015748
        },
        {
          "duration": 0.6097550000000069,
          "durationTicks": 960,
          "midi": 72,
          "name": "C5",
          "ticks": 73728,
          "time": 46.829184,
          "velocity": 0.3937007874015748
        },
        {
          "duration": 0.6097550000000069,
          "durationTicks": 960,
          "midi": 60,
          "name": "C4",
          "ticks": 73728,
          "time": 46.829184,
          "velocity": 0.3937007874015748
        },
        {
          "duration": 0.6097550000000069,
          "durationTicks": 960,
          "midi": 72,
          "name": "C5",
          "ticks": 73728,
          "time": 46.829184,
          "velocity": 0.3937007874015748
        },
        {
          "duration": 0.6097550000000069,
          "durationTicks": 960,
          "midi": 63,
          "name": "D#4",
          "ticks": 73728,
          "time": 46.829184,
          "velocity": 0.3937007874015748
        },
        {
          "duration": 0.6097550000000069,
          "durationTicks": 960,
          "midi": 56,
          "name": "G#3",
          "ticks": 73728,
          "time": 46.829184,
          "velocity": 0.3937007874015748
        },
        {
          "duration": 0.18292650000000066,
          "durationTicks": 288,
          "midi": 58,
          "name": "A#3",
          "ticks": 74880,
          "time": 47.56089,
          "velocity": 0.3937007874015748
        },
        {
          "duration": 0.18292650000000066,
          "durationTicks": 288,
          "midi": 70,
          "name": "A#4",
          "ticks": 74880,
          "time": 47.56089,
          "velocity": 0.3937007874015748
        },
        {
          "duration": 0.18292650000000066,
          "durationTicks": 288,
          "midi": 55,
          "name": "G3",
          "ticks": 74880,
          "time": 47.56089,
          "velocity": 0.3937007874015748
        },
        {
          "duration": 0.18292650000000066,
          "durationTicks": 288,
          "midi": 70,
          "name": "A#4",
          "ticks": 74880,
          "time": 47.56089,
          "velocity": 0.3937007874015748
        },
        {
          "duration": 0.18292650000000066,
          "durationTicks": 288,
          "midi": 61,
          "name": "C#4",
          "ticks": 74880,
          "time": 47.56089,
          "velocity": 0.3937007874015748
        },
        {
          "duration": 0.3658530000000013,
          "durationTicks": 576,
          "midi": 68,
          "name": "G#4",
          "ticks": 75264,
          "time": 47.804792,
          "velocity": 0.3937007874015748
        },
        {
          "duration": 0.4878040000000041,
          "durationTicks": 768,
          "midi": 51,
          "name": "D#3",
          "ticks": 75264,
          "time": 47.804792,
          "velocity": 0.3937007874015748
        },
        {
          "duration": 0.3658530000000013,
          "durationTicks": 576,
          "midi": 68,
          "name": "G#4",
          "ticks": 75264,
          "time": 47.804792,
          "velocity": 0.3937007874015748
        },
        {
          "duration": 0.4878040000000041,
          "durationTicks": 768,
          "midi": 56,
          "name": "G#3",
          "ticks": 75264,
          "time": 47.804792,
          "velocity": 0.3937007874015748
        },
        {
          "duration": 0.3658530000000013,
          "durationTicks": 576,
          "midi": 60,
          "name": "C4",
          "ticks": 75264,
          "time": 47.804792,
          "velocity": 0.3937007874015748
        },
        {
          "duration": 0.6097549999999998,
          "durationTicks": 960,
          "midi": 60,
          "name": "C4",
          "ticks": 76800,
          "time": 48.7804,
          "velocity": 0.3937007874015748
        },
        {
          "duration": 0.6097549999999998,
          "durationTicks": 960,
          "midi": 60,
          "name": "C4",
          "ticks": 76800,
          "time": 48.7804,
          "velocity": 0.3937007874015748
        },
        {
          "duration": 0.18292650000000066,
          "durationTicks": 288,
          "midi": 61,
          "name": "C#4",
          "ticks": 77952,
          "time": 49.512106,
          "velocity": 0.3937007874015748
        },
        {
          "duration": 0.18292650000000066,
          "durationTicks": 288,
          "midi": 61,
          "name": "C#4",
          "ticks": 77952,
          "time": 49.512106,
          "velocity": 0.3937007874015748
        },
        {
          "duration": 0.487803999999997,
          "durationTicks": 768,
          "midi": 48,
          "name": "C3",
          "ticks": 78336,
          "time": 49.756008,
          "velocity": 0.3937007874015748
        },
        {
          "duration": 0.3658530000000013,
          "durationTicks": 576,
          "midi": 60,
          "name": "C4",
          "ticks": 78336,
          "time": 49.756008,
          "velocity": 0.3937007874015748
        },
        {
          "duration": 0.487803999999997,
          "durationTicks": 768,
          "midi": 56,
          "name": "G#3",
          "ticks": 78336,
          "time": 49.756008,
          "velocity": 0.3937007874015748
        },
        {
          "duration": 0.3658530000000013,
          "durationTicks": 576,
          "midi": 63,
          "name": "D#4",
          "ticks": 78336,
          "time": 49.756008,
          "velocity": 0.3937007874015748
        },
        {
          "duration": 0.3658530000000013,
          "durationTicks": 576,
          "midi": 63,
          "name": "D#4",
          "ticks": 78336,
          "time": 49.756008,
          "velocity": 0.3937007874015748
        },
        {
          "duration": 0.3658530000000013,
          "durationTicks": 576,
          "midi": 63,
          "name": "D#4",
          "ticks": 79104,
          "time": 50.243812,
          "velocity": 0.3937007874015748
        },
        {
          "duration": 0.4878040000000041,
          "durationTicks": 768,
          "midi": 51,
          "name": "D#3",
          "ticks": 79104,
          "time": 50.243812,
          "velocity": 0.3937007874015748
        },
        {
          "duration": 0.4878040000000041,
          "durationTicks": 768,
          "midi": 48,
          "name": "C3",
          "ticks": 79104,
          "time": 50.243812,
          "velocity": 0.3937007874015748
        },
        {
          "duration": 0.3658530000000013,
          "durationTicks": 576,
          "midi": 60,
          "name": "C4",
          "ticks": 79104,
          "time": 50.243812,
          "velocity": 0.3937007874015748
        },
        {
          "duration": 0.3658530000000013,
          "durationTicks": 576,
          "midi": 63,
          "name": "D#4",
          "ticks": 79104,
          "time": 50.243812,
          "velocity": 0.3937007874015748
        },
        {
          "duration": 0.3658530000000013,
          "durationTicks": 576,
          "midi": 63,
          "name": "D#4",
          "ticks": 79872,
          "time": 50.731616,
          "velocity": 0.3937007874015748
        },
        {
          "duration": 0.487803999999997,
          "durationTicks": 768,
          "midi": 56,
          "name": "G#3",
          "ticks": 79872,
          "time": 50.731616,
          "velocity": 0.3937007874015748
        },
        {
          "duration": 0.487803999999997,
          "durationTicks": 768,
          "midi": 48,
          "name": "C3",
          "ticks": 79872,
          "time": 50.731616,
          "velocity": 0.3937007874015748
        },
        {
          "duration": 0.3658530000000013,
          "durationTicks": 576,
          "midi": 60,
          "name": "C4",
          "ticks": 79872,
          "time": 50.731616,
          "velocity": 0.3937007874015748
        },
        {
          "duration": 0.3658530000000013,
          "durationTicks": 576,
          "midi": 63,
          "name": "D#4",
          "ticks": 79872,
          "time": 50.731616,
          "velocity": 0.3937007874015748
        },
        {
          "duration": 0.3658530000000013,
          "durationTicks": 576,
          "midi": 68,
          "name": "G#4",
          "ticks": 80640,
          "time": 51.21942,
          "velocity": 0.3937007874015748
        },
        {
          "duration": 0.4878040000000041,
          "durationTicks": 768,
          "midi": 56,
          "name": "G#3",
          "ticks": 80640,
          "time": 51.21942,
          "velocity": 0.3937007874015748
        },
        {
          "duration": 0.3658530000000013,
          "durationTicks": 576,
          "midi": 60,
          "name": "C4",
          "ticks": 80640,
          "time": 51.21942,
          "velocity": 0.3937007874015748
        },
        {
          "duration": 0.3658530000000013,
          "durationTicks": 576,
          "midi": 68,
          "name": "G#4",
          "ticks": 80640,
          "time": 51.21942,
          "velocity": 0.3937007874015748
        },
        {
          "duration": 0.4878040000000041,
          "durationTicks": 768,
          "midi": 51,
          "name": "D#3",
          "ticks": 80640,
          "time": 51.21942,
          "velocity": 0.3937007874015748
        },
        {
          "duration": 0.3658530000000013,
          "durationTicks": 576,
          "midi": 68,
          "name": "G#4",
          "ticks": 81408,
          "time": 51.707224000000004,
          "velocity": 0.3937007874015748
        },
        {
          "duration": 0.487803999999997,
          "durationTicks": 768,
          "midi": 56,
          "name": "G#3",
          "ticks": 81408,
          "time": 51.707224000000004,
          "velocity": 0.3937007874015748
        },
        {
          "duration": 0.487803999999997,
          "durationTicks": 768,
          "midi": 51,
          "name": "D#3",
          "ticks": 81408,
          "time": 51.707224000000004,
          "velocity": 0.3937007874015748
        },
        {
          "duration": 0.3658530000000013,
          "durationTicks": 576,
          "midi": 60,
          "name": "C4",
          "ticks": 81408,
          "time": 51.707224000000004,
          "velocity": 0.3937007874015748
        },
        {
          "duration": 0.3658530000000013,
          "durationTicks": 576,
          "midi": 68,
          "name": "G#4",
          "ticks": 81408,
          "time": 51.707224000000004,
          "velocity": 0.3937007874015748
        },
        {
          "duration": 0.3658530000000013,
          "durationTicks": 576,
          "midi": 63,
          "name": "D#4",
          "ticks": 82176,
          "time": 52.195028,
          "velocity": 0.3937007874015748
        },
        {
          "duration": 0.4878040000000041,
          "durationTicks": 768,
          "midi": 56,
          "name": "G#3",
          "ticks": 82176,
          "time": 52.195028,
          "velocity": 0.3937007874015748
        },
        {
          "duration": 0.4878040000000041,
          "durationTicks": 768,
          "midi": 60,
          "name": "C4",
          "ticks": 82176,
          "time": 52.195028,
          "velocity": 0.3937007874015748
        },
        {
          "duration": 0.3658530000000013,
          "durationTicks": 576,
          "midi": 72,
          "name": "C5",
          "ticks": 82176,
          "time": 52.195028,
          "velocity": 0.3937007874015748
        },
        {
          "duration": 0.3658530000000013,
          "durationTicks": 576,
          "midi": 72,
          "name": "C5",
          "ticks": 82176,
          "time": 52.195028,
          "velocity": 0.3937007874015748
        },
        {
          "duration": 0.6097549999999998,
          "durationTicks": 960,
          "midi": 60,
          "name": "C4",
          "ticks": 82944,
          "time": 52.682832000000005,
          "velocity": 0.3937007874015748
        },
        {
          "duration": 0.6097549999999998,
          "durationTicks": 960,
          "midi": 72,
          "name": "C5",
          "ticks": 82944,
          "time": 52.682832000000005,
          "velocity": 0.3937007874015748
        },
        {
          "duration": 0.6097549999999998,
          "durationTicks": 960,
          "midi": 63,
          "name": "D#4",
          "ticks": 82944,
          "time": 52.682832000000005,
          "velocity": 0.3937007874015748
        },
        {
          "duration": 0.6097549999999998,
          "durationTicks": 960,
          "midi": 56,
          "name": "G#3",
          "ticks": 82944,
          "time": 52.682832000000005,
          "velocity": 0.3937007874015748
        },
        {
          "duration": 0.6097549999999998,
          "durationTicks": 960,
          "midi": 72,
          "name": "C5",
          "ticks": 82944,
          "time": 52.682832000000005,
          "velocity": 0.3937007874015748
        },
        {
          "duration": 0.18292650000000066,
          "durationTicks": 288,
          "midi": 61,
          "name": "C#4",
          "ticks": 84096,
          "time": 53.414538,
          "velocity": 0.3937007874015748
        },
        {
          "duration": 0.18292650000000066,
          "durationTicks": 288,
          "midi": 70,
          "name": "A#4",
          "ticks": 84096,
          "time": 53.414538,
          "velocity": 0.3937007874015748
        },
        {
          "duration": 0.18292650000000066,
          "durationTicks": 288,
          "midi": 70,
          "name": "A#4",
          "ticks": 84096,
          "time": 53.414538,
          "velocity": 0.3937007874015748
        },
        {
          "duration": 0.18292650000000066,
          "durationTicks": 288,
          "midi": 55,
          "name": "G3",
          "ticks": 84096,
          "time": 53.414538,
          "velocity": 0.3937007874015748
        },
        {
          "duration": 0.18292650000000066,
          "durationTicks": 288,
          "midi": 58,
          "name": "A#3",
          "ticks": 84096,
          "time": 53.414538,
          "velocity": 0.3937007874015748
        },
        {
          "duration": 0.4878040000000041,
          "durationTicks": 768,
          "midi": 51,
          "name": "D#3",
          "ticks": 84480,
          "time": 53.65844,
          "velocity": 0.3937007874015748
        },
        {
          "duration": 0.3658530000000013,
          "durationTicks": 576,
          "midi": 60,
          "name": "C4",
          "ticks": 84480,
          "time": 53.65844,
          "velocity": 0.3937007874015748
        },
        {
          "duration": 0.3658530000000013,
          "durationTicks": 576,
          "midi": 68,
          "name": "G#4",
          "ticks": 84480,
          "time": 53.65844,
          "velocity": 0.3937007874015748
        },
        {
          "duration": 0.4878040000000041,
          "durationTicks": 768,
          "midi": 56,
          "name": "G#3",
          "ticks": 84480,
          "time": 53.65844,
          "velocity": 0.3937007874015748
        },
        {
          "duration": 0.3658530000000013,
          "durationTicks": 576,
          "midi": 68,
          "name": "G#4",
          "ticks": 84480,
          "time": 53.65844,
          "velocity": 0.3937007874015748
        },
        {
          "duration": 0.4878040000000041,
          "durationTicks": 768,
          "midi": 51,
          "name": "D#3",
          "ticks": 87552,
          "time": 55.609656,
          "velocity": 0.3937007874015748
        },
        {
          "duration": 0.3658530000000013,
          "durationTicks": 576,
          "midi": 67,
          "name": "G4",
          "ticks": 87552,
          "time": 55.609656,
          "velocity": 0.3937007874015748
        },
        {
          "duration": 0.3658530000000013,
          "durationTicks": 576,
          "midi": 63,
          "name": "D#4",
          "ticks": 87552,
          "time": 55.609656,
          "velocity": 0.3937007874015748
        },
        {
          "duration": 0.3658530000000013,
          "durationTicks": 576,
          "midi": 67,
          "name": "G4",
          "ticks": 87552,
          "time": 55.609656,
          "velocity": 0.3937007874015748
        },
        {
          "duration": 0.4878040000000041,
          "durationTicks": 768,
          "midi": 58,
          "name": "A#3",
          "ticks": 87552,
          "time": 55.609656,
          "velocity": 0.3937007874015748
        },
        {
          "duration": 0.3658529999999942,
          "durationTicks": 576,
          "midi": 68,
          "name": "G#4",
          "ticks": 88320,
          "time": 56.097460000000005,
          "velocity": 0.3937007874015748
        },
        {
          "duration": 0.487803999999997,
          "durationTicks": 768,
          "midi": 60,
          "name": "C4",
          "ticks": 88320,
          "time": 56.097460000000005,
          "velocity": 0.3937007874015748
        },
        {
          "duration": 0.3658529999999942,
          "durationTicks": 576,
          "midi": 63,
          "name": "D#4",
          "ticks": 88320,
          "time": 56.097460000000005,
          "velocity": 0.3937007874015748
        },
        {
          "duration": 0.487803999999997,
          "durationTicks": 768,
          "midi": 51,
          "name": "D#3",
          "ticks": 88320,
          "time": 56.097460000000005,
          "velocity": 0.3937007874015748
        },
        {
          "duration": 0.3658529999999942,
          "durationTicks": 576,
          "midi": 68,
          "name": "G#4",
          "ticks": 88320,
          "time": 56.097460000000005,
          "velocity": 0.3937007874015748
        },
        {
          "duration": 0.487803999999997,
          "durationTicks": 768,
          "midi": 55,
          "name": "G3",
          "ticks": 89088,
          "time": 56.585264,
          "velocity": 0.3937007874015748
        },
        {
          "duration": 0.3658530000000013,
          "durationTicks": 576,
          "midi": 70,
          "name": "A#4",
          "ticks": 89088,
          "time": 56.585264,
          "velocity": 0.3937007874015748
        },
        {
          "duration": 0.3658530000000013,
          "durationTicks": 576,
          "midi": 61,
          "name": "C#4",
          "ticks": 89088,
          "time": 56.585264,
          "velocity": 0.3937007874015748
        },
        {
          "duration": 0.487803999999997,
          "durationTicks": 768,
          "midi": 58,
          "name": "A#3",
          "ticks": 89088,
          "time": 56.585264,
          "velocity": 0.3937007874015748
        },
        {
          "duration": 0.3658530000000013,
          "durationTicks": 576,
          "midi": 70,
          "name": "A#4",
          "ticks": 89088,
          "time": 56.585264,
          "velocity": 0.3937007874015748
        },
        {
          "duration": 0.6097549999999998,
          "durationTicks": 960,
          "midi": 72,
          "name": "C5",
          "ticks": 92160,
          "time": 58.536480000000005,
          "velocity": 0.3937007874015748
        },
        {
          "duration": 0.6097549999999998,
          "durationTicks": 960,
          "midi": 56,
          "name": "G#3",
          "ticks": 92160,
          "time": 58.536480000000005,
          "velocity": 0.3937007874015748
        },
        {
          "duration": 0.6097549999999998,
          "durationTicks": 960,
          "midi": 63,
          "name": "D#4",
          "ticks": 92160,
          "time": 58.536480000000005,
          "velocity": 0.3937007874015748
        },
        {
          "duration": 0.6097549999999998,
          "durationTicks": 960,
          "midi": 72,
          "name": "C5",
          "ticks": 92160,
          "time": 58.536480000000005,
          "velocity": 0.3937007874015748
        },
        {
          "duration": 0.6097549999999998,
          "durationTicks": 960,
          "midi": 60,
          "name": "C4",
          "ticks": 92160,
          "time": 58.536480000000005,
          "velocity": 0.3937007874015748
        },
        {
          "duration": 0.18292650000000066,
          "durationTicks": 288,
          "midi": 58,
          "name": "A#3",
          "ticks": 93312,
          "time": 59.268186,
          "velocity": 0.3937007874015748
        },
        {
          "duration": 0.18292650000000066,
          "durationTicks": 288,
          "midi": 55,
          "name": "G3",
          "ticks": 93312,
          "time": 59.268186,
          "velocity": 0.3937007874015748
        },
        {
          "duration": 0.18292650000000066,
          "durationTicks": 288,
          "midi": 70,
          "name": "A#4",
          "ticks": 93312,
          "time": 59.268186,
          "velocity": 0.3937007874015748
        },
        {
          "duration": 0.18292650000000066,
          "durationTicks": 288,
          "midi": 61,
          "name": "C#4",
          "ticks": 93312,
          "time": 59.268186,
          "velocity": 0.3937007874015748
        },
        {
          "duration": 0.18292650000000066,
          "durationTicks": 288,
          "midi": 70,
          "name": "A#4",
          "ticks": 93312,
          "time": 59.268186,
          "velocity": 0.3937007874015748
        },
        {
          "duration": 0.3658530000000013,
          "durationTicks": 576,
          "midi": 68,
          "name": "G#4",
          "ticks": 93696,
          "time": 59.512088,
          "velocity": 0.3937007874015748
        },
        {
          "duration": 0.3658530000000013,
          "durationTicks": 576,
          "midi": 60,
          "name": "C4",
          "ticks": 93696,
          "time": 59.512088,
          "velocity": 0.3937007874015748
        },
        {
          "duration": 0.4878040000000041,
          "durationTicks": 768,
          "midi": 51,
          "name": "D#3",
          "ticks": 93696,
          "time": 59.512088,
          "velocity": 0.3937007874015748
        },
        {
          "duration": 0.3658530000000013,
          "durationTicks": 576,
          "midi": 68,
          "name": "G#4",
          "ticks": 93696,
          "time": 59.512088,
          "velocity": 0.3937007874015748
        },
        {
          "duration": 0.4878040000000041,
          "durationTicks": 768,
          "midi": 56,
          "name": "G#3",
          "ticks": 93696,
          "time": 59.512088,
          "velocity": 0.3937007874015748
        },
        {
          "duration": 0.6097549999999998,
          "durationTicks": 960,
          "midi": 60,
          "name": "C4",
          "ticks": 96768,
          "time": 61.463304,
          "velocity": 0.3937007874015748
        },
        {
          "duration": 0.6097549999999998,
          "durationTicks": 960,
          "midi": 48,
          "name": "C3",
          "ticks": 96768,
          "time": 61.463304,
          "velocity": 0.3937007874015748
        },
        {
          "duration": 0.6097549999999998,
          "durationTicks": 960,
          "midi": 44,
          "name": "G#2",
          "ticks": 96768,
          "time": 61.463304,
          "velocity": 0.3937007874015748
        },
        {
          "duration": 0.6097549999999998,
          "durationTicks": 960,
          "midi": 60,
          "name": "C4",
          "ticks": 96768,
          "time": 61.463304,
          "velocity": 0.3937007874015748
        },
        {
          "duration": 0.18292650000000066,
          "durationTicks": 288,
          "midi": 61,
          "name": "C#4",
          "ticks": 97920,
          "time": 62.19501,
          "velocity": 0.3937007874015748
        },
        {
          "duration": 0.18292650000000066,
          "durationTicks": 288,
          "midi": 61,
          "name": "C#4",
          "ticks": 97920,
          "time": 62.19501,
          "velocity": 0.3937007874015748
        },
        {
          "duration": 0.18292650000000066,
          "durationTicks": 288,
          "midi": 44,
          "name": "G#2",
          "ticks": 97920,
          "time": 62.19501,
          "velocity": 0.3937007874015748
        },
        {
          "duration": 0.18292650000000066,
          "durationTicks": 288,
          "midi": 49,
          "name": "C#3",
          "ticks": 97920,
          "time": 62.19501,
          "velocity": 0.3937007874015748
        },
        {
          "duration": 0.487803999999997,
          "durationTicks": 768,
          "midi": 48,
          "name": "C3",
          "ticks": 98304,
          "time": 62.438912,
          "velocity": 0.3937007874015748
        },
        {
          "duration": 0.3658530000000013,
          "durationTicks": 576,
          "midi": 60,
          "name": "C4",
          "ticks": 98304,
          "time": 62.438912,
          "velocity": 0.3937007874015748
        },
        {
          "duration": 0.3658530000000013,
          "durationTicks": 576,
          "midi": 63,
          "name": "D#4",
          "ticks": 98304,
          "time": 62.438912,
          "velocity": 0.3937007874015748
        },
        {
          "duration": 0.487803999999997,
          "durationTicks": 768,
          "midi": 56,
          "name": "G#3",
          "ticks": 98304,
          "time": 62.438912,
          "velocity": 0.3937007874015748
        },
        {
          "duration": 0.3658530000000013,
          "durationTicks": 576,
          "midi": 63,
          "name": "D#4",
          "ticks": 98304,
          "time": 62.438912,
          "velocity": 0.3937007874015748
        },
        {
          "duration": 0.3658530000000013,
          "durationTicks": 576,
          "midi": 60,
          "name": "C4",
          "ticks": 99072,
          "time": 62.926716,
          "velocity": 0.3937007874015748
        },
        {
          "duration": 0.4878040000000041,
          "durationTicks": 768,
          "midi": 51,
          "name": "D#3",
          "ticks": 99072,
          "time": 62.926716,
          "velocity": 0.3937007874015748
        },
        {
          "duration": 0.3658530000000013,
          "durationTicks": 576,
          "midi": 63,
          "name": "D#4",
          "ticks": 99072,
          "time": 62.926716,
          "velocity": 0.3937007874015748
        },
        {
          "duration": 0.3658530000000013,
          "durationTicks": 576,
          "midi": 63,
          "name": "D#4",
          "ticks": 99072,
          "time": 62.926716,
          "velocity": 0.3937007874015748
        },
        {
          "duration": 0.4878040000000041,
          "durationTicks": 768,
          "midi": 48,
          "name": "C3",
          "ticks": 99072,
          "time": 62.926716,
          "velocity": 0.3937007874015748
        },
        {
          "duration": 0.487803999999997,
          "durationTicks": 768,
          "midi": 48,
          "name": "C3",
          "ticks": 99840,
          "time": 63.41452,
          "velocity": 0.3937007874015748
        },
        {
          "duration": 0.3658530000000013,
          "durationTicks": 576,
          "midi": 60,
          "name": "C4",
          "ticks": 99840,
          "time": 63.41452,
          "velocity": 0.3937007874015748
        },
        {
          "duration": 0.3658530000000013,
          "durationTicks": 576,
          "midi": 63,
          "name": "D#4",
          "ticks": 99840,
          "time": 63.41452,
          "velocity": 0.3937007874015748
        },
        {
          "duration": 0.487803999999997,
          "durationTicks": 768,
          "midi": 56,
          "name": "G#3",
          "ticks": 99840,
          "time": 63.41452,
          "velocity": 0.3937007874015748
        },
        {
          "duration": 0.3658530000000013,
          "durationTicks": 576,
          "midi": 63,
          "name": "D#4",
          "ticks": 99840,
          "time": 63.41452,
          "velocity": 0.3937007874015748
        },
        {
          "duration": 0.3658530000000084,
          "durationTicks": 576,
          "midi": 68,
          "name": "G#4",
          "ticks": 100608,
          "time": 63.902324,
          "velocity": 0.3937007874015748
        },
        {
          "duration": 0.3658530000000084,
          "durationTicks": 576,
          "midi": 60,
          "name": "C4",
          "ticks": 100608,
          "time": 63.902324,
          "velocity": 0.3937007874015748
        },
        {
          "duration": 0.4878040000000041,
          "durationTicks": 768,
          "midi": 56,
          "name": "G#3",
          "ticks": 100608,
          "time": 63.902324,
          "velocity": 0.3937007874015748
        },
        {
          "duration": 0.3658530000000084,
          "durationTicks": 576,
          "midi": 68,
          "name": "G#4",
          "ticks": 100608,
          "time": 63.902324,
          "velocity": 0.3937007874015748
        },
        {
          "duration": 0.4878040000000041,
          "durationTicks": 768,
          "midi": 51,
          "name": "D#3",
          "ticks": 100608,
          "time": 63.902324,
          "velocity": 0.3937007874015748
        },
        {
          "duration": 0.3658530000000013,
          "durationTicks": 576,
          "midi": 68,
          "name": "G#4",
          "ticks": 101376,
          "time": 64.390128,
          "velocity": 0.3937007874015748
        },
        {
          "duration": 0.3658530000000013,
          "durationTicks": 576,
          "midi": 68,
          "name": "G#4",
          "ticks": 101376,
          "time": 64.390128,
          "velocity": 0.3937007874015748
        },
        {
          "duration": 0.487803999999997,
          "durationTicks": 768,
          "midi": 51,
          "name": "D#3",
          "ticks": 101376,
          "time": 64.390128,
          "velocity": 0.3937007874015748
        },
        {
          "duration": 0.487803999999997,
          "durationTicks": 768,
          "midi": 56,
          "name": "G#3",
          "ticks": 101376,
          "time": 64.390128,
          "velocity": 0.3937007874015748
        },
        {
          "duration": 0.3658530000000013,
          "durationTicks": 576,
          "midi": 60,
          "name": "C4",
          "ticks": 101376,
          "time": 64.390128,
          "velocity": 0.3937007874015748
        },
        {
          "duration": 0.487803999999997,
          "durationTicks": 768,
          "midi": 56,
          "name": "G#3",
          "ticks": 102144,
          "time": 64.877932,
          "velocity": 0.3937007874015748
        },
        {
          "duration": 0.3658530000000013,
          "durationTicks": 576,
          "midi": 72,
          "name": "C5",
          "ticks": 102144,
          "time": 64.877932,
          "velocity": 0.3937007874015748
        },
        {
          "duration": 0.487803999999997,
          "durationTicks": 768,
          "midi": 60,
          "name": "C4",
          "ticks": 102144,
          "time": 64.877932,
          "velocity": 0.3937007874015748
        },
        {
          "duration": 0.3658530000000013,
          "durationTicks": 576,
          "midi": 63,
          "name": "D#4",
          "ticks": 102144,
          "time": 64.877932,
          "velocity": 0.3937007874015748
        },
        {
          "duration": 0.3658530000000013,
          "durationTicks": 576,
          "midi": 72,
          "name": "C5",
          "ticks": 102144,
          "time": 64.877932,
          "velocity": 0.3937007874015748
        },
        {
          "duration": 0.6097550000000069,
          "durationTicks": 960,
          "midi": 60,
          "name": "C4",
          "ticks": 102912,
          "time": 65.365736,
          "velocity": 0.3937007874015748
        },
        {
          "duration": 0.6097550000000069,
          "durationTicks": 960,
          "midi": 72,
          "name": "C5",
          "ticks": 102912,
          "time": 65.365736,
          "velocity": 0.3937007874015748
        },
        {
          "duration": 0.6097550000000069,
          "durationTicks": 960,
          "midi": 63,
          "name": "D#4",
          "ticks": 102912,
          "time": 65.365736,
          "velocity": 0.3937007874015748
        },
        {
          "duration": 0.6097550000000069,
          "durationTicks": 960,
          "midi": 72,
          "name": "C5",
          "ticks": 102912,
          "time": 65.365736,
          "velocity": 0.3937007874015748
        },
        {
          "duration": 0.6097550000000069,
          "durationTicks": 960,
          "midi": 56,
          "name": "G#3",
          "ticks": 102912,
          "time": 65.365736,
          "velocity": 0.3937007874015748
        },
        {
          "duration": 0.18292650000000776,
          "durationTicks": 288,
          "midi": 55,
          "name": "G3",
          "ticks": 104064,
          "time": 66.097442,
          "velocity": 0.3937007874015748
        },
        {
          "duration": 0.18292650000000776,
          "durationTicks": 288,
          "midi": 58,
          "name": "A#3",
          "ticks": 104064,
          "time": 66.097442,
          "velocity": 0.3937007874015748
        },
        {
          "duration": 0.18292650000000776,
          "durationTicks": 288,
          "midi": 61,
          "name": "C#4",
          "ticks": 104064,
          "time": 66.097442,
          "velocity": 0.3937007874015748
        },
        {
          "duration": 0.18292650000000776,
          "durationTicks": 288,
          "midi": 70,
          "name": "A#4",
          "ticks": 104064,
          "time": 66.097442,
          "velocity": 0.3937007874015748
        },
        {
          "duration": 0.18292650000000776,
          "durationTicks": 288,
          "midi": 70,
          "name": "A#4",
          "ticks": 104064,
          "time": 66.097442,
          "velocity": 0.3937007874015748
        },
        {
          "duration": 0.3658530000000013,
          "durationTicks": 576,
          "midi": 68,
          "name": "G#4",
          "ticks": 104448,
          "time": 66.341344,
          "velocity": 0.3937007874015748
        },
        {
          "duration": 0.487803999999997,
          "durationTicks": 768,
          "midi": 51,
          "name": "D#3",
          "ticks": 104448,
          "time": 66.341344,
          "velocity": 0.3937007874015748
        },
        {
          "duration": 0.3658530000000013,
          "durationTicks": 576,
          "midi": 68,
          "name": "G#4",
          "ticks": 104448,
          "time": 66.341344,
          "velocity": 0.3937007874015748
        },
        {
          "duration": 0.3658530000000013,
          "durationTicks": 576,
          "midi": 60,
          "name": "C4",
          "ticks": 104448,
          "time": 66.341344,
          "velocity": 0.3937007874015748
        },
        {
          "duration": 0.487803999999997,
          "durationTicks": 768,
          "midi": 56,
          "name": "G#3",
          "ticks": 104448,
          "time": 66.341344,
          "velocity": 0.3937007874015748
        },
        {
          "duration": 0.3658529999999871,
          "durationTicks": 576,
          "midi": 67,
          "name": "G4",
          "ticks": 107520,
          "time": 68.29256000000001,
          "velocity": 0.3937007874015748
        },
        {
          "duration": 0.487803999999997,
          "durationTicks": 768,
          "midi": 58,
          "name": "A#3",
          "ticks": 107520,
          "time": 68.29256000000001,
          "velocity": 0.3937007874015748
        },
        {
          "duration": 0.3658529999999871,
          "durationTicks": 576,
          "midi": 63,
          "name": "D#4",
          "ticks": 107520,
          "time": 68.29256000000001,
          "velocity": 0.3937007874015748
        },
        {
          "duration": 0.487803999999997,
          "durationTicks": 768,
          "midi": 51,
          "name": "D#3",
          "ticks": 107520,
          "time": 68.29256000000001,
          "velocity": 0.3937007874015748
        },
        {
          "duration": 0.3658529999999871,
          "durationTicks": 576,
          "midi": 67,
          "name": "G4",
          "ticks": 107520,
          "time": 68.29256000000001,
          "velocity": 0.3937007874015748
        },
        {
          "duration": 0.3658530000000013,
          "durationTicks": 576,
          "midi": 68,
          "name": "G#4",
          "ticks": 108288,
          "time": 68.780364,
          "velocity": 0.3937007874015748
        },
        {
          "duration": 0.3658530000000013,
          "durationTicks": 576,
          "midi": 68,
          "name": "G#4",
          "ticks": 108288,
          "time": 68.780364,
          "velocity": 0.3937007874015748
        },
        {
          "duration": 0.487803999999997,
          "durationTicks": 768,
          "midi": 51,
          "name": "D#3",
          "ticks": 108288,
          "time": 68.780364,
          "velocity": 0.3937007874015748
        },
        {
          "duration": 0.487803999999997,
          "durationTicks": 768,
          "midi": 60,
          "name": "C4",
          "ticks": 108288,
          "time": 68.780364,
          "velocity": 0.3937007874015748
        },
        {
          "duration": 0.3658530000000013,
          "durationTicks": 576,
          "midi": 63,
          "name": "D#4",
          "ticks": 108288,
          "time": 68.780364,
          "velocity": 0.3937007874015748
        },
        {
          "duration": 0.3658530000000013,
          "durationTicks": 576,
          "midi": 58,
          "name": "A#3",
          "ticks": 109056,
          "time": 69.268168,
          "velocity": 0.3937007874015748
        },
        {
          "duration": 0.3658530000000013,
          "durationTicks": 576,
          "midi": 61,
          "name": "C#4",
          "ticks": 109056,
          "time": 69.268168,
          "velocity": 0.3937007874015748
        },
        {
          "duration": 0.3658530000000013,
          "durationTicks": 576,
          "midi": 70,
          "name": "A#4",
          "ticks": 109056,
          "time": 69.268168,
          "velocity": 0.3937007874015748
        },
        {
          "duration": 0.3658530000000013,
          "durationTicks": 576,
          "midi": 70,
          "name": "A#4",
          "ticks": 109056,
          "time": 69.268168,
          "velocity": 0.3937007874015748
        },
        {
          "duration": 0.3658530000000013,
          "durationTicks": 576,
          "midi": 55,
          "name": "G3",
          "ticks": 109056,
          "time": 69.268168,
          "velocity": 0.3937007874015748
        },
        {
          "duration": 0.6097549999999927,
          "durationTicks": 960,
          "midi": 63,
          "name": "D#4",
          "ticks": 112128,
          "time": 71.219384,
          "velocity": 0.3937007874015748
        },
        {
          "duration": 0.6097549999999927,
          "durationTicks": 960,
          "midi": 60,
          "name": "C4",
          "ticks": 112128,
          "time": 71.219384,
          "velocity": 0.3937007874015748
        },
        {
          "duration": 0.6097549999999927,
          "durationTicks": 960,
          "midi": 72,
          "name": "C5",
          "ticks": 112128,
          "time": 71.219384,
          "velocity": 0.3937007874015748
        },
        {
          "duration": 0.6097549999999927,
          "durationTicks": 960,
          "midi": 72,
          "name": "C5",
          "ticks": 112128,
          "time": 71.219384,
          "velocity": 0.3937007874015748
        },
        {
          "duration": 0.6097549999999927,
          "durationTicks": 960,
          "midi": 56,
          "name": "G#3",
          "ticks": 112128,
          "time": 71.219384,
          "velocity": 0.3937007874015748
        },
        {
          "duration": 0.18292649999999355,
          "durationTicks": 288,
          "midi": 70,
          "name": "A#4",
          "ticks": 113280,
          "time": 71.95109000000001,
          "velocity": 0.3937007874015748
        },
        {
          "duration": 0.18292649999999355,
          "durationTicks": 288,
          "midi": 61,
          "name": "C#4",
          "ticks": 113280,
          "time": 71.95109000000001,
          "velocity": 0.3937007874015748
        },
        {
          "duration": 0.18292649999999355,
          "durationTicks": 288,
          "midi": 55,
          "name": "G3",
          "ticks": 113280,
          "time": 71.95109000000001,
          "velocity": 0.3937007874015748
        },
        {
          "duration": 0.18292649999999355,
          "durationTicks": 288,
          "midi": 70,
          "name": "A#4",
          "ticks": 113280,
          "time": 71.95109000000001,
          "velocity": 0.3937007874015748
        },
        {
          "duration": 0.18292649999999355,
          "durationTicks": 288,
          "midi": 58,
          "name": "A#3",
          "ticks": 113280,
          "time": 71.95109000000001,
          "velocity": 0.3937007874015748
        },
        {
          "duration": 0.487803999999997,
          "durationTicks": 768,
          "midi": 56,
          "name": "G#3",
          "ticks": 113664,
          "time": 72.194992,
          "velocity": 0.3937007874015748
        },
        {
          "duration": 0.487803999999997,
          "durationTicks": 768,
          "midi": 51,
          "name": "D#3",
          "ticks": 113664,
          "time": 72.194992,
          "velocity": 0.3937007874015748
        },
        {
          "duration": 0.3658530000000013,
          "durationTicks": 576,
          "midi": 68,
          "name": "G#4",
          "ticks": 113664,
          "time": 72.194992,
          "velocity": 0.3937007874015748
        },
        {
          "duration": 0.3658530000000013,
          "durationTicks": 576,
          "midi": 68,
          "name": "G#4",
          "ticks": 113664,
          "time": 72.194992,
          "velocity": 0.3937007874015748
        },
        {
          "duration": 0.3658530000000013,
          "durationTicks": 576,
          "midi": 60,
          "name": "C4",
          "ticks": 113664,
          "time": 72.194992,
          "velocity": 0.3937007874015748
        },
        {
          "duration": 0.6097550000000069,
          "durationTicks": 960,
          "midi": 56,
          "name": "G#3",
          "ticks": 116736,
          "time": 74.146208,
          "velocity": 0.3937007874015748
        },
        {
          "duration": 0.6097550000000069,
          "durationTicks": 960,
          "midi": 60,
          "name": "C4",
          "ticks": 116736,
          "time": 74.146208,
          "velocity": 0.3937007874015748
        },
        {
          "duration": 0.6097550000000069,
          "durationTicks": 960,
          "midi": 48,
          "name": "C3",
          "ticks": 116736,
          "time": 74.146208,
          "velocity": 0.3937007874015748
        },
        {
          "duration": 0.6097550000000069,
          "durationTicks": 960,
          "midi": 63,
          "name": "D#4",
          "ticks": 116736,
          "time": 74.146208,
          "velocity": 0.3937007874015748
        },
        {
          "duration": 0.6097550000000069,
          "durationTicks": 960,
          "midi": 63,
          "name": "D#4",
          "ticks": 116736,
          "time": 74.146208,
          "velocity": 0.3937007874015748
        },
        {
          "duration": 0.18292649999999355,
          "durationTicks": 288,
          "midi": 68,
          "name": "G#4",
          "ticks": 117888,
          "time": 74.877914,
          "velocity": 0.3937007874015748
        },
        {
          "duration": 0.18292649999999355,
          "durationTicks": 288,
          "midi": 56,
          "name": "G#3",
          "ticks": 117888,
          "time": 74.877914,
          "velocity": 0.3937007874015748
        },
        {
          "duration": 0.18292649999999355,
          "durationTicks": 288,
          "midi": 60,
          "name": "C4",
          "ticks": 117888,
          "time": 74.877914,
          "velocity": 0.3937007874015748
        },
        {
          "duration": 0.18292649999999355,
          "durationTicks": 288,
          "midi": 51,
          "name": "D#3",
          "ticks": 117888,
          "time": 74.877914,
          "velocity": 0.3937007874015748
        },
        {
          "duration": 0.18292649999999355,
          "durationTicks": 288,
          "midi": 68,
          "name": "G#4",
          "ticks": 117888,
          "time": 74.877914,
          "velocity": 0.3937007874015748
        },
        {
          "duration": 0.48780400000001123,
          "durationTicks": 768,
          "midi": 55,
          "name": "G3",
          "ticks": 118272,
          "time": 75.121816,
          "velocity": 0.3937007874015748
        },
        {
          "duration": 0.48780400000001123,
          "durationTicks": 768,
          "midi": 51,
          "name": "D#3",
          "ticks": 118272,
          "time": 75.121816,
          "velocity": 0.3937007874015748
        },
        {
          "duration": 0.3658530000000013,
          "durationTicks": 576,
          "midi": 58,
          "name": "A#3",
          "ticks": 118272,
          "time": 75.121816,
          "velocity": 0.3937007874015748
        },
        {
          "duration": 0.3658530000000013,
          "durationTicks": 576,
          "midi": 67,
          "name": "G4",
          "ticks": 118272,
          "time": 75.121816,
          "velocity": 0.3937007874015748
        },
        {
          "duration": 0.3658530000000013,
          "durationTicks": 576,
          "midi": 67,
          "name": "G4",
          "ticks": 118272,
          "time": 75.121816,
          "velocity": 0.3937007874015748
        },
        {
          "duration": 0.487803999999997,
          "durationTicks": 768,
          "midi": 55,
          "name": "G3",
          "ticks": 119040,
          "time": 75.60962,
          "velocity": 0.3937007874015748
        },
        {
          "duration": 0.3658530000000013,
          "durationTicks": 576,
          "midi": 58,
          "name": "A#3",
          "ticks": 119040,
          "time": 75.60962,
          "velocity": 0.3937007874015748
        },
        {
          "duration": 0.487803999999997,
          "durationTicks": 768,
          "midi": 51,
          "name": "D#3",
          "ticks": 119040,
          "time": 75.60962,
          "velocity": 0.3937007874015748
        },
        {
          "duration": 0.3658530000000013,
          "durationTicks": 576,
          "midi": 67,
          "name": "G4",
          "ticks": 119040,
          "time": 75.60962,
          "velocity": 0.3937007874015748
        },
        {
          "duration": 0.3658530000000013,
          "durationTicks": 576,
          "midi": 67,
          "name": "G4",
          "ticks": 119040,
          "time": 75.60962,
          "velocity": 0.3937007874015748
        },
        {
          "duration": 0.487803999999997,
          "durationTicks": 768,
          "midi": 55,
          "name": "G3",
          "ticks": 119808,
          "time": 76.097424,
          "velocity": 0.3937007874015748
        },
        {
          "duration": 0.487803999999997,
          "durationTicks": 768,
          "midi": 51,
          "name": "D#3",
          "ticks": 119808,
          "time": 76.097424,
          "velocity": 0.3937007874015748
        },
        {
          "duration": 0.3658530000000013,
          "durationTicks": 576,
          "midi": 67,
          "name": "G4",
          "ticks": 119808,
          "time": 76.097424,
          "velocity": 0.3937007874015748
        },
        {
          "duration": 0.3658530000000013,
          "durationTicks": 576,
          "midi": 67,
          "name": "G4",
          "ticks": 119808,
          "time": 76.097424,
          "velocity": 0.3937007874015748
        },
        {
          "duration": 0.3658530000000013,
          "durationTicks": 576,
          "midi": 58,
          "name": "A#3",
          "ticks": 119808,
          "time": 76.097424,
          "velocity": 0.3937007874015748
        },
        {
          "duration": 0.3658530000000013,
          "durationTicks": 576,
          "midi": 58,
          "name": "A#3",
          "ticks": 120576,
          "time": 76.585228,
          "velocity": 0.3937007874015748
        },
        {
          "duration": 0.3658530000000013,
          "durationTicks": 576,
          "midi": 67,
          "name": "G4",
          "ticks": 120576,
          "time": 76.585228,
          "velocity": 0.3937007874015748
        },
        {
          "duration": 0.487803999999997,
          "durationTicks": 768,
          "midi": 51,
          "name": "D#3",
          "ticks": 120576,
          "time": 76.585228,
          "velocity": 0.3937007874015748
        },
        {
          "duration": 0.3658530000000013,
          "durationTicks": 576,
          "midi": 67,
          "name": "G4",
          "ticks": 120576,
          "time": 76.585228,
          "velocity": 0.3937007874015748
        },
        {
          "duration": 0.487803999999997,
          "durationTicks": 768,
          "midi": 55,
          "name": "G3",
          "ticks": 120576,
          "time": 76.585228,
          "velocity": 0.3937007874015748
        },
        {
          "duration": 0.48780400000001123,
          "durationTicks": 768,
          "midi": 56,
          "name": "G#3",
          "ticks": 121344,
          "time": 77.073032,
          "velocity": 0.3937007874015748
        },
        {
          "duration": 0.3658530000000013,
          "durationTicks": 576,
          "midi": 65,
          "name": "F4",
          "ticks": 121344,
          "time": 77.073032,
          "velocity": 0.3937007874015748
        },
        {
          "duration": 0.3658530000000013,
          "durationTicks": 576,
          "midi": 61,
          "name": "C#4",
          "ticks": 121344,
          "time": 77.073032,
          "velocity": 0.3937007874015748
        },
        {
          "duration": 0.3658530000000013,
          "durationTicks": 576,
          "midi": 65,
          "name": "F4",
          "ticks": 121344,
          "time": 77.073032,
          "velocity": 0.3937007874015748
        },
        {
          "duration": 0.48780400000001123,
          "durationTicks": 768,
          "midi": 49,
          "name": "C#3",
          "ticks": 121344,
          "time": 77.073032,
          "velocity": 0.3937007874015748
        },
        {
          "duration": 0.487803999999997,
          "durationTicks": 768,
          "midi": 55,
          "name": "G3",
          "ticks": 122112,
          "time": 77.56083600000001,
          "velocity": 0.3937007874015748
        },
        {
          "duration": 0.487803999999997,
          "durationTicks": 768,
          "midi": 51,
          "name": "D#3",
          "ticks": 122112,
          "time": 77.56083600000001,
          "velocity": 0.3937007874015748
        },
        {
          "duration": 0.3658529999999871,
          "durationTicks": 576,
          "midi": 67,
          "name": "G4",
          "ticks": 122112,
          "time": 77.56083600000001,
          "velocity": 0.3937007874015748
        },
        {
          "duration": 0.3658529999999871,
          "durationTicks": 576,
          "midi": 67,
          "name": "G4",
          "ticks": 122112,
          "time": 77.56083600000001,
          "velocity": 0.3937007874015748
        },
        {
          "duration": 0.3658529999999871,
          "durationTicks": 576,
          "midi": 58,
          "name": "A#3",
          "ticks": 122112,
          "time": 77.56083600000001,
          "velocity": 0.3937007874015748
        },
        {
          "duration": 0.3658530000000013,
          "durationTicks": 576,
          "midi": 68,
          "name": "G#4",
          "ticks": 122880,
          "time": 78.04864,
          "velocity": 0.3937007874015748
        },
        {
          "duration": 0.3658530000000013,
          "durationTicks": 576,
          "midi": 68,
          "name": "G#4",
          "ticks": 122880,
          "time": 78.04864,
          "velocity": 0.3937007874015748
        },
        {
          "duration": 0.487803999999997,
          "durationTicks": 768,
          "midi": 51,
          "name": "D#3",
          "ticks": 122880,
          "time": 78.04864,
          "velocity": 0.3937007874015748
        },
        {
          "duration": 0.3658530000000013,
          "durationTicks": 576,
          "midi": 60,
          "name": "C4",
          "ticks": 122880,
          "time": 78.04864,
          "velocity": 0.3937007874015748
        },
        {
          "duration": 0.487803999999997,
          "durationTicks": 768,
          "midi": 56,
          "name": "G#3",
          "ticks": 122880,
          "time": 78.04864,
          "velocity": 0.3937007874015748
        },
        {
          "duration": 0.6097549999999927,
          "durationTicks": 960,
          "midi": 67,
          "name": "G4",
          "ticks": 125952,
          "time": 79.99985600000001,
          "velocity": 0.3937007874015748
        },
        {
          "duration": 0.6097549999999927,
          "durationTicks": 960,
          "midi": 55,
          "name": "G3",
          "ticks": 125952,
          "time": 79.99985600000001,
          "velocity": 0.3937007874015748
        },
        {
          "duration": 0.6097549999999927,
          "durationTicks": 960,
          "midi": 63,
          "name": "D#4",
          "ticks": 125952,
          "time": 79.99985600000001,
          "velocity": 0.3937007874015748
        },
        {
          "duration": 0.6097549999999927,
          "durationTicks": 960,
          "midi": 67,
          "name": "G4",
          "ticks": 125952,
          "time": 79.99985600000001,
          "velocity": 0.3937007874015748
        },
        {
          "duration": 0.6097549999999927,
          "durationTicks": 960,
          "midi": 51,
          "name": "D#3",
          "ticks": 125952,
          "time": 79.99985600000001,
          "velocity": 0.3937007874015748
        },
        {
          "duration": 0.18292650000000776,
          "durationTicks": 288,
          "midi": 56,
          "name": "G#3",
          "ticks": 127104,
          "time": 80.731562,
          "velocity": 0.3937007874015748
        },
        {
          "duration": 0.18292650000000776,
          "durationTicks": 288,
          "midi": 60,
          "name": "C4",
          "ticks": 127104,
          "time": 80.731562,
          "velocity": 0.3937007874015748
        },
        {
          "duration": 0.18292650000000776,
          "durationTicks": 288,
          "midi": 51,
          "name": "D#3",
          "ticks": 127104,
          "time": 80.731562,
          "velocity": 0.3937007874015748
        },
        {
          "duration": 0.18292650000000776,
          "durationTicks": 288,
          "midi": 68,
          "name": "G#4",
          "ticks": 127104,
          "time": 80.731562,
          "velocity": 0.3937007874015748
        },
        {
          "duration": 0.18292650000000776,
          "durationTicks": 288,
          "midi": 68,
          "name": "G#4",
          "ticks": 127104,
          "time": 80.731562,
          "velocity": 0.3937007874015748
        },
        {
          "duration": 0.3658530000000013,
          "durationTicks": 576,
          "midi": 70,
          "name": "A#4",
          "ticks": 127488,
          "time": 80.975464,
          "velocity": 0.3937007874015748
        },
        {
          "duration": 0.3658530000000013,
          "durationTicks": 576,
          "midi": 61,
          "name": "C#4",
          "ticks": 127488,
          "time": 80.975464,
          "velocity": 0.3937007874015748
        },
        {
          "duration": 0.3658530000000013,
          "durationTicks": 576,
          "midi": 70,
          "name": "A#4",
          "ticks": 127488,
          "time": 80.975464,
          "velocity": 0.3937007874015748
        },
        {
          "duration": 0.487803999999997,
          "durationTicks": 768,
          "midi": 55,
          "name": "G3",
          "ticks": 127488,
          "time": 80.975464,
          "velocity": 0.3937007874015748
        },
        {
          "duration": 0.487803999999997,
          "durationTicks": 768,
          "midi": 58,
          "name": "A#3",
          "ticks": 127488,
          "time": 80.975464,
          "velocity": 0.3937007874015748
        },
        {
          "duration": 0.487803999999997,
          "durationTicks": 768,
          "midi": 58,
          "name": "A#3",
          "ticks": 128256,
          "time": 81.463268,
          "velocity": 0.3937007874015748
        },
        {
          "duration": 0.487803999999997,
          "durationTicks": 768,
          "midi": 55,
          "name": "G3",
          "ticks": 128256,
          "time": 81.463268,
          "velocity": 0.3937007874015748
        },
        {
          "duration": 0.3658530000000013,
          "durationTicks": 576,
          "midi": 70,
          "name": "A#4",
          "ticks": 128256,
          "time": 81.463268,
          "velocity": 0.3937007874015748
        },
        {
          "duration": 0.3658530000000013,
          "durationTicks": 576,
          "midi": 61,
          "name": "C#4",
          "ticks": 128256,
          "time": 81.463268,
          "velocity": 0.3937007874015748
        },
        {
          "duration": 0.3658530000000013,
          "durationTicks": 576,
          "midi": 70,
          "name": "A#4",
          "ticks": 128256,
          "time": 81.463268,
          "velocity": 0.3937007874015748
        },
        {
          "duration": 0.3658530000000013,
          "durationTicks": 576,
          "midi": 61,
          "name": "C#4",
          "ticks": 129024,
          "time": 81.951072,
          "velocity": 0.3937007874015748
        },
        {
          "duration": 0.3658530000000013,
          "durationTicks": 576,
          "midi": 70,
          "name": "A#4",
          "ticks": 129024,
          "time": 81.951072,
          "velocity": 0.3937007874015748
        },
        {
          "duration": 0.3658530000000013,
          "durationTicks": 576,
          "midi": 70,
          "name": "A#4",
          "ticks": 129024,
          "time": 81.951072,
          "velocity": 0.3937007874015748
        },
        {
          "duration": 0.48780400000001123,
          "durationTicks": 768,
          "midi": 58,
          "name": "A#3",
          "ticks": 129024,
          "time": 81.951072,
          "velocity": 0.3937007874015748
        },
        {
          "duration": 0.48780400000001123,
          "durationTicks": 768,
          "midi": 55,
          "name": "G3",
          "ticks": 129024,
          "time": 81.951072,
          "velocity": 0.3937007874015748
        },
        {
          "duration": 0.487803999999997,
          "durationTicks": 768,
          "midi": 55,
          "name": "G3",
          "ticks": 129792,
          "time": 82.43887600000001,
          "velocity": 0.3937007874015748
        },
        {
          "duration": 0.3658530000000013,
          "durationTicks": 576,
          "midi": 70,
          "name": "A#4",
          "ticks": 129792,
          "time": 82.43887600000001,
          "velocity": 0.3937007874015748
        },
        {
          "duration": 0.3658530000000013,
          "durationTicks": 576,
          "midi": 70,
          "name": "A#4",
          "ticks": 129792,
          "time": 82.43887600000001,
          "velocity": 0.3937007874015748
        },
        {
          "duration": 0.3658530000000013,
          "durationTicks": 576,
          "midi": 67,
          "name": "G4",
          "ticks": 129792,
          "time": 82.43887600000001,
          "velocity": 0.3937007874015748
        },
        {
          "duration": 0.487803999999997,
          "durationTicks": 768,
          "midi": 61,
          "name": "C#4",
          "ticks": 129792,
          "time": 82.43887600000001,
          "velocity": 0.3937007874015748
        },
        {
          "duration": 0.3658530000000013,
          "durationTicks": 576,
          "midi": 68,
          "name": "G#4",
          "ticks": 130560,
          "time": 82.92668,
          "velocity": 0.3937007874015748
        },
        {
          "duration": 0.3658530000000013,
          "durationTicks": 576,
          "midi": 75,
          "name": "D#5",
          "ticks": 130560,
          "time": 82.92668,
          "velocity": 0.3937007874015748
        },
        {
          "duration": 0.487803999999997,
          "durationTicks": 768,
          "midi": 63,
          "name": "D#4",
          "ticks": 130560,
          "time": 82.92668,
          "velocity": 0.3937007874015748
        },
        {
          "duration": 0.487803999999997,
          "durationTicks": 768,
          "midi": 60,
          "name": "C4",
          "ticks": 130560,
          "time": 82.92668,
          "velocity": 0.3937007874015748
        },
        {
          "duration": 0.3658530000000013,
          "durationTicks": 576,
          "midi": 75,
          "name": "D#5",
          "ticks": 130560,
          "time": 82.92668,
          "velocity": 0.3937007874015748
        },
        {
          "duration": 0.487803999999997,
          "durationTicks": 768,
          "midi": 61,
          "name": "C#4",
          "ticks": 131328,
          "time": 83.414484,
          "velocity": 0.3937007874015748
        },
        {
          "duration": 0.487803999999997,
          "durationTicks": 768,
          "midi": 55,
          "name": "G3",
          "ticks": 131328,
          "time": 83.414484,
          "velocity": 0.3937007874015748
        },
        {
          "duration": 0.3658530000000013,
          "durationTicks": 576,
          "midi": 73,
          "name": "C#5",
          "ticks": 131328,
          "time": 83.414484,
          "velocity": 0.3937007874015748
        },
        {
          "duration": 0.3658530000000013,
          "durationTicks": 576,
          "midi": 73,
          "name": "C#5",
          "ticks": 131328,
          "time": 83.414484,
          "velocity": 0.3937007874015748
        },
        {
          "duration": 0.3658530000000013,
          "durationTicks": 576,
          "midi": 70,
          "name": "A#4",
          "ticks": 131328,
          "time": 83.414484,
          "velocity": 0.3937007874015748
        },
        {
          "duration": 0.3658530000000013,
          "durationTicks": 576,
          "midi": 72,
          "name": "C5",
          "ticks": 132096,
          "time": 83.902288,
          "velocity": 0.3937007874015748
        },
        {
          "duration": 0.3658530000000013,
          "durationTicks": 576,
          "midi": 68,
          "name": "G#4",
          "ticks": 132096,
          "time": 83.902288,
          "velocity": 0.3937007874015748
        },
        {
          "duration": 0.3658530000000013,
          "durationTicks": 576,
          "midi": 72,
          "name": "C5",
          "ticks": 132096,
          "time": 83.902288,
          "velocity": 0.3937007874015748
        },
        {
          "duration": 0.487803999999997,
          "durationTicks": 768,
          "midi": 60,
          "name": "C4",
          "ticks": 132096,
          "time": 83.902288,
          "velocity": 0.3937007874015748
        },
        {
          "duration": 0.487803999999997,
          "durationTicks": 768,
          "midi": 56,
          "name": "G#3",
          "ticks": 132096,
          "time": 83.902288,
          "velocity": 0.3937007874015748
        },
        {
          "duration": 0.6097550000000069,
          "durationTicks": 960,
          "midi": 48,
          "name": "C3",
          "ticks": 135168,
          "time": 85.853504,
          "velocity": 0.3937007874015748
        },
        {
          "duration": 0.6097550000000069,
          "durationTicks": 960,
          "midi": 60,
          "name": "C4",
          "ticks": 135168,
          "time": 85.853504,
          "velocity": 0.3937007874015748
        },
        {
          "duration": 0.6097550000000069,
          "durationTicks": 960,
          "midi": 44,
          "name": "G#2",
          "ticks": 135168,
          "time": 85.853504,
          "velocity": 0.3937007874015748
        },
        {
          "duration": 0.6097550000000069,
          "durationTicks": 960,
          "midi": 60,
          "name": "C4",
          "ticks": 135168,
          "time": 85.853504,
          "velocity": 0.3937007874015748
        },
        {
          "duration": 0.18292649999999355,
          "durationTicks": 288,
          "midi": 61,
          "name": "C#4",
          "ticks": 136320,
          "time": 86.58521,
          "velocity": 0.3937007874015748
        },
        {
          "duration": 0.18292649999999355,
          "durationTicks": 288,
          "midi": 49,
          "name": "C#3",
          "ticks": 136320,
          "time": 86.58521,
          "velocity": 0.3937007874015748
        },
        {
          "duration": 0.18292649999999355,
          "durationTicks": 288,
          "midi": 44,
          "name": "G#2",
          "ticks": 136320,
          "time": 86.58521,
          "velocity": 0.3937007874015748
        },
        {
          "duration": 0.18292649999999355,
          "durationTicks": 288,
          "midi": 61,
          "name": "C#4",
          "ticks": 136320,
          "time": 86.58521,
          "velocity": 0.3937007874015748
        },
        {
          "duration": 0.3658529999999871,
          "durationTicks": 576,
          "midi": 60,
          "name": "C4",
          "ticks": 136704,
          "time": 86.82911200000001,
          "velocity": 0.3937007874015748
        },
        {
          "duration": 0.487803999999997,
          "durationTicks": 768,
          "midi": 48,
          "name": "C3",
          "ticks": 136704,
          "time": 86.82911200000001,
          "velocity": 0.3937007874015748
        },
        {
          "duration": 0.487803999999997,
          "durationTicks": 768,
          "midi": 51,
          "name": "D#3",
          "ticks": 136704,
          "time": 86.82911200000001,
          "velocity": 0.3937007874015748
        },
        {
          "duration": 0.3658529999999871,
          "durationTicks": 576,
          "midi": 63,
          "name": "D#4",
          "ticks": 136704,
          "time": 86.82911200000001,
          "velocity": 0.3937007874015748
        },
        {
          "duration": 0.3658529999999871,
          "durationTicks": 576,
          "midi": 63,
          "name": "D#4",
          "ticks": 136704,
          "time": 86.82911200000001,
          "velocity": 0.3937007874015748
        },
        {
          "duration": 0.487803999999997,
          "durationTicks": 768,
          "midi": 56,
          "name": "G#3",
          "ticks": 137472,
          "time": 87.316916,
          "velocity": 0.3937007874015748
        },
        {
          "duration": 0.3658530000000013,
          "durationTicks": 576,
          "midi": 63,
          "name": "D#4",
          "ticks": 137472,
          "time": 87.316916,
          "velocity": 0.3937007874015748
        },
        {
          "duration": 0.3658530000000013,
          "durationTicks": 576,
          "midi": 63,
          "name": "D#4",
          "ticks": 137472,
          "time": 87.316916,
          "velocity": 0.3937007874015748
        },
        {
          "duration": 0.487803999999997,
          "durationTicks": 768,
          "midi": 48,
          "name": "C3",
          "ticks": 137472,
          "time": 87.316916,
          "velocity": 0.3937007874015748
        },
        {
          "duration": 0.3658530000000013,
          "durationTicks": 576,
          "midi": 60,
          "name": "C4",
          "ticks": 137472,
          "time": 87.316916,
          "velocity": 0.3937007874015748
        },
        {
          "duration": 0.3658530000000013,
          "durationTicks": 576,
          "midi": 60,
          "name": "C4",
          "ticks": 138240,
          "time": 87.80472,
          "velocity": 0.3937007874015748
        },
        {
          "duration": 0.487803999999997,
          "durationTicks": 768,
          "midi": 56,
          "name": "G#3",
          "ticks": 138240,
          "time": 87.80472,
          "velocity": 0.3937007874015748
        },
        {
          "duration": 0.3658530000000013,
          "durationTicks": 576,
          "midi": 63,
          "name": "D#4",
          "ticks": 138240,
          "time": 87.80472,
          "velocity": 0.3937007874015748
        },
        {
          "duration": 0.487803999999997,
          "durationTicks": 768,
          "midi": 48,
          "name": "C3",
          "ticks": 138240,
          "time": 87.80472,
          "velocity": 0.3937007874015748
        },
        {
          "duration": 0.3658530000000013,
          "durationTicks": 576,
          "midi": 63,
          "name": "D#4",
          "ticks": 138240,
          "time": 87.80472,
          "velocity": 0.3937007874015748
        },
        {
          "duration": 0.3658530000000013,
          "durationTicks": 576,
          "midi": 68,
          "name": "G#4",
          "ticks": 139008,
          "time": 88.292524,
          "velocity": 0.3937007874015748
        },
        {
          "duration": 0.487803999999997,
          "durationTicks": 768,
          "midi": 51,
          "name": "D#3",
          "ticks": 139008,
          "time": 88.292524,
          "velocity": 0.3937007874015748
        },
        {
          "duration": 0.3658530000000013,
          "durationTicks": 576,
          "midi": 60,
          "name": "C4",
          "ticks": 139008,
          "time": 88.292524,
          "velocity": 0.3937007874015748
        },
        {
          "duration": 0.3658530000000013,
          "durationTicks": 576,
          "midi": 68,
          "name": "G#4",
          "ticks": 139008,
          "time": 88.292524,
          "velocity": 0.3937007874015748
        },
        {
          "duration": 0.487803999999997,
          "durationTicks": 768,
          "midi": 56,
          "name": "G#3",
          "ticks": 139008,
          "time": 88.292524,
          "velocity": 0.3937007874015748
        },
        {
          "duration": 0.3658530000000013,
          "durationTicks": 576,
          "midi": 68,
          "name": "G#4",
          "ticks": 139776,
          "time": 88.780328,
          "velocity": 0.3937007874015748
        },
        {
          "duration": 0.3658530000000013,
          "durationTicks": 576,
          "midi": 60,
          "name": "C4",
          "ticks": 139776,
          "time": 88.780328,
          "velocity": 0.3937007874015748
        },
        {
          "duration": 0.48780400000001123,
          "durationTicks": 768,
          "midi": 51,
          "name": "D#3",
          "ticks": 139776,
          "time": 88.780328,
          "velocity": 0.3937007874015748
        },
        {
          "duration": 0.48780400000001123,
          "durationTicks": 768,
          "midi": 56,
          "name": "G#3",
          "ticks": 139776,
          "time": 88.780328,
          "velocity": 0.3937007874015748
        },
        {
          "duration": 0.3658530000000013,
          "durationTicks": 576,
          "midi": 68,
          "name": "G#4",
          "ticks": 139776,
          "time": 88.780328,
          "velocity": 0.3937007874015748
        },
        {
          "duration": 0.487803999999997,
          "durationTicks": 768,
          "midi": 56,
          "name": "G#3",
          "ticks": 140544,
          "time": 89.26813200000001,
          "velocity": 0.3937007874015748
        },
        {
          "duration": 0.3658530000000013,
          "durationTicks": 576,
          "midi": 72,
          "name": "C5",
          "ticks": 140544,
          "time": 89.26813200000001,
          "velocity": 0.3937007874015748
        },
        {
          "duration": 0.487803999999997,
          "durationTicks": 768,
          "midi": 60,
          "name": "C4",
          "ticks": 140544,
          "time": 89.26813200000001,
          "velocity": 0.3937007874015748
        },
        {
          "duration": 0.3658530000000013,
          "durationTicks": 576,
          "midi": 72,
          "name": "C5",
          "ticks": 140544,
          "time": 89.26813200000001,
          "velocity": 0.3937007874015748
        },
        {
          "duration": 0.3658530000000013,
          "durationTicks": 576,
          "midi": 63,
          "name": "D#4",
          "ticks": 140544,
          "time": 89.26813200000001,
          "velocity": 0.3937007874015748
        },
        {
          "duration": 0.6097549999999927,
          "durationTicks": 960,
          "midi": 72,
          "name": "C5",
          "ticks": 141312,
          "time": 89.755936,
          "velocity": 0.3937007874015748
        },
        {
          "duration": 0.6097549999999927,
          "durationTicks": 960,
          "midi": 56,
          "name": "G#3",
          "ticks": 141312,
          "time": 89.755936,
          "velocity": 0.3937007874015748
        },
        {
          "duration": 0.6097549999999927,
          "durationTicks": 960,
          "midi": 60,
          "name": "C4",
          "ticks": 141312,
          "time": 89.755936,
          "velocity": 0.3937007874015748
        },
        {
          "duration": 0.6097549999999927,
          "durationTicks": 960,
          "midi": 63,
          "name": "D#4",
          "ticks": 141312,
          "time": 89.755936,
          "velocity": 0.3937007874015748
        },
        {
          "duration": 0.6097549999999927,
          "durationTicks": 960,
          "midi": 72,
          "name": "C5",
          "ticks": 141312,
          "time": 89.755936,
          "velocity": 0.3937007874015748
        },
        {
          "duration": 0.18292649999999355,
          "durationTicks": 288,
          "midi": 61,
          "name": "C#4",
          "ticks": 142464,
          "time": 90.48764200000001,
          "velocity": 0.3937007874015748
        },
        {
          "duration": 0.18292649999999355,
          "durationTicks": 288,
          "midi": 55,
          "name": "G3",
          "ticks": 142464,
          "time": 90.48764200000001,
          "velocity": 0.3937007874015748
        },
        {
          "duration": 0.18292649999999355,
          "durationTicks": 288,
          "midi": 70,
          "name": "A#4",
          "ticks": 142464,
          "time": 90.48764200000001,
          "velocity": 0.3937007874015748
        },
        {
          "duration": 0.18292649999999355,
          "durationTicks": 288,
          "midi": 70,
          "name": "A#4",
          "ticks": 142464,
          "time": 90.48764200000001,
          "velocity": 0.3937007874015748
        },
        {
          "duration": 0.18292649999999355,
          "durationTicks": 288,
          "midi": 58,
          "name": "A#3",
          "ticks": 142464,
          "time": 90.48764200000001,
          "velocity": 0.3937007874015748
        },
        {
          "duration": 0.3658530000000013,
          "durationTicks": 576,
          "midi": 60,
          "name": "C4",
          "ticks": 142848,
          "time": 90.731544,
          "velocity": 0.3937007874015748
        },
        {
          "duration": 0.3658530000000013,
          "durationTicks": 576,
          "midi": 68,
          "name": "G#4",
          "ticks": 142848,
          "time": 90.731544,
          "velocity": 0.3937007874015748
        },
        {
          "duration": 0.3658530000000013,
          "durationTicks": 576,
          "midi": 68,
          "name": "G#4",
          "ticks": 142848,
          "time": 90.731544,
          "velocity": 0.3937007874015748
        },
        {
          "duration": 0.487803999999997,
          "durationTicks": 768,
          "midi": 51,
          "name": "D#3",
          "ticks": 142848,
          "time": 90.731544,
          "velocity": 0.3937007874015748
        },
        {
          "duration": 0.487803999999997,
          "durationTicks": 768,
          "midi": 56,
          "name": "G#3",
          "ticks": 142848,
          "time": 90.731544,
          "velocity": 0.3937007874015748
        },
        {
          "duration": 0.3658530000000013,
          "durationTicks": 576,
          "midi": 67,
          "name": "G4",
          "ticks": 145920,
          "time": 92.68276,
          "velocity": 0.3937007874015748
        },
        {
          "duration": 0.3658530000000013,
          "durationTicks": 576,
          "midi": 63,
          "name": "D#4",
          "ticks": 145920,
          "time": 92.68276,
          "velocity": 0.3937007874015748
        },
        {
          "duration": 0.3658530000000013,
          "durationTicks": 576,
          "midi": 67,
          "name": "G4",
          "ticks": 145920,
          "time": 92.68276,
          "velocity": 0.3937007874015748
        },
        {
          "duration": 0.487803999999997,
          "durationTicks": 768,
          "midi": 55,
          "name": "G3",
          "ticks": 145920,
          "time": 92.68276,
          "velocity": 0.3937007874015748
        },
        {
          "duration": 0.487803999999997,
          "durationTicks": 768,
          "midi": 51,
          "name": "D#3",
          "ticks": 145920,
          "time": 92.68276,
          "velocity": 0.3937007874015748
        },
        {
          "duration": 0.3658530000000013,
          "durationTicks": 576,
          "midi": 68,
          "name": "G#4",
          "ticks": 146688,
          "time": 93.170564,
          "velocity": 0.3937007874015748
        },
        {
          "duration": 0.3658530000000013,
          "durationTicks": 576,
          "midi": 68,
          "name": "G#4",
          "ticks": 146688,
          "time": 93.170564,
          "velocity": 0.3937007874015748
        },
        {
          "duration": 0.3658530000000013,
          "durationTicks": 576,
          "midi": 63,
          "name": "D#4",
          "ticks": 146688,
          "time": 93.170564,
          "velocity": 0.3937007874015748
        },
        {
          "duration": 0.487803999999997,
          "durationTicks": 768,
          "midi": 56,
          "name": "G#3",
          "ticks": 146688,
          "time": 93.170564,
          "velocity": 0.3937007874015748
        },
        {
          "duration": 0.487803999999997,
          "durationTicks": 768,
          "midi": 48,
          "name": "C3",
          "ticks": 146688,
          "time": 93.170564,
          "velocity": 0.3937007874015748
        },
        {
          "duration": 0.3658530000000013,
          "durationTicks": 576,
          "midi": 61,
          "name": "C#4",
          "ticks": 147456,
          "time": 93.658368,
          "velocity": 0.3937007874015748
        },
        {
          "duration": 0.48780400000001123,
          "durationTicks": 768,
          "midi": 58,
          "name": "A#3",
          "ticks": 147456,
          "time": 93.658368,
          "velocity": 0.3937007874015748
        },
        {
          "duration": 0.3658530000000013,
          "durationTicks": 576,
          "midi": 70,
          "name": "A#4",
          "ticks": 147456,
          "time": 93.658368,
          "velocity": 0.3937007874015748
        },
        {
          "duration": 0.3658530000000013,
          "durationTicks": 576,
          "midi": 70,
          "name": "A#4",
          "ticks": 147456,
          "time": 93.658368,
          "velocity": 0.3937007874015748
        },
        {
          "duration": 0.48780400000001123,
          "durationTicks": 768,
          "midi": 55,
          "name": "G3",
          "ticks": 147456,
          "time": 93.658368,
          "velocity": 0.3937007874015748
        },
        {
          "duration": 0.6097550000000069,
          "durationTicks": 960,
          "midi": 56,
          "name": "G#3",
          "ticks": 150528,
          "time": 95.609584,
          "velocity": 0.3937007874015748
        },
        {
          "duration": 0.6097550000000069,
          "durationTicks": 960,
          "midi": 63,
          "name": "D#4",
          "ticks": 150528,
          "time": 95.609584,
          "velocity": 0.3937007874015748
        },
        {
          "duration": 0.6097550000000069,
          "durationTicks": 960,
          "midi": 72,
          "name": "C5",
          "ticks": 150528,
          "time": 95.609584,
          "velocity": 0.3937007874015748
        },
        {
          "duration": 0.6097550000000069,
          "durationTicks": 960,
          "midi": 72,
          "name": "C5",
          "ticks": 150528,
          "time": 95.609584,
          "velocity": 0.3937007874015748
        },
        {
          "duration": 0.6097550000000069,
          "durationTicks": 960,
          "midi": 60,
          "name": "C4",
          "ticks": 150528,
          "time": 95.609584,
          "velocity": 0.3937007874015748
        },
        {
          "duration": 0.18292650000000776,
          "durationTicks": 288,
          "midi": 55,
          "name": "G3",
          "ticks": 151680,
          "time": 96.34129,
          "velocity": 0.3937007874015748
        },
        {
          "duration": 0.18292650000000776,
          "durationTicks": 288,
          "midi": 70,
          "name": "A#4",
          "ticks": 151680,
          "time": 96.34129,
          "velocity": 0.3937007874015748
        },
        {
          "duration": 0.18292650000000776,
          "durationTicks": 288,
          "midi": 61,
          "name": "C#4",
          "ticks": 151680,
          "time": 96.34129,
          "velocity": 0.3937007874015748
        },
        {
          "duration": 0.18292650000000776,
          "durationTicks": 288,
          "midi": 70,
          "name": "A#4",
          "ticks": 151680,
          "time": 96.34129,
          "velocity": 0.3937007874015748
        },
        {
          "duration": 0.18292650000000776,
          "durationTicks": 288,
          "midi": 58,
          "name": "A#3",
          "ticks": 151680,
          "time": 96.34129,
          "velocity": 0.3937007874015748
        },
        {
          "duration": 0.3658530000000013,
          "durationTicks": 576,
          "midi": 68,
          "name": "G#4",
          "ticks": 152064,
          "time": 96.585192,
          "velocity": 0.3937007874015748
        },
        {
          "duration": 0.487803999999997,
          "durationTicks": 768,
          "midi": 51,
          "name": "D#3",
          "ticks": 152064,
          "time": 96.585192,
          "velocity": 0.3937007874015748
        },
        {
          "duration": 0.3658530000000013,
          "durationTicks": 576,
          "midi": 68,
          "name": "G#4",
          "ticks": 152064,
          "time": 96.585192,
          "velocity": 0.3937007874015748
        },
        {
          "duration": 0.3658530000000013,
          "durationTicks": 576,
          "midi": 60,
          "name": "C4",
          "ticks": 152064,
          "time": 96.585192,
          "velocity": 0.3937007874015748
        },
        {
          "duration": 0.487803999999997,
          "durationTicks": 768,
          "midi": 56,
          "name": "G#3",
          "ticks": 152064,
          "time": 96.585192,
          "velocity": 0.3937007874015748
        },
        {
          "duration": 0.6097550000000069,
          "durationTicks": 960,
          "midi": 60,
          "name": "C4",
          "ticks": 153600,
          "time": 97.5608,
          "velocity": 0.3937007874015748
        },
        {
          "duration": 0.6097550000000069,
          "durationTicks": 960,
          "midi": 60,
          "name": "C4",
          "ticks": 153600,
          "time": 97.5608,
          "velocity": 0.3937007874015748
        },
        {
          "duration": 0.18292649999999355,
          "durationTicks": 288,
          "midi": 61,
          "name": "C#4",
          "ticks": 154752,
          "time": 98.292506,
          "velocity": 0.3937007874015748
        },
        {
          "duration": 0.18292649999999355,
          "durationTicks": 288,
          "midi": 61,
          "name": "C#4",
          "ticks": 154752,
          "time": 98.292506,
          "velocity": 0.3937007874015748
        },
        {
          "duration": 0.487803999999997,
          "durationTicks": 768,
          "midi": 56,
          "name": "G#3",
          "ticks": 155136,
          "time": 98.53640800000001,
          "velocity": 0.3937007874015748
        },
        {
          "duration": 0.487803999999997,
          "durationTicks": 768,
          "midi": 48,
          "name": "C3",
          "ticks": 155136,
          "time": 98.53640800000001,
          "velocity": 0.3937007874015748
        },
        {
          "duration": 0.3658530000000013,
          "durationTicks": 576,
          "midi": 60,
          "name": "C4",
          "ticks": 155136,
          "time": 98.53640800000001,
          "velocity": 0.3937007874015748
        },
        {
          "duration": 0.3658530000000013,
          "durationTicks": 576,
          "midi": 63,
          "name": "D#4",
          "ticks": 155136,
          "time": 98.53640800000001,
          "velocity": 0.3937007874015748
        },
        {
          "duration": 0.3658530000000013,
          "durationTicks": 576,
          "midi": 63,
          "name": "D#4",
          "ticks": 155136,
          "time": 98.53640800000001,
          "velocity": 0.3937007874015748
        },
        {
          "duration": 0.3658530000000013,
          "durationTicks": 576,
          "midi": 63,
          "name": "D#4",
          "ticks": 155904,
          "time": 99.024212,
          "velocity": 0.3937007874015748
        },
        {
          "duration": 0.3658530000000013,
          "durationTicks": 576,
          "midi": 63,
          "name": "D#4",
          "ticks": 155904,
          "time": 99.024212,
          "velocity": 0.3937007874015748
        },
        {
          "duration": 0.3658530000000013,
          "durationTicks": 576,
          "midi": 60,
          "name": "C4",
          "ticks": 155904,
          "time": 99.024212,
          "velocity": 0.3937007874015748
        },
        {
          "duration": 0.487803999999997,
          "durationTicks": 768,
          "midi": 48,
          "name": "C3",
          "ticks": 155904,
          "time": 99.024212,
          "velocity": 0.3937007874015748
        },
        {
          "duration": 0.487803999999997,
          "durationTicks": 768,
          "midi": 51,
          "name": "D#3",
          "ticks": 155904,
          "time": 99.024212,
          "velocity": 0.3937007874015748
        },
        {
          "duration": 0.3658530000000013,
          "durationTicks": 576,
          "midi": 63,
          "name": "D#4",
          "ticks": 156672,
          "time": 99.512016,
          "velocity": 0.3937007874015748
        },
        {
          "duration": 0.487803999999997,
          "durationTicks": 768,
          "midi": 48,
          "name": "C3",
          "ticks": 156672,
          "time": 99.512016,
          "velocity": 0.3937007874015748
        },
        {
          "duration": 0.487803999999997,
          "durationTicks": 768,
          "midi": 56,
          "name": "G#3",
          "ticks": 156672,
          "time": 99.512016,
          "velocity": 0.3937007874015748
        },
        {
          "duration": 0.3658530000000013,
          "durationTicks": 576,
          "midi": 63,
          "name": "D#4",
          "ticks": 156672,
          "time": 99.512016,
          "velocity": 0.3937007874015748
        },
        {
          "duration": 0.3658530000000013,
          "durationTicks": 576,
          "midi": 60,
          "name": "C4",
          "ticks": 156672,
          "time": 99.512016,
          "velocity": 0.3937007874015748
        },
        {
          "duration": 0.3658530000000013,
          "durationTicks": 576,
          "midi": 60,
          "name": "C4",
          "ticks": 157440,
          "time": 99.99982,
          "velocity": 0.3937007874015748
        },
        {
          "duration": 0.487803999999997,
          "durationTicks": 768,
          "midi": 51,
          "name": "D#3",
          "ticks": 157440,
          "time": 99.99982,
          "velocity": 0.3937007874015748
        },
        {
          "duration": 0.3658530000000013,
          "durationTicks": 576,
          "midi": 68,
          "name": "G#4",
          "ticks": 157440,
          "time": 99.99982,
          "velocity": 0.3937007874015748
        },
        {
          "duration": 0.487803999999997,
          "durationTicks": 768,
          "midi": 56,
          "name": "G#3",
          "ticks": 157440,
          "time": 99.99982,
          "velocity": 0.3937007874015748
        },
        {
          "duration": 0.3658530000000013,
          "durationTicks": 576,
          "midi": 68,
          "name": "G#4",
          "ticks": 157440,
          "time": 99.99982,
          "velocity": 0.3937007874015748
        },
        {
          "duration": 0.3658530000000013,
          "durationTicks": 576,
          "midi": 60,
          "name": "C4",
          "ticks": 158208,
          "time": 100.487624,
          "velocity": 0.3937007874015748
        },
        {
          "duration": 0.3658530000000013,
          "durationTicks": 576,
          "midi": 68,
          "name": "G#4",
          "ticks": 158208,
          "time": 100.487624,
          "velocity": 0.3937007874015748
        },
        {
          "duration": 0.48780400000001123,
          "durationTicks": 768,
          "midi": 51,
          "name": "D#3",
          "ticks": 158208,
          "time": 100.487624,
          "velocity": 0.3937007874015748
        },
        {
          "duration": 0.48780400000001123,
          "durationTicks": 768,
          "midi": 56,
          "name": "G#3",
          "ticks": 158208,
          "time": 100.487624,
          "velocity": 0.3937007874015748
        },
        {
          "duration": 0.3658530000000013,
          "durationTicks": 576,
          "midi": 68,
          "name": "G#4",
          "ticks": 158208,
          "time": 100.487624,
          "velocity": 0.3937007874015748
        },
        {
          "duration": 0.487803999999997,
          "durationTicks": 768,
          "midi": 60,
          "name": "C4",
          "ticks": 158976,
          "time": 100.97542800000001,
          "velocity": 0.3937007874015748
        },
        {
          "duration": 0.3658530000000013,
          "durationTicks": 576,
          "midi": 72,
          "name": "C5",
          "ticks": 158976,
          "time": 100.97542800000001,
          "velocity": 0.3937007874015748
        },
        {
          "duration": 0.3658530000000013,
          "durationTicks": 576,
          "midi": 63,
          "name": "D#4",
          "ticks": 158976,
          "time": 100.97542800000001,
          "velocity": 0.3937007874015748
        },
        {
          "duration": 0.487803999999997,
          "durationTicks": 768,
          "midi": 56,
          "name": "G#3",
          "ticks": 158976,
          "time": 100.97542800000001,
          "velocity": 0.3937007874015748
        },
        {
          "duration": 0.3658530000000013,
          "durationTicks": 576,
          "midi": 72,
          "name": "C5",
          "ticks": 158976,
          "time": 100.97542800000001,
          "velocity": 0.3937007874015748
        },
        {
          "duration": 0.6097549999999927,
          "durationTicks": 960,
          "midi": 60,
          "name": "C4",
          "ticks": 159744,
          "time": 101.463232,
          "velocity": 0.3937007874015748
        },
        {
          "duration": 0.6097549999999927,
          "durationTicks": 960,
          "midi": 56,
          "name": "G#3",
          "ticks": 159744,
          "time": 101.463232,
          "velocity": 0.3937007874015748
        },
        {
          "duration": 0.6097549999999927,
          "durationTicks": 960,
          "midi": 63,
          "name": "D#4",
          "ticks": 159744,
          "time": 101.463232,
          "velocity": 0.3937007874015748
        },
        {
          "duration": 0.6097549999999927,
          "durationTicks": 960,
          "midi": 72,
          "name": "C5",
          "ticks": 159744,
          "time": 101.463232,
          "velocity": 0.3937007874015748
        },
        {
          "duration": 0.6097549999999927,
          "durationTicks": 960,
          "midi": 72,
          "name": "C5",
          "ticks": 159744,
          "time": 101.463232,
          "velocity": 0.3937007874015748
        },
        {
          "duration": 0.18292649999999355,
          "durationTicks": 288,
          "midi": 70,
          "name": "A#4",
          "ticks": 160896,
          "time": 102.19493800000001,
          "velocity": 0.3937007874015748
        },
        {
          "duration": 0.18292649999999355,
          "durationTicks": 288,
          "midi": 61,
          "name": "C#4",
          "ticks": 160896,
          "time": 102.19493800000001,
          "velocity": 0.3937007874015748
        },
        {
          "duration": 0.18292649999999355,
          "durationTicks": 288,
          "midi": 58,
          "name": "A#3",
          "ticks": 160896,
          "time": 102.19493800000001,
          "velocity": 0.3937007874015748
        },
        {
          "duration": 0.18292649999999355,
          "durationTicks": 288,
          "midi": 70,
          "name": "A#4",
          "ticks": 160896,
          "time": 102.19493800000001,
          "velocity": 0.3937007874015748
        },
        {
          "duration": 0.18292649999999355,
          "durationTicks": 288,
          "midi": 55,
          "name": "G3",
          "ticks": 160896,
          "time": 102.19493800000001,
          "velocity": 0.3937007874015748
        },
        {
          "duration": 0.48780400000001123,
          "durationTicks": 768,
          "midi": 51,
          "name": "D#3",
          "ticks": 161280,
          "time": 102.43884,
          "velocity": 0.3937007874015748
        },
        {
          "duration": 0.3658530000000013,
          "durationTicks": 576,
          "midi": 68,
          "name": "G#4",
          "ticks": 161280,
          "time": 102.43884,
          "velocity": 0.3937007874015748
        },
        {
          "duration": 0.48780400000001123,
          "durationTicks": 768,
          "midi": 56,
          "name": "G#3",
          "ticks": 161280,
          "time": 102.43884,
          "velocity": 0.3937007874015748
        },
        {
          "duration": 0.3658530000000013,
          "durationTicks": 576,
          "midi": 68,
          "name": "G#4",
          "ticks": 161280,
          "time": 102.43884,
          "velocity": 0.3937007874015748
        },
        {
          "duration": 0.3658530000000013,
          "durationTicks": 576,
          "midi": 60,
          "name": "C4",
          "ticks": 161280,
          "time": 102.43884,
          "velocity": 0.3937007874015748
        },
        {
          "duration": 0.3658530000000013,
          "durationTicks": 576,
          "midi": 67,
          "name": "G4",
          "ticks": 164352,
          "time": 104.390056,
          "velocity": 0.3937007874015748
        },
        {
          "duration": 0.3658530000000013,
          "durationTicks": 576,
          "midi": 63,
          "name": "D#4",
          "ticks": 164352,
          "time": 104.390056,
          "velocity": 0.3937007874015748
        },
        {
          "duration": 0.3658530000000013,
          "durationTicks": 576,
          "midi": 67,
          "name": "G4",
          "ticks": 164352,
          "time": 104.390056,
          "velocity": 0.3937007874015748
        },
        {
          "duration": 0.487803999999997,
          "durationTicks": 768,
          "midi": 51,
          "name": "D#3",
          "ticks": 164352,
          "time": 104.390056,
          "velocity": 0.3937007874015748
        },
        {
          "duration": 0.487803999999997,
          "durationTicks": 768,
          "midi": 58,
          "name": "A#3",
          "ticks": 164352,
          "time": 104.390056,
          "velocity": 0.3937007874015748
        },
        {
          "duration": 0.3658530000000013,
          "durationTicks": 576,
          "midi": 68,
          "name": "G#4",
          "ticks": 165120,
          "time": 104.87786,
          "velocity": 0.3937007874015748
        },
        {
          "duration": 0.3658530000000013,
          "durationTicks": 576,
          "midi": 68,
          "name": "G#4",
          "ticks": 165120,
          "time": 104.87786,
          "velocity": 0.3937007874015748
        },
        {
          "duration": 0.3658530000000013,
          "durationTicks": 576,
          "midi": 63,
          "name": "D#4",
          "ticks": 165120,
          "time": 104.87786,
          "velocity": 0.3937007874015748
        },
        {
          "duration": 0.48780400000001123,
          "durationTicks": 768,
          "midi": 60,
          "name": "C4",
          "ticks": 165120,
          "time": 104.87786,
          "velocity": 0.3937007874015748
        },
        {
          "duration": 0.48780400000001123,
          "durationTicks": 768,
          "midi": 51,
          "name": "D#3",
          "ticks": 165120,
          "time": 104.87786,
          "velocity": 0.3937007874015748
        },
        {
          "duration": 0.487803999999997,
          "durationTicks": 768,
          "midi": 58,
          "name": "A#3",
          "ticks": 165888,
          "time": 105.36566400000001,
          "velocity": 0.3937007874015748
        },
        {
          "duration": 0.3658529999999871,
          "durationTicks": 576,
          "midi": 70,
          "name": "A#4",
          "ticks": 165888,
          "time": 105.36566400000001,
          "velocity": 0.3937007874015748
        },
        {
          "duration": 0.3658529999999871,
          "durationTicks": 576,
          "midi": 70,
          "name": "A#4",
          "ticks": 165888,
          "time": 105.36566400000001,
          "velocity": 0.3937007874015748
        },
        {
          "duration": 0.3658529999999871,
          "durationTicks": 576,
          "midi": 61,
          "name": "C#4",
          "ticks": 165888,
          "time": 105.36566400000001,
          "velocity": 0.3937007874015748
        },
        {
          "duration": 0.487803999999997,
          "durationTicks": 768,
          "midi": 55,
          "name": "G3",
          "ticks": 165888,
          "time": 105.36566400000001,
          "velocity": 0.3937007874015748
        },
        {
          "duration": 0.6097550000000069,
          "durationTicks": 960,
          "midi": 72,
          "name": "C5",
          "ticks": 168960,
          "time": 107.31688,
          "velocity": 0.3937007874015748
        },
        {
          "duration": 0.6097550000000069,
          "durationTicks": 960,
          "midi": 56,
          "name": "G#3",
          "ticks": 168960,
          "time": 107.31688,
          "velocity": 0.3937007874015748
        },
        {
          "duration": 0.6097550000000069,
          "durationTicks": 960,
          "midi": 60,
          "name": "C4",
          "ticks": 168960,
          "time": 107.31688,
          "velocity": 0.3937007874015748
        },
        {
          "duration": 0.6097550000000069,
          "durationTicks": 960,
          "midi": 72,
          "name": "C5",
          "ticks": 168960,
          "time": 107.31688,
          "velocity": 0.3937007874015748
        },
        {
          "duration": 0.6097550000000069,
          "durationTicks": 960,
          "midi": 63,
          "name": "D#4",
          "ticks": 168960,
          "time": 107.31688,
          "velocity": 0.3937007874015748
        },
        {
          "duration": 0.18292650000000776,
          "durationTicks": 288,
          "midi": 61,
          "name": "C#4",
          "ticks": 170112,
          "time": 108.048586,
          "velocity": 0.3937007874015748
        },
        {
          "duration": 0.18292650000000776,
          "durationTicks": 288,
          "midi": 70,
          "name": "A#4",
          "ticks": 170112,
          "time": 108.048586,
          "velocity": 0.3937007874015748
        },
        {
          "duration": 0.18292650000000776,
          "durationTicks": 288,
          "midi": 55,
          "name": "G3",
          "ticks": 170112,
          "time": 108.048586,
          "velocity": 0.3937007874015748
        },
        {
          "duration": 0.18292650000000776,
          "durationTicks": 288,
          "midi": 70,
          "name": "A#4",
          "ticks": 170112,
          "time": 108.048586,
          "velocity": 0.3937007874015748
        },
        {
          "duration": 0.18292650000000776,
          "durationTicks": 288,
          "midi": 58,
          "name": "A#3",
          "ticks": 170112,
          "time": 108.048586,
          "velocity": 0.3937007874015748
        },
        {
          "duration": 0.3658530000000013,
          "durationTicks": 576,
          "midi": 68,
          "name": "G#4",
          "ticks": 170496,
          "time": 108.292488,
          "velocity": 0.3937007874015748
        },
        {
          "duration": 0.3658530000000013,
          "durationTicks": 576,
          "midi": 60,
          "name": "C4",
          "ticks": 170496,
          "time": 108.292488,
          "velocity": 0.3937007874015748
        },
        {
          "duration": 0.487803999999997,
          "durationTicks": 768,
          "midi": 51,
          "name": "D#3",
          "ticks": 170496,
          "time": 108.292488,
          "velocity": 0.3937007874015748
        },
        {
          "duration": 0.3658530000000013,
          "durationTicks": 576,
          "midi": 68,
          "name": "G#4",
          "ticks": 170496,
          "time": 108.292488,
          "velocity": 0.3937007874015748
        },
        {
          "duration": 0.487803999999997,
          "durationTicks": 768,
          "midi": 56,
          "name": "G#3",
          "ticks": 170496,
          "time": 108.292488,
          "velocity": 0.3937007874015748
        },
        {
          "duration": 0.6097549999999927,
          "durationTicks": 960,
          "midi": 44,
          "name": "G#2",
          "ticks": 173568,
          "time": 110.24370400000001,
          "velocity": 0.3937007874015748
        },
        {
          "duration": 0.6097549999999927,
          "durationTicks": 960,
          "midi": 60,
          "name": "C4",
          "ticks": 173568,
          "time": 110.24370400000001,
          "velocity": 0.3937007874015748
        },
        {
          "duration": 0.6097549999999927,
          "durationTicks": 960,
          "midi": 48,
          "name": "C3",
          "ticks": 173568,
          "time": 110.24370400000001,
          "velocity": 0.3937007874015748
        },
        {
          "duration": 0.6097549999999927,
          "durationTicks": 960,
          "midi": 60,
          "name": "C4",
          "ticks": 173568,
          "time": 110.24370400000001,
          "velocity": 0.3937007874015748
        },
        {
          "duration": 0.18292650000000776,
          "durationTicks": 288,
          "midi": 49,
          "name": "C#3",
          "ticks": 174720,
          "time": 110.97541,
          "velocity": 0.3937007874015748
        },
        {
          "duration": 0.18292650000000776,
          "durationTicks": 288,
          "midi": 61,
          "name": "C#4",
          "ticks": 174720,
          "time": 110.97541,
          "velocity": 0.3937007874015748
        },
        {
          "duration": 0.18292650000000776,
          "durationTicks": 288,
          "midi": 61,
          "name": "C#4",
          "ticks": 174720,
          "time": 110.97541,
          "velocity": 0.3937007874015748
        },
        {
          "duration": 0.18292650000000776,
          "durationTicks": 288,
          "midi": 44,
          "name": "G#2",
          "ticks": 174720,
          "time": 110.97541,
          "velocity": 0.3937007874015748
        },
        {
          "duration": 0.3658530000000013,
          "durationTicks": 576,
          "midi": 63,
          "name": "D#4",
          "ticks": 175104,
          "time": 111.219312,
          "velocity": 0.3937007874015748
        },
        {
          "duration": 0.3658530000000013,
          "durationTicks": 576,
          "midi": 60,
          "name": "C4",
          "ticks": 175104,
          "time": 111.219312,
          "velocity": 0.3937007874015748
        },
        {
          "duration": 0.3658530000000013,
          "durationTicks": 576,
          "midi": 63,
          "name": "D#4",
          "ticks": 175104,
          "time": 111.219312,
          "velocity": 0.3937007874015748
        },
        {
          "duration": 0.487803999999997,
          "durationTicks": 768,
          "midi": 48,
          "name": "C3",
          "ticks": 175104,
          "time": 111.219312,
          "velocity": 0.3937007874015748
        },
        {
          "duration": 0.487803999999997,
          "durationTicks": 768,
          "midi": 56,
          "name": "G#3",
          "ticks": 175104,
          "time": 111.219312,
          "velocity": 0.3937007874015748
        },
        {
          "duration": 0.48780400000001123,
          "durationTicks": 768,
          "midi": 48,
          "name": "C3",
          "ticks": 175872,
          "time": 111.707116,
          "velocity": 0.3937007874015748
        },
        {
          "duration": 0.3658530000000013,
          "durationTicks": 576,
          "midi": 63,
          "name": "D#4",
          "ticks": 175872,
          "time": 111.707116,
          "velocity": 0.3937007874015748
        },
        {
          "duration": 0.3658530000000013,
          "durationTicks": 576,
          "midi": 60,
          "name": "C4",
          "ticks": 175872,
          "time": 111.707116,
          "velocity": 0.3937007874015748
        },
        {
          "duration": 0.48780400000001123,
          "durationTicks": 768,
          "midi": 51,
          "name": "D#3",
          "ticks": 175872,
          "time": 111.707116,
          "velocity": 0.3937007874015748
        },
        {
          "duration": 0.3658530000000013,
          "durationTicks": 576,
          "midi": 63,
          "name": "D#4",
          "ticks": 175872,
          "time": 111.707116,
          "velocity": 0.3937007874015748
        },
        {
          "duration": 0.487803999999997,
          "durationTicks": 768,
          "midi": 56,
          "name": "G#3",
          "ticks": 176640,
          "time": 112.19492000000001,
          "velocity": 0.3937007874015748
        },
        {
          "duration": 0.3658529999999871,
          "durationTicks": 576,
          "midi": 63,
          "name": "D#4",
          "ticks": 176640,
          "time": 112.19492000000001,
          "velocity": 0.3937007874015748
        },
        {
          "duration": 0.487803999999997,
          "durationTicks": 768,
          "midi": 48,
          "name": "C3",
          "ticks": 176640,
          "time": 112.19492000000001,
          "velocity": 0.3937007874015748
        },
        {
          "duration": 0.3658529999999871,
          "durationTicks": 576,
          "midi": 63,
          "name": "D#4",
          "ticks": 176640,
          "time": 112.19492000000001,
          "velocity": 0.3937007874015748
        },
        {
          "duration": 0.3658529999999871,
          "durationTicks": 576,
          "midi": 60,
          "name": "C4",
          "ticks": 176640,
          "time": 112.19492000000001,
          "velocity": 0.3937007874015748
        },
        {
          "duration": 0.3658530000000013,
          "durationTicks": 576,
          "midi": 60,
          "name": "C4",
          "ticks": 177408,
          "time": 112.68272400000001,
          "velocity": 0.3937007874015748
        },
        {
          "duration": 0.487803999999997,
          "durationTicks": 768,
          "midi": 51,
          "name": "D#3",
          "ticks": 177408,
          "time": 112.68272400000001,
          "velocity": 0.3937007874015748
        },
        {
          "duration": 0.3658530000000013,
          "durationTicks": 576,
          "midi": 68,
          "name": "G#4",
          "ticks": 177408,
          "time": 112.68272400000001,
          "velocity": 0.3937007874015748
        },
        {
          "duration": 0.3658530000000013,
          "durationTicks": 576,
          "midi": 68,
          "name": "G#4",
          "ticks": 177408,
          "time": 112.68272400000001,
          "velocity": 0.3937007874015748
        },
        {
          "duration": 0.487803999999997,
          "durationTicks": 768,
          "midi": 56,
          "name": "G#3",
          "ticks": 177408,
          "time": 112.68272400000001,
          "velocity": 0.3937007874015748
        },
        {
          "duration": 0.3658530000000013,
          "durationTicks": 576,
          "midi": 68,
          "name": "G#4",
          "ticks": 178176,
          "time": 113.170528,
          "velocity": 0.3937007874015748
        },
        {
          "duration": 0.487803999999997,
          "durationTicks": 768,
          "midi": 56,
          "name": "G#3",
          "ticks": 178176,
          "time": 113.170528,
          "velocity": 0.3937007874015748
        },
        {
          "duration": 0.3658530000000013,
          "durationTicks": 576,
          "midi": 68,
          "name": "G#4",
          "ticks": 178176,
          "time": 113.170528,
          "velocity": 0.3937007874015748
        },
        {
          "duration": 0.487803999999997,
          "durationTicks": 768,
          "midi": 51,
          "name": "D#3",
          "ticks": 178176,
          "time": 113.170528,
          "velocity": 0.3937007874015748
        },
        {
          "duration": 0.3658530000000013,
          "durationTicks": 576,
          "midi": 60,
          "name": "C4",
          "ticks": 178176,
          "time": 113.170528,
          "velocity": 0.3937007874015748
        },
        {
          "duration": 0.3658530000000013,
          "durationTicks": 576,
          "midi": 63,
          "name": "D#4",
          "ticks": 178944,
          "time": 113.658332,
          "velocity": 0.3937007874015748
        },
        {
          "duration": 0.487803999999997,
          "durationTicks": 768,
          "midi": 60,
          "name": "C4",
          "ticks": 178944,
          "time": 113.658332,
          "velocity": 0.3937007874015748
        },
        {
          "duration": 0.3658530000000013,
          "durationTicks": 576,
          "midi": 72,
          "name": "C5",
          "ticks": 178944,
          "time": 113.658332,
          "velocity": 0.3937007874015748
        },
        {
          "duration": 0.487803999999997,
          "durationTicks": 768,
          "midi": 56,
          "name": "G#3",
          "ticks": 178944,
          "time": 113.658332,
          "velocity": 0.3937007874015748
        },
        {
          "duration": 0.3658530000000013,
          "durationTicks": 576,
          "midi": 72,
          "name": "C5",
          "ticks": 178944,
          "time": 113.658332,
          "velocity": 0.3937007874015748
        },
        {
          "duration": 0.6097550000000069,
          "durationTicks": 960,
          "midi": 63,
          "name": "D#4",
          "ticks": 179712,
          "time": 114.146136,
          "velocity": 0.3937007874015748
        },
        {
          "duration": 0.6097550000000069,
          "durationTicks": 960,
          "midi": 56,
          "name": "G#3",
          "ticks": 179712,
          "time": 114.146136,
          "velocity": 0.3937007874015748
        },
        {
          "duration": 0.6097550000000069,
          "durationTicks": 960,
          "midi": 72,
          "name": "C5",
          "ticks": 179712,
          "time": 114.146136,
          "velocity": 0.3937007874015748
        },
        {
          "duration": 0.6097550000000069,
          "durationTicks": 960,
          "midi": 60,
          "name": "C4",
          "ticks": 179712,
          "time": 114.146136,
          "velocity": 0.3937007874015748
        },
        {
          "duration": 0.6097550000000069,
          "durationTicks": 960,
          "midi": 72,
          "name": "C5",
          "ticks": 179712,
          "time": 114.146136,
          "velocity": 0.3937007874015748
        },
        {
          "duration": 0.18292650000000776,
          "durationTicks": 288,
          "midi": 61,
          "name": "C#4",
          "ticks": 180864,
          "time": 114.877842,
          "velocity": 0.3937007874015748
        },
        {
          "duration": 0.18292650000000776,
          "durationTicks": 288,
          "midi": 55,
          "name": "G3",
          "ticks": 180864,
          "time": 114.877842,
          "velocity": 0.3937007874015748
        },
        {
          "duration": 0.18292650000000776,
          "durationTicks": 288,
          "midi": 58,
          "name": "A#3",
          "ticks": 180864,
          "time": 114.877842,
          "velocity": 0.3937007874015748
        },
        {
          "duration": 0.18292650000000776,
          "durationTicks": 288,
          "midi": 70,
          "name": "A#4",
          "ticks": 180864,
          "time": 114.877842,
          "velocity": 0.3937007874015748
        },
        {
          "duration": 0.18292650000000776,
          "durationTicks": 288,
          "midi": 70,
          "name": "A#4",
          "ticks": 180864,
          "time": 114.877842,
          "velocity": 0.3937007874015748
        },
        {
          "duration": 0.487803999999997,
          "durationTicks": 768,
          "midi": 51,
          "name": "D#3",
          "ticks": 181248,
          "time": 115.121744,
          "velocity": 0.3937007874015748
        },
        {
          "duration": 0.3658530000000013,
          "durationTicks": 576,
          "midi": 60,
          "name": "C4",
          "ticks": 181248,
          "time": 115.121744,
          "velocity": 0.3937007874015748
        },
        {
          "duration": 0.3658530000000013,
          "durationTicks": 576,
          "midi": 68,
          "name": "G#4",
          "ticks": 181248,
          "time": 115.121744,
          "velocity": 0.3937007874015748
        },
        {
          "duration": 0.3658530000000013,
          "durationTicks": 576,
          "midi": 68,
          "name": "G#4",
          "ticks": 181248,
          "time": 115.121744,
          "velocity": 0.3937007874015748
        },
        {
          "duration": 0.487803999999997,
          "durationTicks": 768,
          "midi": 56,
          "name": "G#3",
          "ticks": 181248,
          "time": 115.121744,
          "velocity": 0.3937007874015748
        },
        {
          "duration": 0.487803999999997,
          "durationTicks": 768,
          "midi": 58,
          "name": "A#3",
          "ticks": 184320,
          "time": 117.07296000000001,
          "velocity": 0.3937007874015748
        },
        {
          "duration": 0.3658530000000013,
          "durationTicks": 576,
          "midi": 67,
          "name": "G4",
          "ticks": 184320,
          "time": 117.07296000000001,
          "velocity": 0.3937007874015748
        },
        {
          "duration": 0.487803999999997,
          "durationTicks": 768,
          "midi": 51,
          "name": "D#3",
          "ticks": 184320,
          "time": 117.07296000000001,
          "velocity": 0.3937007874015748
        },
        {
          "duration": 0.3658530000000013,
          "durationTicks": 576,
          "midi": 67,
          "name": "G4",
          "ticks": 184320,
          "time": 117.07296000000001,
          "velocity": 0.3937007874015748
        },
        {
          "duration": 0.3658530000000013,
          "durationTicks": 576,
          "midi": 63,
          "name": "D#4",
          "ticks": 184320,
          "time": 117.07296000000001,
          "velocity": 0.3937007874015748
        },
        {
          "duration": 0.3658530000000013,
          "durationTicks": 576,
          "midi": 68,
          "name": "G#4",
          "ticks": 185088,
          "time": 117.560764,
          "velocity": 0.3937007874015748
        },
        {
          "duration": 0.487803999999997,
          "durationTicks": 768,
          "midi": 51,
          "name": "D#3",
          "ticks": 185088,
          "time": 117.560764,
          "velocity": 0.3937007874015748
        },
        {
          "duration": 0.3658530000000013,
          "durationTicks": 576,
          "midi": 68,
          "name": "G#4",
          "ticks": 185088,
          "time": 117.560764,
          "velocity": 0.3937007874015748
        },
        {
          "duration": 0.3658530000000013,
          "durationTicks": 576,
          "midi": 63,
          "name": "D#4",
          "ticks": 185088,
          "time": 117.560764,
          "velocity": 0.3937007874015748
        },
        {
          "duration": 0.487803999999997,
          "durationTicks": 768,
          "midi": 60,
          "name": "C4",
          "ticks": 185088,
          "time": 117.560764,
          "velocity": 0.3937007874015748
        },
        {
          "duration": 0.3658530000000013,
          "durationTicks": 576,
          "midi": 61,
          "name": "C#4",
          "ticks": 185856,
          "time": 118.048568,
          "velocity": 0.3937007874015748
        },
        {
          "duration": 0.3658530000000013,
          "durationTicks": 576,
          "midi": 55,
          "name": "G3",
          "ticks": 185856,
          "time": 118.048568,
          "velocity": 0.3937007874015748
        },
        {
          "duration": 0.3658530000000013,
          "durationTicks": 576,
          "midi": 70,
          "name": "A#4",
          "ticks": 185856,
          "time": 118.048568,
          "velocity": 0.3937007874015748
        },
        {
          "duration": 0.3658530000000013,
          "durationTicks": 576,
          "midi": 58,
          "name": "A#3",
          "ticks": 185856,
          "time": 118.048568,
          "velocity": 0.3937007874015748
        },
        {
          "duration": 0.3658530000000013,
          "durationTicks": 576,
          "midi": 70,
          "name": "A#4",
          "ticks": 185856,
          "time": 118.048568,
          "velocity": 0.3937007874015748
        },
        {
          "duration": 0.6097549999999927,
          "durationTicks": 960,
          "midi": 72,
          "name": "C5",
          "ticks": 188928,
          "time": 119.999784,
          "velocity": 0.3937007874015748
        },
        {
          "duration": 0.6097549999999927,
          "durationTicks": 960,
          "midi": 63,
          "name": "D#4",
          "ticks": 188928,
          "time": 119.999784,
          "velocity": 0.3937007874015748
        },
        {
          "duration": 0.6097549999999927,
          "durationTicks": 960,
          "midi": 60,
          "name": "C4",
          "ticks": 188928,
          "time": 119.999784,
          "velocity": 0.3937007874015748
        },
        {
          "duration": 0.6097549999999927,
          "durationTicks": 960,
          "midi": 72,
          "name": "C5",
          "ticks": 188928,
          "time": 119.999784,
          "velocity": 0.3937007874015748
        },
        {
          "duration": 0.6097549999999927,
          "durationTicks": 960,
          "midi": 56,
          "name": "G#3",
          "ticks": 188928,
          "time": 119.999784,
          "velocity": 0.3937007874015748
        },
        {
          "duration": 0.18292649999999355,
          "durationTicks": 288,
          "midi": 58,
          "name": "A#3",
          "ticks": 190080,
          "time": 120.73149000000001,
          "velocity": 0.3937007874015748
        },
        {
          "duration": 0.18292649999999355,
          "durationTicks": 288,
          "midi": 70,
          "name": "A#4",
          "ticks": 190080,
          "time": 120.73149000000001,
          "velocity": 0.3937007874015748
        },
        {
          "duration": 0.18292649999999355,
          "durationTicks": 288,
          "midi": 55,
          "name": "G3",
          "ticks": 190080,
          "time": 120.73149000000001,
          "velocity": 0.3937007874015748
        },
        {
          "duration": 0.18292649999999355,
          "durationTicks": 288,
          "midi": 61,
          "name": "C#4",
          "ticks": 190080,
          "time": 120.73149000000001,
          "velocity": 0.3937007874015748
        },
        {
          "duration": 0.18292649999999355,
          "durationTicks": 288,
          "midi": 70,
          "name": "A#4",
          "ticks": 190080,
          "time": 120.73149000000001,
          "velocity": 0.3937007874015748
        },
        {
          "duration": 0.3658530000000013,
          "durationTicks": 576,
          "midi": 68,
          "name": "G#4",
          "ticks": 190464,
          "time": 120.975392,
          "velocity": 0.3937007874015748
        },
        {
          "duration": 0.48780400000001123,
          "durationTicks": 768,
          "midi": 56,
          "name": "G#3",
          "ticks": 190464,
          "time": 120.975392,
          "velocity": 0.3937007874015748
        },
        {
          "duration": 0.3658530000000013,
          "durationTicks": 576,
          "midi": 68,
          "name": "G#4",
          "ticks": 190464,
          "time": 120.975392,
          "velocity": 0.3937007874015748
        },
        {
          "duration": 0.3658530000000013,
          "durationTicks": 576,
          "midi": 60,
          "name": "C4",
          "ticks": 190464,
          "time": 120.975392,
          "velocity": 0.3937007874015748
        },
        {
          "duration": 0.48780400000001123,
          "durationTicks": 768,
          "midi": 51,
          "name": "D#3",
          "ticks": 190464,
          "time": 120.975392,
          "velocity": 0.3937007874015748
        },
        {
          "duration": 0.6097550000000069,
          "durationTicks": 960,
          "midi": 63,
          "name": "D#4",
          "ticks": 193536,
          "time": 122.926608,
          "velocity": 0.3937007874015748
        },
        {
          "duration": 0.6097550000000069,
          "durationTicks": 960,
          "midi": 48,
          "name": "C3",
          "ticks": 193536,
          "time": 122.926608,
          "velocity": 0.3937007874015748
        },
        {
          "duration": 0.6097550000000069,
          "durationTicks": 960,
          "midi": 63,
          "name": "D#4",
          "ticks": 193536,
          "time": 122.926608,
          "velocity": 0.3937007874015748
        },
        {
          "duration": 0.6097550000000069,
          "durationTicks": 960,
          "midi": 60,
          "name": "C4",
          "ticks": 193536,
          "time": 122.926608,
          "velocity": 0.3937007874015748
        },
        {
          "duration": 0.6097550000000069,
          "durationTicks": 960,
          "midi": 56,
          "name": "G#3",
          "ticks": 193536,
          "time": 122.926608,
          "velocity": 0.3937007874015748
        },
        {
          "duration": 0.18292649999999355,
          "durationTicks": 288,
          "midi": 68,
          "name": "G#4",
          "ticks": 194688,
          "time": 123.658314,
          "velocity": 0.3937007874015748
        },
        {
          "duration": 0.18292649999999355,
          "durationTicks": 288,
          "midi": 68,
          "name": "G#4",
          "ticks": 194688,
          "time": 123.658314,
          "velocity": 0.3937007874015748
        },
        {
          "duration": 0.18292649999999355,
          "durationTicks": 288,
          "midi": 56,
          "name": "G#3",
          "ticks": 194688,
          "time": 123.658314,
          "velocity": 0.3937007874015748
        },
        {
          "duration": 0.18292649999999355,
          "durationTicks": 288,
          "midi": 60,
          "name": "C4",
          "ticks": 194688,
          "time": 123.658314,
          "velocity": 0.3937007874015748
        },
        {
          "duration": 0.18292649999999355,
          "durationTicks": 288,
          "midi": 51,
          "name": "D#3",
          "ticks": 194688,
          "time": 123.658314,
          "velocity": 0.3937007874015748
        },
        {
          "duration": 0.3658529999999871,
          "durationTicks": 576,
          "midi": 67,
          "name": "G4",
          "ticks": 195072,
          "time": 123.90221600000001,
          "velocity": 0.3937007874015748
        },
        {
          "duration": 0.3658529999999871,
          "durationTicks": 576,
          "midi": 67,
          "name": "G4",
          "ticks": 195072,
          "time": 123.90221600000001,
          "velocity": 0.3937007874015748
        },
        {
          "duration": 0.487803999999997,
          "durationTicks": 768,
          "midi": 51,
          "name": "D#3",
          "ticks": 195072,
          "time": 123.90221600000001,
          "velocity": 0.3937007874015748
        },
        {
          "duration": 0.3658529999999871,
          "durationTicks": 576,
          "midi": 58,
          "name": "A#3",
          "ticks": 195072,
          "time": 123.90221600000001,
          "velocity": 0.3937007874015748
        },
        {
          "duration": 0.487803999999997,
          "durationTicks": 768,
          "midi": 55,
          "name": "G3",
          "ticks": 195072,
          "time": 123.90221600000001,
          "velocity": 0.3937007874015748
        },
        {
          "duration": 0.3658530000000013,
          "durationTicks": 576,
          "midi": 58,
          "name": "A#3",
          "ticks": 195840,
          "time": 124.39002,
          "velocity": 0.3937007874015748
        },
        {
          "duration": 0.3658530000000013,
          "durationTicks": 576,
          "midi": 67,
          "name": "G4",
          "ticks": 195840,
          "time": 124.39002,
          "velocity": 0.3937007874015748
        },
        {
          "duration": 0.487803999999997,
          "durationTicks": 768,
          "midi": 55,
          "name": "G3",
          "ticks": 195840,
          "time": 124.39002,
          "velocity": 0.3937007874015748
        },
        {
          "duration": 0.487803999999997,
          "durationTicks": 768,
          "midi": 51,
          "name": "D#3",
          "ticks": 195840,
          "time": 124.39002,
          "velocity": 0.3937007874015748
        },
        {
          "duration": 0.3658530000000013,
          "durationTicks": 576,
          "midi": 67,
          "name": "G4",
          "ticks": 195840,
          "time": 124.39002,
          "velocity": 0.3937007874015748
        },
        {
          "duration": 0.3658530000000013,
          "durationTicks": 576,
          "midi": 67,
          "name": "G4",
          "ticks": 196608,
          "time": 124.877824,
          "velocity": 0.3937007874015748
        },
        {
          "duration": 0.487803999999997,
          "durationTicks": 768,
          "midi": 55,
          "name": "G3",
          "ticks": 196608,
          "time": 124.877824,
          "velocity": 0.3937007874015748
        },
        {
          "duration": 0.3658530000000013,
          "durationTicks": 576,
          "midi": 67,
          "name": "G4",
          "ticks": 196608,
          "time": 124.877824,
          "velocity": 0.3937007874015748
        },
        {
          "duration": 0.3658530000000013,
          "durationTicks": 576,
          "midi": 58,
          "name": "A#3",
          "ticks": 196608,
          "time": 124.877824,
          "velocity": 0.3937007874015748
        },
        {
          "duration": 0.487803999999997,
          "durationTicks": 768,
          "midi": 51,
          "name": "D#3",
          "ticks": 196608,
          "time": 124.877824,
          "velocity": 0.3937007874015748
        },
        {
          "duration": 0.3658530000000013,
          "durationTicks": 576,
          "midi": 67,
          "name": "G4",
          "ticks": 197376,
          "time": 125.365628,
          "velocity": 0.3937007874015748
        },
        {
          "duration": 0.3658530000000013,
          "durationTicks": 576,
          "midi": 67,
          "name": "G4",
          "ticks": 197376,
          "time": 125.365628,
          "velocity": 0.3937007874015748
        },
        {
          "duration": 0.487803999999997,
          "durationTicks": 768,
          "midi": 51,
          "name": "D#3",
          "ticks": 197376,
          "time": 125.365628,
          "velocity": 0.3937007874015748
        },
        {
          "duration": 0.3658530000000013,
          "durationTicks": 576,
          "midi": 58,
          "name": "A#3",
          "ticks": 197376,
          "time": 125.365628,
          "velocity": 0.3937007874015748
        },
        {
          "duration": 0.487803999999997,
          "durationTicks": 768,
          "midi": 55,
          "name": "G3",
          "ticks": 197376,
          "time": 125.365628,
          "velocity": 0.3937007874015748
        },
        {
          "duration": 0.48780400000001123,
          "durationTicks": 768,
          "midi": 49,
          "name": "C#3",
          "ticks": 198144,
          "time": 125.853432,
          "velocity": 0.3937007874015748
        },
        {
          "duration": 0.48780400000001123,
          "durationTicks": 768,
          "midi": 56,
          "name": "G#3",
          "ticks": 198144,
          "time": 125.853432,
          "velocity": 0.3937007874015748
        },
        {
          "duration": 0.3658530000000013,
          "durationTicks": 576,
          "midi": 65,
          "name": "F4",
          "ticks": 198144,
          "time": 125.853432,
          "velocity": 0.3937007874015748
        },
        {
          "duration": 0.3658530000000013,
          "durationTicks": 576,
          "midi": 65,
          "name": "F4",
          "ticks": 198144,
          "time": 125.853432,
          "velocity": 0.3937007874015748
        },
        {
          "duration": 0.3658530000000013,
          "durationTicks": 576,
          "midi": 61,
          "name": "C#4",
          "ticks": 198144,
          "time": 125.853432,
          "velocity": 0.3937007874015748
        },
        {
          "duration": 0.3658530000000013,
          "durationTicks": 576,
          "midi": 67,
          "name": "G4",
          "ticks": 198912,
          "time": 126.34123600000001,
          "velocity": 0.3937007874015748
        },
        {
          "duration": 0.3658530000000013,
          "durationTicks": 576,
          "midi": 58,
          "name": "A#3",
          "ticks": 198912,
          "time": 126.34123600000001,
          "velocity": 0.3937007874015748
        },
        {
          "duration": 0.3658530000000013,
          "durationTicks": 576,
          "midi": 67,
          "name": "G4",
          "ticks": 198912,
          "time": 126.34123600000001,
          "velocity": 0.3937007874015748
        },
        {
          "duration": 0.487803999999997,
          "durationTicks": 768,
          "midi": 51,
          "name": "D#3",
          "ticks": 198912,
          "time": 126.34123600000001,
          "velocity": 0.3937007874015748
        },
        {
          "duration": 0.487803999999997,
          "durationTicks": 768,
          "midi": 55,
          "name": "G3",
          "ticks": 198912,
          "time": 126.34123600000001,
          "velocity": 0.3937007874015748
        },
        {
          "duration": 0.3658530000000013,
          "durationTicks": 576,
          "midi": 60,
          "name": "C4",
          "ticks": 199680,
          "time": 126.82904,
          "velocity": 0.3937007874015748
        },
        {
          "duration": 0.3658530000000013,
          "durationTicks": 576,
          "midi": 68,
          "name": "G#4",
          "ticks": 199680,
          "time": 126.82904,
          "velocity": 0.3937007874015748
        },
        {
          "duration": 0.487803999999997,
          "durationTicks": 768,
          "midi": 51,
          "name": "D#3",
          "ticks": 199680,
          "time": 126.82904,
          "velocity": 0.3937007874015748
        },
        {
          "duration": 0.3658530000000013,
          "durationTicks": 576,
          "midi": 68,
          "name": "G#4",
          "ticks": 199680,
          "time": 126.82904,
          "velocity": 0.3937007874015748
        },
        {
          "duration": 0.487803999999997,
          "durationTicks": 768,
          "midi": 56,
          "name": "G#3",
          "ticks": 199680,
          "time": 126.82904,
          "velocity": 0.3937007874015748
        },
        {
          "duration": 0.6097550000000069,
          "durationTicks": 960,
          "midi": 67,
          "name": "G4",
          "ticks": 202752,
          "time": 128.780256,
          "velocity": 0.3937007874015748
        },
        {
          "duration": 0.6097550000000069,
          "durationTicks": 960,
          "midi": 63,
          "name": "D#4",
          "ticks": 202752,
          "time": 128.780256,
          "velocity": 0.3937007874015748
        },
        {
          "duration": 0.6097550000000069,
          "durationTicks": 960,
          "midi": 51,
          "name": "D#3",
          "ticks": 202752,
          "time": 128.780256,
          "velocity": 0.3937007874015748
        },
        {
          "duration": 0.6097550000000069,
          "durationTicks": 960,
          "midi": 67,
          "name": "G4",
          "ticks": 202752,
          "time": 128.780256,
          "velocity": 0.3937007874015748
        },
        {
          "duration": 0.6097550000000069,
          "durationTicks": 960,
          "midi": 55,
          "name": "G3",
          "ticks": 202752,
          "time": 128.780256,
          "velocity": 0.3937007874015748
        },
        {
          "duration": 0.18292649999997934,
          "durationTicks": 288,
          "midi": 68,
          "name": "G#4",
          "ticks": 203904,
          "time": 129.511962,
          "velocity": 0.3937007874015748
        },
        {
          "duration": 0.18292649999997934,
          "durationTicks": 288,
          "midi": 60,
          "name": "C4",
          "ticks": 203904,
          "time": 129.511962,
          "velocity": 0.3937007874015748
        },
        {
          "duration": 0.18292649999997934,
          "durationTicks": 288,
          "midi": 51,
          "name": "D#3",
          "ticks": 203904,
          "time": 129.511962,
          "velocity": 0.3937007874015748
        },
        {
          "duration": 0.18292649999997934,
          "durationTicks": 288,
          "midi": 56,
          "name": "G#3",
          "ticks": 203904,
          "time": 129.511962,
          "velocity": 0.3937007874015748
        },
        {
          "duration": 0.18292649999997934,
          "durationTicks": 288,
          "midi": 68,
          "name": "G#4",
          "ticks": 203904,
          "time": 129.511962,
          "velocity": 0.3937007874015748
        },
        {
          "duration": 0.48780400000001123,
          "durationTicks": 768,
          "midi": 58,
          "name": "A#3",
          "ticks": 204288,
          "time": 129.755864,
          "velocity": 0.3937007874015748
        },
        {
          "duration": 0.3658530000000155,
          "durationTicks": 576,
          "midi": 61,
          "name": "C#4",
          "ticks": 204288,
          "time": 129.755864,
          "velocity": 0.3937007874015748
        },
        {
          "duration": 0.3658530000000155,
          "durationTicks": 576,
          "midi": 70,
          "name": "A#4",
          "ticks": 204288,
          "time": 129.755864,
          "velocity": 0.3937007874015748
        },
        {
          "duration": 0.3658530000000155,
          "durationTicks": 576,
          "midi": 70,
          "name": "A#4",
          "ticks": 204288,
          "time": 129.755864,
          "velocity": 0.3937007874015748
        },
        {
          "duration": 0.48780400000001123,
          "durationTicks": 768,
          "midi": 55,
          "name": "G3",
          "ticks": 204288,
          "time": 129.755864,
          "velocity": 0.3937007874015748
        },
        {
          "duration": 0.3658529999999871,
          "durationTicks": 576,
          "midi": 61,
          "name": "C#4",
          "ticks": 205056,
          "time": 130.243668,
          "velocity": 0.3937007874015748
        },
        {
          "duration": 0.3658529999999871,
          "durationTicks": 576,
          "midi": 70,
          "name": "A#4",
          "ticks": 205056,
          "time": 130.243668,
          "velocity": 0.3937007874015748
        },
        {
          "duration": 0.4878039999999828,
          "durationTicks": 768,
          "midi": 58,
          "name": "A#3",
          "ticks": 205056,
          "time": 130.243668,
          "velocity": 0.3937007874015748
        },
        {
          "duration": 0.4878039999999828,
          "durationTicks": 768,
          "midi": 55,
          "name": "G3",
          "ticks": 205056,
          "time": 130.243668,
          "velocity": 0.3937007874015748
        },
        {
          "duration": 0.3658529999999871,
          "durationTicks": 576,
          "midi": 70,
          "name": "A#4",
          "ticks": 205056,
          "time": 130.243668,
          "velocity": 0.3937007874015748
        },
        {
          "duration": 0.48780400000001123,
          "durationTicks": 768,
          "midi": 58,
          "name": "A#3",
          "ticks": 205824,
          "time": 130.731472,
          "velocity": 0.3937007874015748
        },
        {
          "duration": 0.3658530000000155,
          "durationTicks": 576,
          "midi": 70,
          "name": "A#4",
          "ticks": 205824,
          "time": 130.731472,
          "velocity": 0.3937007874015748
        },
        {
          "duration": 0.48780400000001123,
          "durationTicks": 768,
          "midi": 55,
          "name": "G3",
          "ticks": 205824,
          "time": 130.731472,
          "velocity": 0.3937007874015748
        },
        {
          "duration": 0.3658530000000155,
          "durationTicks": 576,
          "midi": 70,
          "name": "A#4",
          "ticks": 205824,
          "time": 130.731472,
          "velocity": 0.3937007874015748
        },
        {
          "duration": 0.3658530000000155,
          "durationTicks": 576,
          "midi": 61,
          "name": "C#4",
          "ticks": 205824,
          "time": 130.731472,
          "velocity": 0.3937007874015748
        },
        {
          "duration": 0.3658529999999871,
          "durationTicks": 576,
          "midi": 67,
          "name": "G4",
          "ticks": 206592,
          "time": 131.219276,
          "velocity": 0.3937007874015748
        },
        {
          "duration": 0.4878039999999828,
          "durationTicks": 768,
          "midi": 55,
          "name": "G3",
          "ticks": 206592,
          "time": 131.219276,
          "velocity": 0.3937007874015748
        },
        {
          "duration": 0.4878039999999828,
          "durationTicks": 768,
          "midi": 61,
          "name": "C#4",
          "ticks": 206592,
          "time": 131.219276,
          "velocity": 0.3937007874015748
        },
        {
          "duration": 0.3658529999999871,
          "durationTicks": 576,
          "midi": 70,
          "name": "A#4",
          "ticks": 206592,
          "time": 131.219276,
          "velocity": 0.3937007874015748
        },
        {
          "duration": 0.3658529999999871,
          "durationTicks": 576,
          "midi": 70,
          "name": "A#4",
          "ticks": 206592,
          "time": 131.219276,
          "velocity": 0.3937007874015748
        },
        {
          "duration": 0.3658530000000155,
          "durationTicks": 576,
          "midi": 75,
          "name": "D#5",
          "ticks": 207360,
          "time": 131.70708,
          "velocity": 0.3937007874015748
        },
        {
          "duration": 0.48780400000001123,
          "durationTicks": 768,
          "midi": 60,
          "name": "C4",
          "ticks": 207360,
          "time": 131.70708,
          "velocity": 0.3937007874015748
        },
        {
          "duration": 0.3658530000000155,
          "durationTicks": 576,
          "midi": 75,
          "name": "D#5",
          "ticks": 207360,
          "time": 131.70708,
          "velocity": 0.3937007874015748
        },
        {
          "duration": 0.3658530000000155,
          "durationTicks": 576,
          "midi": 68,
          "name": "G#4",
          "ticks": 207360,
          "time": 131.70708,
          "velocity": 0.3937007874015748
        },
        {
          "duration": 0.48780400000001123,
          "durationTicks": 768,
          "midi": 63,
          "name": "D#4",
          "ticks": 207360,
          "time": 131.70708,
          "velocity": 0.3937007874015748
        },
        {
          "duration": 0.3658530000000155,
          "durationTicks": 576,
          "midi": 73,
          "name": "C#5",
          "ticks": 208128,
          "time": 132.194884,
          "velocity": 0.3937007874015748
        },
        {
          "duration": 0.3658530000000155,
          "durationTicks": 576,
          "midi": 73,
          "name": "C#5",
          "ticks": 208128,
          "time": 132.194884,
          "velocity": 0.3937007874015748
        },
        {
          "duration": 0.48780400000001123,
          "durationTicks": 768,
          "midi": 55,
          "name": "G3",
          "ticks": 208128,
          "time": 132.194884,
          "velocity": 0.3937007874015748
        },
        {
          "duration": 0.48780400000001123,
          "durationTicks": 768,
          "midi": 61,
          "name": "C#4",
          "ticks": 208128,
          "time": 132.194884,
          "velocity": 0.3937007874015748
        },
        {
          "duration": 0.3658530000000155,
          "durationTicks": 576,
          "midi": 70,
          "name": "A#4",
          "ticks": 208128,
          "time": 132.194884,
          "velocity": 0.3937007874015748
        },
        {
          "duration": 0.3658529999999871,
          "durationTicks": 576,
          "midi": 68,
          "name": "G#4",
          "ticks": 208896,
          "time": 132.682688,
          "velocity": 0.3937007874015748
        },
        {
          "duration": 0.4878039999999828,
          "durationTicks": 768,
          "midi": 60,
          "name": "C4",
          "ticks": 208896,
          "time": 132.682688,
          "velocity": 0.3937007874015748
        },
        {
          "duration": 0.3658529999999871,
          "durationTicks": 576,
          "midi": 72,
          "name": "C5",
          "ticks": 208896,
          "time": 132.682688,
          "velocity": 0.3937007874015748
        },
        {
          "duration": 0.3658529999999871,
          "durationTicks": 576,
          "midi": 72,
          "name": "C5",
          "ticks": 208896,
          "time": 132.682688,
          "velocity": 0.3937007874015748
        },
        {
          "duration": 0.4878039999999828,
          "durationTicks": 768,
          "midi": 56,
          "name": "G#3",
          "ticks": 208896,
          "time": 132.682688,
          "velocity": 0.3937007874015748
        },
        {
          "duration": 0.6097550000000069,
          "durationTicks": 960,
          "midi": 60,
          "name": "C4",
          "ticks": 211968,
          "time": 134.633904,
          "velocity": 0.3937007874015748
        },
        {
          "duration": 0.6097550000000069,
          "durationTicks": 960,
          "midi": 60,
          "name": "C4",
          "ticks": 211968,
          "time": 134.633904,
          "velocity": 0.3937007874015748
        },
        {
          "duration": 0.6097550000000069,
          "durationTicks": 960,
          "midi": 44,
          "name": "G#2",
          "ticks": 211968,
          "time": 134.633904,
          "velocity": 0.3937007874015748
        },
        {
          "duration": 0.6097550000000069,
          "durationTicks": 960,
          "midi": 48,
          "name": "C3",
          "ticks": 211968,
          "time": 134.633904,
          "velocity": 0.3937007874015748
        },
        {
          "duration": 0.18292650000000776,
          "durationTicks": 288,
          "midi": 44,
          "name": "G#2",
          "ticks": 213120,
          "time": 135.36561,
          "velocity": 0.3937007874015748
        },
        {
          "duration": 0.18292650000000776,
          "durationTicks": 288,
          "midi": 61,
          "name": "C#4",
          "ticks": 213120,
          "time": 135.36561,
          "velocity": 0.3937007874015748
        },
        {
          "duration": 0.18292650000000776,
          "durationTicks": 288,
          "midi": 49,
          "name": "C#3",
          "ticks": 213120,
          "time": 135.36561,
          "velocity": 0.3937007874015748
        },
        {
          "duration": 0.18292650000000776,
          "durationTicks": 288,
          "midi": 61,
          "name": "C#4",
          "ticks": 213120,
          "time": 135.36561,
          "velocity": 0.3937007874015748
        },
        {
          "duration": 0.3658530000000155,
          "durationTicks": 576,
          "midi": 60,
          "name": "C4",
          "ticks": 213504,
          "time": 135.609512,
          "velocity": 0.3937007874015748
        },
        {
          "duration": 0.3658530000000155,
          "durationTicks": 576,
          "midi": 63,
          "name": "D#4",
          "ticks": 213504,
          "time": 135.609512,
          "velocity": 0.3937007874015748
        },
        {
          "duration": 0.48780400000001123,
          "durationTicks": 768,
          "midi": 51,
          "name": "D#3",
          "ticks": 213504,
          "time": 135.609512,
          "velocity": 0.3937007874015748
        },
        {
          "duration": 0.3658530000000155,
          "durationTicks": 576,
          "midi": 63,
          "name": "D#4",
          "ticks": 213504,
          "time": 135.609512,
          "velocity": 0.3937007874015748
        },
        {
          "duration": 0.48780400000001123,
          "durationTicks": 768,
          "midi": 48,
          "name": "C3",
          "ticks": 213504,
          "time": 135.609512,
          "velocity": 0.3937007874015748
        },
        {
          "duration": 0.48780400000001123,
          "durationTicks": 768,
          "midi": 56,
          "name": "G#3",
          "ticks": 214272,
          "time": 136.097316,
          "velocity": 0.3937007874015748
        },
        {
          "duration": 0.48780400000001123,
          "durationTicks": 768,
          "midi": 48,
          "name": "C3",
          "ticks": 214272,
          "time": 136.097316,
          "velocity": 0.3937007874015748
        },
        {
          "duration": 0.3658529999999871,
          "durationTicks": 576,
          "midi": 60,
          "name": "C4",
          "ticks": 214272,
          "time": 136.097316,
          "velocity": 0.3937007874015748
        },
        {
          "duration": 0.3658529999999871,
          "durationTicks": 576,
          "midi": 63,
          "name": "D#4",
          "ticks": 214272,
          "time": 136.097316,
          "velocity": 0.3937007874015748
        },
        {
          "duration": 0.3658529999999871,
          "durationTicks": 576,
          "midi": 63,
          "name": "D#4",
          "ticks": 214272,
          "time": 136.097316,
          "velocity": 0.3937007874015748
        },
        {
          "duration": 0.3658529999999871,
          "durationTicks": 576,
          "midi": 63,
          "name": "D#4",
          "ticks": 215040,
          "time": 136.58512000000002,
          "velocity": 0.3937007874015748
        },
        {
          "duration": 0.3658529999999871,
          "durationTicks": 576,
          "midi": 60,
          "name": "C4",
          "ticks": 215040,
          "time": 136.58512000000002,
          "velocity": 0.3937007874015748
        },
        {
          "duration": 0.3658529999999871,
          "durationTicks": 576,
          "midi": 63,
          "name": "D#4",
          "ticks": 215040,
          "time": 136.58512000000002,
          "velocity": 0.3937007874015748
        },
        {
          "duration": 0.4878039999999828,
          "durationTicks": 768,
          "midi": 56,
          "name": "G#3",
          "ticks": 215040,
          "time": 136.58512000000002,
          "velocity": 0.3937007874015748
        },
        {
          "duration": 0.4878039999999828,
          "durationTicks": 768,
          "midi": 48,
          "name": "C3",
          "ticks": 215040,
          "time": 136.58512000000002,
          "velocity": 0.3937007874015748
        },
        {
          "duration": 0.3658530000000155,
          "durationTicks": 576,
          "midi": 60,
          "name": "C4",
          "ticks": 215808,
          "time": 137.072924,
          "velocity": 0.3937007874015748
        },
        {
          "duration": 0.3658530000000155,
          "durationTicks": 576,
          "midi": 68,
          "name": "G#4",
          "ticks": 215808,
          "time": 137.072924,
          "velocity": 0.3937007874015748
        },
        {
          "duration": 0.3658530000000155,
          "durationTicks": 576,
          "midi": 68,
          "name": "G#4",
          "ticks": 215808,
          "time": 137.072924,
          "velocity": 0.3937007874015748
        },
        {
          "duration": 0.48780400000001123,
          "durationTicks": 768,
          "midi": 56,
          "name": "G#3",
          "ticks": 215808,
          "time": 137.072924,
          "velocity": 0.3937007874015748
        },
        {
          "duration": 0.48780400000001123,
          "durationTicks": 768,
          "midi": 51,
          "name": "D#3",
          "ticks": 215808,
          "time": 137.072924,
          "velocity": 0.3937007874015748
        },
        {
          "duration": 0.4878039999999828,
          "durationTicks": 768,
          "midi": 56,
          "name": "G#3",
          "ticks": 216576,
          "time": 137.560728,
          "velocity": 0.3937007874015748
        },
        {
          "duration": 0.4878039999999828,
          "durationTicks": 768,
          "midi": 51,
          "name": "D#3",
          "ticks": 216576,
          "time": 137.560728,
          "velocity": 0.3937007874015748
        },
        {
          "duration": 0.3658529999999871,
          "durationTicks": 576,
          "midi": 68,
          "name": "G#4",
          "ticks": 216576,
          "time": 137.560728,
          "velocity": 0.3937007874015748
        },
        {
          "duration": 0.3658529999999871,
          "durationTicks": 576,
          "midi": 60,
          "name": "C4",
          "ticks": 216576,
          "time": 137.560728,
          "velocity": 0.3937007874015748
        },
        {
          "duration": 0.3658529999999871,
          "durationTicks": 576,
          "midi": 68,
          "name": "G#4",
          "ticks": 216576,
          "time": 137.560728,
          "velocity": 0.3937007874015748
        },
        {
          "duration": 0.3658530000000155,
          "durationTicks": 576,
          "midi": 72,
          "name": "C5",
          "ticks": 217344,
          "time": 138.048532,
          "velocity": 0.3937007874015748
        },
        {
          "duration": 0.48780400000001123,
          "durationTicks": 768,
          "midi": 60,
          "name": "C4",
          "ticks": 217344,
          "time": 138.048532,
          "velocity": 0.3937007874015748
        },
        {
          "duration": 0.3658530000000155,
          "durationTicks": 576,
          "midi": 63,
          "name": "D#4",
          "ticks": 217344,
          "time": 138.048532,
          "velocity": 0.3937007874015748
        },
        {
          "duration": 0.3658530000000155,
          "durationTicks": 576,
          "midi": 72,
          "name": "C5",
          "ticks": 217344,
          "time": 138.048532,
          "velocity": 0.3937007874015748
        },
        {
          "duration": 0.48780400000001123,
          "durationTicks": 768,
          "midi": 56,
          "name": "G#3",
          "ticks": 217344,
          "time": 138.048532,
          "velocity": 0.3937007874015748
        },
        {
          "duration": 0.6097550000000069,
          "durationTicks": 960,
          "midi": 72,
          "name": "C5",
          "ticks": 218112,
          "time": 138.536336,
          "velocity": 0.3937007874015748
        },
        {
          "duration": 0.6097550000000069,
          "durationTicks": 960,
          "midi": 72,
          "name": "C5",
          "ticks": 218112,
          "time": 138.536336,
          "velocity": 0.3937007874015748
        },
        {
          "duration": 0.6097550000000069,
          "durationTicks": 960,
          "midi": 56,
          "name": "G#3",
          "ticks": 218112,
          "time": 138.536336,
          "velocity": 0.3937007874015748
        },
        {
          "duration": 0.6097550000000069,
          "durationTicks": 960,
          "midi": 60,
          "name": "C4",
          "ticks": 218112,
          "time": 138.536336,
          "velocity": 0.3937007874015748
        },
        {
          "duration": 0.6097550000000069,
          "durationTicks": 960,
          "midi": 63,
          "name": "D#4",
          "ticks": 218112,
          "time": 138.536336,
          "velocity": 0.3937007874015748
        },
        {
          "duration": 0.18292650000000776,
          "durationTicks": 288,
          "midi": 70,
          "name": "A#4",
          "ticks": 219264,
          "time": 139.268042,
          "velocity": 0.3937007874015748
        },
        {
          "duration": 0.18292650000000776,
          "durationTicks": 288,
          "midi": 55,
          "name": "G3",
          "ticks": 219264,
          "time": 139.268042,
          "velocity": 0.3937007874015748
        },
        {
          "duration": 0.18292650000000776,
          "durationTicks": 288,
          "midi": 58,
          "name": "A#3",
          "ticks": 219264,
          "time": 139.268042,
          "velocity": 0.3937007874015748
        },
        {
          "duration": 0.18292650000000776,
          "durationTicks": 288,
          "midi": 61,
          "name": "C#4",
          "ticks": 219264,
          "time": 139.268042,
          "velocity": 0.3937007874015748
        },
        {
          "duration": 0.18292650000000776,
          "durationTicks": 288,
          "midi": 70,
          "name": "A#4",
          "ticks": 219264,
          "time": 139.268042,
          "velocity": 0.3937007874015748
        },
        {
          "duration": 0.48780400000001123,
          "durationTicks": 768,
          "midi": 56,
          "name": "G#3",
          "ticks": 219648,
          "time": 139.511944,
          "velocity": 0.3937007874015748
        },
        {
          "duration": 0.48780400000001123,
          "durationTicks": 768,
          "midi": 51,
          "name": "D#3",
          "ticks": 219648,
          "time": 139.511944,
          "velocity": 0.3937007874015748
        },
        {
          "duration": 0.3658530000000155,
          "durationTicks": 576,
          "midi": 60,
          "name": "C4",
          "ticks": 219648,
          "time": 139.511944,
          "velocity": 0.3937007874015748
        },
        {
          "duration": 0.3658530000000155,
          "durationTicks": 576,
          "midi": 68,
          "name": "G#4",
          "ticks": 219648,
          "time": 139.511944,
          "velocity": 0.3937007874015748
        },
        {
          "duration": 0.3658530000000155,
          "durationTicks": 576,
          "midi": 68,
          "name": "G#4",
          "ticks": 219648,
          "time": 139.511944,
          "velocity": 0.3937007874015748
        },
        {
          "duration": 0.4878039999999828,
          "durationTicks": 768,
          "midi": 55,
          "name": "G3",
          "ticks": 222720,
          "time": 141.46316000000002,
          "velocity": 0.3937007874015748
        },
        {
          "duration": 0.3658529999999871,
          "durationTicks": 576,
          "midi": 63,
          "name": "D#4",
          "ticks": 222720,
          "time": 141.46316000000002,
          "velocity": 0.3937007874015748
        },
        {
          "duration": 0.4878039999999828,
          "durationTicks": 768,
          "midi": 51,
          "name": "D#3",
          "ticks": 222720,
          "time": 141.46316000000002,
          "velocity": 0.3937007874015748
        },
        {
          "duration": 0.3658529999999871,
          "durationTicks": 576,
          "midi": 67,
          "name": "G4",
          "ticks": 222720,
          "time": 141.46316000000002,
          "velocity": 0.3937007874015748
        },
        {
          "duration": 0.3658529999999871,
          "durationTicks": 576,
          "midi": 67,
          "name": "G4",
          "ticks": 222720,
          "time": 141.46316000000002,
          "velocity": 0.3937007874015748
        },
        {
          "duration": 0.3658530000000155,
          "durationTicks": 576,
          "midi": 68,
          "name": "G#4",
          "ticks": 223488,
          "time": 141.950964,
          "velocity": 0.3937007874015748
        },
        {
          "duration": 0.48780400000001123,
          "durationTicks": 768,
          "midi": 56,
          "name": "G#3",
          "ticks": 223488,
          "time": 141.950964,
          "velocity": 0.3937007874015748
        },
        {
          "duration": 0.3658530000000155,
          "durationTicks": 576,
          "midi": 68,
          "name": "G#4",
          "ticks": 223488,
          "time": 141.950964,
          "velocity": 0.3937007874015748
        },
        {
          "duration": 0.3658530000000155,
          "durationTicks": 576,
          "midi": 63,
          "name": "D#4",
          "ticks": 223488,
          "time": 141.950964,
          "velocity": 0.3937007874015748
        },
        {
          "duration": 0.48780400000001123,
          "durationTicks": 768,
          "midi": 48,
          "name": "C3",
          "ticks": 223488,
          "time": 141.950964,
          "velocity": 0.3937007874015748
        },
        {
          "duration": 0.4878039999999828,
          "durationTicks": 768,
          "midi": 55,
          "name": "G3",
          "ticks": 224256,
          "time": 142.438768,
          "velocity": 0.3937007874015748
        },
        {
          "duration": 0.3658529999999871,
          "durationTicks": 576,
          "midi": 70,
          "name": "A#4",
          "ticks": 224256,
          "time": 142.438768,
          "velocity": 0.3937007874015748
        },
        {
          "duration": 0.3658529999999871,
          "durationTicks": 576,
          "midi": 70,
          "name": "A#4",
          "ticks": 224256,
          "time": 142.438768,
          "velocity": 0.3937007874015748
        },
        {
          "duration": 0.3658529999999871,
          "durationTicks": 576,
          "midi": 61,
          "name": "C#4",
          "ticks": 224256,
          "time": 142.438768,
          "velocity": 0.3937007874015748
        },
        {
          "duration": 0.4878039999999828,
          "durationTicks": 768,
          "midi": 58,
          "name": "A#3",
          "ticks": 224256,
          "time": 142.438768,
          "velocity": 0.3937007874015748
        },
        {
          "duration": 0.6097550000000069,
          "durationTicks": 960,
          "midi": 72,
          "name": "C5",
          "ticks": 227328,
          "time": 144.389984,
          "velocity": 0.3937007874015748
        },
        {
          "duration": 0.6097550000000069,
          "durationTicks": 960,
          "midi": 56,
          "name": "G#3",
          "ticks": 227328,
          "time": 144.389984,
          "velocity": 0.3937007874015748
        },
        {
          "duration": 0.6097550000000069,
          "durationTicks": 960,
          "midi": 60,
          "name": "C4",
          "ticks": 227328,
          "time": 144.389984,
          "velocity": 0.3937007874015748
        },
        {
          "duration": 0.6097550000000069,
          "durationTicks": 960,
          "midi": 63,
          "name": "D#4",
          "ticks": 227328,
          "time": 144.389984,
          "velocity": 0.3937007874015748
        },
        {
          "duration": 0.6097550000000069,
          "durationTicks": 960,
          "midi": 72,
          "name": "C5",
          "ticks": 227328,
          "time": 144.389984,
          "velocity": 0.3937007874015748
        },
        {
          "duration": 0.18292650000000776,
          "durationTicks": 288,
          "midi": 70,
          "name": "A#4",
          "ticks": 228480,
          "time": 145.12169,
          "velocity": 0.3937007874015748
        },
        {
          "duration": 0.18292650000000776,
          "durationTicks": 288,
          "midi": 61,
          "name": "C#4",
          "ticks": 228480,
          "time": 145.12169,
          "velocity": 0.3937007874015748
        },
        {
          "duration": 0.18292650000000776,
          "durationTicks": 288,
          "midi": 58,
          "name": "A#3",
          "ticks": 228480,
          "time": 145.12169,
          "velocity": 0.3937007874015748
        },
        {
          "duration": 0.18292650000000776,
          "durationTicks": 288,
          "midi": 70,
          "name": "A#4",
          "ticks": 228480,
          "time": 145.12169,
          "velocity": 0.3937007874015748
        },
        {
          "duration": 0.18292650000000776,
          "durationTicks": 288,
          "midi": 55,
          "name": "G3",
          "ticks": 228480,
          "time": 145.12169,
          "velocity": 0.3937007874015748
        },
        {
          "duration": 0.48780400000001123,
          "durationTicks": 768,
          "midi": 51,
          "name": "D#3",
          "ticks": 228864,
          "time": 145.365592,
          "velocity": 0.3937007874015748
        },
        {
          "duration": 0.3658530000000155,
          "durationTicks": 576,
          "midi": 68,
          "name": "G#4",
          "ticks": 228864,
          "time": 145.365592,
          "velocity": 0.3937007874015748
        },
        {
          "duration": 0.48780400000001123,
          "durationTicks": 768,
          "midi": 56,
          "name": "G#3",
          "ticks": 228864,
          "time": 145.365592,
          "velocity": 0.3937007874015748
        },
        {
          "duration": 0.3658530000000155,
          "durationTicks": 576,
          "midi": 60,
          "name": "C4",
          "ticks": 228864,
          "time": 145.365592,
          "velocity": 0.3937007874015748
        },
        {
          "duration": 0.3658530000000155,
          "durationTicks": 576,
          "midi": 68,
          "name": "G#4",
          "ticks": 228864,
          "time": 145.365592,
          "velocity": 0.3937007874015748
        }
      ],
      "endOfTrackTicks": 229632
    },
    {
      "channel": 9,
      "controlChanges": {},
      "pitchBends": [],
      "instrument": {
        "family": "drums",
        "number": 0,
        "name": "standard kit"
      },
      "name": "Drum Kit",
      "notes": [
        {
          "duration": 0.48780400000000057,
          "durationTicks": 768,
          "midi": 49,
          "name": "C#3",
          "ticks": 19968,
          "time": 12.682904,
          "velocity": 0.3937007874015748
        },
        {
          "duration": 0.4878039999999988,
          "durationTicks": 768,
          "midi": 49,
          "name": "C#3",
          "ticks": 20736,
          "time": 13.170708000000001,
          "velocity": 0.3937007874015748
        },
        {
          "duration": 0.48780400000000057,
          "durationTicks": 768,
          "midi": 49,
          "name": "C#3",
          "ticks": 21504,
          "time": 13.658512,
          "velocity": 0.3937007874015748
        },
        {
          "duration": 0.48780400000000057,
          "durationTicks": 768,
          "midi": 49,
          "name": "C#3",
          "ticks": 22272,
          "time": 14.146316,
          "velocity": 0.3937007874015748
        },
        {
          "duration": 0.4878039999999988,
          "durationTicks": 768,
          "midi": 49,
          "name": "C#3",
          "ticks": 23040,
          "time": 14.634120000000001,
          "velocity": 0.3937007874015748
        },
        {
          "duration": 0.48780400000000057,
          "durationTicks": 768,
          "midi": 49,
          "name": "C#3",
          "ticks": 23808,
          "time": 15.121924,
          "velocity": 0.3937007874015748
        },
        {
          "duration": 0.48780400000000057,
          "durationTicks": 768,
          "midi": 49,
          "name": "C#3",
          "ticks": 24576,
          "time": 15.609728,
          "velocity": 0.3937007874015748
        },
        {
          "duration": 0.48780400000000057,
          "durationTicks": 768,
          "midi": 49,
          "name": "C#3",
          "ticks": 25344,
          "time": 16.097532,
          "velocity": 0.3937007874015748
        },
        {
          "duration": 0.48780400000000057,
          "durationTicks": 768,
          "midi": 49,
          "name": "C#3",
          "ticks": 26112,
          "time": 16.585336,
          "velocity": 0.3937007874015748
        },
        {
          "duration": 0.487803999999997,
          "durationTicks": 768,
          "midi": 49,
          "name": "C#3",
          "ticks": 26880,
          "time": 17.073140000000002,
          "velocity": 0.3937007874015748
        },
        {
          "duration": 0.48780400000000057,
          "durationTicks": 768,
          "midi": 49,
          "name": "C#3",
          "ticks": 27648,
          "time": 17.560944,
          "velocity": 0.3937007874015748
        },
        {
          "duration": 0.48780400000000057,
          "durationTicks": 768,
          "midi": 49,
          "name": "C#3",
          "ticks": 30720,
          "time": 19.51216,
          "velocity": 0.3937007874015748
        },
        {
          "duration": 0.487803999999997,
          "durationTicks": 768,
          "midi": 49,
          "name": "C#3",
          "ticks": 31488,
          "time": 19.999964000000002,
          "velocity": 0.3937007874015748
        },
        {
          "duration": 0.48780400000000057,
          "durationTicks": 768,
          "midi": 49,
          "name": "C#3",
          "ticks": 32256,
          "time": 20.487768,
          "velocity": 0.3937007874015748
        },
        {
          "duration": 0.48780400000000057,
          "durationTicks": 768,
          "midi": 49,
          "name": "C#3",
          "ticks": 35328,
          "time": 22.438984,
          "velocity": 0.3937007874015748
        },
        {
          "duration": 0.487803999999997,
          "durationTicks": 768,
          "midi": 49,
          "name": "C#3",
          "ticks": 36096,
          "time": 22.926788000000002,
          "velocity": 0.3937007874015748
        },
        {
          "duration": 0.48780400000000057,
          "durationTicks": 768,
          "midi": 49,
          "name": "C#3",
          "ticks": 36864,
          "time": 23.414592,
          "velocity": 0.3937007874015748
        },
        {
          "duration": 0.48780400000000057,
          "durationTicks": 768,
          "midi": 49,
          "name": "C#3",
          "ticks": 39936,
          "time": 25.365808,
          "velocity": 0.3937007874015748
        },
        {
          "duration": 0.48780400000000057,
          "durationTicks": 768,
          "midi": 49,
          "name": "C#3",
          "ticks": 40704,
          "time": 25.853612000000002,
          "velocity": 0.3937007874015748
        },
        {
          "duration": 0.487803999999997,
          "durationTicks": 768,
          "midi": 49,
          "name": "C#3",
          "ticks": 41472,
          "time": 26.341416000000002,
          "velocity": 0.3937007874015748
        },
        {
          "duration": 0.48780400000000057,
          "durationTicks": 768,
          "midi": 49,
          "name": "C#3",
          "ticks": 42240,
          "time": 26.82922,
          "velocity": 0.3937007874015748
        },
        {
          "duration": 0.48780400000000057,
          "durationTicks": 768,
          "midi": 49,
          "name": "C#3",
          "ticks": 43008,
          "time": 27.317024,
          "velocity": 0.3937007874015748
        },
        {
          "duration": 0.48780400000000057,
          "durationTicks": 768,
          "midi": 49,
          "name": "C#3",
          "ticks": 43776,
          "time": 27.804828,
          "velocity": 0.3937007874015748
        },
        {
          "duration": 0.48780400000000057,
          "durationTicks": 768,
          "midi": 48,
          "name": "C3",
          "ticks": 44544,
          "time": 28.292632,
          "velocity": 0.3937007874015748
        },
        {
          "duration": 0.48780400000000057,
          "durationTicks": 768,
          "midi": 49,
          "name": "C#3",
          "ticks": 45312,
          "time": 28.780436,
          "velocity": 0.3937007874015748
        },
        {
          "duration": 0.487803999999997,
          "durationTicks": 768,
          "midi": 49,
          "name": "C#3",
          "ticks": 46080,
          "time": 29.268240000000002,
          "velocity": 0.3937007874015748
        },
        {
          "duration": 0.48780400000000057,
          "durationTicks": 768,
          "midi": 49,
          "name": "C#3",
          "ticks": 49152,
          "time": 31.219456,
          "velocity": 0.3937007874015748
        },
        {
          "duration": 0.48780400000000057,
          "durationTicks": 768,
          "midi": 49,
          "name": "C#3",
          "ticks": 49920,
          "time": 31.70726,
          "velocity": 0.3937007874015748
        },
        {
          "duration": 0.487803999999997,
          "durationTicks": 768,
          "midi": 49,
          "name": "C#3",
          "ticks": 50688,
          "time": 32.195064,
          "velocity": 0.3937007874015748
        },
        {
          "duration": 0.4878040000000041,
          "durationTicks": 768,
          "midi": 49,
          "name": "C#3",
          "ticks": 51456,
          "time": 32.682868,
          "velocity": 0.3937007874015748
        },
        {
          "duration": 0.487803999999997,
          "durationTicks": 768,
          "midi": 49,
          "name": "C#3",
          "ticks": 52224,
          "time": 33.170672,
          "velocity": 0.3937007874015748
        },
        {
          "duration": 0.4878040000000041,
          "durationTicks": 768,
          "midi": 49,
          "name": "C#3",
          "ticks": 52992,
          "time": 33.658476,
          "velocity": 0.3937007874015748
        },
        {
          "duration": 0.487803999999997,
          "durationTicks": 768,
          "midi": 49,
          "name": "C#3",
          "ticks": 53760,
          "time": 34.146280000000004,
          "velocity": 0.3937007874015748
        },
        {
          "duration": 0.487803999999997,
          "durationTicks": 768,
          "midi": 49,
          "name": "C#3",
          "ticks": 54528,
          "time": 34.634084,
          "velocity": 0.3937007874015748
        },
        {
          "duration": 0.4878040000000041,
          "durationTicks": 768,
          "midi": 49,
          "name": "C#3",
          "ticks": 55296,
          "time": 35.121888,
          "velocity": 0.3937007874015748
        }
      ],
      "endOfTrackTicks": 56064
    },
    {
      "channel": 1,
      "controlChanges": {},
      "pitchBends": [],
      "instrument": {
        "family": "percussive",
        "number": 114,
        "name": "steel drums"
      },
      "name": "Steel Drums",
      "notes": [
        {
          "duration": 0.48780400000000057,
          "durationTicks": 768,
          "midi": 48,
          "name": "C3",
          "ticks": 18432,
          "time": 11.707296,
          "velocity": 0.3937007874015748
        },
        {
          "duration": 0.48780400000000057,
          "durationTicks": 768,
          "midi": 48,
          "name": "C3",
          "ticks": 19200,
          "time": 12.1951,
          "velocity": 0.3937007874015748
        },
        {
          "duration": 0.48780400000000057,
          "durationTicks": 768,
          "midi": 48,
          "name": "C3",
          "ticks": 28416,
          "time": 18.048748,
          "velocity": 0.3937007874015748
        },
        {
          "duration": 0.48780400000000057,
          "durationTicks": 768,
          "midi": 48,
          "name": "C3",
          "ticks": 29184,
          "time": 18.536552,
          "velocity": 0.3937007874015748
        },
        {
          "duration": 0.48780400000000057,
          "durationTicks": 768,
          "midi": 48,
          "name": "C3",
          "ticks": 29952,
          "time": 19.024356,
          "velocity": 0.3937007874015748
        },
        {
          "duration": 0.48780400000000057,
          "durationTicks": 768,
          "midi": 48,
          "name": "C3",
          "ticks": 33024,
          "time": 20.975572,
          "velocity": 0.3937007874015748
        },
        {
          "duration": 0.48780400000000057,
          "durationTicks": 768,
          "midi": 48,
          "name": "C3",
          "ticks": 33792,
          "time": 21.463376,
          "velocity": 0.3937007874015748
        },
        {
          "duration": 0.48780400000000057,
          "durationTicks": 768,
          "midi": 48,
          "name": "C3",
          "ticks": 34560,
          "time": 21.95118,
          "velocity": 0.3937007874015748
        },
        {
          "duration": 0.48780400000000057,
          "durationTicks": 768,
          "midi": 48,
          "name": "C3",
          "ticks": 37632,
          "time": 23.902396,
          "velocity": 0.3937007874015748
        },
        {
          "duration": 0.48780400000000057,
          "durationTicks": 768,
          "midi": 48,
          "name": "C3",
          "ticks": 38400,
          "time": 24.3902,
          "velocity": 0.3937007874015748
        },
        {
          "duration": 0.48780400000000057,
          "durationTicks": 768,
          "midi": 48,
          "name": "C3",
          "ticks": 39168,
          "time": 24.878004,
          "velocity": 0.3937007874015748
        },
        {
          "duration": 0.48780400000000057,
          "durationTicks": 768,
          "midi": 48,
          "name": "C3",
          "ticks": 46848,
          "time": 29.756044,
          "velocity": 0.3937007874015748
        },
        {
          "duration": 0.48780400000000057,
          "durationTicks": 768,
          "midi": 48,
          "name": "C3",
          "ticks": 47616,
          "time": 30.243848,
          "velocity": 0.3937007874015748
        },
        {
          "duration": 0.48780400000000057,
          "durationTicks": 768,
          "midi": 48,
          "name": "C3",
          "ticks": 48384,
          "time": 30.731652,
          "velocity": 0.3937007874015748
        },
        {
          "duration": 0.487803999999997,
          "durationTicks": 768,
          "midi": 48,
          "name": "C3",
          "ticks": 56064,
          "time": 35.609692,
          "velocity": 0.3937007874015748
        },
        {
          "duration": 0.4878040000000041,
          "durationTicks": 768,
          "midi": 48,
          "name": "C3",
          "ticks": 56832,
          "time": 36.097496,
          "velocity": 0.3937007874015748
        },
        {
          "duration": 0.487803999999997,
          "durationTicks": 768,
          "midi": 48,
          "name": "C3",
          "ticks": 57600,
          "time": 36.585300000000004,
          "velocity": 0.3937007874015748
        }
      ],
      "endOfTrackTicks": 58368
    }
  ]
}
